<?xml version="1.0" encoding="UTF-8"?><svg id="a" xmlns="http://www.w3.org/2000/svg" viewBox="0 0 667.64 472.07"><g opacity=".8"><path d="M61.75,360.46c2.08,0,3.95.2,5.62.59,1.66.39,3.23,1.03,4.71,1.91l-2.5,4.71c-1.2-.55-2.37-.96-3.5-1.21-1.13-.25-2.51-.38-4.12-.38-3.84,0-6.9,1.26-9.19,3.78-2.29,2.52-3.8,6.55-4.54,12.1-.28,2.17-.42,4.05-.42,5.62,0,3.84.76,6.49,2.29,7.97,1.52,1.48,3.65,2.22,6.38,2.22,1.99,0,3.75-.32,5.3-.97,1.55-.65,2.99-1.57,4.33-2.77l1.8,4.02c-1.85,1.71-3.85,2.98-6,3.81-2.15.83-4.63,1.25-7.45,1.25-4.21,0-7.51-1.18-9.91-3.54-2.4-2.36-3.6-6.22-3.6-11.58,0-.97.03-1.98.1-3.02s.2-2.16.38-3.36c.97-7.07,3.18-12.36,6.62-15.88,3.44-3.51,8.01-5.27,13.69-5.27Z" fill="#646363"/><path d="M94.75,360.46c5.08,0,8.76,1.14,11.02,3.43,2.26,2.29,3.4,5.95,3.4,10.99,0,1.06-.05,2.17-.14,3.33-.09,1.16-.23,2.38-.42,3.67-.51,3.65-1.27,6.82-2.29,9.5-1.02,2.68-2.35,4.89-3.99,6.62-1.64,1.73-3.6,3.02-5.89,3.85-2.29.83-4.98,1.25-8.08,1.25-5.04,0-8.7-1.14-10.99-3.43-2.29-2.29-3.43-5.93-3.43-10.92,0-1.06.05-2.17.14-3.33.09-1.16.23-2.4.42-3.74.51-3.65,1.27-6.82,2.29-9.5,1.02-2.68,2.33-4.89,3.95-6.62,1.62-1.73,3.58-3.02,5.89-3.85,2.31-.83,5.01-1.25,8.11-1.25ZM93.85,365.8c-1.8,0-3.39.28-4.75.83-1.36.55-2.54,1.46-3.54,2.7-.99,1.25-1.84,2.9-2.53,4.96-.69,2.06-1.25,4.61-1.66,7.66-.19,1.29-.32,2.5-.42,3.6-.09,1.11-.14,2.13-.14,3.05,0,3.56.68,6.01,2.05,7.35,1.36,1.34,3.48,2.01,6.34,2.01,1.8,0,3.4-.28,4.78-.83,1.39-.56,2.59-1.47,3.6-2.74,1.02-1.27,1.87-2.95,2.56-5.03.69-2.08,1.25-4.65,1.66-7.69.18-1.2.31-2.33.38-3.4.07-1.06.1-2.06.1-2.98,0-3.6-.68-6.09-2.05-7.45-1.36-1.36-3.5-2.05-6.41-2.05Z" fill="#646363"/><path d="M140.64,376.96c.09-.79.17-1.51.24-2.18.07-.67.1-1.31.1-1.91,0-2.45-.46-4.18-1.39-5.2-.92-1.02-2.33-1.52-4.23-1.52-2.91,0-5.35,1.12-7.31,3.36-1.97,2.24-3.22,5.33-3.78,9.26l-3.26,23.64h-6.73l5.75-41.04,5.27-.42v5.48l.14.07c1.52-1.94,3.34-3.43,5.44-4.47,2.1-1.04,4.45-1.56,7.04-1.56,5.18,0,8.27,2.43,9.29,7.28l.14.07c1.52-2.36,3.42-4.17,5.69-5.44,2.26-1.27,4.83-1.91,7.69-1.91,6.52,0,9.78,3.81,9.78,11.44,0,1.53-.14,3.21-.42,5.06l-3.54,25.44h-6.73l3.54-25.44c.09-.79.17-1.53.24-2.22.07-.69.1-1.34.1-1.94,0-2.4-.45-4.1-1.35-5.1-.9-.99-2.3-1.49-4.19-1.49-3,0-5.47,1.17-7.38,3.5-1.92,2.33-3.18,5.6-3.78,9.81l-3.19,22.88h-6.73l3.54-25.44Z" fill="#646363"/><path d="M209.55,388.82c-.65,4.62-2.45,8.17-5.41,10.64-2.96,2.47-7.14,3.71-12.55,3.71-4.76,0-8.3-1.01-10.61-3.02-2.31-2.01-3.47-4.84-3.47-8.49,0-.92.07-1.87.21-2.84l3.88-27.45,6.79-.42-3.95,27.8c-.05.37-.08.7-.1,1.01s-.03.59-.03.87c0,4.67,2.68,7,8.04,7,6.15,0,9.64-2.96,10.47-8.87l3.88-27.59h6.73l-3.88,27.66Z" fill="#646363"/><path d="M246.43,376.48c.09-.65.16-1.28.21-1.91.05-.62.07-1.19.07-1.7,0-2.5-.54-4.25-1.63-5.27-1.09-1.02-2.74-1.52-4.96-1.52-3.28,0-6.06,1.11-8.32,3.33-2.27,2.22-3.67,5.32-4.23,9.29l-3.33,23.71h-6.73l5.75-41.04,5.34-.42.07,3.05v1.39c0,.46-.02.93-.07,1.39l.14.07c1.62-2.08,3.59-3.66,5.93-4.75,2.33-1.09,4.93-1.63,7.8-1.63,7.35,0,11.02,3.79,11.02,11.37,0,.65-.03,1.35-.1,2.11-.07.76-.15,1.54-.24,2.32l-3.6,26.14h-6.73l3.61-25.93Z" fill="#646363"/><path d="M260.23,402.41l5.75-41.04,6.79-.42-5.82,41.46h-6.73ZM271.11,347.01c2.59,0,3.88.93,3.88,2.77,0,1.43-.42,2.46-1.25,3.09-.83.62-2.03.94-3.6.94-1.29,0-2.26-.2-2.91-.59-.65-.39-.97-1.07-.97-2.05,0-2.77,1.62-4.16,4.85-4.16Z" fill="#646363"/><path d="M299.81,360.46c1.62,0,3.13.09,4.54.28,1.41.19,2.72.46,3.92.83l2.01-14,6.79-.42-7.77,55.25h-5.13l-.21-2.7c-.05-.46-.07-.92-.07-1.39v-1.46l-.14-.07c-1.76,2.13-3.8,3.71-6.14,4.75-2.33,1.04-4.84,1.56-7.52,1.56-3.74,0-6.61-1.05-8.6-3.15-1.99-2.1-2.98-5.67-2.98-10.71s.51-9.08,1.52-12.69c1.02-3.6,2.46-6.6,4.33-8.98,1.87-2.38,4.11-4.16,6.73-5.34,2.61-1.18,5.51-1.77,8.7-1.77ZM292.46,397.76c3.23,0,5.99-1.17,8.25-3.5,2.26-2.33,3.7-5.53,4.3-9.6l2.5-17.61c-1.94-.74-4.44-1.11-7.49-1.11-3.98,0-7.13,1.33-9.46,3.99-2.33,2.66-3.9,6.85-4.68,12.58-.19,1.2-.31,2.3-.38,3.29-.07.99-.1,1.93-.1,2.81,0,1.76.16,3.22.49,4.4.32,1.18.78,2.11,1.39,2.81.6.69,1.34,1.19,2.22,1.49.88.3,1.87.45,2.98.45Z" fill="#646363"/><path d="M345.29,360.53c1.15,0,2.19.03,3.12.1.92.07,1.79.14,2.6.21.81.07,1.61.14,2.39.21.78.07,1.64.1,2.56.1h.9l-5.75,41.25h-5.27v-5.82l-.14-.07c-1.76,2.22-3.8,3.87-6.14,4.96-2.33,1.09-4.84,1.63-7.52,1.63-3.93,0-6.89-1.06-8.87-3.19-1.99-2.13-2.98-5.57-2.98-10.33,0-4.44.59-8.43,1.77-11.99,1.18-3.56,2.85-6.61,5.03-9.15,2.17-2.54,4.81-4.49,7.9-5.86,3.1-1.36,6.56-2.04,10.4-2.04ZM334.27,397.76c3.23,0,5.99-1.17,8.25-3.5,2.26-2.33,3.7-5.53,4.3-9.6l2.63-18.44c-.79-.09-1.56-.17-2.32-.24-.76-.07-1.63-.1-2.6-.1-4.76,0-8.59,1.5-11.47,4.51-2.89,3-4.75,7.49-5.58,13.45-.28,2.03-.42,3.79-.42,5.27,0,3.19.6,5.43,1.8,6.72,1.2,1.29,3,1.94,5.41,1.94Z" fill="#646363"/><path d="M383.28,360.46c1.62,0,3.13.09,4.54.28,1.41.19,2.72.46,3.92.83l2.01-14,6.79-.42-7.77,55.25h-5.13l-.21-2.7c-.05-.46-.07-.92-.07-1.39v-1.46l-.14-.07c-1.76,2.13-3.8,3.71-6.14,4.75-2.33,1.04-4.84,1.56-7.52,1.56-3.74,0-6.61-1.05-8.6-3.15-1.99-2.1-2.98-5.67-2.98-10.71s.51-9.08,1.52-12.69c1.02-3.6,2.46-6.6,4.33-8.98,1.87-2.38,4.11-4.16,6.73-5.34,2.61-1.18,5.51-1.77,8.7-1.77ZM375.93,397.76c3.23,0,5.99-1.17,8.25-3.5,2.26-2.33,3.7-5.53,4.3-9.6l2.5-17.61c-1.94-.74-4.44-1.11-7.49-1.11-3.98,0-7.13,1.33-9.46,3.99-2.33,2.66-3.9,6.85-4.68,12.58-.19,1.2-.31,2.3-.38,3.29-.07.99-.1,1.93-.1,2.81,0,1.76.16,3.22.49,4.4.32,1.18.78,2.11,1.39,2.81.6.69,1.34,1.19,2.22,1.49.88.3,1.87.45,2.98.45Z" fill="#646363"/><path d="M451.22,360.53c1.15,0,2.19.03,3.12.1.92.07,1.79.14,2.6.21.81.07,1.61.14,2.39.21.78.07,1.64.1,2.56.1h.9l-5.75,41.25h-5.27v-5.82l-.14-.07c-1.76,2.22-3.8,3.87-6.14,4.96-2.33,1.09-4.84,1.63-7.52,1.63-3.93,0-6.89-1.06-8.87-3.19-1.99-2.13-2.98-5.57-2.98-10.33,0-4.44.59-8.43,1.77-11.99,1.18-3.56,2.85-6.61,5.03-9.15,2.17-2.54,4.81-4.49,7.9-5.86,3.1-1.36,6.56-2.04,10.4-2.04ZM440.2,397.76c3.23,0,5.99-1.17,8.25-3.5,2.26-2.33,3.7-5.53,4.3-9.6l2.63-18.44c-.79-.09-1.56-.17-2.32-.24-.76-.07-1.63-.1-2.6-.1-4.76,0-8.59,1.5-11.47,4.51-2.89,3-4.75,7.49-5.58,13.45-.28,2.03-.42,3.79-.42,5.27,0,3.19.6,5.43,1.8,6.72,1.2,1.29,3,1.94,5.41,1.94Z" fill="#646363"/><path d="M488.87,360.46c2.08,0,3.95.2,5.62.59,1.66.39,3.23,1.03,4.71,1.91l-2.5,4.71c-1.2-.55-2.37-.96-3.5-1.21-1.13-.25-2.51-.38-4.12-.38-3.84,0-6.9,1.26-9.19,3.78-2.29,2.52-3.8,6.55-4.54,12.1-.28,2.17-.42,4.05-.42,5.62,0,3.84.76,6.49,2.29,7.97,1.52,1.48,3.65,2.22,6.38,2.22,1.99,0,3.75-.32,5.3-.97,1.55-.65,2.99-1.57,4.33-2.77l1.8,4.02c-1.85,1.71-3.85,2.98-6,3.81-2.15.83-4.63,1.25-7.45,1.25-4.21,0-7.51-1.18-9.91-3.54-2.4-2.36-3.6-6.22-3.6-11.58,0-.97.03-1.98.1-3.02s.2-2.16.38-3.36c.97-7.07,3.18-12.36,6.62-15.88,3.44-3.51,8.01-5.27,13.69-5.27Z" fill="#646363"/><path d="M504.19,361.36h5.96l2.56-10.75,5.41-.83-1.59,11.58h11.37l-1.11,5.06h-11.02l-3.19,22.67c-.14,1.06-.21,2.01-.21,2.84,0,2.03.39,3.48,1.18,4.33.79.85,1.94,1.28,3.47,1.28.92,0,1.88-.16,2.88-.48.99-.32,1.95-.76,2.88-1.32l.14,4.71c-1.06.69-2.32,1.27-3.78,1.73-1.46.46-2.99.69-4.61.69-2.96,0-5.19-.77-6.69-2.32-1.5-1.55-2.25-3.99-2.25-7.31,0-.6.02-1.22.07-1.87.05-.65.11-1.34.21-2.08l3.19-22.88h-5.89l1.04-5.06Z" fill="#646363"/><path d="M531.02,402.41l5.75-41.04,6.79-.42-5.82,41.46h-6.73ZM541.9,347.01c2.59,0,3.88.93,3.88,2.77,0,1.43-.42,2.46-1.25,3.09-.83.62-2.03.94-3.6.94-1.29,0-2.26-.2-2.91-.59-.65-.39-.97-1.07-.97-2.05,0-2.77,1.62-4.16,4.85-4.16Z" fill="#646363"/><path d="M583.98,360.19c.37,1.34.67,2.73.9,4.16.23,1.43.35,2.96.35,4.58,0,3.79-.45,7.27-1.35,10.43-.9,3.17-2.05,6.01-3.43,8.53-1.39,2.52-2.96,4.74-4.71,6.66-1.76,1.92-3.49,3.51-5.2,4.78-1.71,1.27-3.32,2.22-4.82,2.84-1.5.62-2.69.94-3.57.94-1.02,0-2.15-.36-3.4-1.07-1.25-.72-2.42-1.86-3.5-3.43-1.09-1.57-2-3.58-2.74-6.03-.74-2.45-1.11-5.38-1.11-8.81,0-1.06.05-2.18.14-3.36.09-1.18.23-2.41.42-3.71l2.15-15.32,6.79-.42-2.22,15.74c-.23,1.39-.38,2.7-.45,3.95-.07,1.25-.1,2.4-.1,3.47,0,2.31.17,4.28.52,5.89.35,1.62.79,2.95,1.32,3.99.53,1.04,1.11,1.8,1.73,2.29.62.48,1.21.73,1.77.73.92,0,2.23-.65,3.92-1.94,1.69-1.29,3.35-3.15,4.99-5.58,1.64-2.43,3.07-5.38,4.3-8.87,1.22-3.49,1.84-7.43,1.84-11.82,0-2.59-.28-4.9-.83-6.93l6.31-1.66Z" fill="#646363"/><path d="M615.11,360.53c1.15,0,2.19.03,3.12.1.92.07,1.79.14,2.6.21.81.07,1.61.14,2.39.21.78.07,1.64.1,2.56.1h.9l-5.75,41.25h-5.27v-5.82l-.14-.07c-1.76,2.22-3.8,3.87-6.14,4.96-2.33,1.09-4.84,1.63-7.52,1.63-3.93,0-6.89-1.06-8.87-3.19-1.99-2.13-2.98-5.57-2.98-10.33,0-4.44.59-8.43,1.77-11.99,1.18-3.56,2.85-6.61,5.03-9.15,2.17-2.54,4.81-4.49,7.9-5.86,3.1-1.36,6.56-2.04,10.4-2.04ZM604.09,397.76c3.23,0,5.99-1.17,8.25-3.5,2.26-2.33,3.7-5.53,4.3-9.6l2.63-18.44c-.79-.09-1.56-.17-2.32-.24-.76-.07-1.63-.1-2.6-.1-4.76,0-8.59,1.5-11.47,4.51-2.89,3-4.75,7.49-5.58,13.45-.28,2.03-.42,3.79-.42,5.27,0,3.19.6,5.43,1.8,6.72,1.2,1.29,3,1.94,5.41,1.94Z" fill="#646363"/></g><path d="M134.58,209.08l10.82-5.43c3.95-1.98,7.96-3.98,12.09-5.86,8.17-3.83,16.59-7.49,25.16-10.98,17.06-6.91,34.57-13.1,52.33-18.38,35.53-10.64,72.11-17.9,108.95-20.45,25.41-1.79,50.94-1.2,76.13,2.14,11.33,1.44,22.66,3.47,33.85,6.2,6.75,1.58,13.4,3.51,20.06,5.59,28.78,9,56.45,22.34,81.9,40.04l22.29-26.53c-18.49-18.33-39.4-34.69-62.02-48.55-14.16-8.64-28.95-16.42-44.26-23-23.14-10.05-47.35-17.65-72.01-23.22-17.82-4-35.91-6.97-54.01-8.87-43.3-4.52-86.88-3.53-129.87,1.51-21.54,2.53-42.96,6.12-64.22,10.7-10.66,2.26-21.28,4.79-31.94,7.73-5.35,1.39-10.71,2.89-16.09,4.53-5.61,1.72-10.53,3.23-17.18,5.67l48,107.14h.01Z" fill="#646363"/><path d="M68.27,308.38c-8.02,0-15.69-2.18-23.16-5.92l-2.85,18.98c7.45,3.83,16.68,6.01,26.22,6.01,19.82,0,31.86-10.29,31.86-26.75,0-27.74-35.91-23.13-35.91-33.31,0-3.21,1.73-5.62,10.64-5.62,5.78,0,12.82,1.11,19.94,3.18l2.62-18.51c-6.66-2.63-15.66-4.15-23.91-4.15-22.01,0-31.34,11.83-31.34,26.3,0,27.72,36.07,23.45,36.07,33.54,0,4.06-2.82,6.23-10.18,6.23Z" fill="#646363"/><path d="M133.88,257.76c-8.95,0-16.96,1.4-23.85,4.37l1.62,15.97c6.36-2.26,10.77-3.36,18.34-3.36,8.21,0,11.05,2.74,11.05,7.68v2.41c-3.16-.89-6.79-1.44-11.3-1.44-15,0-23.89,8.87-23.89,21.13,0,15.08,7.92,22.53,20.93,22.53,7.11,0,13.05-2.45,17.48-6.59l1.53,5.47h16.2v-40.57c0-18.48-6.91-27.6-28.09-27.6ZM141.03,305c0,3.59-3.92,6.15-8.42,6.15s-7.04-2.02-7.04-6.81,2.66-7.16,8.23-7.16c3.31,0,5.72.55,7.24,1v6.81Z" fill="#646363"/><path d="M231.36,325.92v-41.85c0-17-9.09-26.43-23.2-26.43-6.62,0-12.87,2.07-17.79,6.02l-2.95-5.29-15.15.9v66.65h21.06v-46.58c1.89-2.42,5.25-3.84,8.8-3.84,5.33,0,8.08,2.42,8.08,8.57v41.85h21.16Z" fill="#646363"/><polygon points="289.46 291.07 289.35 282.17 289.61 282.06 292.55 290.49 306.04 325.92 321.05 325.92 334.54 290.75 337.62 282.31 337.96 282.41 337.71 291.3 337.71 325.92 358.67 325.92 358.67 243.7 333.7 243.7 317.12 285.84 314.15 294.03 313.81 294.03 310.76 285.68 294.4 243.7 269.32 243.7 269.32 325.92 289.46 325.92 289.46 291.07" fill="#646363"/><path d="M424.09,285.35c0-18.48-6.91-27.6-28.05-27.6-8.98,0-16.99,1.4-23.89,4.37l1.66,15.97c6.33-2.26,10.71-3.36,18.28-3.36,8.21,0,11.05,2.74,11.05,7.68v2.41c-3.18-.89-6.78-1.44-11.26-1.44-15.04,0-23.92,8.87-23.92,21.13,0,15.08,7.88,22.53,20.97,22.53,7.09,0,13.02-2.45,17.41-6.59l1.51,5.47h16.22v-40.57ZM403.15,305c0,3.59-3.93,6.15-8.44,6.15-4.26,0-6.98-2.02-6.98-6.81s2.59-7.16,8.16-7.16c3.33,0,5.72.55,7.26,1v6.81Z" fill="#646363"/><path d="M453.38,268.28h-.34l-1.9-9.68-16.73.82v66.51h21.15v-33.43c0-9.55,5.49-14.81,13.6-14.81,2.85,0,5.58.41,7.8,1.11l1.19-19.95c-1.76-.66-4.4-1.08-7.57-1.08-6.9,0-13.07,3.29-17.2,10.52Z" fill="#646363"/><path d="M522.52,324.95l-1.08-14.71c-1.24.46-3.49.8-5.15.8-4.81,0-6.92-1.9-6.92-6.15v-30.82h13.95v-15.23h-13.95v-15.68l-16.63,1.45-3.41,14.23h-7.47v15.23h6.38v31.34c0,13.18,6.86,21.64,21.58,21.64,5.29,0,10.3-.92,12.69-2.09Z" fill="#646363"/><polygon points="533.08 254.37 548.75 254.37 562.34 238.35 538.53 238.35 533.08 254.37" fill="#646363"/><polygon points="531.96 325.92 553.57 325.92 553.57 258.47 531.96 259.49 531.96 325.92" fill="#646363"/><path d="M601.95,257.64c-6.61,0-12.88,2.07-17.82,6.02l-2.94-5.29-15.11.9v66.65h21.03v-46.58c1.87-2.42,5.24-3.84,8.78-3.84,5.33,0,8.12,2.42,8.12,8.57v41.85h21.16v-41.85c0-17-9.12-26.43-23.22-26.43Z" fill="#646363"/></svg>