<?xml version="1.0" encoding="UTF-8"?><svg id="c" xmlns="http://www.w3.org/2000/svg" viewBox="0 0 1180.9 1424.92"><path d="M805.79,1424.01c-4.77-12.73-6.68-29.24-1.75-41.93,16.33-42.06,41.11-81.71,45.37-132.13,17.83-210.77-221.35-279.18-309.44-356.09-94.72-82.66-11.69-154.66,53.56-183.21,10.87-4.76,8.7-21.48-3.02-22.74-.1-.01-.2-.02-.29-.03-62.95-6.68-242.45,90.1-253.31,200.91-10.89,111.14,98.4,165.3,143.1,216.98,141.43,163.51-86.06,292.24-191.23,315.81-4.9.97-6.68,1.43-16.96,3.34h534.03c.09-.26-.04-.84-.06-.9Z" fill="#eae1da"/></svg>