<?xml version="1.0" encoding="UTF-8"?>
<svg id="TEXTS" xmlns="http://www.w3.org/2000/svg" version="1.1" viewBox="0 0 1744.15 202.94">
  <!-- Generator: Adobe Illustrator 30.3.0, SVG Export Plug-In . SVG Version: 2.1.3 Build 182)  -->
  <defs>
    <style>
      .st0 {
        fill: #4c4946;
      }

      .st1 {
        fill: #fff6eb;
      }

      .st2 {
        fill: #52504d;
      }

      .st3 {
        opacity: .8;
      }

      .st4 {
        fill: #2d2926;
      }

      .st5 {
        fill: #3f3c39;
      }
    </style>
  </defs>
  <g>
    <g class="st3">
      <g>
        <path class="st5" d="M34.78,147.05c.79,0,1.51.08,2.14.22.63.15,1.23.39,1.8.73l-.95,1.8c-.46-.21-.9-.37-1.33-.46-.43-.1-.96-.15-1.57-.15-1.46,0-2.63.48-3.5,1.44-.87.96-1.45,2.5-1.73,4.61-.11.83-.16,1.54-.16,2.14,0,1.46.29,2.47.87,3.04.58.56,1.39.85,2.43.85.76,0,1.43-.12,2.02-.37.59-.25,1.14-.6,1.65-1.06l.69,1.53c-.7.65-1.47,1.14-2.29,1.45-.82.32-1.77.48-2.84.48-1.6,0-2.86-.45-3.78-1.35-.92-.9-1.37-2.37-1.37-4.41,0-.37.01-.75.04-1.15.03-.4.07-.82.15-1.28.37-2.7,1.21-4.71,2.52-6.05,1.31-1.34,3.05-2.01,5.22-2.01Z"/>
        <path class="st5" d="M47.36,147.05c1.94,0,3.34.44,4.2,1.31.86.87,1.29,2.27,1.29,4.19,0,.41-.02.83-.05,1.27-.04.44-.09.91-.16,1.4-.19,1.39-.48,2.6-.87,3.62-.39,1.02-.89,1.86-1.52,2.52-.63.66-1.37,1.15-2.25,1.47-.87.32-1.9.48-3.08.48-1.92,0-3.32-.44-4.19-1.31-.87-.87-1.31-2.26-1.31-4.16,0-.41.02-.83.05-1.27.03-.44.09-.92.16-1.43.19-1.39.48-2.6.87-3.62.39-1.02.89-1.86,1.51-2.52.62-.66,1.36-1.15,2.25-1.47.88-.32,1.91-.48,3.09-.48ZM47.02,149.08c-.69,0-1.29.11-1.81.32-.52.21-.97.55-1.35,1.03-.38.48-.7,1.11-.96,1.89-.26.78-.48,1.76-.63,2.92-.07.49-.12.95-.16,1.37-.04.42-.05.81-.05,1.16,0,1.36.26,2.29.78,2.8.52.51,1.32.77,2.42.77.69,0,1.29-.11,1.82-.32.53-.21.99-.56,1.37-1.04.39-.48.71-1.12.98-1.92.26-.79.48-1.77.63-2.93.07-.46.12-.89.15-1.29.03-.4.04-.78.04-1.14,0-1.37-.26-2.32-.78-2.84-.52-.52-1.33-.78-2.44-.78Z"/>
        <path class="st5" d="M64.85,153.33c.04-.3.07-.58.09-.83.03-.25.04-.5.04-.73,0-.93-.18-1.59-.53-1.98-.35-.39-.89-.58-1.61-.58-1.11,0-2.04.43-2.79,1.28-.75.85-1.23,2.03-1.44,3.53l-1.24,9.01h-2.56l2.19-15.64,2.01-.16v2.09l.05.03c.58-.74,1.27-1.31,2.07-1.7.8-.4,1.69-.59,2.68-.59,1.97,0,3.15.92,3.54,2.77l.05.03c.58-.9,1.3-1.59,2.17-2.07.86-.48,1.84-.73,2.93-.73,2.48,0,3.73,1.45,3.73,4.36,0,.58-.05,1.22-.16,1.93l-1.35,9.7h-2.56l1.35-9.7c.04-.3.07-.58.09-.85.03-.26.04-.51.04-.74,0-.92-.17-1.56-.52-1.94-.34-.38-.88-.57-1.6-.57-1.15,0-2.08.45-2.81,1.33-.73.89-1.21,2.14-1.44,3.74l-1.22,8.72h-2.56l1.35-9.7Z"/>
        <path class="st5" d="M91.11,157.85c-.25,1.76-.93,3.11-2.06,4.06-1.13.94-2.72,1.41-4.78,1.41-1.81,0-3.16-.38-4.04-1.15-.88-.77-1.32-1.84-1.32-3.24,0-.35.03-.71.08-1.08l1.48-10.46,2.59-.16-1.51,10.59c-.02.14-.03.27-.04.38,0,.11-.01.22-.01.33,0,1.78,1.02,2.67,3.07,2.67,2.34,0,3.67-1.13,3.99-3.38l1.48-10.52h2.56l-1.48,10.54Z"/>
        <path class="st5" d="M105.17,153.15c.03-.25.06-.49.08-.73.02-.24.03-.45.03-.65,0-.95-.21-1.62-.62-2.01-.41-.39-1.04-.58-1.89-.58-1.25,0-2.31.42-3.17,1.27-.86.85-1.4,2.03-1.61,3.54l-1.27,9.04h-2.56l2.19-15.64,2.03-.16.03,1.16v.53c0,.18,0,.35-.03.53l.05.03c.62-.79,1.37-1.4,2.26-1.81.89-.41,1.88-.62,2.97-.62,2.8,0,4.2,1.44,4.2,4.33,0,.25-.01.52-.04.81-.03.29-.06.59-.09.89l-1.37,9.96h-2.56l1.37-9.88Z"/>
        <path class="st5" d="M110.42,163.03l2.19-15.64,2.59-.16-2.22,15.8h-2.56ZM114.57,141.92c.99,0,1.48.35,1.48,1.06,0,.55-.16.94-.48,1.18-.32.24-.78.36-1.37.36-.49,0-.86-.07-1.11-.22-.25-.15-.37-.41-.37-.78,0-1.06.62-1.59,1.85-1.59Z"/>
        <path class="st5" d="M125.51,147.05c.62,0,1.19.04,1.73.11.54.07,1.03.18,1.49.32l.77-5.34,2.59-.16-2.96,21.06h-1.95l-.08-1.03c-.02-.18-.03-.35-.03-.53v-.55l-.05-.03c-.67.81-1.45,1.41-2.34,1.81-.89.4-1.85.59-2.87.59-1.43,0-2.52-.4-3.28-1.2-.76-.8-1.14-2.16-1.14-4.08s.19-3.46.58-4.83c.39-1.37.94-2.51,1.65-3.42.71-.91,1.57-1.59,2.56-2.03.99-.45,2.1-.67,3.32-.67ZM122.71,161.26c1.23,0,2.28-.44,3.14-1.33.86-.89,1.41-2.11,1.64-3.66l.95-6.71c-.74-.28-1.69-.42-2.85-.42-1.51,0-2.72.51-3.61,1.52-.89,1.01-1.48,2.61-1.78,4.8-.07.46-.12.88-.15,1.25-.03.38-.04.74-.04,1.07,0,.67.06,1.23.19,1.68.12.45.3.81.53,1.07.23.26.51.45.85.57.33.11.71.17,1.14.17Z"/>
        <path class="st5" d="M142.84,147.07c.44,0,.84.01,1.19.04.35.03.68.05.99.08s.61.05.91.08c.3.03.62.04.98.04h.34l-2.19,15.72h-2.01v-2.22l-.05-.03c-.67.85-1.45,1.48-2.34,1.89-.89.41-1.85.62-2.87.62-1.5,0-2.62-.4-3.38-1.22-.76-.81-1.14-2.12-1.14-3.94,0-1.69.22-3.21.67-4.57.45-1.36,1.09-2.52,1.92-3.49.83-.97,1.83-1.71,3.01-2.23,1.18-.52,2.5-.78,3.96-.78ZM138.64,161.26c1.23,0,2.28-.44,3.14-1.33.86-.89,1.41-2.11,1.64-3.66l1-7.03c-.3-.03-.59-.07-.89-.09-.29-.03-.62-.04-.99-.04-1.81,0-3.27.57-4.37,1.72-1.1,1.15-1.81,2.85-2.13,5.13-.11.78-.16,1.44-.16,2.01,0,1.22.23,2.07.69,2.56.46.49,1.15.74,2.06.74Z"/>
        <path class="st5" d="M157.32,147.05c.62,0,1.19.04,1.73.11.54.07,1.03.18,1.49.32l.77-5.34,2.59-.16-2.96,21.06h-1.95l-.08-1.03c-.02-.18-.03-.35-.03-.53v-.55l-.05-.03c-.67.81-1.45,1.41-2.34,1.81-.89.4-1.85.59-2.87.59-1.43,0-2.52-.4-3.28-1.2-.76-.8-1.14-2.16-1.14-4.08s.19-3.46.58-4.83c.39-1.37.94-2.51,1.65-3.42.71-.91,1.57-1.59,2.56-2.03.99-.45,2.1-.67,3.32-.67ZM154.52,161.26c1.23,0,2.28-.44,3.14-1.33.86-.89,1.41-2.11,1.64-3.66l.95-6.71c-.74-.28-1.69-.42-2.85-.42-1.51,0-2.72.51-3.61,1.52-.89,1.01-1.48,2.61-1.78,4.8-.07.46-.12.88-.15,1.25-.03.38-.04.74-.04,1.07,0,.67.06,1.23.19,1.68.12.45.3.81.53,1.07.23.26.51.45.85.57.33.11.71.17,1.14.17Z"/>
        <path class="st5" d="M183.21,147.07c.44,0,.84.01,1.19.04.35.03.68.05.99.08.31.03.61.05.91.08.3.03.62.04.98.04h.34l-2.19,15.72h-2.01v-2.22l-.05-.03c-.67.85-1.45,1.48-2.34,1.89-.89.41-1.85.62-2.87.62-1.5,0-2.62-.4-3.38-1.22-.76-.81-1.14-2.12-1.14-3.94,0-1.69.22-3.21.67-4.57.45-1.36,1.09-2.52,1.92-3.49.83-.97,1.83-1.71,3.01-2.23,1.18-.52,2.5-.78,3.96-.78ZM179.01,161.26c1.23,0,2.28-.44,3.14-1.33.86-.89,1.41-2.11,1.64-3.66l1-7.03c-.3-.03-.59-.07-.89-.09-.29-.03-.62-.04-.99-.04-1.81,0-3.27.57-4.37,1.72-1.1,1.15-1.81,2.85-2.13,5.13-.11.78-.16,1.44-.16,2.01,0,1.22.23,2.07.69,2.56.46.49,1.15.74,2.06.74Z"/>
        <path class="st5" d="M197.56,147.05c.79,0,1.51.08,2.14.22.63.15,1.23.39,1.8.73l-.95,1.8c-.46-.21-.9-.37-1.33-.46-.43-.1-.96-.15-1.57-.15-1.46,0-2.63.48-3.5,1.44-.87.96-1.45,2.5-1.73,4.61-.11.83-.16,1.54-.16,2.14,0,1.46.29,2.47.87,3.04.58.56,1.39.85,2.43.85.76,0,1.43-.12,2.02-.37.59-.25,1.14-.6,1.65-1.06l.69,1.53c-.7.65-1.47,1.14-2.29,1.45-.82.32-1.77.48-2.84.48-1.6,0-2.86-.45-3.78-1.35-.92-.9-1.37-2.37-1.37-4.41,0-.37.01-.75.04-1.15.03-.4.07-.82.15-1.28.37-2.7,1.21-4.71,2.52-6.05,1.31-1.34,3.05-2.01,5.22-2.01Z"/>
        <path class="st5" d="M203.39,147.39h2.27l.98-4.1,2.06-.32-.61,4.41h4.33l-.42,1.93h-4.2l-1.22,8.64c-.05.41-.08.77-.08,1.08,0,.78.15,1.33.45,1.65.3.33.74.49,1.32.49.35,0,.72-.06,1.1-.18.38-.12.74-.29,1.1-.5l.05,1.8c-.41.26-.89.48-1.44.66-.55.18-1.14.26-1.76.26-1.13,0-1.98-.29-2.55-.88-.57-.59-.86-1.52-.86-2.79,0-.23,0-.47.03-.71.02-.25.04-.51.08-.79l1.22-8.72h-2.25l.4-1.93Z"/>
        <path class="st5" d="M213.62,163.03l2.19-15.64,2.59-.16-2.22,15.8h-2.56ZM217.77,141.92c.99,0,1.48.35,1.48,1.06,0,.55-.16.94-.48,1.18-.32.24-.78.36-1.37.36-.49,0-.86-.07-1.11-.22-.25-.15-.37-.41-.37-.78,0-1.06.62-1.59,1.85-1.59Z"/>
        <path class="st5" d="M233.8,146.94c.14.51.25,1.04.34,1.59.09.55.13,1.13.13,1.74,0,1.44-.17,2.77-.52,3.98-.34,1.21-.78,2.29-1.31,3.25-.53.96-1.13,1.81-1.8,2.54-.67.73-1.33,1.34-1.98,1.82-.65.48-1.26.85-1.84,1.08-.57.24-1.03.36-1.36.36-.39,0-.82-.14-1.29-.41-.48-.27-.92-.71-1.33-1.31-.41-.6-.76-1.36-1.04-2.3-.28-.93-.42-2.05-.42-3.36,0-.4.02-.83.05-1.28s.09-.92.16-1.41l.82-5.84,2.59-.16-.85,6c-.09.53-.15,1.03-.17,1.51-.03.48-.04.92-.04,1.32,0,.88.07,1.63.2,2.25.13.62.3,1.12.5,1.52.2.4.42.69.66.87.24.18.46.28.67.28.35,0,.85-.25,1.49-.74.64-.49,1.28-1.2,1.9-2.13.62-.92,1.17-2.05,1.64-3.38.47-1.33.7-2.83.7-4.5,0-.99-.11-1.87-.32-2.64l2.4-.63Z"/>
        <path class="st5" d="M245.67,147.07c.44,0,.84.01,1.19.04.35.03.68.05.99.08s.61.05.91.08c.3.03.62.04.98.04h.34l-2.19,15.72h-2.01v-2.22l-.05-.03c-.67.85-1.45,1.48-2.34,1.89-.89.41-1.85.62-2.87.62-1.5,0-2.62-.4-3.38-1.22-.76-.81-1.14-2.12-1.14-3.94,0-1.69.22-3.21.67-4.57.45-1.36,1.09-2.52,1.92-3.49.83-.97,1.83-1.71,3.01-2.23,1.18-.52,2.5-.78,3.96-.78ZM241.47,161.26c1.23,0,2.28-.44,3.14-1.33.86-.89,1.41-2.11,1.64-3.66l1-7.03c-.3-.03-.59-.07-.89-.09-.29-.03-.62-.04-.99-.04-1.81,0-3.27.57-4.37,1.72-1.1,1.15-1.81,2.85-2.13,5.13-.11.78-.16,1.44-.16,2.01,0,1.22.23,2.07.69,2.56.46.49,1.14.74,2.06.74Z"/>
      </g>
    </g>
    <g>
      <path class="st5" d="M62.54,89.35l4.12-2.07c1.5-.76,3.03-1.52,4.61-2.23,3.11-1.46,6.32-2.86,9.59-4.18,6.5-2.63,13.17-4.99,19.94-7,13.54-4.06,27.48-6.82,41.52-7.79,9.68-.68,19.41-.46,29.01.82,4.32.55,8.64,1.32,12.9,2.36,2.57.6,5.11,1.34,7.65,2.13,10.97,3.43,21.51,8.51,31.21,15.26l8.5-10.11c-7.05-6.98-15.02-13.22-23.64-18.5-5.4-3.29-11.03-6.26-16.87-8.76-8.82-3.83-18.04-6.72-27.44-8.85-6.79-1.52-13.69-2.66-20.58-3.38-16.5-1.72-33.11-1.34-49.49.58-8.21.96-16.37,2.33-24.47,4.08-4.06.86-8.11,1.82-12.17,2.94-2.04.53-4.08,1.1-6.13,1.73-2.14.66-4.01,1.23-6.55,2.16l18.29,40.83h0Z"/>
      <path class="st5" d="M37.27,127.2c-3.05,0-5.98-.83-8.82-2.26l-1.09,7.23c2.84,1.46,6.36,2.29,9.99,2.29,7.55,0,12.14-3.92,12.14-10.19,0-10.57-13.69-8.82-13.69-12.69,0-1.22.66-2.14,4.06-2.14,2.2,0,4.88.42,7.6,1.21l1-7.05c-2.54-1-5.97-1.58-9.11-1.58-8.39,0-11.94,4.51-11.94,10.02,0,10.57,13.75,8.94,13.75,12.78,0,1.55-1.08,2.38-3.88,2.38Z"/>
      <path class="st5" d="M62.27,107.91c-3.41,0-6.46.53-9.09,1.67l.62,6.08c2.42-.86,4.1-1.28,6.99-1.28,3.13,0,4.21,1.05,4.21,2.93v.92c-1.2-.34-2.59-.55-4.31-.55-5.72,0-9.11,3.38-9.11,8.05,0,5.75,3.02,8.59,7.98,8.59,2.71,0,4.97-.93,6.66-2.51l.58,2.08h6.17v-15.46c0-7.04-2.63-10.52-10.71-10.52ZM65,125.91c0,1.37-1.49,2.35-3.21,2.35s-2.68-.77-2.68-2.6,1.02-2.73,3.14-2.73c1.26,0,2.18.21,2.76.38v2.6Z"/>
      <path class="st5" d="M99.42,133.88v-15.95c0-6.48-3.47-10.07-8.84-10.07-2.52,0-4.91.79-6.78,2.3l-1.12-2.02-5.77.34v25.4h8.02v-17.75c.72-.92,2-1.46,3.35-1.46,2.03,0,3.08.92,3.08,3.27v15.95h8.06Z"/>
      <polygon class="st5" points="121.56 120.6 121.52 117.21 121.62 117.17 122.74 120.38 127.88 133.88 133.6 133.88 138.74 120.48 139.92 117.26 140.05 117.3 139.95 120.69 139.95 133.88 147.94 133.88 147.94 102.55 138.42 102.55 132.1 118.61 130.97 121.73 130.84 121.73 129.68 118.55 123.45 102.55 113.89 102.55 113.89 133.88 121.56 133.88 121.56 120.6"/>
      <path class="st5" d="M172.87,118.42c0-7.04-2.63-10.52-10.69-10.52-3.42,0-6.48.53-9.1,1.67l.63,6.08c2.41-.86,4.08-1.28,6.97-1.28,3.13,0,4.21,1.05,4.21,2.93v.92c-1.21-.34-2.58-.55-4.29-.55-5.73,0-9.11,3.38-9.11,8.05,0,5.75,3,8.59,7.99,8.59,2.7,0,4.96-.93,6.64-2.51l.58,2.08h6.18v-15.46ZM164.89,125.91c0,1.37-1.5,2.35-3.22,2.35-1.62,0-2.66-.77-2.66-2.6s.99-2.73,3.11-2.73c1.27,0,2.18.21,2.77.38v2.6Z"/>
      <path class="st5" d="M184.03,111.92h-.13l-.73-3.69-6.37.31v25.35h8.06v-12.74c0-3.64,2.09-5.64,5.18-5.64,1.09,0,2.13.16,2.97.42l.45-7.6c-.67-.25-1.68-.41-2.88-.41-2.63,0-4.98,1.25-6.55,4.01Z"/>
      <path class="st5" d="M210.38,133.51l-.41-5.61c-.47.17-1.33.3-1.96.3-1.83,0-2.64-.72-2.64-2.34v-11.75h5.32v-5.8h-5.32v-5.98l-6.34.55-1.3,5.42h-2.85v5.8h2.43v11.94c0,5.02,2.61,8.25,8.22,8.25,2.02,0,3.92-.35,4.84-.8Z"/>
      <polygon class="st5" points="214.41 106.61 220.38 106.61 225.56 100.51 216.48 100.51 214.41 106.61"/>
      <polygon class="st5" points="213.98 133.88 222.21 133.88 222.21 108.18 213.98 108.57 213.98 133.88"/>
      <path class="st5" d="M240.65,107.86c-2.52,0-4.91.79-6.79,2.3l-1.12-2.02-5.76.34v25.4h8.01v-17.75c.71-.92,2-1.46,3.35-1.46,2.03,0,3.09.92,3.09,3.27v15.95h8.06v-15.95c0-6.48-3.47-10.07-8.85-10.07Z"/>
    </g>
  </g>
  <g>
    <g>
      <path class="st5" d="M411.58,99.89c.04.1.07.2.11.29,0,0,.01,0,.02.01.35.82,1.4,4.17,3.28,5.38,1.05.76,2.17.85,2.85.56,1.36-.63.94-2.7.27-3.64-.66-.68-3.91-4.1-5.41-7.56-.68-1.58-2.2-2.19-2.13-.15.06,1.79.4,3.36.88,4.73,0,0,0,.02,0,.02,0,0,.05.14.15.36Z"/>
      <path class="st5" d="M357.73,94.89c-1.47,3.41-4.68,6.79-5.33,7.46-.66.93-1.08,2.97.26,3.59.67.29,1.78.2,2.81-.55.55-.36,1.03-.9,1.44-1.51.26-.43.63-1.04,1-1.84.39-.86.65-1.62.79-1.95,0,0,.01,0,.02-.01.04-.09.07-.19.11-.29.09-.22.14-.36.14-.36,0,0,0-.01,0-.02.47-1.35.81-2.9.87-4.66.07-2.01-1.43-1.41-2.1.15Z"/>
      <path class="st5" d="M384.41,101.77c1.34.22,2.22-.86,2.76-2.09,1.01-2.29,1.16-4.69.74-7.11-.19-1.08-.59-2.18-1.87-2.49-1.32-.32-2.23.4-2.87,1.41-1.62,2.56-2.48,5.26-.93,8.23-.1.12,1.28,1.92,2.16,2.06Z"/>
      <path class="st5" d="M398.51,90.86c.6-.73.78-2.07.47-2.96-.25-.72-2.15-1.64-3.22-1.48-2.2.15-3.85.7-5.05,2.05-1.55,1.73-.37,4.22,2.12,4.4,2.23.16,4.36-.4,5.67-2Z"/>
      <path class="st5" d="M387.66,82.04c-1.39-.35-2.87-.47-4.31-.46-1.06,0-1.93.8-1.89,1.85.03.74.63,1.63,1.23,2.12.97.89,3.92.65,4.46.26.68-.49,1.32-1.29,1.53-2.09.12-.46-.54-1.56-1.02-1.68Z"/>
      <path class="st5" d="M362.41,114.26c-.42-1.5-1.11-2.96-1.89-4.31-.57-.99-1.75-1.4-2.68-.79-.65.42-1.14,1.46-1.26,2.29-.28,1.39,1.5,4.04,2.15,4.34.81.37,1.87.55,2.7.33.48-.13,1.12-1.34.98-1.86Z"/>
      <path class="st5" d="M372.64,84.45c2-.1,4.21-.43,5.9-2.19.75-.78.51-1.59-.5-2.13-2.54-1.34-5.37-.34-6.54,2.34-.41.93-.23,1.66,1.14,1.98Z"/>
      <path class="st5" d="M416.97,110.08c-1.72,2.32-1.24,5.35,1.14,6.98.82.57,1.56.52,2.1-.82.24-2.03.31-4.31-1.1-6.31-.62-.89-1.45-.78-2.14.14Z"/>
      <path class="st5" d="M399.64,98.27c.74-1.2.22-2.17-1.21-2.56-3.58-.99-6.92,1.08-7.69,4.81-.27,1.29.15,2.17,1.99,2.19,2.52-.7,5.23-1.73,6.91-4.44Z"/>
      <path class="st5" d="M401.71,88.85c.15.96.6,1.85,1.22,2.45.64.63,1.66.83,2.44,1.32,1.05.64,1.93-.3,2.1-1.34.48-2.65-1.97-4.55-2.78-4.78-.56-.16-1.48-.19-1.99.22-.51.41-1.07,1.62-.98,2.14Z"/>
      <path class="st5" d="M403.83,97.71c-.04,1.27,1.05,2.67,2.03,2.63,1.01-.04,2.35-1.83,2.36-3.13,0-1.05-.4-1.5-1.37-1.53-1.45-.03-2.99,1-3.02,2.03Z"/>
      <path class="st5" d="M410.43,116.09c1.3-.06,3.05-2.37,3.06-4.05,0-1.36-.52-1.95-1.78-1.98-1.88-.05-3.87,1.29-3.91,2.63-.05,1.64,1.36,3.46,2.63,3.41Z"/>
      <path class="st5" d="M400.19,124.41c-.72.83-.76,2.39-.08,2.92.7.55,2.58.12,3.3-.75.58-.7.55-1.24-.08-1.81-.96-.85-2.55-1.04-3.14-.36Z"/>
      <path class="st5" d="M387.57,104.61c-1.71-.23-3.61-.04-5.24.53-1.04.36-.82,2.68.11,3.68,1.11,1.2,3.47,1,4.83-.41,1.02-1.06,1.26-3.67.3-3.8Z"/>
      <path class="st5" d="M393.04,83.16c1.16.03,4.39-.89,3.77-2.29-.54-1.35-2.85-2.1-4.5-1.47-1.21.24-1.68,1.21-1.32,2.02.34.77,1.25,1.73,2.05,1.75Z"/>
      <path class="st5" d="M402.53,118.16c-1.26.76-1.39,2.03-.68,2.78.68.71,2.07,1.41,2.96,1.11,1.3-.44,4.53-2.78,3.29-4.09-1.13-1.28-3.99-1.17-5.57.21Z"/>
      <path class="st5" d="M399.82,83.1c1.09.66,1.81.73,3.07.9.75.1,1.19-.68.81-1.52-.51-1.16-2.2-1.89-3.39-1.53-1.03.31-1.42,1.59-.5,2.15Z"/>
      <path class="st5" d="M367,95.6c1.01.47,1.93-.43,1.77-1.77-.23-1.85-2.13-3.52-3.93-3.52-1.56,0-2.64,1.61-1.59,2.78,1.24,1.39,2.06,1.73,3.76,2.51Z"/>
      <path class="st5" d="M377.78,97.64c-.69-.98-1.82-1.64-2.37-2.12-2.21-.04-3.33.72-3.95,2.11-.64,1.43,0,2.61,1.16,3.37,1.29.83,2.65,1.62,4.09,2.11,1.62.55,2.68-.49,2.31-2.16-.25-1.15-.58-2.38-1.23-3.31Z"/>
      <path class="st5" d="M365.24,87.61c1.02.32,2.39-.79,3.03-2.59.24-.87.69-1.99-.7-2.56-1.03-.43-3.45.48-3.76,1.32-.4,1.09.52,3.55,1.43,3.84Z"/>
      <path class="st5" d="M412.74,130.47c-1.03-.43-3.45.48-3.76,1.32-.4,1.09.52,3.55,1.43,3.84,1.02.32,2.39-.79,3.03-2.59.24-.87.69-1.99-.7-2.56Z"/>
      <path class="st5" d="M378.51,87.99c-1.7-.72-3.59-1.12-4.76-1.47-2.65-.06-3.8.69-4.13,2.22-.43,2,1.09,3.81,3.47,4.2,2.38.39,4.15-.41,5.76-1.8,1.45-1.24,1.51-2.36-.34-3.15Z"/>
      <path class="st5" d="M415.22,119.18c-1.73.87-3.34,2.12-4.42,2.83-1.87,2.09-2.08,3.54-1.13,4.86,1.24,1.72,3.69,1.75,5.64.09,1.94-1.65,2.54-3.62,2.58-5.88.04-2.02-.78-2.84-2.67-1.89Z"/>
      <path class="st5" d="M352.72,110.08c-.69-.93-1.51-1.03-2.14-.14-1.41,2.01-1.34,4.28-1.1,6.31.54,1.33,1.28,1.38,2.1.82,2.38-1.64,2.86-4.66,1.14-6.98Z"/>
      <path class="st5" d="M366.66,124.78c-.64.57-.66,1.1-.08,1.81.71.87,2.6,1.3,3.3.75.68-.53.64-2.1-.08-2.92-.59-.67-2.18-.49-3.14.36Z"/>
      <path class="st5" d="M368.74,118.73c-1.92-.76-3-1.23-5.04-1.15-1.72.07-2.13,2.19-.91,3.45,1.41,1.45,4.35,1.75,5.95.5,1.17-.91,1.14-2.35,0-2.8Z"/>
      <path class="st5" d="M357.1,130.9c-1.4.58-.95,1.7-.7,2.56.64,1.8,2.01,2.91,3.03,2.59.92-.29,1.83-2.75,1.43-3.84-.31-.83-2.73-1.74-3.76-1.32Z"/>
      <path class="st5" d="M360.35,127.33c.95-1.32.74-2.76-1.13-4.86-1.08-.7-2.69-1.96-4.42-2.83-1.88-.95-2.7-.13-2.67,1.89.04,2.26.64,4.23,2.58,5.88,1.94,1.65,4.39,1.63,5.64-.09Z"/>
      <path class="st5" d="M364.7,100.74c1.17,0,1.83-.54,1.85-1.55.02-1.09-.62-1.71-1.8-1.72-1.33-.02-2.33.67-2.35,1.62-.02.98.91,1.64,2.3,1.65Z"/>
      <path class="st5" d="M411.02,86.43h0s2.89,2.19,5.14,6.79c.28.57.84.9,1.42.9.24,0,.48-.05.71-.17.78-.4-2.82-7.72-4.07-8.96,0,0,3.34-5.76,4.46-8.6.43-1.08-.25-1.6-.42-1.42l-7.49,9.06c-.64.72-.52,1.84.24,2.41Z"/>
      <path class="st5" d="M355.84,84.99c-1.25,1.24-4.85,8.56-4.07,8.96.23.12.47.17.71.17.58,0,1.14-.33,1.42-.9,2.25-4.6,5.11-6.77,5.14-6.79h0c.76-.57.88-1.69.24-2.41l-7.49-9.06c-.16-.18-.84.33-.42,1.42,1.12,2.84,4.46,8.6,4.46,8.6Z"/>
      <path class="st5" d="M377.73,117.58c-.35-3.88-1.35-6.64-1.72-7.55,0-.01,0-.02-.01-.03,0-.03-.02-.05-.03-.06-.06-.15-.1-.23-.1-.23-.78-1.53-2.74-5.07-9.51-4.77-.57,0-2.4.2-3.59.2-.62,0-.75.5-.66.73,3.95,10.31,10.09,8.1,12.7,10.33,2.2,2.93.34,9.05-.58,11.46-.39,1.01.76,1.37,1.04.71,1.74-3.68,2.67-6.75,2.43-10.59,0-.06.02-.13.03-.19ZM374.18,110.46c-.77,1.33-2.11,2.21-3.64,2.2-2.39-.02-4.33-2.2-4.33-4.88,0-.39.04-.76.12-1.12.04-.18.2-.54.82-.53.6.02,1.53.12,2.54.35-.04.05-.07.09-.1.15-.21.34-.34.79-.34,1.28,0,1.08.63,1.96,1.42,1.96s1.42-.88,1.42-1.96c0-.21-.02-.41-.07-.6,1.15.66,1.85,1.56,2.19,2.11.15.24.09.87-.02,1.06Z"/>
      <path class="st5" d="M407.8,105.86c.09-.22-.04-.73-.66-.73-1.19,0-3.02-.2-3.59-.2-6.76-.3-8.73,3.24-9.51,4.77,0,0-.04.08-.1.23,0,.02-.02.04-.03.06,0,.01,0,.02-.01.03-.37.91-1.37,3.67-1.72,7.55,0,.06.02.13.03.19-.24,3.84.69,6.91,2.43,10.59.28.66,1.42.3,1.04-.71-.92-2.4-2.78-8.52-.58-11.46,2.6-2.23,8.75-.02,12.7-10.33ZM399.36,112.66c-1.53.01-2.86-.87-3.64-2.2-.11-.19-.18-.82-.02-1.06.35-.55,1.04-1.45,2.19-2.11-.04.19-.07.39-.07.6,0,1.08.63,1.96,1.42,1.96s1.42-.88,1.42-1.96c0-.49-.13-.93-.34-1.28-.03-.05-.07-.1-.1-.15,1.01-.23,1.95-.33,2.54-.35.62-.02.79.35.82.53.08.36.12.73.12,1.12,0,2.68-1.94,4.87-4.33,4.88Z"/>
      <path class="st5" d="M424.12,97.86c3.09-7.54,4.35-11.89,4.18-19.29l-.18-2.64h-.01c-.1-4.19-2.51-7.14-6.47-8.19-4.73-1.25-11.51.71-15.87,6.57-.52.69-1.39,1.01-2.22.82-1.14-.26-2.31-.6-3.5-.94-4.55-1.32-9.68-2.8-15.18-.02-5.5-2.78-10.62-1.3-15.18.02-1.2.35-2.36.68-3.5.94-.83.19-1.7-.13-2.22-.82-4.36-5.86-11.14-7.82-15.87-6.57-4.04,1.07-6.46,4.3-6.46,8.63l-.04,1.99v.06s0,.09,0,.09c-.01.45-.02.89-.02,1.31v.12s0,0,0,0c0,6.56,1.28,10.82,4.15,17.86.67,1.66,0,4.47-.79,7.73-1.52,6.32-3.61,14.96,1.78,24.57,3.27,5.7,6.9,9.12,11.11,13.08,2.6,2.44,5.28,4.97,8.23,8.36,0,.02,0,.04,0,.06l1.72,1.86c-.18,1.93-.09,5.85,3.04,8.25.09.07.18.13.27.19,0,0,0,0,0,.01,2.08,1.44,5,1.92,7.82,2.37,3.28.53,8.65.53,11.93,0,2.95-.48,6.01-.97,8.1-2.57.19-.15.38-.3.55-.46,0,0,0,0,0,0,2.59-2.41,2.65-5.98,2.49-7.78l1.6-1.73s0-.03,0-.04c2.99-3.43,5.71-5.99,8.33-8.45,4.22-3.96,7.86-7.38,11.15-13.1,5.41-9.59,3.34-18.24,1.84-24.55-.78-3.26-1.45-6.07-.77-7.73ZM396.55,158.47c-1.31,1-3.98,1.43-6.34,1.81h0c-1.99.32-8.66.32-10.67,0h0c-2.36-.38-5.03-.82-6.34-1.82-1.75-1.34-1.56-4.02-1.44-4.93,12.34-.34,13.11-7.39,13.11-7.39,0,0,.77,7.05,13.12,7.39.12.91.31,3.6-1.44,4.93ZM421.12,106.5c1.43,6.01,3.22,13.48-1.43,21.73-3,5.2-6.45,8.44-10.44,12.19-.17.16-.34.31-.51.47-.11-4.54-3.4-8.21-5.26-10.54-.47-.59-1.06-.76-1.42-.35-.63.72-.01,1.42.33,1.82,2.02,2.34,3.49,5.4,3.5,7.67-.01.85-.06,1.57-.16,2.2l-3.48-1.47s-.95-.5-1.45.19c-.5.69.19,1.45,1.13,2.02.57.34,1.9,1.26,2.86,1.93-.16.26-.34.51-.54.77l-.49.62c-.05.05-.1.11-.15.16l-2.44-1.08s-1.04-.54-1.48-.03c-.44.5.03,1.42.85,1.86.29.16.84.57,1.42,1.02-.37.4-.74.81-1.11,1.23-.71.72-1.3,1.32-1.3,1.32-8.57,1.54-11.67-4.37-12.67-7.34-.32-.95-.29-2.33-.15-2.66.27-.68.76-1.24,1.61-1.44h0s.02,0,.02,0c3.53-.81,6.8-3.95,8.03-4.91.5-.39.68-1.29.42-1.84-.2-.38-.98-.57-1.75-.28-.36.13-.83.39-1.38.64-1.75.79-4.73,2.16-8.8,2.35h0s0,0,0,0c-4.07-.19-8.88-2.36-8.96-2.4-.52-.21-.94-.39-1.43-.52-.47-.19-1.24,0-1.39.28-.47.51-.39,1.31-.04,1.66,1.17,1.17,4.79,4.21,8.32,5.02.86.2,1.34.77,1.62,1.46.13.33.15,1.72-.19,2.72-1.03,2.99-4.14,8.78-12.64,7.26,0,0-.54-.59-1.24-1.35,0,0,0,0,0,0-.28-.31-.59-.65-.9-.98.64-.51,1.27-.98,1.6-1.15.82-.44,1.29-1.35.85-1.86-.44-.5-1.48.03-1.48.03l-2.62,1.16c-.39-.44-.66-.73-.67-.76-.19-.25-.36-.49-.52-.74.97-.68,2.44-1.7,3.05-2.06.95-.57,1.64-1.32,1.13-2.02-.5-.69-1.45-.19-1.45-.19l-3.69,1.57c0-.07-.02-.14-.03-.21-.03.04-.07.07-.11.11-.1-.64-.15-1.36-.16-2.23,0-2.27,1.48-5.33,3.5-7.67.34-.4.96-1.1.33-1.82-.35-.4-.94-.24-1.42.35-1.86,2.33-5.15,6.01-5.26,10.54-.21-.2-.41-.39-.62-.58-3.98-3.75-7.42-6.99-10.39-12.17-4.63-8.26-2.83-15.74-1.38-21.74.94-3.91,1.76-7.29.61-10.11-2.98-7.32-4.01-11.1-3.84-17.68l.17-2.38c.29-3.46,1.86-4.19,3.45-4.61,3.91-1.04,9.8,1.27,12.87,6.92.38.7,1.13,1.11,1.91,1.03h0c2.39-.22,4.68-.89,6.89-1.53,4.66-1.35,8.68-2.52,13.11.14l.96.58v.02s0,0,0,0h0s0,0,0,0c0,0,0,0,0,0h0s0,0,0,0c0,0,0,0,0,0h0s0,0,0,0c0,0,0,0,0,0v-.02l.96-.58c4.42-2.66,8.45-1.49,13.11-.14,2.21.64,4.5,1.31,6.89,1.53h0c.78.07,1.53-.33,1.91-1.03,3.07-5.65,8.96-7.95,12.87-6.92,1.46.39,3.18,1.4,3.45,4,.01.04.21,1.66.27,2.16l.06.89c.15,6.58-.89,10.36-3.89,17.68-1.15,2.81-.35,6.19.58,10.1Z"/>
    </g>
    <g>
      <g>
        <path class="st5" d="M452.29,94.11h-10.27v-6.84h27.96v6.84h-10.27v26.89h-7.42v-26.89Z"/>
        <path class="st5" d="M475.52,87.27h7.42v33.74h-7.42v-33.74Z"/>
        <path class="st5" d="M489.4,104.24v-.1c0-9.59,7.47-17.45,17.69-17.45,6.07,0,9.74,1.64,13.26,4.63l-4.68,5.64c-2.6-2.17-4.92-3.42-8.82-3.42-5.4,0-9.69,4.77-9.69,10.51v.1c0,6.17,4.24,10.7,10.22,10.7,2.7,0,5.11-.67,6.99-2.02v-4.82h-7.47v-6.41h14.65v14.65c-3.47,2.94-8.24,5.35-14.41,5.35-10.51,0-17.74-7.37-17.74-17.35Z"/>
        <path class="st5" d="M528.2,87.27h15.42c4.29,0,7.62,1.2,9.83,3.42,1.88,1.88,2.89,4.53,2.89,7.71v.1c0,5.45-2.94,8.87-7.23,10.46l8.24,12.05h-8.68l-7.23-10.8h-5.83v10.8h-7.42v-33.74ZM543.14,103.66c3.62,0,5.69-1.93,5.69-4.77v-.1c0-3.18-2.22-4.82-5.83-4.82h-7.37v9.69h7.52Z"/>
        <path class="st5" d="M562.56,87.27h25.45v6.6h-18.07v6.84h15.91v6.6h-15.91v7.09h18.32v6.6h-25.69v-33.74Z"/>
      </g>
      <g>
        <path class="st5" d="M449.18,129.25h2.06l6.58,9.85,6.58-9.85h2.06v18.05h-2.04v-14.62l-6.58,9.67h-.1l-6.58-9.65v14.6h-1.99v-18.05Z"/>
        <path class="st5" d="M471.44,139.74v-10.5h2.04v10.37c0,3.89,2.06,6.09,5.52,6.09s5.44-2.01,5.44-5.96v-10.5h2.04v10.34c0,5.26-3.02,8-7.53,8s-7.51-2.73-7.51-7.84Z"/>
        <path class="st5" d="M491.46,129.25h1.91l11.37,14.47v-14.47h1.99v18.05h-1.62l-11.66-14.81v14.81h-1.99v-18.05Z"/>
        <path class="st5" d="M512.18,129.25h2.04v18.05h-2.04v-18.05Z"/>
        <path class="st5" d="M518.86,138.33v-.05c0-5.11,3.82-9.34,9.13-9.34,3.28,0,5.24,1.16,7.04,2.86l-1.39,1.5c-1.52-1.44-3.22-2.48-5.67-2.48-4,0-6.99,3.25-6.99,7.4v.05c0,4.18,3.02,7.45,6.99,7.45,2.48,0,4.1-.95,5.83-2.61l1.34,1.32c-1.88,1.91-3.95,3.17-7.22,3.17-5.21,0-9.05-4.1-9.05-9.29Z"/>
        <path class="st5" d="M539.03,129.25h2.04v18.05h-2.04v-18.05Z"/>
        <path class="st5" d="M546.51,129.25h6.76c4.08,0,6.76,2.17,6.76,5.73v.05c0,3.89-3.25,5.91-7.09,5.91h-4.38v6.37h-2.04v-18.05ZM553.01,139.07c2.99,0,4.95-1.6,4.95-3.97v-.05c0-2.58-1.93-3.92-4.85-3.92h-4.57v7.94h4.46Z"/>
        <path class="st5" d="M564.08,129.25h2.04v18.05h-2.04v-18.05Z"/>
        <path class="st5" d="M570.76,138.33v-.05c0-4.98,3.74-9.34,9.23-9.34s9.18,4.31,9.18,9.29v.05c0,4.98-3.74,9.34-9.23,9.34s-9.18-4.31-9.18-9.29ZM587.06,138.33v-.05c0-4.1-2.99-7.45-7.12-7.45s-7.07,3.3-7.07,7.4v.05c0,4.1,2.99,7.45,7.12,7.45s7.07-3.3,7.07-7.4Z"/>
      </g>
    </g>
  </g>
  <g>
    <path class="st5" d="M934.51,129.04c0-6.53,5.29-11.81,11.81-11.82h0c6.53,0,11.82,5.29,11.82,11.82h0c0,6.53-5.29,11.81-11.82,11.81h0c-6.52,0-11.81-5.29-11.81-11.81h0ZM938.06,129.04c0,4.56,3.7,8.26,8.26,8.27h0c4.57,0,8.26-3.7,8.27-8.27h0c0-4.57-3.7-8.26-8.27-8.27h0c-4.56,0-8.26,3.7-8.26,8.27h0Z"/>
    <path class="st5" d="M911.82,140.63l.08-21.19v-1.75h7.54c6.49.01,11.81,5.11,11.81,11.47h0c0,6.37-5.32,11.46-11.81,11.47h-7.62ZM915.38,137.11h4.05c4.59,0,8.26-3.59,8.27-7.96h0c0-4.36-3.67-7.96-8.27-7.96h-3.99l-.06,15.92h0Z"/>
    <path class="st5" d="M802.04,105.43h3.87l2.15-4.9h8.95l2.32,4.9h3.93l-11.04-23.28-10.19,23.28ZM815.61,97.57h-6.25l3-6.86,3.25,6.86ZM840.34,82.9v14.33l-14.63-15.05v23.25h3.55v-14.51l14.63,15.05v-23.08h-3.55Z"/>
    <path class="st5" d="M864.49,140.39h3.87l2.15-4.9h8.95l2.32,4.9h3.93l-11.04-23.28-10.19,23.28ZM878.06,132.53h-6.25l3-6.86,3.25,6.86Z"/>
    <polygon class="st5" points="902.79 117.75 902.79 132.19 888.16 117.14 888.16 140.39 891.71 140.39 891.71 125.88 906.34 140.93 906.34 117.75 902.79 117.75"/>
    <polygon class="st5" points="858.01 117.7 858.01 132.19 843.38 117.14 843.38 140.39 846.93 140.39 846.93 125.88 861.56 140.93 861.56 117.7 858.01 117.7"/>
    <polygon class="st5" points="823.63 152.26 823.63 159.67 816.14 151.97 816.14 163.87 817.96 163.87 817.96 156.44 825.45 164.15 825.45 152.26 823.63 152.26"/>
    <path class="st5" d="M835.04,131.81c.87-.39,1.63-.94,2.21-1.62,1.22-1.39,1.75-3.16,1.75-4.88,0-1.81-.57-3.64-1.74-5.09-1.15-1.46-3.02-2.51-5.21-2.49h-8.55v22.62h3.55v-7.87h4.18l5.25,8.03h4.24l-5.67-8.68ZM831.83,128.92h-4.78v-7.65h5c1.11.01,1.84.44,2.45,1.17.59.73.96,1.82.95,2.87,0,1.01-.32,1.93-.86,2.54-.55.61-1.32,1.05-2.76,1.07ZM788.26,140.49h3.55v-9.94h9.44v-3.55h-9.44v-5.71h10.3v-3.55h0s-13.85,0-13.85,0v22.75ZM808.6,130.55h9.44v-3.55h-9.44v-5.71h10.31v-3.55h-13.85v22.75h13.91v-3.53h-10.36v-6.4Z"/>
    <path class="st5" d="M872.67,158.06c0-3.34,2.71-6.05,6.05-6.05h0c3.34,0,6.05,2.71,6.05,6.05h0c0,3.34-2.71,6.05-6.05,6.05h0c-3.34,0-6.05-2.71-6.05-6.05h0ZM874.48,158.06c0,2.34,1.9,4.23,4.23,4.23h0c2.34,0,4.23-1.89,4.23-4.23h0c0-2.34-1.89-4.23-4.23-4.23h0c-2.34,0-4.23,1.89-4.23,4.23h0Z"/>
    <path class="st5" d="M862.64,158.65c.62-.71.89-1.62.89-2.5,0-.93-.29-1.86-.89-2.61-.59-.75-1.54-1.28-2.67-1.28h-4.38v11.58h1.82v-4.03h2.14c1.88,0,2.79-.82,3.09-1.16ZM859.86,158h-2.45v-3.91h2.56c.57,0,.94.22,1.25.6.3.37.49.93.49,1.47,0,.51-.16.99-.44,1.3-.28.31-.68.54-1.41.55Z"/>
    <path class="st5" d="M841.5,162.3c-2.34,0-4.23-1.89-4.23-4.23,0-2.34,1.9-4.23,4.23-4.23,1.29,0,2.44.58,3.21,1.48l1.12-1.47c-1.1-1.13-2.63-1.83-4.33-1.83-3.34,0-6.05,2.71-6.05,6.05s2.71,6.05,6.05,6.05c1.68,0,3.2-.68,4.29-1.79l-1.47-1.12c-.75.67-1.74,1.09-2.82,1.09Z"/>
    <rect class="st5" x="829.75" y="152.28" width="1.81" height="11.65"/>
    <rect class="st5" x="849.19" y="152.28" width="1.81" height="11.65"/>
    <rect class="st5" x="866.77" y="152.28" width="1.81" height="11.65"/>
    <path class="st5" d="M809.86,152.27v7.95c-.01.83-.33,1.36-.84,1.77-.52.4-1.29.64-2.06.64-.77,0-1.53-.23-2.05-.63-.52-.41-.83-.94-.84-1.78v-7.95h-1.67v7.95c0,1.33.6,2.43,1.49,3.1.88.68,1.98.98,3.07.99,1.09,0,2.2-.31,3.08-.99.88-.67,1.5-1.77,1.49-3.09v-7.95h-1.67Z"/>
    <polygon class="st5" points="788.11 163.91 788.11 156.78 792.18 162.61 796.39 156.76 796.39 163.91 798.07 163.91 798.06 151.58 792.2 159.72 786.44 151.48 786.44 163.91 788.11 163.91"/>
    <path class="st5" d="M751.52,90.02s29.57,30.42,17.14,71.84l-39.86-7.97c10.69-13.6,25.75-23.64,22.72-63.87Z"/>
    <path class="st5" d="M724.31,155.55l2.52-3.2c5.04-6.39,10.67-11.72,15.01-19.27,4.33-7.53,7.54-17.32,7.57-32.95-.45-13.04-1.64-28.63-3.82-47.28,0,0-15.91,63.63-80.13,109l67.75,4.71s2.87-3.57,6.03-7.83l-14.93-3.18Z"/>
    <path class="st5" d="M791.75,94.72h0,0s0,0,0,0ZM798.04,94.08c-.38-.22-.83-.47-1.3-.73h0s0,0-.01,0c-1.39-.75-2.95-1.55-3.31-1.73-.39-.22-.74-.41-.97-.56-.49-.3-.86-.62-1.09-.95-.23-.33-.36-.65-.37-1.26h0v-.04s0-.03,0-.03c.02-.78.4-1.55,1.06-2.15.66-.6,1.56-.97,2.42-.96,1.37-.02,3.01.68,4.05,1.57.17.14.43.37.67.57l1.49-3.34c-1.64-1.34-3.83-2.3-6.2-2.32-3.58.03-6.83,2.76-6.98,6.53,0,.09,0,.14,0,.16,0,1.28.4,2.43,1.02,3.29.61.86,1.39,1.45,2.1,1.89.32.2.73.43,1.17.67h0s.02.01.04.02c1.37.75,3.02,1.58,3.32,1.73.43.23.83.46,1.15.64,1.03.61,1.57,1.49,1.56,2.37v.07c-.03.86-.44,1.64-1.17,2.27-.74.62-1.8,1.04-2.99,1.04-.06,0-.12,0-.19,0-2.16-.06-4.08-.58-5.07-1.76-.02-.03-.05-.06-.07-.08l-1.76,3.18c2.01,1.69,4.59,2.09,6.8,2.17.1,0,.19,0,.29,0,2,0,3.85-.69,5.25-1.86,1.4-1.17,2.36-2.89,2.42-4.83v-.02s0-.03,0-.03v-.13c0-2.36-1.43-4.31-3.3-5.39Z"/>
  </g>
  <g id="Capa_2">
    <g>
      <g>
        <path class="st5" d="M1471.21,83.52c-.23-.46.06-.92.57-.92h4.7c.29,0,.52.23.57.4l5.79,12.9h.23l5.85-12.9c.06-.17.34-.4.63-.4h4.7c.52,0,.8.46.57.92l-11.12,23.74c-.11.23-.34.4-.57.4h-.34c-.29,0-.52-.17-.57-.4l-11.01-23.74Z"/>
        <path class="st5" d="M1497.01,83.29c0-.34.29-.69.69-.69h4.24c.34,0,.69.34.69.69v23.34c0,.34-.34.69-.69.69h-4.24c-.34,0-.69-.34-.69-.69v-23.34Z"/>
        <path class="st5" d="M1504.8,83.52c-.23-.46.06-.92.63-.92h4.7c.29,0,.52.23.57.4l5.79,12.9h.23l5.85-12.9c.06-.17.29-.4.57-.4h4.7c.52,0,.8.46.57.92l-11.12,23.74c-.11.23-.29.4-.57.4h-.34c-.29,0-.52-.17-.57-.4l-11.01-23.74h0Z"/>
        <path class="st5" d="M1527.4,106.4l11.07-23.74c.11-.23.34-.4.63-.4h.34c.23,0,.52.17.57.4l11.01,23.74c.23.46-.06.92-.57.92h-3.9c-.63,0-.92-.23-1.26-.86l-1.26-2.81h-9.58l-1.26,2.81c-.17.4-.57.86-1.26.86h-3.9c-.52,0-.8-.46-.63-.92M1541.9,98.88l-2.69-5.85h0l-2.64,5.85h5.39-.06Z"/>
        <path class="st5" d="M1555.72,82.89c0-.34.34-.57.63-.57h.57c.17,0,.52.17.57.34l8.2,15.25h.06l8.2-15.25c.11-.23.4-.34.57-.34h.57c.29,0,.57.23.63.57l3.96,23.74c.06.46-.23.8-.69.8h-4.19c-.34,0-.63-.29-.69-.57l-1.61-10.89h-.06l-5.96,11.41c-.11.23-.4.4-.63.4h-.63c-.23,0-.52-.17-.57-.4l-5.96-11.41h-.06l-1.55,10.89c0,.29-.29.57-.69.57h-4.19c-.4,0-.75-.34-.69-.8l4.01-23.74h.17Z"/>
        <path class="st5" d="M1594.42,82.31c7.05,0,12.67,5.68,12.67,12.73s-5.68,12.67-12.73,12.67-12.67-5.62-12.67-12.67,5.62-12.73,12.67-12.73M1594.42,102.1c3.9,0,7.05-3.15,7.05-7s-3.15-7.11-7.05-7.11-7,3.21-7.05,7.11c0,3.84,3.15,7,7,7.05"/>
        <path class="st5" d="M1609.27,104.04l1.66-2.92c.29-.46.97-.4,1.2-.23.17.06,2.69,1.95,4.99,1.95,1.43,0,2.41-.86,2.41-2.12s-1.2-2.64-3.61-3.55c-3.04-1.2-6.82-3.55-6.82-7.8,0-3.5,2.75-7,8.14-7,3.67,0,6.48,1.89,7.57,2.64.4.23.34.86.23,1.15l-1.78,2.69c-.23.4-.86.69-1.2.46-.34-.17-2.87-2.12-5.05-2.12s-2.24.86-2.24,1.78,1.03,2.29,3.84,3.44c2.75,1.09,7.11,3.27,7.11,8.03,0,3.61-3.15,7.28-8.31,7.28-4.59,0-7.11-1.89-7.91-2.75-.34-.34-.46-.52-.17-.97"/>
      </g>
      <path class="st0" d="M1662.02,78.53c-1.32,0-20.81,24.88-20.81,48.45,0,18.35,8.66,28.5,15.6,32.05,0,0,9.52,5.91,18.23,5.56h1.2c-6.77-5.05.11-13.93.11-13.93,3.67-5.33,6.48-13.02,6.54-23.22v-.8c-.17-23.45-19.49-48.05-20.76-48.05h-.06l-.06-.06Z"/>
      <path class="st0" d="M1696.36,78.53c-1.32,0-20.81,24.88-20.81,48.45,0,10.49,2.81,18.29,6.54,23.68,0,0,6.88,8.89.11,13.93h1.2c8.72.29,18.23-5.56,18.23-5.56,6.88-3.55,15.54-13.59,15.65-31.76v-.52c-.11-23.45-19.44-48.22-20.76-48.22h-.17Z"/>
      <path class="st2" d="M1679.22,72.22c-.63,0-5.56,5.85-10.44,14.56h0c3.5,5.39,7.63,12.79,10.49,20.93h0v-.23c2.92-7.97,6.88-15.14,10.32-20.35l.17-.29h0c-4.87-8.77-9.8-14.62-10.44-14.62h-.11Z"/>
      <path class="st5" d="M1668.44,87.36c-5.1,9.17-10.09,21.44-10.09,33.31,0,19.09,9.35,29.3,16.4,32.45h0l.29-.46c.69-1.2,1.26-2.01,1.26-2.01,3.67-5.33,6.48-12.96,6.54-23.16v-.92c-.06-6.31-1.49-12.73-3.61-18.75h0c-2.87-8.26-7-15.65-10.49-20.99l-.29.52h0Z"/>
      <path class="st5" d="M1679.22,107.77h0c-2.18,6.19-3.61,12.73-3.67,19.21,0,10.49,2.81,18.29,6.54,23.68,0,0,.63.75,1.26,2.01l.29.46c7.05-3.15,16.4-13.36,16.46-32.45,0-11.87-4.93-24.14-10.03-33.31l-.29-.52c-3.5,5.33-7.63,12.67-10.55,20.87v.06Z"/>
      <path class="st4" d="M1679.22,107.83c-2.18,6.13-3.61,12.67-3.67,19.15,0,7.45,1.43,13.53,3.55,18.4v.17c2.24-4.87,3.73-11.01,3.73-18.52,0-6.48-1.43-13.02-3.61-19.15h0c0-.06,0,0,0,0v-.06Z"/>
      <path class="st1" d="M1670.05,126c0,5.56,4.07,10.09,9.17,10.09s9.17-4.53,9.17-10.09-4.07-10.09-9.17-10.09-9.17,4.53-9.17,10.09"/>
      <path class="st1" d="M1692.06,163.33c-1.89.57-3.96,1.09-6.02,1.32,0,0-8.72,1.15-15.42-.29-1.49-.29-2.92-.63-4.3-1.09v-.23c-.23-1.09-.4-2.12-.63-3.21,0,0-2.06-10.61-6.54-21.5-4.47-10.89.11-26.66.11-26.66,0,0-2.69,29.76,19.67,29.76h.57c22.36,0,19.72-29.76,19.72-29.76,0,0,4.59,15.77.06,26.66-4.47,10.89-6.54,21.5-6.54,21.5-.23,1.03-.4,2.12-.57,3.21v.23l-.11.06Z"/>
      <path class="st5" d="M1376.37,119.12c-.23-.46.06-.92.57-.92h1.43c.34,0,.52.23.57.4l8.77,19.78h.11l8.83-19.78c.06-.17.29-.4.57-.4h1.43c.52,0,.8.46.57.92l-10.72,23.74c-.11.23-.34.4-.57.4h-.34c-.23,0-.52-.17-.57-.4,0,0-10.66-23.74-10.66-23.74Z"/>
      <path class="st5" d="M1402.46,118.89c0-.34.34-.69.69-.69h1.43c.34,0,.69.34.69.69v23.34c0,.34-.34.69-.69.69h-1.43c-.34,0-.69-.34-.69-.69v-23.34Z"/>
      <path class="st5" d="M1422.64,117.86c3.55,0,6.13,1.26,8.54,3.27.29.29.29.69,0,.97l-.97.97c-.29.34-.57.29-.92,0-1.83-1.61-4.36-2.64-6.71-2.64-5.56,0-9.86,4.7-9.86,10.15s4.24,10.15,9.86,10.15c3.1,0,4.87-1.2,6.77-2.64.34-.29.63-.23.86-.11l1.03.97c.29.23.23.69,0,.97-2.41,2.35-5.45,3.44-8.6,3.44-7.05,0-12.73-5.62-12.73-12.67s5.68-12.73,12.73-12.73"/>
      <path class="st5" d="M1435.94,118.89c0-.34.29-.69.69-.69h13.88c.4,0,.69.34.69.69v1.03c0,.34-.29.69-.69.69h-11.87v8.6h10.15c.34,0,.69.34.69.69v1.03c0,.4-.34.69-.69.69h-10.15v9h11.87c.4,0,.69.34.69.69v1.03c0,.34-.29.69-.69.69h-13.93c-.4,0-.69-.34-.69-.69v-23.34l.06-.11Z"/>
      <path class="st5" d="M1456.13,118.55c0-.34.29-.63.69-.63h.86l15.88,19.84h.06v-18.81c0-.34.29-.69.69-.69h1.2c.34,0,.69.34.69.69v23.74c0,.34-.34.63-.69.63h-.63l-16.17-20.24h0v19.21c0,.34-.29.69-.69.69h-1.2c-.34,0-.69-.34-.69-.69v-23.74Z"/>
      <path class="st5" d="M1486.23,120.61h-6.13c-.4,0-.69-.34-.69-.69v-1.03c0-.34.29-.69.69-.69h14.96c.4,0,.69.34.69.69v1.03c0,.34-.29.69-.69.69h-6.13v21.67c0,.34-.29.69-.69.69h-1.32c-.34,0-.69-.34-.69-.69v-21.67h0Z"/>
      <path class="st5" d="M1498.9,118.95c0-.34.29-.69.69-.69h13.93c.4,0,.69.34.69.69v1.03c0,.34-.29.69-.69.69h-11.87v8.6h10.15c.34,0,.69.34.69.69v1.03c0,.4-.29.69-.69.69h-10.15v9h11.87c.4,0,.69.34.69.69v1.03c0,.34-.29.69-.69.69h-13.88c-.4,0-.69-.34-.69-.69v-23.34l-.06-.11Z"/>
      <path class="st5" d="M1526.19,118.95c0-.34.29-.69.69-.69h1.38c.34,0,.69.34.69.69v21.67h10.15c.4,0,.69.29.69.69v1.03c0,.34-.29.69-.69.69h-12.21c-.4,0-.69-.34-.69-.69v-23.39Z"/>
      <path class="st5" d="M1553.66,117.98c7.05,0,12.73,5.68,12.67,12.73,0,7.05-5.68,12.67-12.73,12.67s-12.67-5.62-12.67-12.67,5.62-12.73,12.67-12.73M1553.66,140.91c5.62,0,10.26-4.59,10.26-10.21s-4.59-10.26-10.21-10.26-10.21,4.64-10.21,10.26,4.59,10.21,10.21,10.21M1550.5,114.59c-.11-.29,0-.57.23-.69l5.27-2.98c.23-.11.75-.23.92.11l.63,1.26c.11.29.06.63-.23.75l-5.68,2.35c-.52.23-.69.23-.8-.06l-.34-.8v.06Z"/>
      <path class="st5" d="M1571.09,119.01c0-.34.29-.69.69-.69h7.8c4.36,0,7.91,3.55,7.91,7.8s-3.55,7.91-7.86,7.91h-5.85v8.31c0,.34-.34.69-.69.69h-1.32c-.4,0-.69-.34-.69-.69v-23.34h0ZM1579.34,131.45c2.87,0,5.39-2.35,5.39-5.39,0-2.87-2.47-5.05-5.33-5.05h-5.62v10.44h5.62-.06Z"/>
      <path class="st5" d="M1591.38,119.01c0-.34.29-.69.69-.69h13.93c.4,0,.69.34.69.69v1.03c0,.34-.29.69-.69.69h-11.87v8.6h10.15c.34,0,.69.34.69.69v1.03c0,.4-.34.69-.69.69h-10.15v9h11.87c.4,0,.69.34.69.69v1.03c0,.34-.29.69-.69.69h-13.88c-.4,0-.69-.34-.69-.69v-23.34l-.06-.11Z"/>
      <path class="st5" d="M1609.04,141.77l12.84-20.81v-.11h-11.12c-.34,0-.69-.34-.69-.69v-1.15c0-.34.34-.69.69-.69h14.28c.34,0,.69.34.69.69v.46l-13.02,21.04h11.64c.4,0,.69.34.69.69v1.15c0,.34-.29.69-.69.69h-14.62c-.34,0-.69-.34-.69-.69v-.63.06Z"/>
    </g>
  </g>
  <g>
    <path class="st5" d="M1166.2,112.23c-2.5.02-4.97-.55-7.21-1.66,0-2.01.1-4.49.31-7.44h.31c1.14,2.6,2.26,4.49,3.36,5.67.47.52,1.03.95,1.67,1.25.63.3,1.32.48,2.02.51.7.04,1.4-.07,2.06-.31.66-.24,1.27-.6,1.78-1.08.47-.48.84-1.06,1.08-1.69.24-.63.35-1.31.32-1.98,0-.78-.16-1.56-.5-2.27-.4-.75-.95-1.42-1.62-1.95-.62-.53-1.27-1.02-1.95-1.48-.55-.36-1.38-.85-2.49-1.48s-2.01-1.15-2.64-1.57c-.74-.51-1.45-1.08-2.13-1.68-.74-.62-1.34-1.4-1.74-2.28-.4-.88-.6-1.84-.58-2.81-.04-1.08.17-2.16.61-3.16.44-.99,1.09-1.88,1.91-2.58,1.68-1.46,3.86-2.2,6.55-2.2,1.13,0,3.47.43,6.99,1.3-.21,2.72-.32,5.05-.31,6.99h-.36c-.33-.78-.59-1.39-.81-1.84-.28-.58-.59-1.14-.94-1.68-.36-.6-.81-1.14-1.32-1.61-.51-.42-1.07-.77-1.68-1.03-.7-.3-1.46-.46-2.22-.45-1.27-.05-2.5.39-3.45,1.23-.66.64-1.09,1.47-1.26,2.37-.16.9-.04,1.83.36,2.66.34.65.81,1.23,1.39,1.68.64.54,1.22.99,1.75,1.34.53.36,1.27.82,2.22,1.39,1.08.62,1.84,1.08,2.31,1.37.46.28,1.13.76,2.01,1.42.71.51,1.35,1.11,1.91,1.79.45.63.83,1.32,1.12,2.04.34.83.51,1.72.5,2.62.03,1.16-.18,2.31-.64,3.37s-1.13,2.02-1.99,2.79c-1.76,1.6-3.99,2.4-6.71,2.4Z"/>
    <path class="st5" d="M1176.37,111.56v-.36c1.05-.31,2.02-.85,2.83-1.59.86-.96,1.53-2.08,1.97-3.29l10-24.01h.4l11.66,25.55c.34.89.87,1.7,1.55,2.38.71.54,1.55.88,2.44,1.01v.36c-4.06-.09-8.14-.09-12.23,0v-.36c.12-.04.24-.07.36-.09.75-.18,1.29-.33,1.64-.45.35-.13.68-.32.96-.56.14-.11.25-.25.33-.41.08-.16.12-.34.12-.51-.01-.44-.12-.86-.31-1.25l-2.2-5.04h-11.25l-1.51,3.63c-.27.61-.43,1.26-.45,1.92,0,1.43,1.23,2.36,3.68,2.78v.36c-3.33-.13-6.65-.16-9.97-.07ZM1185.29,101.25h9.91l-4.89-11.43h-.32l-4.7,11.43Z"/>
    <path class="st5" d="M1235.72,112.14l-19.95-23.89h-.31l.09,10.58.04,8.06c0,1.32.34,2.27,1.01,2.87.67.6,1.98,1.08,3.92,1.44v.36c-3.79-.09-7.57-.09-11.34,0v-.36c1.73-.39,2.9-.88,3.5-1.48s.9-1.54.9-2.82v-19.4c.08-1.06-.27-2.11-.96-2.92-.64-.67-1.79-1.16-3.43-1.48v-.36c2.72.09,5.44.09,8.16,0l17.25,20.75h.36l-.18-8.15v-7.93c0-1.34-.34-2.32-1.03-2.92-.69-.6-1.97-1.06-3.85-1.39v-.36c3.69.09,7.39.09,11.08,0v.36c-1.56.34-2.64.81-3.25,1.43-.61.62-.92,1.57-.92,2.87v24.74h-1.08Z"/>
    <path class="st5" d="M1166.24,148.89c0,1.01.23,1.72.7,2.13.46.41,1.5.79,3.12,1.14v.36c-4.07-.09-8.1-.09-12.09,0v-.36c1.61-.36,2.65-.74,3.12-1.14.46-.4.69-1.11.69-2.13v-21.56c0-1.01-.23-1.73-.69-2.13-.46-.4-1.51-.78-3.12-1.14v-.36c4,.09,8.03.09,12.09,0v.36c-1.62.36-2.66.74-3.12,1.14-.46.4-.69,1.11-.7,2.13v21.56Z"/>
    <path class="st5" d="M1181.66,153.2c-2.5.02-4.97-.55-7.21-1.66,0-2.01.1-4.49.31-7.44h.31c1.14,2.6,2.26,4.49,3.36,5.67.47.52,1.03.95,1.67,1.25.63.3,1.32.48,2.02.51.7.03,1.4-.07,2.06-.31.66-.24,1.27-.6,1.78-1.08.47-.49.83-1.06,1.07-1.69.24-.63.35-1.3.31-1.98.01-.78-.16-1.56-.5-2.27-.4-.75-.95-1.42-1.61-1.95-.62-.53-1.27-1.02-1.95-1.48-.55-.36-1.38-.85-2.49-1.48-1.11-.63-2.01-1.15-2.64-1.57-.74-.52-1.45-1.08-2.13-1.68-.74-.64-1.34-1.42-1.75-2.31-.38-.88-.57-1.82-.56-2.78-.04-1.08.17-2.16.61-3.16.44-.99,1.09-1.88,1.91-2.58,1.68-1.46,3.86-2.2,6.55-2.2,1.14,0,3.47.43,6.99,1.3-.21,2.72-.32,5.05-.32,6.99h-.36c-.33-.78-.59-1.39-.81-1.84-.29-.59-.61-1.15-.96-1.7-.36-.6-.81-1.14-1.32-1.61-.51-.42-1.07-.76-1.68-1.01-.7-.3-1.46-.46-2.22-.45-1.27-.05-2.5.39-3.45,1.23-.66.64-1.1,1.47-1.27,2.37s-.04,1.84.35,2.67c.34.65.81,1.23,1.39,1.68.64.54,1.23.99,1.75,1.34.52.36,1.26.82,2.22,1.39,1.07.62,1.84,1.08,2.31,1.37.46.28,1.13.76,2.01,1.41.71.51,1.35,1.11,1.9,1.79.46.63.83,1.32,1.12,2.04.34.83.51,1.72.5,2.62.04,1.16-.18,2.3-.63,3.37-.45,1.06-1.13,2.02-1.99,2.79-1.73,1.6-3.95,2.4-6.67,2.4Z"/>
    <path class="st5" d="M1202.01,148.89c0,1.01.23,1.72.7,2.13.46.41,1.5.79,3.12,1.14v.36c-4.06-.09-8.09-.09-12.09,0v-.36c1.61-.36,2.65-.74,3.11-1.14.46-.41.7-1.12.7-2.13v-21.56c0-1.01-.23-1.72-.7-2.13-.46-.41-1.5-.79-3.11-1.14v-.36c4.01.09,8.04.09,12.09,0v.36c-1.62.36-2.65.74-3.12,1.14-.46.4-.7,1.11-.7,2.13v21.56Z"/>
    <path class="st5" d="M1220.07,123.7c5.67-.15,10.1.96,13.27,3.32,3.17,2.36,4.75,5.76,4.75,10.19,0,4.78-1.46,8.56-4.37,11.34-2.91,2.78-6.86,4.11-11.86,3.99-4.24-.09-8.47-.09-12.68,0v-.36c1.58-.36,2.6-.74,3.07-1.14.46-.41.7-1.12.7-2.13v-21.56c0-1.04-.22-1.76-.67-2.15-.45-.39-1.48-.76-3.09-1.12v-.36c3.35.08,6.98.08,10.89-.02ZM1222.27,150.9c3.36,0,6-1.13,7.91-3.38,1.92-2.26,2.87-5.36,2.85-9.3,0-4.24-1.12-7.45-3.36-9.64-2.24-2.18-5.43-3.27-9.57-3.27-.87,0-1.74.04-2.6.13v25.28c1.59.14,3.18.21,4.78.19h0Z"/>
    <path class="st5" d="M1261.27,146.25c2.21,3.62,4.14,5.59,5.78,5.92v.36c-1.31.35-2.64.58-3.99.67-1.68,0-3.02-.9-4.08-2.69l-6.04-10.36h-.54c-1.01,0-2.01-.18-2.96-.54v9.28c0,1.01.25,1.73.74,2.13.49.4,1.62.79,3.38,1.14v.36c-4.15-.09-8.29-.09-12.42,0v-.36c1.62-.36,2.66-.74,3.12-1.14.46-.41.69-1.12.7-2.13v-21.56c0-1.01-.23-1.72-.7-2.13-.46-.41-1.5-.79-3.12-1.14v-.36c3.14.09,6.52.09,10.13,0,3.68-.11,6.54.56,8.59,2.01.96.63,1.74,1.49,2.28,2.5.54,1.01.81,2.14.79,3.29,0,1.69-.56,3.33-1.61,4.66-1.11,1.43-2.6,2.52-4.3,3.14l4.25,6.95ZM1252.12,138.54c.8,0,1.59-.16,2.32-.48.73-.32,1.38-.79,1.92-1.39.6-.65,1.06-1.4,1.37-2.23.3-.83.44-1.7.41-2.58,0-2.12-.61-3.74-1.84-4.87s-3-1.68-5.33-1.68c-.51.01-1.01.05-1.51.13v12.55c.85.34,1.76.53,2.68.54Z"/>
    <path class="st5" d="M1282.72,123.03c4.3,0,7.81,1.36,10.53,4.08,2.72,2.72,4.08,6.25,4.08,10.58s-1.46,8.15-4.37,11.08c-1.38,1.43-3.03,2.56-4.86,3.32-1.83.76-3.8,1.13-5.78,1.1-4.3,0-7.81-1.37-10.53-4.11-2.72-2.74-4.08-6.26-4.08-10.58-.05-2.03.31-4.06,1.05-5.95.74-1.89,1.86-3.62,3.28-5.08,1.37-1.45,3.03-2.59,4.87-3.36,1.84-.77,3.82-1.14,5.82-1.09ZM1282.95,151.54c1.32.03,2.63-.26,3.81-.86,1.18-.59,2.2-1.47,2.96-2.55,1.71-2.27,2.56-5.26,2.56-8.97,0-4.37-.92-7.87-2.76-10.51-.8-1.25-1.91-2.26-3.21-2.96-1.31-.7-2.77-1.04-4.25-1.01-1.32-.02-2.62.28-3.79.89-1.17.6-2.17,1.49-2.92,2.57-1.7,2.29-2.55,5.27-2.55,8.94,0,4.33.94,7.83,2.82,10.49,1.88,2.66,4.33,3.98,7.35,3.96h-.02Z"/>
    <path class="st5" d="M1095.89,68.2c-9.77,0-19.32,2.9-27.45,8.33-8.12,5.43-14.46,13.14-18.2,22.17-3.74,9.03-4.72,18.96-2.81,28.54,1.91,9.58,6.61,18.39,13.52,25.3s15.71,11.61,25.3,13.52c9.58,1.91,19.52.93,28.54-2.81,9.03-3.74,16.74-10.07,22.17-18.2,5.43-8.12,8.33-17.68,8.33-27.45,0-13.1-5.2-25.67-14.47-34.93-9.26-9.26-21.83-14.47-34.93-14.47ZM1128.67,84.83c6.08,6.09,10.35,13.74,12.33,22.11,1.98,8.37,1.6,17.13-1.1,25.29h-.1l-14.37.97c-.12,0-.24-.05-.33-.14-.09-.09-.14-.21-.14-.33v-6c0-.19-.05-.37-.14-.53l-4.63-8.94s-.03-.06-.06-.08c-.02-.03-.05-.05-.08-.08v-2.52l1.34.07c.07,0,.14-.03.19-.08.05-.05.08-.12.08-.19v-.35c0-.07-.03-.14-.08-.2-.05-.05-.12-.08-.2-.08h-1.35v-2.01c0-.21-.11-.37-.25-.37h-.12c-.14,0-.25.17-.25.37v2.01h-1.09s-.07,0-.11.02c-.03.01-.06.03-.09.06s-.05.06-.06.09-.02.07-.02.11v.14s0,.07.02.11.03.06.06.09.06.05.09.06c.03.01.07.02.11.02l1.09.08v2.62l-.06.08-4.15,8.93c-.1.17-.15.37-.15.56v7.05c0,.09-.03.19-.08.26l-.98,1.43c-4.19.38-8.35,1.08-12.44,2.1-.32-1.81-.45-3.08-.71-4.92-.31-2.3-.48-4.61-.5-6.93-.12-1.69.42-3.37,1.51-4.67,2.27-2.57,5.57-5.09,6.86-8.62.32-.1.63-.22.93-.34-.08.03.1.45.13.5.43.77,1.63.83,2.38.44.18-.09.34-.21.47-.36.14-.15.62-1.33.7-1.27.64.54,1.57.22,2.4.11.83-.12,1.4-.69,1.98-1.24.07-.06.76.53,1.42-.06.56-.47,1.29-.7,2.01-.64.55.09,1.69.96,3.13-.09.23-.18.4-.43.48-.72.07-.29.05-.59-.07-.86-.27-.5,1.29-1.17,1.67-1.28,1.04-.29,1.12-.24,2.01-1.35.32-.39.56-1.46-.45-1.64-.33-.06-.18-.38-.25-.41.5-.12.95-.4,1.26-.81.3-.5-.57-.87-.5-1.42.03-.32-.02-.64-.16-.93-.15-.29.61-1.2.74-1.48.14-.25.2-.54.16-.82-.04-.28-.16-.55-.36-.75-.32-.3-.74-.47-1.17-.47-.28,0-.57.04-.83.15-.18-.28-.39-.53-.62-.77-.3-.36-.69-.62-1.13-.77-.34-.08-.69-.06-1.02.04-.33.1-.63.29-.86.55-.53.57-1.2.99-1.94,1.21-.4.1-1.39.31-1.38-.31,0-.35.13-.86.55-.97.42-.12.76.13,1.13.03.18-.05.33-.15.45-.3.11-.14.2-.3.26-.47.1-.19.15-.4.16-.61,0-.21-.03-.42-.12-.62-.02-.04-.05-.09-.08-.13-.18-.21-.43-.36-.69-.43-.27-.08-.55-.07-.82.01.35-.08.4-.88.41-1.14,0-.23-.05-.46-.15-.67-.1-.21-.24-.39-.42-.53-.34-.27-.67-.38-.81-.8-.07-.3-.21-.58-.4-.82-.2-.24-.45-.42-.73-.55-.05,0-.09-.04-.12-.08,0-.03,0-.07,0-.1,0-.05,0-.11-.01-.16-.02-.05-.05-.1-.08-.13-.27-.26-.97.11-1.3.09h-.18c.06-.05.11-.13.13-.21.02-.08.02-.16,0-.24-.09-.23-.26-.42-.46-.56.49,0,.96-.13,1.37-.4.27-.2.22-.5.12-.75-.06-.15-.14-.29-.19-.43s-.06-.3-.11-.43c-.17-.29-.4-.55-.69-.74-.38-.34-.7-.75-1.11-1.05-.13-.09-.26-.17-.4-.25.02-.15.04-.31.08-.46.02-.17.02-.34,0-.5-.06-.46-.29-.88-.64-1.19-.27-.21-.58-.36-.92-.42-.34-.06-.68-.04-1.01.07-.05.02-.1.04-.15.07-.03-.06-.08-.12-.13-.17-.15-.4-.43-.73-.81-.93-.07-.04-.14-.06-.22-.08.12-.04-.06-.63-.08-.72-.07-.33-.21-.65-.4-.93-1.01-1.46-3.07-1.94-4.86-1.81-.74.04-1.46.25-2.11.62-.54.39-.95.93-1.19,1.55-.05.11-.09.24-.14.36-.19.11-.35.27-.47.45.19-.29-1.92-1.04-2.18-1.1-1.25-.26-2.97-.33-3.28.75-.11.35.08,1.95-1.07.98-.18-.24-.44-.42-.73-.5-.14-.03-.28-.03-.42.02-.13.05-.25.14-.33.25-.04.05-.08.11-.12.17-.1-.06-.2-.13-.3-.18-.77-.4-1.6-.68-2.45-.82-.89-.21-1.83-.06-2.61.4-.3.2-.55.47-.72.79,0,0-1.01-.1-1.12-.1-.42-.02-.83.02-1.24.09-.69.15-1.33.5-1.82,1.01-.25.24-.46.52-.62.82-.06.12-.16.63-.34.63-.26,0-.52.1-.71.29h-.11l2.7-10.07c3.56-.87,7.21-1.31,10.87-1.32,6.09-.01,12.13,1.18,17.75,3.51,5.63,2.33,10.73,5.76,15.03,10.09ZM1133.12,145.27l-9.33.75-.39-.09-2.4-.33v-4.87c0-.18-.04-.35-.14-.5l-1.61-3.07.03.04c.32-.22.59-.53.76-.88.18-.35.26-.74.24-1.14,0-1.24-.84-2.25-1.88-2.25s-1.88,1.01-1.88,2.25c0,.33.06.66.18.96.13.31.31.58.55.81l-1.26,2.71c-.11.16-.17.34-.17.53v4.28l-1.2-.28c-.1-.02-.19-.08-.26-.16-.07-.08-.1-.18-.1-.29v-6.87l.03-.04,1.71-2.48c.05-.08.08-.17.08-.27v-7.11c0-.19.05-.38.14-.54l3.02-7.13c.18-.33.39-.33.56,0l2.08,7.16c.04.18.06.37.06.56v7.25c0,.09,0,.17,0,.26l1.43,2.77c.02.06.07.12.12.16.06.04.13.05.19.05l14.51-.87c-1.37,3.05-3.08,5.94-5.08,8.62ZM1118.4,133.84s-.04,0-.06-.01c-.02,0-.04-.02-.05-.03-.02-.02-.03-.03-.04-.05,0-.02-.01-.04-.01-.06s0-.04.01-.06c0-.02.02-.04.04-.05.02-.02.03-.03.05-.04.02,0,.04-.01.06-.01.41.04.78.23,1.05.54.26.31.4.71.37,1.12,0,.29-.06.58-.19.83-.13.26-.33.48-.57.64-.03,0-.05,0-.08,0l-.13-.25s.03-.04.06-.06c.19-.13.35-.31.45-.52.1-.21.16-.44.15-.67.02-.32-.08-.63-.29-.88-.2-.24-.5-.4-.81-.43ZM1119.94,140.79c.09.15.14.33.13.5v4.12l-3.53-.73-.17-.04v-4.2c0-.18.06-.35.16-.5l1.35-2.94s.04-.05.06-.06c.03-.02.06-.02.09-.02s.06,0,.09.02c.03.02.05.04.06.06l1.76,3.79ZM1078.13,147.84c-.67-.15-1.29-.45-1.82-.89-.93-.74-2.09-1.15-3.29-1.15s-2.35.4-3.29,1.15c-.75.62-1.7.96-2.68.96s-1.92-.34-2.68-.96c-.93-.76-2.1-1.16-3.3-1.14-.61-.01-1.22.09-1.79.3-1.02-1.3-1.97-2.66-2.84-4.06.71-.2,1.38-.55,1.96-1.01.75-.63,1.7-.97,2.68-.96.3,0,.61.03.91.08.1,0,.18.04.27.06.55.17,1.06.45,1.51.81.27.2.55.39.84.56.75.42,1.6.64,2.46.61.88.02,1.76-.21,2.52-.66.27-.16.5-.33.75-.5.25-.18.32-.23.48-.33.16-.1.33-.2.5-.28.53-.24,1.1-.36,1.68-.34.98-.02,1.93.32,2.68.96.93.74,2.08,1.14,3.27,1.14s2.34-.4,3.27-1.14c.75-.62,1.7-.96,2.68-.96s1.92.34,2.68.96c.44.33.92.61,1.44.83-3.78,1.69-7.42,3.69-10.89,5.97h0ZM1081.16,110.77c-.23.03-.47,0-.69-.08-.11-.03-.2-.1-.26-.19-.06-.09-.1-.2-.09-.31,0-.25.3-.42.57-.47.28-.02.56,0,.83.04.53.04,1.07-.04,1.56-.24.34-.14.65-.34,1.01-.45.22-.06.44-.1.67-.1.08,0,.17,0,.25,0,.15,0,.3-.03.45-.06.43-.06.82-.29,1.09-.63.15-.21.36-.5.6-.4s.11.45.27.63c.08.07.18.13.29.15l1.01.28c-.34-.07-.7-.03-1.02.13-.32.15-.57.41-.73.72-.03.08-.07.16-.14.22-.09.04-.2.06-.3.05-.42,0-.97.12-1.01.5-.55-.5-1.43-.5-2.17-.32-.72.23-1.46.41-2.21.54h0ZM1073.92,105.14c-.31-.05-.59-.22-.79-.46-.39-.37-.84-.67-1.33-.88-.51-.22-1.07-.3-1.62-.23-.36.05-.71.17-1.08.2-.18.03-.36,0-.53-.05-.17-.06-.32-.17-.43-.3-.19-.29.28-.14.5-.4.38-.43.54-.79.92-.83.37-.04.54-.06.91-.1.2,0,.39-.08.53-.22.2-.24.03-.56-.05-.81-.04-.1-.05-.21-.03-.32.02-.11.08-.21.16-.28.07-.05.16-.08.25-.09.09,0,.18,0,.26.04.56.21,1.15.33,1.75.35-.64.17-.61.68-.82.85-.21.17-.58.28-.62.5-.01.26.07.51.24.71.17.2.4.33.66.37.22,0,.44.05.66.11.2.1.4.23.57.37l.66.5c.14.08.25.19.33.33s.11.3.09.46c-.42-.17-.78.21-1.19.2ZM1074.77,88.38c.05.13.14.24.26.32-.05.05-.1.12-.12.19-.03.07-.04.15-.04.22,0,0-.03,0-.04.04-.16.16-.29.35-.37.56-.03.09-.06.19-.08.29,0,.03,0,.08-.03.13h-.13c-.2,0-.4-.03-.59,0-.23-.01-.46.03-.67.13-.21.1-.39.24-.53.42-.19.32-.27.69-.23,1.06v.39l-.16.03c-.23.05-.45.15-.64.3-.18.15-.33.35-.41.57-.3.76.72,1.58,1.34,2.01.12.18.17.4.15.61-.06.21-.21.39-.4.5-.13.07-.27.11-.41.11s-.29-.04-.41-.11c-.4-.16-.85-.16-1.25,0l-.07.05c-.15,0-.31,0-.46-.04-.16-.01-.31-.01-.47,0-.56.02-1.09.22-1.51.58-.14.13-.27.28-.37.45v-15.93c5.02-3.99,10.81-6.89,17.02-8.51l-2.81,10.48c-.09.07-.19.13-.29.16-.11.03-.22.04-.33.03-.47-.16-.75-.38-.76-.69,0-.64-1.01-.72-1.54-.66-.27.01-.53.1-.75.27-.22.17-.38.39-.46.65-.08.17-.13.35-.15.53-.06.5.13,1.01.05,1.49-.12.43-.35.82-.67,1.13-.65.76-2.1,1.27-1.67,2.26ZM1076.02,103.46c.08-.27.19-.17.47-.25.29-.08.24-.36.34-.54,0,0,0-.01.02-.02,0,0,.02,0,.02,0s.02,0,.02,0c0,0,.01.01.02.02.03.08.08.16.14.21s.15.09.23.1c.13.04.27,0,.4.05.07.02.13.04.2.07.13.06.25.14.38.2.22.13.47.19.72.19.26-.03.51-.14.7-.32.01.25-.03.49-.11.73-.01.04-.03.08-.06.12-.03.03-.06.06-.1.08-.14.04-.29.04-.43,0-.15-.04-.3-.08-.44-.13-.28-.12-.58-.2-.88-.25-.21,0-.42.05-.61.14-.14.06-.29.08-.44.07-.15-.01-.29-.06-.42-.14-.1-.12-.21-.21-.18-.31ZM1079.31,90.79c-.43.06-.25.13-.5-.24-.25-.37-.36-.53,0-.29s1.19-.35,1.27,0c.04.24-.35.45-.77.51v.03ZM1079.76,88.56c-.17.15-.36.26-.58.31-.4.11-.81.14-1.21.11-.28,0-.55-.05-.81-.13-.07-.02-.13-.05-.18-.1-.03-.03-.05-.06-.06-.1-.01-.04-.02-.08,0-.12,0-.04.02-.08.05-.11.02-.03.05-.06.09-.08.09-.04.19-.05.29-.03.1.02.19.06.28.1.23.09.47.15.71.15.26.01.52-.06.75-.19.23-.13.41-.33.52-.57.09-.3-.03-.62.05-.92.17-.59.83-.65,1.32-.93.13-.08.25-.17.37-.27.36-.25,1.23-.41,1.37.16,0,.12,0,.24-.05.35-.04.11-.1.22-.19.3-.15.24-.34.44-.56.61-.13.1-.28.17-.44.19-.19,0-.38.03-.55.1-.12.07-.22.16-.33.23-.19.09-.36.21-.5.36-.13.15-.16.38-.32.54v.03ZM1089.52,114.33c-.22-.55-.34-1.13-.37-1.72v-.32c0-.06.02-.12.04-.18.32.32.71.55,1.14.7.59.09,1.18.1,1.77.03.44.22.92.35,1.41.39.2.02.41.02.61,0-.03.68-.1,1.35-.23,2.01-.26,1.16-.5,2.73-1.76,3.02-.13-.09-.25-.18-.37-.29-.27-.27-.51-.55-.74-.86-.24-.32-.45-.66-.64-1.01-.34-.57-.63-1.17-.87-1.79ZM1092.72,108.53c-.48-.17-.93-.44-1.31-.78-.21-.3-.33-.65-.36-1.01-.04-.24-.08-.5-.11-.72.31.67,1.06,1.07,1.61,1.61.86.84,1.81.82,2.76,1.01-.32.2-.68.33-1.05.4-.17.03-.33.1-.47.2-.14.1-.26.23-.34.38.12-.43-.29-.87-.72-1.09ZM1099.46,85.7c.23-.18.51-.27.8-.27.25,0,.49.05.72.14.28.07.57.07.85,0l-.1.21s-.02.09-.02.13c0,.05.01.09.03.13.02.04.05.08.08.11.03.03.07.05.12.07.16.06.11.21.04.38-.07.13-.18.24-.31.31-.13.07-.28.11-.43.1-.15-.01-.31,0-.46.05-.28.14-.24.5-.34.76-.15.38-.61.58-.93.85-.1.09-.18.23-.3.28-.02,0-.04.01-.06.01s-.04,0-.06-.01c-.34-.15-.26-.63-.21-.9l.05-.29c.06-.37.37-.58.43-.95s-.16-.86.13-1.12ZM1098.87,92.84s.06.06.06.09c.07.27.21.51.42.69.11.1.24.18.38.24.12.05.32.06.39.17.22.3-.5.45-.42.72.08.27.5.24.69.18.47-.14.87-.44,1.12-.86.32-.5.35-1.17.74-1.66.05-.06.47-.22.33,0-.05.24-.09.48-.11.73-.01.18.02.36.1.52.08.16.21.3.36.39.1.06.19.11.21.22.02.14,0,.28-.03.41-.04.13-.11.25-.2.36-.07.07-.16.12-.26.14-.1.02-.2.01-.3-.02-.18-.07-.37-.22-.58-.17-.21.05-.27.21-.37.34-.14.16-.33.27-.54.32-.21.05-.43.02-.62-.06-.09-.04-.16-.1-.22-.17-.1-.12-.21-.4-.42-.34-.07.03-.13.08-.17.14-.04.06-.07.14-.07.21,0,.32-.05.06-.23-.04-.16-.06-.34-.07-.51-.03-.17.04-.32.12-.45.25-.24.23-.35.54-.57.79-.22.26-.5.45-.82.56-.2.07-.42.08-.62.04-.13-.03-.32-.09-.23-.21.09-.12.3-.2.43-.33.12-.18.19-.38.19-.59.07-.29.35-.5.38-.8.05-.38-.5-.69-.85-.83-.21-.1-.44-.19-.5-.41.03.11.29,0,.36,0,.23-.02.46,0,.68.09.29.09.59.1.88.04.29-.06.57-.19.8-.38.19-.2.3-.45.5-.65,0-.02.02-.03.03-.04.02-.01.03-.02.05-.02ZM1105.52,93.27c.55-.5,0-.59,0-.77.05,0,.1.02.15.04.25.08.51.13.77.17.32.05.62-.21.93-.3.34-.15.62-.39.83-.7.09-.1.21-.17.33-.19.13-.03.26-.02.39.04.24.14.18.39.11.59-.15.45-.57.57-.55,1.28,0,.26.39.37.31.5-.14.22-.34,0-.67.07s-.28-.08-.89.08c-.37.12-.73.26-1.09.42-.21.15-.44.26-.7.32-.72.06-.87-.29-.87-.36,1.71-.08.74-1.01.94-1.2h0ZM1120.13,102.12s-.02-.06-.02-.1,0-.07.02-.1c.07-.09.23-.06.34,0,.3.17.54.44.66.77,0,.05,0,.09,0,.14-.03.15-.25.19-.39.27-.35.23-.15.73-.3,1.08-.11.25-.39.42-.44.68-.05.26.21.54.45.73.11.08.22.19.17.3-.05.11-.5.26-.69.28-.48.06-.27-.19-.5-.47-.13-.1-.29-.17-.45-.2-.16-.03-.33-.03-.49,0,.88-.89-2.35-1.59-2.92-1.67-.31-.05-.39-.26-.39-.5s-.05-.47-.36-.41c-.32.06-.85.1-.84.47.01.09.03.18.06.27,0,.05,0,.12-.09.06-.08-.08-.13-.18-.16-.29-.23-.63-.66-1.16-1.23-1.51-.28-.17-.61-.37-.46-.73.25-.57,1.34-.5,1.43-.56.1-.06.22-.09.33-.1.12,0,.23.01.34.06.11.05.2.12.28.21.08.09.13.2.16.31.04.58.73.53,1.06.94.25.3.32.67.56.97.24.31.53.56.88.74.53.29,1.26.63,1.91.46.65-.17,1.2-.55,1.24-1.14,0-.33-.06-.65-.16-.96h.01ZM1114.16,105.27c.06-.02.13-.01.2,0s.12.06.16.12c.06.11.12.22.17.34.28.5,1.01.56,1.61.73.5.14.97.11,1.26.5s.3.39.54.75.38.47,1.39.67c-1.14,0-1.14,1.01-1.63.16-.44-.76-.86-.37-1.58-.91-.25-.21-.51-.4-.78-.57-.69-.33-1.43-.52-2.2-.57,0-.18.53-.2.65-.34.09-.12.16-.27.19-.42.04-.15.04-.31.01-.46h.01ZM1110.73,104.91c-.12-.14-.26-.26-.42-.34-.18-.09-.39-.12-.56-.22-.17-.15-.29-.35-.33-.57-.02-.02-.02-.05-.02-.08s0-.05.02-.08c.02-.02.05-.03.08-.04.24-.07,1.24-.44,1.42-.16.07.1,0,.19-.08.26-.08.08-.13.26.1.29.17.03.35,0,.5-.07.02,0,.04-.02.06-.04.02-.02.03-.04.04-.06-.07.5-.16.96.34,1.28.18.12.39.25.39.47,0,.5.43.63.39.73-.08.2-.47.11-.64.1-.2,0-.41-.03-.6-.11-.19-.08-.35-.2-.49-.36-.01-.01-.03-.03-.03-.05,0-.02,0-.03,0-.05.05-.16.06-.32.02-.48-.03-.16-.11-.31-.22-.43h.01ZM1112.08,82.9c0,.09-.05.2-.15.2s-.07-.03-.11-.04-.18.12-.15.22c.03.1.1.18.12.28,0,.05,0,.09-.03.13-.02.04-.05.08-.08.11-.04.03-.08.05-.12.06-.04,0-.09,0-.13,0-.08-.03-.15-.06-.21-.12l-.68-.5c-.08-.07-.17-.12-.27-.16-.12-.03-.25-.05-.38-.04-.3.04-.6,0-.87-.15-.19-.16-.31-.39-.35-.63-.03-.09-.03-.19,0-.29.04-.08.09-.16.17-.21.17-.16.39-.28.61-.35.33-.06.66,0,.94.19.07.03.13.08.19.13.08.08.14.16.2.25.11.23.31.41.56.5.14.01.27.01.41,0,.07,0,.13,0,.2.04.06.03.12.07.16.12.03.09.02.18-.02.26h.01ZM1104.91,103.34c.96,0,1.73-.64,2.39-1.28h.03c.3-.25.55-.56.75-.9,0,.5-.42,1.01.47,2.01-.34-.09-.7-.11-1.05-.08-.26-.03-.52,0-.76.1-.24.09-.46.24-.63.44-.07.09-.11.2-.18.3-.25.34-.77.4-1.14.62-.25.14-.43.37-.52.64-.09.27-.07.57.05.82-1.09-.25-1.58-.59-2.9-.2.47-.35.27-.56.46-.86.05-.09.12-.17.21-.23.15-.05.3-.07.46-.06.15-.01.3-.06.43-.14.13-.08.23-.19.31-.33.11-.22.11-.5.28-.66.31-.34.89-.2,1.35-.2ZM1106.58,112.53c-.1.23-.21.44-.34.65-.25.37-.57.67-.94.91-.19.13-.32.21-.91.58-.08.05-.38-.46-.42-.5-.27-.35-.51-.71-.74-1.09-.14-.3-.25-.61-.33-.94.27.29.59.52.96.67.25.1.52.11.78.02.25-.09.47-.26.61-.49.42.2.88.27,1.34.19ZM1098.58,111.52v-.06c.16.05.32.12.46.21.32.2.67.34,1.04.42.65.08.6-.11.8-.04l.07.17c.14.31.31.6.43.91.12.31.25.69.36,1.06.06.19.13.34.22.6.08.16.14.33.17.5.02.26-.07.52-.24.73l-.07.06c-.35.29-3.23,1.77-3.19,1.06.11-1.54-.1-4.07-.07-5.62ZM1099.82,103.31c-.04-.33.5-.68.94-.87,0,0,.35-.13.38,0s-.66.82-.66.87-.2.8-.2.8c-.22-.23-.38-.5-.47-.81h0ZM1095.6,115.25c.06-.27.15-.53.19-.81.05-.28.08-.6.1-.91.02-.28.02-.56,0-.84.47-.23.87-.58,1.17-1.01v.32c.04.73.1,1.58.13,2.15.02,1.03-.15,2.05-.5,3.02-.05.17-.1.33-.14.5-.14-.04-.27-.11-.38-.2-.17-.14-.31-.31-.42-.5-.14-.26-.23-.55-.25-.85s.02-.6.11-.88ZM1063.1,84.83c1.03-1.04,2.11-2.02,3.22-2.94v17.5h-.6c-.28.01-.57.07-.83.17-.54.2-1.05.5-1.48.88-.22.16-.4.37-.54.6-.14.24-.22.5-.25.77,0,.25.05.5.16.72s.28.42.48.56c.1.06.21.12.32.16.48.11.99.05,1.44-.16.08-.03.18-.04.27-.03.31-.03.58.39.31.62-.47.42-1.15.46-1.67.8-.4.29-.68.71-.79,1.19-.11.41-.15.83-.12,1.25.01.15.03.3.07.44.03.15.07.29.13.43.13.35.63.5,1.01.6.45.13.92.18,1.39.15.15.5.38.96.69,1.39v22.58h.83v-21.8c.4.27.86.44,1.34.5.45.07.91.04,1.34-.08.44-.12.84-.34,1.19-.63.06-.05.24,0,.3,0,.37.04.76.05,1.13.11.37.06.73.22,1.1.29.03.21.1.42.2.61l-5.66,21.16.76.2,5.57-20.8c.33.1.69.07,1.01-.07.35-.11.73-.14,1.09-.09.63.1,1.28.04,1.87-.19.09.13.17.26.24.4.15.3,0,.64.1.95.11.32.33.6.63.77.29.17.64.23.98.17,0,0,.18.38.2.41l.04.05-10.81,18.72.68.39,10.73-18.57c.75.43,1.71.32,2.58.23.8-.01,1.59-.22,2.3-.61.05-.03.1-.07.14-.11.3-.24.52-.58.62-.95,0-.07.16-.11.26-.14.1.46.25.91.43,1.35.31.71.67,1.4,1.07,2.06l-17.36,17.34.56.56,17.22-17.21c1.01,1.63,2.17,3.34,2.85,4.61.3.55.56,1.11.78,1.69l-20.25,11.69.39.69,20.11-11.63c.13.49.21,1,.23,1.51.04,1.91-.05,3.81-.25,5.71l-19.68,5.31.21.76,19.4-5.2c-.19,1.58-.43,3.16-.71,4.72-.13.95-.33,1.89-.61,2.8-.09.25-.18.5-.26.75l-.41.17c-.92-.02-1.81-.36-2.52-.96-.93-.74-2.08-1.14-3.27-1.14s-2.34.4-3.27,1.14c-.75.62-1.7.96-2.68.96s-1.92-.34-2.68-.96c-.93-.76-2.09-1.17-3.29-1.15-.51,0-1.02.07-1.51.21.02-1.27-.46-2.49-1.35-3.41-.88-.91-2.09-1.44-3.36-1.46-1.27-.02-2.49.46-3.41,1.35-.91.88-1.44,2.09-1.46,3.36-.27-.04-.55-.06-.83-.06-1.2-.02-2.36.39-3.29,1.15-.56.46-1.22.77-1.93.9-.95-1.61-1.8-3.27-2.54-4.99l6.66,1.8.21-.76-7.32-1.95c-.57-1.4-1.07-2.82-1.51-4.26l9.2,5.31.4-.69-9.91-5.73c-.61-2.26-1.05-4.56-1.31-6.89l11.83,11.83.55-.56-12.51-12.51c-.12-1.35-.18-2.73-.18-4.11,0-2.19.15-4.38.46-6.55l13.01,22.54.69-.39-13.5-23.37c.8-4.77,2.34-9.38,4.58-13.67l9.86,36.68.76-.2-10.07-37.49c2.11-3.79,4.73-7.27,7.8-10.33ZM1060.02,146.99c.36-.09.72-.13,1.09-.13.98-.02,1.93.32,2.67.96.93.74,2.09,1.14,3.27,1.14s2.34-.4,3.27-1.14c.75-.62,1.7-.96,2.68-.96s1.92.34,2.68.96c.4.3.84.56,1.3.77-2.91,1.99-5.7,4.17-8.34,6.51-1.97-1.43-3.82-3.01-5.54-4.72-1.09-1.09-2.12-2.22-3.08-3.39ZM1095.89,163.97c-9.22.02-18.23-2.72-25.87-7.88,6.12-5.39,13.05-9.79,20.54-13.03-.19.56-.42,1.11-.69,1.64-.81,1.55-2.31,2.78-3.47,4.11-.5.55-1.08,1.11-1.51,1.7-1.96,1.41-4.05,2.62-6.25,3.61-.15.06-.27.18-.33.33-.06.15-.07.32,0,.47.04.11.12.21.22.28.1.07.22.11.34.11.07,0,.15-.02.22-.05,2.39-.97,4.8-2.59,7.12-4.16,2.04-1.32,4.24-2.37,6.55-3.12,2.48-.72,5.43-1.22,7.56-1.05,1.94.16,2.67.19,3.45,0,.78-.19.71-.76.5-1.35-.2-.6-1.26-1.2-1.54-2.33-.19-.79-.5-2.62-.67-3.41-.05-.21-.09-.41-.13-.6,3.75-.93,7.55-1.6,11.39-1.99v7.26c0,.11.04.21.1.29.07.08.16.14.26.17l9.69,1.9h-.04l7.33,1.42c-.64.72-1.29,1.42-1.98,2.11-4.3,4.32-9.4,7.74-15.03,10.07-5.63,2.33-11.66,3.52-17.75,3.5Z"/>
    <path class="st5" d="M1105.63,149.62c-3.96-.33-7.26,1.16-11.04,5-.11.11-.17.27-.17.43s.06.31.17.43c.05.06.12.1.19.13.07.03.15.05.22.04.08,0,.15-.01.23-.04.07-.03.14-.07.19-.13,3.53-3.62,6.48-4.97,10.11-4.66.16.01.31-.04.43-.14.12-.1.19-.25.2-.41.01-.16-.03-.31-.13-.43s-.24-.2-.4-.22Z"/>
    <path class="st5" d="M1127.16,138.93c-.94,1.07-1.01,1.09-1.01,2.35v2.78l2.06-.26v-2.78c-.02-1.25-.27-1.4-1.05-2.09Z"/>
    <path class="st5" d="M1132.62,138.44c-.95,1.07-1.01,1.09-1.01,2.35v2.78l2.06-.26v-2.78c-.01-1.26-.26-1.4-1.05-2.09Z"/>
  </g>
</svg>