<?xml version="1.0" encoding="UTF-8"?>
<svg id="Capa_3" xmlns="http://www.w3.org/2000/svg" version="1.1" viewBox="0 0 1180.9 1424.92">
  <!-- Generator: Adobe Illustrator 30.3.0, SVG Export Plug-In . SVG Version: 2.1.3 Build 182)  -->
  <path d="M1121.6,1398.55c-40.63-118.73-77.23-239.83-127.82-354.49-25.74-58.39-58.02-113.22-85.75-170.51,22.93-14.1,47.93-24.82,69.9-40.72,136.76-98.82,172.52-298.76,126.03-458.25-53.79-184.47-215.97-259.41-389.74-268.23-54.47-2.77-109.51-3.51-164.81-3.24-.48-.03-.96-.03-1.44,0-153.69.72-304.44-.02-460.04-.05-6.47,0-10.67.4-16.57,3.17l-2.2,1.04c-6.46,3.03-10.61,9.74-10.61,17.12l-.16,599-.35.37v325.09l-.38,375.17s174.66,0,209.06.9c3.92.1,7.8-.99,11.62-1.7,101.02-18.51,344.31-149.66,199.19-317.44-44.7-51.68-153.98-105.84-143.1-216.98,10.85-110.81,190.36-207.59,253.31-200.91.1.01.2.02.29.03,11.72,1.26,13.89,17.99,3.02,22.74-65.24,28.55-148.27,100.55-53.56,183.21,88.09,76.91,327.27,145.32,309.44,356.09-4.26,50.41-29.04,90.07-45.37,132.13-4.93,12.7-3.02,29.2,1.75,41.93.16.47,314.16,0,314.16,0,4.03-4.98,7.02-20.69,4.13-25.46Z" fill="#3e3b39"/>
</svg>