<?xml version="1.0" encoding="UTF-8"?><svg id="a" xmlns="http://www.w3.org/2000/svg" viewBox="0 0 667.64 472.07"><path d="M205.58,197.57c.09.23.17.47.26.69.01,0,.03.02.04.03.84,1.95,3.34,9.94,7.81,12.83,2.5,1.82,5.18,2.03,6.79,1.34,3.24-1.49,2.24-6.44.64-8.68-1.58-1.62-9.33-9.77-12.9-18.03-1.62-3.76-5.25-5.23-5.08-.36.14,4.26.95,8,2.1,11.27,0,.02-.01.05-.01.05,0,0,.13.33.35.87Z" fill="#646363"/><path d="M77.23,185.64c-3.52,8.14-11.16,16.18-12.71,17.78-1.58,2.21-2.57,7.09.63,8.56,1.59.69,4.24.48,6.7-1.32,1.32-.85,2.46-2.15,3.43-3.61.61-1.03,1.49-2.47,2.38-4.39.92-2.05,1.55-3.86,1.89-4.66.01-.01.03-.02.04-.03.09-.22.17-.45.26-.68.22-.53.34-.85.34-.85,0,0,0-.03-.01-.05,1.13-3.22,1.93-6.91,2.07-11.11.16-4.8-3.41-3.35-5.01.36Z" fill="#646363"/><path d="M140.84,202.04c3.18.52,5.29-2.05,6.59-4.99,2.41-5.45,2.77-11.17,1.77-16.95-.45-2.58-1.41-5.21-4.45-5.94-3.14-.76-5.32.96-6.83,3.35-3.85,6.1-5.92,12.53-2.22,19.61-.23.28,3.04,4.57,5.15,4.91Z" fill="#646363"/><path d="M174.45,176.04c1.43-1.75,1.87-4.94,1.12-7.07-.6-1.72-5.12-3.91-7.67-3.52-5.24.36-9.17,1.68-12.03,4.88-3.7,4.13-.89,10.05,5.06,10.49,5.31.39,10.39-.96,13.52-4.78Z" fill="#646363"/><path d="M148.58,155.01c-3.32-.84-6.84-1.12-10.28-1.1-2.52.01-4.6,1.9-4.5,4.41.07,1.76,1.49,3.88,2.93,5.05,2.31,2.12,9.34,1.55,10.63.61,1.61-1.17,3.15-3.08,3.65-4.97.29-1.1-1.29-3.72-2.43-4.01Z" fill="#646363"/><path d="M88.39,231.81c-1.01-3.58-2.64-7.05-4.49-10.28-1.36-2.37-4.17-3.33-6.38-1.89-1.55,1.01-2.71,3.48-3.01,5.46-.68,3.31,3.58,9.64,5.12,10.35,1.92.89,4.47,1.32,6.44.79,1.14-.31,2.67-3.2,2.33-4.43Z" fill="#646363"/><path d="M112.79,160.78c4.77-.25,10.03-1.02,14.07-5.21,1.79-1.85,1.22-3.79-1.2-5.07-6.04-3.19-12.8-.81-15.6,5.57-.97,2.21-.55,3.95,2.73,4.71Z" fill="#646363"/><path d="M218.43,221.84c-4.11,5.54-2.97,12.74,2.71,16.65,1.96,1.35,3.72,1.23,5.01-1.94.57-4.84.73-10.27-2.62-15.05-1.48-2.12-3.45-1.87-5.09.34Z" fill="#646363"/><path d="M177.12,193.71c1.77-2.86.52-5.17-2.89-6.11-8.54-2.35-16.49,2.57-18.33,11.46-.64,3.08.36,5.17,4.74,5.22,6-1.66,12.47-4.11,16.48-10.58Z" fill="#646363"/><path d="M182.06,171.24c.36,2.29,1.43,4.4,2.9,5.84,1.52,1.49,3.95,1.99,5.82,3.13,2.5,1.53,4.6-.71,5-3.19,1.15-6.31-4.71-10.85-6.64-11.4-1.33-.38-3.53-.45-4.74.52-1.23.98-2.54,3.86-2.34,5.11Z" fill="#646363"/><path d="M187.11,192.36c-.09,3.02,2.5,6.37,4.84,6.27,2.4-.11,5.61-4.37,5.63-7.46.01-2.51-.96-3.58-3.27-3.64-3.46-.08-7.12,2.37-7.19,4.83Z" fill="#646363"/><path d="M202.85,236.17c3.11-.14,7.27-5.66,7.28-9.66.01-3.25-1.24-4.64-4.23-4.71-4.49-.11-9.22,3.07-9.32,6.26-.12,3.91,3.23,8.25,6.27,8.12Z" fill="#646363"/><path d="M178.43,256.01c-1.72,1.97-1.82,5.7-.19,6.97,1.67,1.3,6.16.28,7.86-1.79,1.38-1.68,1.32-2.95-.2-4.31-2.28-2.04-6.08-2.48-7.48-.87Z" fill="#646363"/><path d="M148.37,208.83c-4.07-.56-8.6-.11-12.49,1.26-2.48.87-1.95,6.39.25,8.77,2.64,2.86,8.28,2.38,11.51-.97,2.43-2.52,3-8.75.72-9.06Z" fill="#646363"/><path d="M161.4,157.7c2.77.08,10.47-2.12,8.99-5.47-1.29-3.22-6.8-5.01-10.73-3.5-2.89.57-4.01,2.88-3.15,4.81.82,1.83,2.99,4.11,4.88,4.17Z" fill="#646363"/><path d="M184.02,241.12c-2.99,1.81-3.32,4.84-1.61,6.63,1.63,1.7,4.93,3.35,7.05,2.63,3.1-1.05,10.8-6.63,7.85-9.75-2.69-3.05-9.51-2.78-13.29.49Z" fill="#646363"/><path d="M177.57,157.55c2.59,1.57,4.31,1.74,7.33,2.14,1.8.24,2.83-1.62,1.94-3.63-1.22-2.78-5.25-4.5-8.07-3.64-2.45.75-3.38,3.8-1.2,5.13Z" fill="#646363"/><path d="M99.33,187.35c2.41,1.11,4.61-1.04,4.21-4.23-.56-4.4-5.08-8.38-9.38-8.4-3.72-.01-6.28,3.84-3.79,6.63,2.96,3.32,4.92,4.12,8.96,5.99Z" fill="#646363"/><path d="M125.03,192.21c-1.65-2.34-4.33-3.92-5.66-5.05-5.26-.09-7.93,1.71-9.42,5.04-1.53,3.42-.02,6.23,2.77,8.02,3.07,1.98,6.33,3.86,9.75,5.03,3.86,1.31,6.38-1.18,5.5-5.15-.61-2.74-1.37-5.68-2.94-7.88Z" fill="#646363"/><path d="M95.14,168.29c2.44.77,5.69-1.87,7.22-6.17.58-2.07,1.66-4.73-1.68-6.11-2.46-1.02-8.23,1.15-8.96,3.13-.95,2.6,1.24,8.46,3.42,9.15Z" fill="#646363"/><path d="M208.35,270.46c-2.46-1.02-8.23,1.15-8.96,3.13-.95,2.6,1.24,8.46,3.42,9.15,2.44.77,5.69-1.87,7.22-6.17.58-2.07,1.66-4.73-1.68-6.11Z" fill="#646363"/><path d="M126.77,169.2c-4.05-1.73-8.56-2.67-11.36-3.51-6.31-.14-9.05,1.64-9.84,5.28-1.03,4.76,2.59,9.08,8.27,10.01,5.68.93,9.89-.97,13.74-4.28,3.45-2.97,3.6-5.62-.81-7.5Z" fill="#646363"/><path d="M214.27,243.54c-4.12,2.07-7.97,5.06-10.53,6.74-4.46,4.99-4.97,8.43-2.7,11.57,2.96,4.11,8.8,4.17,13.43.23,4.63-3.94,6.07-8.64,6.16-14.02.08-4.82-1.87-6.78-6.35-4.52Z" fill="#646363"/><path d="M65.3,221.84c-1.64-2.21-3.61-2.46-5.09-.34-3.35,4.78-3.2,10.21-2.62,15.05,1.29,3.17,3.04,3.29,5.01,1.94,5.67-3.91,6.82-11.11,2.71-16.65Z" fill="#646363"/><path d="M98.51,256.88c-1.52,1.36-1.58,2.63-.2,4.31,1.7,2.07,6.19,3.09,7.86,1.79,1.63-1.27,1.53-5-.19-6.97-1.4-1.61-5.2-1.17-7.48.87Z" fill="#646363"/><path d="M103.47,242.47c-4.59-1.8-7.15-2.93-12.01-2.74-4.1.16-5.08,5.23-2.17,8.21,3.35,3.45,10.36,4.17,14.19,1.2,2.78-2.16,2.72-5.6,0-6.68Z" fill="#646363"/><path d="M75.73,271.48c-3.33,1.38-2.26,4.05-1.68,6.11,1.53,4.3,4.78,6.94,7.22,6.17,2.18-.69,4.37-6.55,3.42-9.15-.73-1.99-6.5-4.15-8.96-3.13Z" fill="#646363"/><path d="M83.49,262.98c2.27-3.15,1.76-6.58-2.7-11.57-2.57-1.68-6.41-4.66-10.53-6.74-4.49-2.26-6.44-.31-6.35,4.52.09,5.38,1.53,10.09,6.16,14.02,4.63,3.94,10.47,3.89,13.43-.23Z" fill="#646363"/><path d="M93.86,199.59c2.79.02,4.36-1.29,4.42-3.68.06-2.61-1.47-4.06-4.3-4.1-3.18-.04-5.56,1.6-5.6,3.86-.04,2.33,2.16,3.9,5.49,3.93Z" fill="#646363"/><path d="M204.26,165.49h0c.07.05,6.88,5.22,12.25,16.18.66,1.36,2,2.14,3.39,2.14.57,0,1.15-.13,1.69-.41,1.87-.95-6.72-18.41-9.7-21.35,0,0,7.97-13.73,10.63-20.5,1.02-2.58-.6-3.81-.99-3.38l-17.85,21.58c-1.52,1.71-1.25,4.38.57,5.74Z" fill="#646363"/><path d="M72.74,162.05c-2.98,2.95-11.57,20.4-9.7,21.35.54.28,1.12.41,1.69.41,1.39,0,2.73-.78,3.39-2.14,5.36-10.96,12.18-16.13,12.25-16.18h0c1.82-1.36,2.09-4.03.57-5.74l-17.85-21.58c-.39-.44-2.01.8-.99,3.38,2.66,6.77,10.63,20.5,10.63,20.5Z" fill="#646363"/><path d="M124.9,239.73c-.83-9.25-3.22-15.83-4.09-18,0-.03-.02-.05-.03-.08-.02-.07-.04-.11-.07-.15-.15-.36-.23-.54-.23-.54-1.87-3.65-6.54-12.08-22.67-11.36-1.37-.02-5.72.47-8.57.47-1.49,0-1.78,1.2-1.58,1.74,9.42,24.59,24.06,19.31,30.27,24.63,5.24,6.99.81,21.58-1.38,27.31-.92,2.41,1.8,3.26,2.48,1.69,4.14-8.78,6.37-16.09,5.79-25.24.02-.15.05-.31.07-.46ZM116.45,222.76c-1.84,3.17-5.03,5.26-8.67,5.24-5.7-.04-10.33-5.25-10.33-11.64,0-.92.1-1.81.28-2.67.09-.42.47-1.3,1.96-1.26,1.43.04,3.64.28,6.06.83-.08.11-.16.23-.24.35-.51.82-.82,1.88-.82,3.04,0,2.57,1.51,4.66,3.37,4.66s3.37-2.09,3.37-4.66c0-.5-.06-.98-.17-1.44,2.75,1.56,4.4,3.73,5.23,5.03.36.57.2,2.06-.06,2.52Z" fill="#646363"/><path d="M196.58,211.8c.2-.54-.09-1.74-1.58-1.74-2.84,0-7.2-.49-8.57-.47-16.12-.72-20.8,7.71-22.67,11.36,0,0-.09.18-.23.54-.02.04-.05.09-.07.15,0,.03-.02.05-.03.08-.87,2.17-3.26,8.75-4.09,18,.02.15.04.3.07.46-.58,9.15,1.65,16.46,5.79,25.24.67,1.58,3.39.72,2.48-1.69-2.19-5.73-6.62-20.32-1.38-27.31,6.21-5.32,20.85-.05,30.27-24.63ZM176.47,228c-3.64.03-6.83-2.06-8.66-5.24-.26-.45-.42-1.95-.06-2.52.83-1.3,2.48-3.47,5.23-5.03-.11.45-.17.93-.17,1.44,0,2.57,1.51,4.66,3.37,4.66s3.37-2.09,3.37-4.66c0-1.16-.31-2.22-.82-3.04-.08-.12-.16-.24-.24-.35,2.42-.55,4.64-.8,6.06-.83,1.49-.04,1.87.84,1.96,1.26.18.85.28,1.75.28,2.67,0,6.39-4.63,11.6-10.33,11.64Z" fill="#646363"/><path d="M235.48,192.72c7.37-17.97,10.38-28.33,9.96-45.98l-.44-6.29h-.03c-.24-9.98-5.98-17.02-15.41-19.51-11.28-2.98-27.43,1.69-37.82,15.66-1.23,1.66-3.3,2.41-5.29,1.96-2.73-.62-5.49-1.42-8.35-2.25-10.85-3.14-23.07-6.68-36.17-.05-13.1-6.63-25.32-3.09-36.17.05-2.85.83-5.62,1.63-8.35,2.25-1.99.45-4.06-.3-5.29-1.96-10.39-13.97-26.54-18.64-37.82-15.66-9.64,2.55-15.39,10.24-15.39,20.57l-.09,4.74v.13s-.02.21-.02.21c-.03,1.07-.04,2.11-.05,3.13v.28s0,0,0,0c0,15.64,3.05,25.79,9.89,42.57,1.61,3.95,0,10.66-1.88,18.43-3.63,15.05-8.6,35.67,4.24,58.56,7.8,13.59,16.46,21.74,26.48,31.18,6.19,5.83,12.58,11.85,19.62,19.92,0,.05-.01.09-.02.14l4.11,4.44c-.42,4.59-.21,13.95,7.25,19.66.21.16.42.31.64.45,0,0-.01.02-.02.03,4.97,3.44,11.91,4.57,18.64,5.66,7.82,1.26,20.62,1.26,28.44,0,7.04-1.14,14.32-2.31,19.32-6.14.46-.35.9-.72,1.31-1.1,0,0,0-.01-.01-.02,6.17-5.75,6.32-14.24,5.93-18.54l3.8-4.11s0-.06,0-.09c7.14-8.19,13.6-14.27,19.87-20.15,10.05-9.44,18.73-17.59,26.59-31.22,12.88-22.85,7.97-43.47,4.38-58.52-1.85-7.77-3.45-14.48-1.83-18.43ZM169.77,337.18c-3.12,2.39-9.5,3.42-15.12,4.32h0c-4.75.76-20.65.76-25.43,0h0c-5.62-.92-12-1.94-15.12-4.33-4.17-3.19-3.72-9.58-3.43-11.76,29.42-.8,31.26-17.61,31.26-17.61,0,0,1.84,16.81,31.26,17.61.29,2.18.74,8.57-3.43,11.76ZM228.32,213.33c3.41,14.32,7.66,32.14-3.41,51.79-7.15,12.4-15.36,20.11-24.88,29.05-.4.37-.8.75-1.2,1.13-.27-10.81-8.09-19.58-12.53-25.12-1.13-1.41-2.53-1.8-3.38-.84-1.51,1.72-.03,3.39.78,4.34,4.8,5.58,8.31,12.86,8.33,18.29-.03,2.03-.15,3.74-.37,5.24l-8.28-3.51s-2.25-1.2-3.45.45c-1.2,1.65.45,3.45,2.7,4.81,1.36.82,4.52,3,6.82,4.6-.38.61-.8,1.22-1.28,1.83l-1.17,1.47c-.12.12-.24.26-.36.38l-5.81-2.58s-2.48-1.28-3.53-.08c-1.05,1.2.08,3.38,2.03,4.43.7.38,2.01,1.35,3.39,2.42-.88.96-1.76,1.92-2.65,2.94-1.68,1.72-3.1,3.15-3.1,3.15-20.44,3.66-27.81-10.42-30.19-17.49-.77-2.28-.69-5.55-.37-6.35.65-1.62,1.81-2.96,3.83-3.43h0s.04,0,.04,0c8.42-1.93,16.21-9.41,19.13-11.7,1.18-.93,1.62-3.07,1.01-4.39-.47-.9-2.34-1.35-4.17-.66-.85.32-1.97.93-3.3,1.52-4.18,1.88-11.29,5.15-20.98,5.6l-.02.03-.02-.03c-9.69-.45-21.16-5.63-21.36-5.72-1.23-.51-2.25-.94-3.4-1.25-1.12-.46-2.95.01-3.31.67-1.12,1.22-.93,3.13-.08,3.97,2.79,2.79,11.42,10.02,19.84,11.96,2.04.47,3.2,1.84,3.85,3.49.31.78.36,4.1-.46,6.47-2.44,7.13-9.87,20.94-30.12,17.31,0,0-1.28-1.4-2.95-3.23,0,0,.01,0,.02,0-.68-.74-1.4-1.54-2.14-2.34,1.53-1.2,3.03-2.33,3.81-2.74,1.95-1.05,3.08-3.23,2.03-4.43-1.05-1.2-3.53.07-3.53.07l-6.24,2.77c-.94-1.04-1.57-1.74-1.61-1.81-.46-.59-.86-1.17-1.23-1.75,2.31-1.62,5.82-4.05,7.28-4.92,2.25-1.35,3.9-3.15,2.7-4.81-1.2-1.65-3.45-.45-3.45-.45l-8.8,3.73c-.02-.16-.04-.34-.06-.51-.08.09-.18.17-.26.25-.23-1.51-.35-3.24-.38-5.3.02-5.42,3.53-12.7,8.33-18.29.81-.94,2.3-2.62.78-4.34-.84-.96-2.25-.57-3.38.84-4.44,5.55-12.26,14.32-12.53,25.13-.49-.47-.99-.93-1.47-1.39-9.49-8.93-17.68-16.65-24.77-29.01-11.05-19.69-6.75-37.51-3.3-51.83,2.25-9.32,4.19-17.38,1.46-24.09-7.1-17.44-9.56-26.45-9.16-42.14l.41-5.68c.68-8.24,4.43-9.99,8.22-10.99,9.33-2.47,23.36,3.02,30.68,16.48.91,1.67,2.7,2.64,4.56,2.46h0c5.69-.53,11.14-2.11,16.42-3.64,11.11-3.22,20.7-6,31.24.33l2.3,1.38v.04s0,.02,0,.02h.01s.01,0,.01,0c0,0,0-.01,0-.02h.02s.02,0,.02,0c0,0,0,.02,0,.02h.01s.01,0,.01,0c0,0,0-.01,0-.02v-.04l2.3-1.38c10.55-6.33,20.14-3.55,31.24-.33,5.28,1.53,10.74,3.11,16.42,3.64h0c1.86.18,3.65-.79,4.56-2.46,7.32-13.46,21.35-18.95,30.68-16.48,3.49.92,7.58,3.35,8.22,9.53.03.1.49,3.96.64,5.15l.15,2.13c.36,15.69-2.12,24.7-9.27,42.14-2.75,6.71-.83,14.76,1.39,24.08Z" fill="#646363"/><path d="M302.61,183.8h-24.47v-16.31h66.63v16.31h-24.47v64.1h-17.69v-64.1Z" fill="#646363"/><path d="M357.98,167.49h17.69v80.42h-17.69v-80.42Z" fill="#646363"/><path d="M391.07,207.92v-.23c0-22.86,17.81-41.59,42.16-41.59,14.48,0,23.21,3.91,31.59,11.03l-11.14,13.44c-6.2-5.17-11.72-8.16-21.02-8.16-12.87,0-23.09,11.37-23.09,25.04v.23c0,14.7,10.11,25.5,24.36,25.5,6.43,0,12.18-1.61,16.66-4.83v-11.49h-17.81v-15.28h34.92v34.92c-8.27,7.01-19.64,12.75-34.35,12.75-25.04,0-42.28-17.58-42.28-41.36Z" fill="#646363"/><path d="M483.55,167.49h36.76c10.22,0,18.15,2.87,23.43,8.16,4.48,4.48,6.89,10.8,6.89,18.38v.23c0,12.98-7.01,21.14-17.23,24.93l19.64,28.72h-20.68l-17.23-25.73h-13.9v25.73h-17.69v-80.42ZM519.16,206.55c8.62,0,13.56-4.6,13.56-11.37v-.23c0-7.58-5.28-11.49-13.9-11.49h-17.58v23.09h17.92Z" fill="#646363"/><path d="M565.46,167.49h60.66v15.74h-43.08v16.31h37.91v15.74h-37.91v16.89h43.65v15.74h-61.23v-80.42Z" fill="#646363"/><path d="M295.21,267.54h4.92l15.68,23.48,15.68-23.48h4.92v43.03h-4.86v-34.86l-15.68,23.05h-.24l-15.68-22.99v34.8h-4.73v-43.03Z" fill="#646363"/><path d="M348.27,292.56v-25.02h4.86v24.71c0,9.28,4.92,14.51,13.16,14.51s12.97-4.8,12.97-14.2v-25.02h4.86v24.65c0,12.54-7.19,19.06-17.95,19.06s-17.89-6.52-17.89-18.69Z" fill="#646363"/><path d="M395.98,267.54h4.55l27.11,34.49v-34.49h4.73v43.03h-3.87l-27.79-35.29v35.29h-4.73v-43.03Z" fill="#646363"/><path d="M445.36,267.54h4.86v43.03h-4.86v-43.03Z" fill="#646363"/><path d="M461.28,289.18v-.12c0-12.17,9.1-22.25,21.76-22.25,7.81,0,12.48,2.77,16.78,6.82l-3.32,3.57c-3.63-3.44-7.68-5.9-13.52-5.9-9.53,0-16.66,7.75-16.66,17.64v.12c0,9.96,7.19,17.77,16.66,17.77,5.9,0,9.77-2.28,13.89-6.21l3.2,3.13c-4.49,4.55-9.4,7.56-17.21,7.56-12.42,0-21.58-9.77-21.58-22.13Z" fill="#646363"/><path d="M509.36,267.54h4.86v43.03h-4.86v-43.03Z" fill="#646363"/><path d="M527.19,267.54h16.11c9.71,0,16.11,5.16,16.11,13.65v.12c0,9.28-7.75,14.08-16.91,14.08h-10.45v15.18h-4.86v-43.03ZM542.68,290.96c7.13,0,11.8-3.81,11.8-9.47v-.12c0-6.15-4.61-9.34-11.56-9.34h-10.88v18.93h10.64Z" fill="#646363"/><path d="M569.06,267.54h4.86v43.03h-4.86v-43.03Z" fill="#646363"/><path d="M584.99,289.18v-.12c0-11.87,8.91-22.25,22.01-22.25s21.89,10.27,21.89,22.13v.12c0,11.87-8.91,22.25-22.01,22.25s-21.88-10.27-21.88-22.13ZM623.84,289.18v-.12c0-9.77-7.13-17.77-16.97-17.77s-16.84,7.87-16.84,17.64v.12c0,9.77,7.13,17.77,16.97,17.77s16.84-7.87,16.84-17.64Z" fill="#646363"/></svg>