<?xml version="1.0" encoding="UTF-8"?>
<svg id="Capa_1" xmlns="http://www.w3.org/2000/svg" version="1.1" viewBox="0 0 512.59 322.99">
  <!-- Generator: Adobe Illustrator 30.3.0, SVG Export Plug-In . SVG Version: 2.1.3 Build 182)  -->
  <path d="M476.74,200.73c.65-1.8.6-3.8-.18-5.58-.62-1.43-1.96-3.52-4.72-4.73v-30.15c.41-.45,1.04-1.21,1.92-2.55.95-1.44,2.71-4.11,1.92-7.57-.39-1.7-1.44-4.16-4.23-5.86-.88-2.62-3.16-4.62-6-5.07-.78-.41-1.63-.75-2.56-1.02-3.6-1.03-7.67-1.2-11.6-1.38-1.88-.08-3.66-.16-5.05-.32l-7.94-.95c-9.85-1.17-19.69-2.35-29.52-3.53l-57.65-7.32c-4.93-.67-9.49-1.3-13.92-1.92-2.69-.38-5.36-.64-7.95-.89l-1.42-.14-4.55-.58c-.46-3.36-.96-7.76-1.21-9.9-.26-2.24-.4-3.44-.5-4.13-.35-2.43-.89-5.16-1.46-8.04-.6-3.06-1.25-6.38-1.64-9.22,3.17-1.74,4.42-4.53,4.53-6.94.67-.94,1.29-2.23,1.4-3.9.04-.05.07-.09.11-.14.53-.68,1-1.46,1.63-2.54,1.43-.16,2.77-.66,3.93-1.49.17-.12.34-.25.5-.38.46.06.94.09,1.43.09.64,0,1.26-.06,1.86-.18,3.55-.7,6.12-3.81,6.12-7.43v-11.58c0-2.15-.92-4.2-2.52-5.64-1.4-1.25-3.2-1.93-5.06-1.93-.27,0-.55.01-.83.05-1.38.15-2.68.44-3.91.8-.21-.17-.42-.33-.63-.49-1.01-1.72-2.91-3.58-6.45-4.49-.23-.06-.47-.11-.7-.15-1.54-1.3-3.56-2.2-6.04-2.7-.49-.1-.99-.15-1.48-.15-.8,0-1.59.13-2.34.37-.75-.24-1.53-.36-2.31-.36-1.03,0-2.06.21-3.03.63-1.07.47-1.92,1.07-2.61,1.75-2.56.17-4.86,1.36-6.37,3.33-.45.58-.79,1.18-1.06,1.77-.34.15-.67.33-.98.53-1.66,1.03-2.98,2.65-3.57,4.61-2.54,1.73-3.48,3.99-3.83,5.55-.05.22-.21,1.02-.16,2.09-.83,1.29-1.49,2.95-1.75,5.1-.32,2.62.74,5.1,2.63,6.7-1.29,3.73.21,6.96,1.12,8.43.45.73,1.02,1.38,1.68,1.92.5,2.67,1.91,4.71,4.23,6.1-.33,2.23-.65,4.46-.97,6.64-1.01,6.96-2.05,14.1-3.22,21.15-.65-.1-1.29-.21-1.94-.31-2.57-.42-5.23-.85-7.98-1.11-4.03-.39-8-.75-11.71-1.09l-49.33-5.76-2.63-.4c-11.76-1.79-23.93-3.64-35.94-5.15-14.4-1.81-29.02-3.16-43.16-4.47-7.32-.68-14.89-1.38-22.31-2.13l-25.54-2.98c-.78-.15-1.8-.37-2.87-.6-3.61-.79-7.71-1.68-11.21-1.68-2.2,0-4.04.36-5.64,1.09-1.72.79-3.54,2.26-9.23,7.45-.63.58-1.16,1.06-1.5,1.36-2.03,1.8-4.15,3.57-6.39,5.44-3.4,2.85-6.92,5.8-10.17,8.88-.05.04-4.94,4.83-6,6.67-.33.57-.59,1.15-.8,1.72-.53.27-1.03.61-1.49,1.01-1.66,1.44-2.62,3.53-2.62,5.73v144.96c0,3,1.78,5.73,4.53,6.93l32.81,14.43c.96.42,2,.64,3.05.64.15,0,.31,0,.46-.01l132.22-8.08c1.45,1.01,3.19,1.59,5.05,1.59h0c2.25,0,4.32-.84,5.9-2.26l249.34-15.23c4-.24,7.11-3.56,7.11-7.56v-54.65c3.79-1.49,4.86-4.71,5.11-5.76.4-1.68.32-3.39-.22-4.94Z" fill="#f9f2e8"/>
  <g>
    <path d="M102.12,279.07c-.04-.22-.48-1.06-.75-1.13-1.3-.31-6.69-.09-8.4,0-3.24.16-5.39.77-8.3,1.5-4.49,1.12-2.98-.08-5.49-.58-1.98-.39-5.37.6-6.57.35-.61-.13-1.43-1.09-2.16-1.42-7.26-3.3-19.36-7.98-25.65-12.21-.71-.48-1.48-.87-1.83-1.74-.01-12.45-.19-24.89-.11-37.34.16-25.69,1.09-51.32.93-77.06-.03-5.18.43-9.74.46-14.67.02-2.32-1.25-5.53-.06-7.6.18-.31,4.06-4.4,4.64-4.94,5.12-4.85,11.06-9.46,16.37-14.14,1.64-1.45,7.5-6.98,8.87-7.61,3.12-1.43,12.54,1.44,16.31,1.94,30.01,4,60.26,5.69,90.32,9.46,16.08,2.02,32.19,4.62,48.23,7.01,16.47,2.45,33.95,3.7,51.6,5.41,5.63.55,11.21,1.92,16.88,2.25,2.38-13.05,4.12-26.31,6.1-39.46.46-3.44-4.51-1.7-4.94-4.23.83-.19,5.57-.7,5.76-.92.71-.77-.13-3.11-1.91-2.61-.83.24-1.17,2.64-2.73,2.18-2-.58,1.57-4.49-.47-4.9-.75-.15-2.68,2.25-3.33,1.78-1.6-2.61,1.15-3.22,1.34-4.7.09-.73-.68-5.44-1.2-5.56-.79-.18-1.95.15-2.82.02.36-2.94,1.79-2.79,4-3.79.59-1.75-2.5-1.4-2.22-2.66.32-1.45,3.03-1.85,4.24-1.99.96-1.46-1.46-2.63-.25-3.37,1.19-.74,3.44.73,4.28-.65.38-.63-2.41-5.17,2.59-3.51.83.28.35,1.53,1.38,1.27,1.02-.45.44-3.39,1.82-4,2.41,1.25,3.36.21,2.86,3.55,1.8.36,1.48-3.28,1.78-3.56,5.99,1.19,2.42,4.86.89,8.46,2.76-.42,2.51-6.46,5.45-5.7,4.85,1.24-.61,4.66-2.13,6.58-.33.42-1.07,1.24-.88,1.79,1.66-1.28,3.35-2.63,4.92-4,.44-.39.59-1.31.9-1.37,1.25-.21,2.7,1.8,2.38,2.86-.28.96-3.13,1.43-3.52,2.51,4.06-1.01,7.86-3.55,12.02-4.01v11.58c-1.44.28-4.35-1.23-5.5-.86-.99.32-.9,2.36-1.23,2.59-.73.52-2.55-.7-3.51-.2-.67.34-2.77,4.63-3.64,5.75-.55.71-1.68,1.09-1.97,1.63-.46.85.54,2.4.26,2.67-.12.11-3.04.45-3.32.43-.97-.07-3.12-1.94-3.75-.15-.11.32-.17,1.23-.02,1.46.26.38,8.62,1.62,4.64,3.15-1.97.76-3.85-.44-3.82,2.45.06,6.04,2.59,15.89,3.54,22.34.36,2.47,2.03,19.09,2.83,19.67,6.33,1.27,12.84,1.48,19.22,2.38,36.33,5.13,72.69,9.39,109.2,13.74,4.59.55,11.15.23,15.47,1.46,3.96,1.13,1.36,3.59,2.13,4.33.33.32,4.84-.25,5.36,2.03.1.44-1.71,3-2.04,3.3-.83.75-2.17.57-2.83,1.62-.72,1.14-.57,3.47-.95,4.84l.53,34.7c.57,1.74,5.63-.41,6.62,1.85-1.69,2.98-7.27-1.47-6.24,4.23,1.48.26,6.81-.97,6.21,1.52-.3,1.24-5.08.38-6.24,1.41l.73,45.65-38.69,4.51c-2.09,1.03-.65,1.51-.45,2.49.51,2.45.57,4.96.13,7.44-.32,1.77-1.89,1.82-2.01-.65-.14-2.82.29-5.66-.21-8.48-4.78-.2-9.4,1.19-14.09,1.73-7.3.84-17.98,2.65-24.91,2.75-1.46.02-3.64-.84-4.83-.49-.47.14-.28,1.63-.95,1.81-1.1.29-.94-1.88-1.83-2.17-1.85-.61-6.1-.32-8.19-.5v11.58c-2.16.53-2.12-1.03-2.25-2.88-.12-1.84.49-8.01-.42-8.94-.6-.61-16.34-2.61-16.94-1.99.25,1.29.7,5.86-1.51,5.31-1.34-.34-1.25-5.01-1.68-5.68-.14-.22-1.15-.43-1.52-.48-5.27-.68-15.2-.2-20.45.86-.5.1-.84.18-1.13.66v6.46c-.37-.06-1.2.1-1.33,0-.51-.41-.48-5.65-.45-6.68-2.12.61-11.35.29-12.5,1.09-1.48,1.02,1.49,6.43-2.86,6.49l-.67-6.24h-6.46c-1.94,0-.72,14.54-.67,16.48-1.53.49-2.23-.57-2.23-2.01v-14.03l-30.29,2.22c-.05.96.33,5.57-.73,5.82-3.81.89-1.91-4.44-2.85-5.35-.18-.17-4.7.26-4.88.43-.44.42.78,6.79-.72,7.09-.08.02-1.51-.33-1.51-.41v-6.24l-36.53,2.67c.84,7.35-1.34,4.52-6.62,5.86-.35,3.55.54,7.34-.06,10.85-.28,1.62-2.37,1.62-2.67,0-.68-3.67.21-7.21,0-10.91-10.24.09-20.48,1.06-30.74,1.34.11,1.66.35,2.44-1.52,2.65-1.43-2.05-.1-2.7-3.16-2.68-9.13.05-18.47,1.36-27.59,1.83-13.37.7-26.72,1.12-40.11,1.76-.53.03-.88.2-1.05.73-.42,1.29.25,7.41-.53,8.15-.22.21-2.06-.09-2.65.02-.26-2.26.35-5.19,0-7.35ZM311.47,59.24c.09-1.56,2.05-3.99.67-5.34-.91-.24-.99,1.97-1.05,2.5-.07.58-.46,2.72.39,2.84ZM308.36,54.35c-2.04-.01-1.15,2.13-.22,3.11l.22-3.11ZM304.79,56.57c-.45-.31-1.88.14-1.74,1.06.05.31,1.71,2.6,2.19,2.05.11-.55-.23-2.96-.45-3.11ZM303.45,62.81c.72-1.45-3.18-4.23-3.56-2.44-.26,1.23,2.69,2.09,3.56,2.44ZM314.59,62.81c.42-1.77-4.02-2.66-4.45-2.22-.49,3.14,2.3,2.1,4.45,2.22ZM302.57,65.48c.48-.62-3.97-2.27-4.45-1.77-.06.06-.05,1.66.03,1.75.27.29,3.74.56,4.42.03ZM321.27,65.04c-2.62-.02-5.57-.02-8.13.57-.82.19-1.47.16-1.22,1.21,1.07-.24,2.28.52,3.23.35,1.22-.22,3.6-.87,5.05-1.23.75-.18,1.3.44,1.08-.9ZM305.68,71.71c.83-2.33.86-4.76-2.22-4.45-.17,1.7.08,4.2,2.22,4.45ZM302.07,67.76c-.37-.32-3.54.12-4.41-.05-.11.91.23,5.61,1.12,5.79.71.15,3.28-2.06,3.56-2.69.27-.61,0-2.8-.28-3.05ZM315.04,68.6l-3.56-.45c.24,3.5,2.8,4.26,3.56.45ZM321.72,69.05c-.93.44-5.1-.58-5.31-.42-.09.07-.32,1.24-.72,1.73-.44.55-1.62,1.43-1.79,1.8-.41.9,2.58,3.21,2.48,4.46.39.27,6.26-5.96,5.34-7.57ZM310.58,72.61c.36-.35-.89-3.4-1.77-3.56.14,1.39-.24,4.13,1.77,3.56ZM303.9,72.61c-.5-.52-4.36,3.2-3.56,4,1.05,1.05,3.83-3.72,3.56-4ZM311.47,73.94c-1.56-1.53-1.41,4.4-.88,4.9.41.39,2.02-.43,2.15-1.18.04-.19-1.13-3.59-1.27-3.72ZM303.03,78.38c.06.1,1.59.71,2.01.04.52-.82.08-2.58.2-3.58-.61.52-2.62,2.91-2.21,3.54ZM309.25,81.07c.1-.13-.06-2.79-.11-3.19-.06-.45-.13-1.8-.77-1.71.11,1.35-.17,2.92,0,4.24.08.65.33,1.37.89.66ZM306.58,98.89c.54-.84-.41-11.39,0-13.36-.87.18-.79.89-.89,1.56-.66,4.05-.65,8.27-1.78,12.25.24.17,2.6-.33,2.67-.44ZM311.92,100.67l-1.85-14.4-1.26-.74.41,13.98,2.7,1.16ZM303.91,102l2.66-1.11c.08-.92-3.61-.66-2.66,1.11ZM461.04,148.88c-.45-.31-9.38-1.62-10.86-1.83-21.68-3.04-43.63-4.61-65.37-7.24-93.26-11.29-186.41-23.4-279.79-33.8-7.89-.88-16.83-2.98-24.51-3.55-3.36-.25-5.42-.46-4.67,3.56,4.55.33,9.06,1.27,13.59,1.78,54.2,6.13,108.42,11.64,162.58,17.82,60.37,6.9,120.55,15.35,180.85,22.27,9.55,1.1,19.05,2.81,28.73,2.67.17-.16-.31-1.51-.55-1.68ZM306.07,104.74c-.2-.33-2.82-.71-3.04-.5l-.46,4.89c.2.2,3.26-.12,3.5-.51.16-.26.16-3.62,0-3.88ZM312.81,104.23c-5.31-.86-4.96,6.32.44,5.35l-.44-5.35ZM127.06,114.93c-12.45-2.07-25.09-2.67-37.63-4.02-3.7-.4-7.99-1.55-11.59-1.77-4.25-.26-.85,1.61,1.02,2.1,2.41.64,4.72.3,7.01.56,70.42,8.07,141.13,15.02,211.59,23.16,47.58,5.5,95.04,12,142.6,17.31,8.49.95,17.07,1.33,25.55,2.28-.33-2.26-4.78-1.43-6.39-1.78-.34-.08-.27-.85-.48-.84-14.66.61-28.83-2.75-43.29-4.45-40.53-4.74-80.36-9.59-120.66-14.31-35.07-4.11-70.04-8.42-105.13-12.02-16.1-1.65-32.42-2.62-48.54-4.46-3.5-.4-9.81-.88-12.93-1.76-1.06-.3-.67-.34-.66-1.35l-.44,1.34ZM308.8,126.95c.78-2.81.11-5.81-.01-8.67-.09-2.14.37-5.22.02-7.14-.14-.76-.48-1.25-1.33-1.11.7,3.74.38,7.55.45,11.35l.88,5.57ZM75.84,118.49v6.68c11.85,1.76,23.9,2.93,35.86,4,16.2,1.46,32.38,2.84,48.55,4.46,17.88,1.79,35.77,3.12,53.51,4.84,65.66,6.37,131.19,13.31,196.83,19.66,9.79.95,19.61,1.69,29.4,2.67,7.35.73,14.61,2.71,22.06,2.23v-3.31c-6.28-.87-12.62-1.78-18.94-2.48-46.61-5.15-93.16-10.51-139.86-15.15-34.76-3.45-69.52-7.98-104.24-11.57-35.49-3.68-71.13-6.41-106.46-11.13l-16.7-.9ZM462.03,164.82c-.32-.45-9.46-1.2-10.91-1.34-113.35-10.56-226.52-22.29-339.87-32.52-9.95-.9-20.3-2.76-30.27-3.13-.96-.04-4.85-.34-5.09.72-.06.27.34,1.86.7,1.98,1.9.66,8.25,1.13,10.61,1.32,61.94,5.08,123.82,11.16,185.75,16.48,12.62,1.08,26.28,1.04,38.78,2.64.85.11.59.91.92.95.72.09,2.15-.55,3.49-.47,11.94.71,24.94,3.24,36.99,4.46,31.61,3.21,63.24,6.03,94.87,8.91,2.97.27,10.99,1.98,13.29,1.26.52-.16,1.03-.86.74-1.25ZM461.53,168c-9.57-1.73-19.43-1.76-29.11-2.74-43.06-4.37-86.06-9.36-129.18-12.92-34.04-2.81-68.01-6.03-102.01-8.9-31.42-2.66-63.28-4.69-94.41-8.04-10.05-1.08-20.18-1.77-30.25-2.59-.94.32-1.11,2.34-1.19,3.26-.76,9.24.13,18.46.04,27.65-.18,16.75-2.13,34.18-1.82,50.78.04,2.27.93,5.33.94,7.55.1,13.71-2.56,27.75-.9,41.41.57,3.55-.71,8.69-.37,11.93.1.92.84,1.81,1.68,1.22.15-.1-1.59-3.49.44-3.11-.34,3.9,0,3.17,3.57,3.11-3.49-7.64,3.63-15.45,3.6-22.93-.01-3.56-2.18-8.18-2.65-12.09-1.13-9.31.59-15.81,2.83-24.67,1.03-4.07,3.41-7.56,2.01-12.02,3.64.58,2.79-.52,4.47-2.44,8.98-10.28,15.5-10.24,27.72-14.59,2.66-.95,5.11-2.51,7.9-3.24,1.51-.4,7.34-1.59,8.57-1.46.46.05,1.9.54,1.23,1.23-.47.48-6.41,1.43-7.57,1.35-.1.78,1.01.42,1.55.44,6.88.31,14.18-3.32,20.99-4.4,9.89-1.57,20.19-.4,29.68,2.73,6.87,2.27,12.96,6.03,19.19,9.6,5-2.9,11.26-2.67,16.46-4.03.55-.14,1.07-.33,1.44-.78l-.23-20.94c11.9,1.1,23.93.39,35.88.87,32.1,1.31,64.51,4.95,96.64,5.81,11.56,1.21,23.39,1.02,34.78,3.08.25,5.88-.94,11.94.2,17.85,12.8-6.29,27.3-5.75,36.98,5.57,5.18.06,10.57-1.15,15.81-1.55,8.5-.66,17.17-.56,25.55-1.85.17-4.5,0-9.03.04-13.54.02-1.86.61-3.61.48-5.79-.22-3.48-1.49-7.09-.97-10.83ZM218.38,176.62c-.49,1.58,0,10.03,0,12.47,0,.31.74.6,1.11.67,3.95.69,10.77,1.29,14.6.35,1.7-.42,4.25-2.16,6.12-2.79,6.8-2.29,14.7-3.01,21.82-2.01-.26-1.82.93-7.13-1.56-7.58l-19.14-1.35c-5.64-.12-11.32.21-16.96.04-1.26-.04-5.53-1.29-6,.2ZM265.15,178.18v7.57c3.98.15,8.14,1.98,11.74,3.63,1.41.64,6.52,3.88,7.21,3.94,2.05.19,6.55-.9,8.84-.84,3.82.11,8.98,2.81,12.52,2.18,1.78-.32.68-1.56.65-2.87-.04-1.68.31-11.5-.24-11.87l-40.72-1.73ZM345.33,190.65v-8.24c0-.56-1.39-1.06-1.98-1.14-10.32-1.36-22.09-.26-32.56-1.34-1.16-.41-1.98,1.71-1.98,2.47v12.25c3.68-.04,6.67-3.02,10.09-4.39,6.98-2.81,13.49-2.93,20.73-1.26,1.97.46,3.74,1.25,5.71,1.64ZM381.36,184.01c-10.98-2.08-22.29-1.35-33.36-2.27.06,3.44-.84,6.72-.14,10.13l.43.59c2.35.37,4.3,2.64,6.38,3.31.98.32,7.56,1.93,8.28,1.97,2.39.11,7.29-1.68,10.2-1.78,2.93-.09,5.78.98,8.7.91-.68-4.26-.36-8.57-.49-12.87ZM139.98,187.08l23.5,3.9c7.96,2.29,15.12,6.43,22.15,10.66,1.05-1.12,8.97-5.22,9.13-5.88.21-.86-3.09-2.76-3.87-3.25-9.57-6.02-27.05-9.94-38.22-8.54-3.42.43-6.53,1.58-9.86,2.17-.44.08-4.05-.2-2.84.94ZM262.48,187.98c-5.85-.82-13.58-.89-19.25,1.01-.88.3-2.17.72-2.57,1.65,3.81.33,8.19,1.36,11.81,2.67,3.54,1.28,6.58,3.44,10.01,4.91v-10.25ZM138.64,188.42c-3.04-.1-6.3-.37-8.46,2.22,2.35-.28,5.17-.65,7.43-1.27.76-.21,1.24.32,1.03-.95ZM279.4,194.66c.17-.8-.23-.88-.74-1.26-1.52-1.15-12.37-6.03-13.5-4.95-.79,2.07-.07,3.76-.02,5.55.03,1.28-.41,6.68.68,6.9.73.15,11.03-6.95,13.57-6.24ZM122.16,189.32c-4.53-.09-8.49,2.79-12.78,3.92l-4.59,2.31c5.8-1.39,12.66-2.52,17.37-6.23ZM337.76,199.11c.29-.27,0-6.7,0-7.8,0-.58-2.71-1.04-3.35-1.11-7.2-.75-14.49,1.78-20.71,5.12-.19,1.07.5.52,1.09.67,3.49.87,6.77,1.43,10.16,2.77,1.32.52,6.11,3.31,6.79,3.3.59,0,3.24-2.23,4.28-2.71.63-.29,1.67-.19,1.74-.25ZM176.51,271.72c.11-6.77-.05-13.52-.02-20.29.03-8.79.37-17.89.48-26.73.06-4.79.08-9.67-.22-14.47-3.19-5.36-8.77-9.91-14.09-13.08-10.9-6.49-17.99-7.3-30.44-5.13-8.43,1.47-11.82,3.66-18.29,8.89-2.12,1.71-4.13,3.61-6.24,5.34-1.1,14.92-1.52,29.83-1.99,44.78-.11,3.44-.9,7.7-.93,11.1-.03,4.27.92,8.79.46,13.16l17.81-.9c.86-5.84,1.01-11.65.91-17.61-.03-1.74-.8-4.02-.82-5.77-.16-13.35.93-26.72.82-40.11-.03-3.06-1.29-6.58.72-9.58,11.98-.04,23.94-.18,35.84,1.17.24,1.13.63,2.47.67,3.6.27,7.19-.24,14.47-.28,21.75-.06,12.95.2,26.31.02,39.18-.02,1.5-.99,2.94-.02,4.7h15.59ZM156.91,192.43c.07.07,1.31.19,1.95.5,5.36,2.69,9.51,5.16,14.1,9.07.89.76,3.4,3.79,4.01,4.03s1.19-.2,1.89-.13c.4.04.72.79,1.21.59.32-.13,3.56-2.91,3.56-3.14-1.05-1.08-2.43-1.76-3.7-2.53-6.16-3.71-12.53-6.6-19.44-8.63-.42-.12-5.16-1.2-3.58.23ZM221.94,191.54c-1.25.08-3.57-.61-3.56,1.33.87-.12,3.8.23,3.56-1.33ZM339.09,191.54v6.68c2.31-1.72,7.86-.11,6.59-4.14-.52-1.67-4.94-2.68-6.59-2.54ZM216.15,191.98c-3.18.15-6.37.67-9.45,1.46-1.05.27-6.41,1.69-6.14,2.76l4.6,3.73c1.29-1.64,10.47-5.06,10.89-5.82.3-.54.03-1.49.1-2.14ZM234.86,193.32c5.51,1.51,10.46,4.96,14.71,8.68.86.75,5.17,5.48,5.56,5.47.27,0,.82-.89,1.32-.79.44.09.99,1.77,1.35,1.78.33,0,4.5-4.45,4.59-4.76.35-1.15.06-2.62-.83-3.45-1.14-1.06-6.69-3.97-8.32-4.6-4.17-1.6-12.98-3.92-17.25-3.2-.53.09-1.05.26-1.13.87ZM228.62,193.33c-2.13-.03-7.94.9-9.5,2.19-.99.81-.72,4.13-.74,5.38l10.24-7.57ZM417.93,202.23c.84-.72-4.32-4.4-4.84-4.73-9.19-5.95-19.12-3.8-28.56.29l10.93,6.21,22.47-1.76ZM240.93,197.95c-1.54-.88-7.08-3.87-8.5-3.73-.78.08-7.99,5.21-9.03,6.1-.32.27-.84-.02-.56,1.02l21.76.06.51,60.96,10.24-.89c.07-17,.04-33.97-.54-50.91-2.58-2.84-4.98-6.08-7.92-8.56-1.85-1.57-4.02-2.95-5.96-4.06ZM298.56,195.99c-.16-.85-.93-.74-1.54-.91-3.25-.9-7.17-.41-10.49.02.37.68,3.5,3.42,3.85,3.49.74.14,6.62-2.79,8.18-2.61ZM115.04,196c-1.57-.31-8.9,4.37-8.89,5.12,0,.18,1.52,1.22,1.33,2,2.62-2.28,5.26-4.52,7.56-7.12ZM283.56,202.39l4.3-2.6c0-.49-4.34-3.7-5.13-3.78-2.01-.19-14.08,4.47-14.46,6.02.94,1.45,6.18,7.16,7.43,7.27l7.86-6.91ZM197.67,197.01c-3.71,1.71-7.17,3.93-10.47,6.34l6.9,5.93,8.66-7.75-5.1-4.52ZM216.59,196.89c-.52-.51-8.56,3.53-9.16,4.45-.8,1.24,2.42,2.78,2.49,4.01,1.06.47.85-.85,1.1-.9,1.55-.29,1.78,1.77,2.23,1.79.19,0,2.43-2.33,2.65-2.68,1.25-1.99.51-4.44.69-6.66ZM302.04,196.98c-1.14.06-9.71,2.67-9.71,3.25l2.45,2.01c2.13-.94,5.12.03,7.03-.54.21-.06,3.38-2.59,3.43-2.81.26-1.04-2.23-1.96-3.2-1.91ZM323.07,208.91c.11.08.42-.05.65,0,1.2-1.84,4.42-3.66,5.59-5.11.42-.52.62-.36-.02-.89-1.12-.93-4.59-2.23-6.11-2.8-2.26-.85-9.94-3.55-11.82-3.13-.64.14-1.24.52-1.66,1.02-.18.77,3.19,2.42,4.01,3.11,1.53,1.29,6.06,6.69,7.12,7.16.51.23.96-.77,1.55-.71.48.09.62,1.29.69,1.34ZM348.01,202.68c1.49-.45,3.13-.69,4.68-.89.96-.12,4.57.51,4.23-1.11-3.58-3.94-10.28-5.87-8.9,2ZM360.92,199.11c-.65-1.26-2.81-1.03-4.01-1.33.16,1.92,2.73,1.96,4.01,1.33ZM345.73,198.26c-1.2-.82-9.91,3.2-11.42,4.3-.22.16-.89.08-.56.78.32.67,3.61,2.33,4.45,2.9.16-.22-.46-6.12.89-4.46.52,1.59.1,4.51.68,5.79.39.87,3.56,2.75,4.46,3.55,1.64-.13.28-6.66.65-8.13.12-.49,1.16-.31,1.37-1.42.11-.6-.16-3.07-.51-3.31ZM379.18,198.67c-1.39-.76-12.94-.65-12.91.66l6.45,4.25,6.46-4.91ZM104.79,198.67c-2.55.58-5.3,1.51-7.45,3.01-.65.45-5.19,4.45-4.57,5l4.63-.94,7.4-7.07ZM382.3,205.35c-.17-1.11.65-6.18-1.11-5.79-.32.79-7.48,5.37-6.46,6.23l7.57-.44ZM313.7,257.02h6.46c.12,0,1.53-.53,1.59-.72-.25-10.22.23-20.48,0-30.7-.06-2.41-.36-5.15-.46-7.56-.17-4.01.9-5.82-2.05-9.08-1.18-1.31-3.56-3.78-4.83-4.97-.56-.53-5.03-3.98-5.37-3.98-.59,0-.95,1.61-.48,2.25.83,1.12,3.94-.08,4.26,3.3.79,8.12-.2,17.66-.02,25.86.14,6.49,1.04,13.15,1.19,19.66.02.99-.66,5.56-.28,5.94ZM361.06,202.54c.29.33.99.56,1.42,1,.65.66,3.28,3.89,3.54,3.93.42.06,4.87-1.1,5.09-1.99.34-1.35-5.79-5.14-6.96-5.4-1.8-.41-4.83.45-3.1,2.45ZM392.1,203.57c-1.33-.28-7.8-4.15-8.46-3.57l.44,4.9c2.45.08,4.93-.02,7.34-.46.72-.13.78.3.68-.87ZM462.04,200.89c-4.76.38-9.73.12-14.47.45-7.21.51-15.99,1.33-23.13,2.27-2.64.35-1.86,1.85.38,1.76,3.3-.13,6.93-.96,10.29-.49,6.55.92,11.56.09,18.24-.42,1.2-.09,8.29-.07,8.68-.45.14-.13-.1-2.52,0-3.12ZM291.33,202.33c-.09-.16-1.6-.95-1.9-.96-1.86-.07-10.04,6.42-11.36,8.44,1.62.13,12.94-1.71,13.31-2.28.17-.26.16-4.84-.04-5.19ZM104.79,202.23c-.38-.4-4.27,2.78-4.45,3.56,2.79-.14,4.43-.51,4.45-3.56ZM242.43,262.36l1.35-1.11-.06-58.32c-.31-1.26-4.19-.52-5.29-.7-.39,1.85,2.58.18,3.37,1.31.16.23.51,4.72.55,5.59.39,7.25.03,14.96.07,22.26.06,10.32,0,20.66.02,30.97ZM209.47,208.46c-1.48-1.72-3.17-3.8-5.11-4.9-.65,0-5.71,3.94-6.47,4.68-.48.46-1.04.78-.88,1.56l12.47-1.34ZM220.16,203.57c-1.5.02-2.09,1.64-2.23,2.88-.81,6.92-.24,17.94-.27,25.33-.03,8.92-.26,19.37.26,28.16.08,1.41.67,2.77.47,4.22l1.34-.27.44-60.31ZM265.15,204.24c-.45,1.63.33,5.03,0,6.9l8.02-.67c-.03-1.11-6.08-6.77-6.98-6.85-.44-.04-.96.31-1.05.62ZM311.47,204.02c-.55-.72-.81,0-.89.66-.71,5.59.55,12.54-.02,18.29,1.55,10.45-.55,21.6.58,32.04.06.56.05,2.27.99,2.02l-.67-53.01ZM420.61,204.9c-.46-1.15-3.52-.55-4.67-.44-5.43.54-11.07,1.05-16.47,1.8-.64.09-1.31-.42-1.12.64,1.15.17,3.18,3.33,3.42,3.38.71.14,1.77-.45,2.6-.47,1.59-.05,12.23-.45,12.69-.9.41-.4-1.24-4.54,3.57-4.01ZM338.2,211.59c-.05-1.12.3-2.38-.42-3.37-.34-.47-5.51-3.77-6.06-3.75-1.14.04-6.06,5.03-7.34,6.01,4.46.98,9.22,1.05,13.81,1.11ZM191.65,210.25c.16-.75-.24-.9-.68-1.33-.55-.54-5-4.03-5.34-4.03-.35,0-4.61,3.52-4.68,3.81-.26.91,2.43,1.55,2.89,1.55h7.8ZM365.37,210.69c.67-.63-3.03-4.88-4-5.34l.2,5.37,3.8-.02ZM461.97,206.3l-24.88,1.27,1.79,45.44,24.03-2.7c-.19-8.84-.38-17.66-.44-26.5-.02-2.85.07-5.6,0-8.42-.03-1.47.36-8.56-.49-9.09ZM216.59,206.69c-.49-.56-3.35,3.02-3.47,3.43-.21.71-.46,4.57-.53,5.71-.73,12.56-.24,25.71-.47,38.29-.09,5.27.11,10.57.02,15.83l4.46-.45v-62.8ZM262.47,206.69c-.48-.53-4.54,3.54-4,4l4,.45v-4.45ZM398.78,210.24c-.84-1-2.6-3.34-3.81-3.56-1.48.38-10.01.48-10.44.9-.16.16.1,2.5,0,3.12l14.26-.45ZM104.79,207.58c-.41-.43-6.22,1.29-7.37,1.35-2.05.11-4.65-.64-6.89.2-1.45,2.81-4.08,7.57-4.04,10.7.07,5.53.2,11.29.06,16.95-.07,2.92-.89,6.79-.75,9.71.13,2.53,1.88,4.9,1.9,7.12.02,2.93-1.69,5.06-2.04,7.23-.72,4.53.48,10.64-.03,15.34l16.49-.45,2.67-68.15ZM382.3,207.58c-1.26.09-2.5.33-3.77.47-.7.08-1.77-.49-1.57.64.56,1.21,1.96.04,2.21.23.4.3.28,3.16,3.13,2.23v-3.57ZM377.85,259.25v-44.77c0-1.49-2.26-5.82-3.81-6.03-1.75-.23-4.99,1.01-5.76,2.69-.74,1.6.21,3.08.23,4.65.12,11.38.48,22.94.41,34.3-.02,2.5.06,5.01,0,7.52.21.93,7.59,1.33,8.93,1.63ZM342.21,212.03l-2.67-2.67c-.44,2.69.41,2.23,2.67,2.67ZM291.43,209.8c-8.76,1.1-17.36,3.74-26.28,3.12l.89,47.67,25.79-1.83-.4-48.95ZM209.91,210.7c-1.97.21-4.05.7-6.01.89-5.34.51-12.15,1.38-17.37,1.38-1.99,0-4.96-.76-6.9-1.37l-.9,59.69,30.68-1.4.51-59.18ZM418.76,255.62l-1.72-44.93c-9.58,1.22-19.48,1.77-29.19,1.79-.54,0-1.06-.38-1.35-.39-.12,0-.45,1.44-1.97.84l.89,46.77,33.34-4.07ZM262.47,212.48l-5.34-.45.45,49h5.35s-.45-48.55-.45-48.55ZM366.26,212.03l-4.46.7,1.33,44.44c.18.77,3.95,1.08,4.04.48l-.9-45.62ZM338.6,213.86l-15.54-1.39.44,44.1,15.15-.89-.05-41.83ZM382.28,212.5c-.22-.21-2.06.08-2.65-.03-.01,8.39.02,16.79.02,25.19,0,6.31-.72,13.19.04,19.54.28,2.35,1.14,2.85,3.54,2.3,1.2-.85,0-6.9-.05-8.48-.23-8.91.2-17.85.04-26.76-.87-1.89-.06-10.92-.93-11.76ZM345.33,213.81h-5.8c.85,10.73.61,21.53.87,32.32.07,3.05,1.18,6.41.02,9.56.9-.42,5.68,1.05,5.8.19l-.9-42.06ZM84.3,238.53c.73-2.85-.54-8.61,0-11.8l-1.29,3.83c-.26,2.91.07,5.77.4,8.64.28.01.85-.52.89-.67ZM143.1,237.87c-1.24-.18-.83.21-.89,1.1-.3,4.62.11,9.27.02,13.79-.13,6.62-.79,13.2-.46,19.84,1.16.53,1.15-2.24,1.17-2.97.25-9.68-.54-19.54-.3-29.34.02-.85.33-1.61.47-2.43ZM83.85,266.82c-.55-.72-.81,0-.89.66-.2,1.59.15,3.49,0,5.13.55.72.81,0,.89-.66.2-1.59-.15-3.49,0-5.13Z" fill="#3e3b39"/>
    <path d="M272.72,153.23c1.7-.35.29,1.99,1.56,2.67,1.77-5.45,1.67.16,1.56,2.67l1.34-4.9c1.43-.32,1.23,1.75,1.34,2.67,1.04-.11,1.06-2.15,1.62-2.26.34-.07,4.89.25,5.2.45,1.83,1.18-.72,3.74.3,5.38.57.02.98-1.35,1.11-1.78.1-.32.41-4.72,1.55-3.57.22.22,1,5.15,1.35,6.01-.6.58-1.56-.27-2.36-.14-.59.09-1.37.93-1.86.82-.67-.15-.24-1.51-1.35-1.35-.42.06.04,1.47-1.11.9-.37-2.51,1.34-5.17-2-5.35l-.23,3.57,1.78-.44c.35,2.27-2.81,2.66-3.91,1.68-.24-.22-.17-1.52-.77-1.68-.82-.21-1.17,2.22-2.87,1.32.32-1.09-1.02-4.19-1.36-2-.14.93.59,2.33-.89,2.01v-6.68Z" fill="#3e3b39"/>
    <path d="M299,154.12v6.24h1.34v-6.24h1.33c-.22,2.02.95,8.08-2,8.06-2.21-.01-2.68-2.67-2.45-4.5-.51.2-2.96.82-3.07.94-.43.49.79,4.48-1.41,2.87-.77-.56-.36-8.74.03-9.15.11-.11,2.33-.06,2.8.08.99.29,1.66,2.28,3.43,1.69Z" fill="#3e3b39"/>
    <path d="M333.3,164.81h-3.56s0-1.78,0-1.78c-3.82,5.07-4.71-4.96-2.67-6.01,1.89-.98,2.1.37,2.23,2l1.11-2.22,1.12,2.22,1.78-1.78v7.57ZM328.4,162.58c-.11-1.29.47-3.7-.88-4.45-.36,1.36-1.34,4.32.88,4.45Z" fill="#3e3b39"/>
    <path d="M337.3,159.03c.11.09.14,1.02.68,1.33.52-1.8,3.84-1.58,3.34.44.94-.32.68-2.09,2.24-1.13,1.43.88.81,4.56,0,5.84-.22.17-3.02-.38-3.14-.47-.38-.28-.49-1.86-1.34-1.12-.09.08.4,2.11-1.11,1.33-.74-.38-.62-2.9-1.59-1.52-.41.58.03,1.85-1.31,1.52.71-1.65.75-4.49,1.34-5.97.18-.45.75-.37.88-.26ZM343.55,160.81c-1.74-.12-1.17,2.74-.88,3.56l.88-3.56Z" fill="#3e3b39"/>
    <path d="M347.11,159.91l.22,1.34c3.04-4.64,2.15,3.27,2.91,4,.48.46,1.53.21,1.34-1.14-.13-.96-.79-.44-.92-.86-.3-1.03,1.27-.25.9-1.78-.13-.56-1.21.1-1.34-.45.29-.99,3.41-.33,3.54-.2.26.26-.13,4.44.02,5.32-1.58-.57-4.63.31-5.94.01-.45-.1.08-1.4-1.62-.46.64-1.77-1.48-5.7.89-5.79Z" fill="#3e3b39"/>
    <path d="M302.12,154.12c2.18.22,5.2-.15,5.35,2.67,1.15-.47.35-2.69,2.23-1.55.12,1.23-1.03,2.15-1.24,3.21-.18.86.32,5.65-1.44,4.36-.82-.6-.08-7.25-1.59-7.37-1.81-.15-3.28,1.9-.98,2.25,1.71.26-1.3,1.88-.99,2.88.26.83,2.24.32,1.77,1.33-.45.97-2.23.66-3.11.67v-8.46Z" fill="#3e3b39"/>
    <path d="M310.14,155.01c1.6-.07,3.54.01,3.61,2.01.05,1.37-.9,1.97-.93,2.67-.03.86,1.31,2.12.87,3.34-1.8.38-1.67-2.54-2.01-2.67l-1.55,2.68v-8.02Z" fill="#3e3b39"/>
    <path d="M314.59,155.46c1.9-.15,3.73.18,3.6,2.46-.06.99-.84,1.51-.83,2.13,0,.79,1.07,1.94.8,2.97-2.06.53-1.19-1.54-2.01-2.67-1.67-.04.42,3.17-1.55,2.68v-7.57Z" fill="#3e3b39"/>
    <path d="M322.17,163.92v-7.57c4.71-1.06,4.94,8.6,0,7.57ZM323.51,162.59c1.41-.72,1.24-3.83.22-4.9l-.22,4.9Z" fill="#3e3b39"/>
    <path d="M180.96,161.7c.1.78-1.01.42-1.55.44-2.28.09-4.87.1-7.15.02-2.36-.09-5.63-.28-7.95-.52-.46-.05-2.09-.18-2.06-.83,6.28-.35,12.46.51,18.7.89Z" fill="#3e3b39"/>
    <path d="M78.06,146.55l-.88-4.68c-.27-1.8-.08-9.01,1.8-4.47l-.92,9.15Z" fill="#3e3b39"/>
    <path d="M319.05,155.91h2.68c.26,1.76-.26,1.34-1.79,1.34-.83,1.74,1.62,2.1,1.34,2.89-.18.52-1.21-.1-1.37.47-.81,2.92,1.55,1.72,1.81,1.99.05.05.04,1.28,0,1.33-.22.23-2.67,0-2.67-.67v-7.35Z" fill="#3e3b39"/>
    <path d="M272.27,155.01c-.5.48-1.54-1.07-1.77-.89-.53,1.87-1.4,5.35,1.77,4.01l-1.56,2.21c-2.81-1.1-2.93-7.86.35-7.07.54.13,1.58,1.37,1.2,1.73Z" fill="#3e3b39"/>
    <path d="M446.45,181.74c.72.59-.06.81-.66.89-1.51.2-8.39-.43-9.79-.91-.73-.25-1.3-.33-1.13-1.31l11.58,1.34Z" fill="#3e3b39"/>
    <path d="M201.45,150.12c.1.78-1.01.42-1.55.44-3.3.15-8.28-.35-11.59-.89-.66-.11-1.37-.02-1.56-.89,4.92-.06,9.8.98,14.7,1.34Z" fill="#3e3b39"/>
    <path d="M90.09,162.14l.23-1.79,9.12.9c.18.47-1.47.89-1.56.89h-7.8Z" fill="#3e3b39"/>
    <path d="M218.16,166.6c-.56-.07-2.85-.56-1.78-1.34,2.19.61,4.43.28,6.62.5.46.05,2.1.18,2.06.84-2.18-.2-4.78.28-6.9,0Z" fill="#3e3b39"/>
    <rect x="86.08" y="140.76" width="7.13" height=".89" fill="#3e3b39"/>
    <path d="M101.22,148.34c.1.78-1.01.42-1.55.44-1.83.08-3.66.1-5.43-.38-.76-.21-1.24.32-1.03-.95l8.01.89Z" fill="#3e3b39"/>
    <path d="M108.35,158.14c.65.61-.06.82-.67.9-1.72.21-3.39-.71-5.12-.46-.07-1.05-.14-.78.66-.89.78-.11,4.76.1,5.13.45Z" fill="#3e3b39"/>
    <path d="M96.77,187.98c.22-.36.11-1.26.9-1.54l4.89-2.47-2.32,2.34c-1,.93-2.39,1.15-3.47,1.67-.39.63-.37,1.99-1.78,1.78-.15-1.36.99-1.4,1.78-1.78Z" fill="#3e3b39"/>
    <path d="M86.52,159.91l-.8-3.34.36-2c1.89,1.1.35,3.67.44,5.34Z" fill="#3e3b39"/>
    <path d="M85.63,137.2c.36,1.71-2.59.59-3.56.89-.36-1.71,2.59-.59,3.56-.89Z" fill="#3e3b39"/>
    <rect x="89.65" y="147.44" width="2.67" height=".89" fill="#3e3b39"/>
    <path d="M109.69,159.02c-.15.3-.76-.26-.44-.89.15-.3.76.26.44.89Z" fill="#3e3b39"/>
    <path d="M117.26,222.72v6.9c0,.49-.89,1.94-.45,2.9-1.36.41-.94-1.57-.91-2.47.08-2.19.8-4.38.47-6.67l.89-.66Z" fill="#3e3b39"/>
    <path d="M114.59,273.5h-1.33s.89-7.12.89-7.12c.78-.1.45,1.04.43,1.55-.08,1.81-.63,3.75.01,5.57Z" fill="#3e3b39"/>
    <rect x="120.38" y="267.27" width=".89" height="6.24" fill="#3e3b39"/>
    <path d="M396.55,256.13c.21,1.27-.27.74-1.03.95-.97.27-1.96.47-2.97.38-.16-1.66,3.06-1.23,4-1.33Z" fill="#3e3b39"/>
    <path d="M338.64,183.08c.18.17.62,4.73.45,4.9-3.04.78-1.4-2.72-1.78-4.9.36.06,1.24-.09,1.33,0Z" fill="#3e3b39"/>
  </g>
</svg>