<?xml version="1.0" encoding="UTF-8"?>
<svg id="Capa_1" xmlns="http://www.w3.org/2000/svg" version="1.1" viewBox="0 0 217.72 347.32">
  <!-- Generator: Adobe Illustrator 30.3.0, SVG Export Plug-In . SVG Version: 2.1.3 Build 182)  -->
  <path d="M46.58,338.28c-.93,0-1.86-.18-2.68-.61-2.07-1.05-3.25-3.17-3.16-5.37l5.81-144.1c.04-.92.29-1.81.75-2.61l3.09-5.44s0-.02,0-.03l.64-26.13c0-.35.05-.71.12-1.05l4.67-22c.36-1.71,1.41-3.22,2.95-4.05.85-.46,1.78-.68,2.71-.68.12,0,.24,0,.36.01l11.66-106.19c.32-2.91,2.78-5.11,5.71-5.11h3.24c2.94,0,5.4,2.22,5.71,5.14l10.84,103.4s.03.05.06.05h.88c2.62,0,4.9,1.77,5.56,4.3l6.64,25.65c.1.41.17.82.18,1.24l2.61,75.71s0,.03.02.04l35.15,31.82s.03.02.05.02l25.32-3.06s.03,0,.04-.02l6.9-7.99c1.12-1.3,2.72-1.99,4.35-1.99.86,0,1.73.19,2.55.6l2.13,1.05c1.82.9,3.03,2.71,3.18,4.74l5.11,72.45c0,.13.01.27.01.4v3.97c0,3.2-2.6,5.8-5.8,5.8H46.58Z" fill="#f2efe6"/>
  <g>
    <path d="M59.9,142.81c.6-.32.64-.02.71.52.4,3.18-.76,6.72,1.05,9.68l-.35,3.16-1.41-6.32c-.76-.18.1,1.07-.7,1.05.93-2.73.65-5.27.7-8.08Z" fill="#3e3b39"/>
    <path d="M66.58,168.13c-.73.47-2.23,1.21-2.64,2.12-.46,1,.42,1.9.13,2.9-.03.12-1.27,1.93-1.36,2.01-.86.72-.55-.98-.89-1.08-.43-.12-2.53-.02-3.07.1-1.78.39-1.81,2.47-3.41,2.74.76-3.31.07-6.66.72-10.02l-.72-13.88,1.4.7c-.03-.54-.5-4.07-.35-4.22.07-.07.82.18,1.09-.21.2-.29.64-3.04.77-3.73.38-2.12,1.35-7.42,1.33-9.25,0-.92-.77-2.5-.7-2.79.11-.42.93-.39,1.04-.79.13-.51-.15-2.08,0-2.22h1.05c-.64,1.57.83,2.39,1.01,3.06.21.77-1.07,2.04-.67,3.07.73,1.6,1.31,12.39,1.77,12.85,1.01,1,1.2-2.92.98-3.62-.17-.54-.97-.81-.98-1.47,0-.44.89-2.54,1.01-3.57.35-2.96.29-6.25.75-9.27,1.58-.42,1.19,1.42,1.42,2.64.11.58-.23.61.69.53.14-2.07.13-4.46.36-6.5,2.37-21.11,5.47-42.18,8.08-63.29.45-3.65.5-7.29.7-10.88.16-2.84,2.06-6.92,2-9.93-.02-1.18-.97-2.81-.91-4.12.08-1.56,1.59-2.3,1.41-4.25-.11-1.22-1.29-1.76-1.09-3.14.13-.9,1.06-1.1,1.33-1.86.55-1.54-.3-3.22.43-4.66-3.34.8-1.07-.34-.73-1.63.18-.69-.77-.26-.69-.99.09-.85.9-1.34,1.06-2.15.15-.8-.36-5.08.54-5.08.82,0,.47,3.21.53,3.86l1.4-1.05c.26,1.36-.85,2.53-1.03,3.71-.22,1.41-.19,5.21-.04,6.68.23,2.25,1.74,2.35.7,5.87-.09.31-.67.26-.69.47-.08,1.18,1.31,2.55,1.41,3.51.11,1.07-.57,1.86-.67,2.81-.3,2.7.62,4.88.69,7.35.03,1-.97-.06-1.89-.06-.25,0-1.05.15-.93.59,1.63-.33,2.88.88,3.51,2.3-.11,13.15,2.62,26.06,4.18,39.06,1.34,11.2,2.26,22.48,3.6,33.67.31,2.57,1.48,5.19,1.02,7.94,1,.17.59-.21.75-.81.37-1.36-.16-3.72,1.36-3.75.03,1.81.54,3.66.7,5.45.15,1.65-.11,4.01.08,5.54.12.99,1.27,2.41,1.26,2.55s-1.15,1.05-1.22,2.39c-.15,2.83,1.49,2.75,1.95.03.5-2.92.99-7.58,1.1-10.53.07-1.91-.45-1.6-.09-3.93.04-.29.23-4.03,1.13-2.91-.65,1.24,1.07,3.01,1.09,3.33.08,1.15-.44,2.44-.39,3.87.15,4.16,1.89,8.64,2.11,12.84l1.05-.35c.33.62.27,3.37.39,3.5.14.15.91-.07,1.02.02.18.15-.68,3.82-.72,4.73-.24,4.98-.4,12.78.4,17.56.08.5,1.04,1.76.31,2.32-.79.61-1.76-1.97-2.09-2.3-.99-1.02-5.66-1.12-4.59,1.6-.88-.35-.96-1.72-2.1-1.59l3.16,3.87c1.16.64,3.16-.4,4.55.73.2.16,2.4,2.68,2.44,2.87.21.8-.67,1.26-.67,1.33v5.8c2.24-.46,1.18,1.23,1.44,2.95.18,1.16,1.88,6.31,1.33,6.87-.14.14-.96-.19-1.04.21-.31,1.56.34,3.4.39,4.89.09,2.71-.46,7.11,0,9.5.21,1.13,1.66,1.47,1.75,2.48.05.57-.36,1.36-.37,2.09-.14,7.96.12,15.94.03,23.91l.68.89c.07-1.33.17-2.73.36-4.04.09-.61-.19-.59.69-.53.47,1.94-.12,5.22,1.23,6.69,1.36,1.49,5.18,3.78,7.03,5.28.24.2,2.86,3.12,3,1.92.08-1.07-.51-2.99,1.05-2.99-.12,1.76.57,3.44,1.04,5.11l7.58,6.48c.72.09.46-.03.52-.52.08-.62-.12-3.23,0-3.35h1.05c.21.21.13,4.85.69,5.82.19.33,5.48,4.61,5.84,4.71.93.26.78-2.43.86-2.97.09-.61-.19-.59.69-.53.32,1.46.09,4.49.91,5.6.41.56,2.38,1.58,3.13,2.14.45.34,1.08,1.25,1.42,1.4,1.24.52-.31-3.29,1.22-2.81-.07,2.02.68,5.88,3,6.32,1.45.28,8.14-.83,10.14-1.1,8.2-1.11,16.36-2.68,24.61-3.52,1.08-.34.26-3.17.94-3.81.55-.53.62.05.69.53.12.84-.11,3.91,1.24,3.33.68-.29.64-2,.56-2.66-.1-.73-.87-.35-.74-1.01.1-.53.62-.9.7-1.44.25-1.62.17-3.76.37-5.44h1.05c.03.98-.08,1.97.05,2.95.23,1.74.5,3.31.67,4.96.87,8.63,1.97,17.3,2.1,26.01.03,1.9.69,3.78.87,5.65.19,2.03.7,4.46.89,6.34.15,1.45-.65,3.64-.33,5.58.16,1,.99,1.45,1.07,2.48.3,4.02-.29,8.83-.05,13.02.23,4.04,2.6,4.85-3.5,5.09l-.73-20.52c-.26-.85-1.71-.55-2.44-.58v21.45c-.79.14-.47.24-.6-.34-.55-2.54-.18-4.2-.3-6.52-.15-2.87-.66-5.72-.5-8.62h-1.56s.15,15.47.15,15.47h-2.46c.38-7.35.38-14.88-.7-22.15,1.84.31,3.02-1.14,4.92-.7-.19-1.95.25-4.28.02-6.17-.12-.98-1-2.82-1.94-1.56-1.04,1.4-.12,6.62-.74,7.06-.94.67-2.13-.02-3.05.05-.99.07-2.08.96-2.2.96-.59-.01-2.49-5.53-3.16-6.31-1.16,3.12-2.52,6.19-3.71,9.3-.25.65-.42,3.21-1.07,1.46-.52-1.4-.26-2.97-.31-4.43.63-.15.05,1.04.87.7.23-.1.8-.74.88-1.05l-2.46-.35c-.2.31-.52,5.59-.38,6.11.12.46,1.52.24,1.78.75.19,1.06-1.53.29-1.76.52-.58.59.24,14.53.35,16.52-.76-.04-2.12.3-2.41-.57l-.58-15.95c-.85-.17-.5.68-.52,1.22-.19,4.88.38,10.06.7,14.94h-1.4s0-10.02,0-10.02c0-.55-.73-2.04-.35-2.99h-.7s0,8.08,0,8.08h-.35c.13-.44-.36-1.02-.36-1.23v-7.21c0-.08,1.3-.08,1.42-.59.61-2.56-.75-6.54-.37-9.26-.58-.15-.15.59-.59.71s-1.04-.05-1.52,0c.47.39,1.38.76,1.42.93.41,1.65-.26,5.17.33,7.15-.88.07-.6.08-.69-.53-.18-1.23-.14-2.42-.54-3.69-.34-1.07-1.42-2.28-1.58-3.35-.12-.84.48-.47,1.06-.52-.18-.15-.94-.73-.97-.78-.33-.6.31-2.15-1.14-2.03.07,1.53-.28,3.23.43,4.67.52,1.06,2.03,2.35,2.03,3.95v10.55c0,.34,1.06,1.45-.35,1.23.23-1.17-.28-2.27-.35-3.34-.11-1.62.3-8.64-.17-9.32-.33-.48-.74-.36-1.24-.34l1.03,17.71c-.08.58-1.54.75-1.73.57-.18-.17.79-4.06.35-4.92-1.97-.14-.63,4.12-1.05,4.57-.46.12-2.46-.49-2.46-.88v-8.97h1.05c.27,2.41-1.23,5.61,2.46,4.92l-.75-19.46c-.23-.8-1-.16-1.7-.37-2.09-.61-2.41-1.22-2.12-3.37h-1.05c.12,1.68-.28,3.59.23,5.22.51,1.62,2.58,1.68,2.58,4.1v7.73c0,.07.53.4.35.52-.28-.03-.68.08-.88,0-.96-.39-.41-6.09-.57-7.52-.06-.55-.12-1.92-1.01-1.62l.35,18.63c-.84.1-1.25,0-1.4-.88-.43-2.41.57-13.18-.17-14.25-.33-.48-.74-.36-1.24-.34-.5.51.63,7.79.35,9.31-.11.6-.37.99-1.05.88.6-2.86-1.07-7.77-.37-10.33.13-.49,2.02-.29,2.15-.78.25-.93.09-7.38-.03-8.74-.06-.77-.41-1.5-.35-2.29l-.7,1.41c-.29.3-2.18-1.31-2.81-.53,0,.23,2.46.94,2.46,1.41v7.38c0,.42,1.16,1.07-.7.88-.22-1.9-.3-5.08-1.06-6.77-.26-.58-1.1-.31-1.44-.84-1.09-1.72.52-5.23-1.72-6.1.04,2.16-.32,4.76.89,6.67.42.66,1.36,1.13,1.72,1.8.96,1.79.44,5.1.56,7.18.12,2.1.86,6.87.36,8.73-.07.28-.77.41-1.07.59l-.36-14.59-1.05-.88.31,20-1.72.39-.71-16.87c-1.71.7-.7,1.62-.7,2.29v8.97c0,.07-1.41.07-1.41,0v-11.6c.44-.08,2,.11,2.11,0,.43-.42-.49-10.45-.02-12.1l-.69-.38-.35,1.24-4.57-1.76c1.06,1.41,3.22,1.59,4.57,2.63v9.32c-.38,0-.73.1-1.07-.16s-.86-7.68-1.74-8.29c-.18-.12-.88.38-1.2.32-1.02-.19-.66-3.58-1.07-4.19-.26-.39-1.11-.47-1.24-.34-.68.68.47,5.23,1.75,5.83.55.26.63-1.09,1.37.01.38.57,1.1,3.56,1.1,4.18v14.94c0,.07-1.17-.05-1.4,0-1.23,1.06,4.31,1.49,4.92,1.05.1.7-.57.91-.69,1.59-.17.93.23,2.35-.05,3.12-.23.64-1.04.4-1.29.66-.19.2.1.8-.3.97-.59.25-2.17.32-2.94.69l-.36-25.31h-1.4c-.13.38.35.77.35.88v25.49c-.3.02-1.76-.26-1.76-.35v-7.73c-1.06-.38-1.39.65-1.39,1.63,0,.53.34.9.34,1.01v5.1c0,.15-2.71.32-2.83-.23,0-3.63-.87-7.22-1.05-10.83-.3-6.1.24-12.46.03-18.59-.5-.46-1.63-1.12-1.77-.07-.44,3.16-.09,8.91-.01,12.33.08,3.47.29,7.02.35,10.55.04,1.98,1.52,5.9-.86,6.84l-1.59-1.66.02-35.09-.37-2.62c-.48-.1-.85.12-.99.59-.25.8-.26,10.34-.09,11.57.09.7.76.45.75.68-.02.47-.62.89-.74,1.73-.28,2.03.52,13.42.02,13.91h-1.76c.21-5.88.7-11.88.37-17.77-.05-.85-.9-10.69-3.18-8.94,3.77,7.78,1.48,17.26,2.11,25.66-.44.08-2-.12-2.11,0-.05.05-.04,1.34,0,1.39.2.2,4.86.54,5.62.72-.03.57-.96.51-1.06.95-.44,1.81.68,5.83.32,6.91-.37,1.12-4.16.36-5.23.58l-.72-10.71c-.15-4.62.34-9.2.38-13.71.01-1.2.21-7.39-.35-7.77-.39-.27-.98-.13-1.43-.15-.07,2.52.08,5.05.02,7.57-.07,2.82-.34,5.6-.39,8.41-.08,4.91.55,11.17.03,15.85-.06.53-.07,1.08-.71,1.22l.15-33.45c-1.51-2.59-.23-6.99-.91-9.22-.25-.82-.86-.59-1.01.3-.46,2.64.32,6.15.37,8.77.08,4.56.17,9.54-.02,14.08-.02.43.27,1.31-.35,1.23-.45-4.39-.33-8.78-.37-13.2-.01-1.17,0-2.31,0-3.49-.02-2.64.05-5.29.01-7.93h-1.05c-.08,3.1.1,6.23.01,9.33-.23,8.61-.5,17.36-.38,25.99.03,2.51.64,5.86.39,8.12-.25,2.24-1.58,1.05-1.78-.71-.38-3.28-.34-9.16-.36-12.65-.04-6.98.65-13.95.37-20.93-4.71-1.1-2.02,4.07-2.83,4.91-.28.29-7.67,1.2-8.09.92-.38-.27-.46-1.44-.32-1.59.1-.1,1.66.49,1.06-1.58-.15-.5-1.4.38-1.09-1.08.21-1,1.41-.51,1.08-2.1-.07-.35-.88-.05-1.02-.19-.07-.07-.12-2.02-.04-2.09.16-.16,1.41.25,1.41-.18,0-1.5-1.26-1.15-1.36-1.26-.13-.14-.14-1.47,0-1.68.22-.35,6.22-1.47,7.22-1.76.59-.17.98.26.81-.75-3.06.51-6.32,1.22-9.14,2.28v12.13c-4.26-.08-8.47-.1-12.66.7.31-.77,3.07-1.4,3.69-1.4h8.61c.22-1.5-.32-2.91-.37-4.38-.46-14.45.04-30.41,1.29-44.72.08-.92-.71-4.67,1.01-5.04,1.67-.36,1.16,4.82,1.23,5.79.24,3.55.55,7.13.34,10.73l-2.81-2.46.15,2.85c.92,1.58,11.99,13.29,11.45,14.02-2.65.82-1.32.16-1.61-.71-.28-.83-7.01-8.65-8.11-9.79-.17-.18-1.25-1.46-1.52-1.1-.47.61.04,13.53-.35,15.47l1.06-1.75c.8.22-.2,1.43,1.05,1.58l-2.11.89,1.41.87-1.41,1.23c.61.07,1.18-.03,1.77-.16.78-.17,5.95-1.7,6.14-1.96s.08-.84.23-.98,3.79-1.02,4.08-1.05c1.22-.14,1.82.57,2.76.63s1.66-.48,2.68-.28c.83.16,1.68,1.16,2.73,1,.34.65-.7,1.49-.7,1.58,0,.33,5.48,2.85,5.88,2.93,1,.18,1.6-.32,2.35-.28.22.01,2.55.96,2.63,1.08.2.26-.47,1.81-.34,2.59.38,2.27,7.5,1.86,8.1,3.53.02.37-.7-.02-.71.35-.02.85,4.63,2.81,5.55,2.92,1,.13,1.68-.38,2.51-.11.17.05,3.04,1.5,3.13,1.65.22.35-.17,1.06.26,1.38.86.65,3.55,0,4.72.66l-.7,1.4c2.4,1.28,4.92,1.21,7.38,2.12l-1.75.35c-.05.42,1.14.83,1.4.88,1.39.29,2.85.13,4.23.52.29.33-1.36,1.47.89,1.75.81.1.38-.12.51-.51.53-1.56.65-2.37.36-4.04.74.36,4.06.15,4.41-.34.61-.85.18-4.77,1.05-4.94,2.43-.48,1.06,4.68,2.16,4.94,1.91.44,4.56-.6,6.44-.02v-1.05s-4.21.35-4.21.35c.1-.81-.15-1.86-.02-2.61.09-.5,4.61-.47,4.6-1.08-.81-.77-4.4.34-4.57.18-.1-.09-.37-2.19-.71-2.63,0-.51,5.51.16,5.28-1.59-1.89-.19-3.91.71-5.8.34-.87-.17-1.1-1.16-2.1-1.07-1.08.1-1.06,1.34-1.49,1.44-.33.08-4.58.43-4.82.37-.42-.11-.61-2.33-.57-2.84,3.74.04,7.77-.91,11.43-1.05,1.18-.04,4.16-.29,4.74.88.41.82-.96.29-1.08.71-.33,1.24.07,6.89,1.71,4.14.96-1.61-.35-4.21.07-6.08.59-.31,1.05.6,1.05.88v14.94c5.11.36,2.01-.96,1.74-2.97-.2-1.5-.46-7.71-.37-9.16.05-.74.65-1.17.65-1.68.02-1.54-1.12-2.52-2.01-3.59l-26.55,1.94c-1.25-.11-.88,2-.29,2.13,1.06.24,4.27-.88,5.74-.38v8.79c-2.22-.02-1.19-1.81-1.41-3.34-.23-1.61-.95-3.06-.7-4.75-.82-.05-.62-.12-.7.52-.23,1.81.21,3.92-.35,5.81-.44-.32-1.06-.22-1.4-.35-.21-.1-.22-.3-.7-.35-1.8-1.36-.69-3.36-1.06-5.03-.07-.29-.6-.29-.69-.49-.24-.47-.81-4.98-.72-5.55.13-.88,1.58-1.04,2.25-.9.45.09-.02.86.58.71.33-1.4.48-1.03,1.41-.35v-1.05c-1.47-.31-4.04.9-4.04-1.06l-.52,1.06c-.44-2.27-.69-4.58-1.05-6.86-.09-.58.11-1.16-.54-1.57l-1.23,8.43c-.66-.07-.77-1.93-1.76-1.22.42.85.16,2.11.68,2.84.76,1.07,2.9.82,3.92,1.76l-.73,6.83-2.45-.88c.54.83,5.14,2.36,3.86,3.69-.21.22-4.13-1.79-4.22-2.01-.71-1.67-.08-4.39-.43-6.19-.19-.97-.91-.91-.97-1.19-.35-1.59-.05-4.65-.36-6.43l-1.4,9.49c-.31-.06-.85.09-1.05,0,1.74.83,3.41,1.41,2.81,3.52-1.37.2-1.07-.19-1.06-1.41-.6-.16-.17.72-.54.73-1.43.02-5.08-1.79-4.02-3.89.1-.11,2.45.88,2.81,1.05-.05-.02-.33-.64-.71-.86-.46-.26-2.06-.9-2.12-1.14-.24-.96.46-2.11.37-3.07-.13-1.36-1.6-3.1-1.75-3.9-.28-1.47-.02-3.83-.36-5.44l-1.73,10.4c.72,1.5,2.31,1.35,1.73,3.66l-.7-1.75-.7,1.4v-1.75s-.36,1.41-.36,1.41l-.71-1.76-1.05,1.05v-1.75c-.74-.08-.17,1.21-.36,1.4-.74.78-2.02-1.47-1.41-2.46l-.35,1.75c-.96,1.07-1.55-3.4.35-2.99-1.41-.77-1.61-1.37-1.4-2.99.45-.52,3.52,3.18,4.05,3.51.93.39.44-1.17.19-1.6-.6-.99-2.98-2.69-3.68-3.7-.5-.71-.8-3.02-.91-3.14-.71-.74-.57.9-1.05.7.35-2.95-.51-5.56-.71-8.43l-1.76,11.95c-.52.37-2.75-1.84-3.16-1.4-.35.37.14,1.03.57,1.36.69.52,4.2,1.98,4.34,2.18.06.08-.33,1.61-.43,1.83-.73,1.51-.96.12-1.1.04-.3-.18-.78-.08-.86-.17-.25-.25.04-1.57-.06-2.07l-1.05,1.05v-1.75s-.71,1.05-.71,1.05c-1.88-1.15-1.56-4.84-1.43-6.88.06-.98.66-1.58.65-2.02-.01-1.02-1.4-2.77-.98-4.11-.67.4-.78,2.07-1.58,2.46-.67.33-1.45-2.47-1.05-2.81l1.23,1.75-.7-12.65c-1.73.03-.62,2.03-.68,3.34-.18,4.17-1.09,8.32-1.43,12.48-.22.27-5.98-2.87-6.18-3.15-.16-.22.45-4.3-.5-5.28l-1.93,3.51-2.63-4.57c-.27,2.01-1.22,3.88-.01,5.8-.62-.05-1.35-.95-1.76-1.4-1.24-1.35-6.31-6.9-6.6-8.17-.89-4,.29-11.52-.08-16.09-.14-1.74-.8-3.61-1.01-5.32-.32-2.73-.27-5.51-.75-8.22l-1.76,10.01c0,.89.12.99.41.05.43-1.44.73-2.97,1.01-4.44.64-.07.36,1.17.31,1.54-.09.64-.7,3.13-.98,3.52s-1.75.05-1.08.91c.02.03.67-.1.73.21.14.86-.72,2.27-1.46,1.33-1.02-1.29-2.33-7.49-2.79-7.87-.5-.42-.77.42-1.05.7.17-.85.15-2.15,1.4-2.11.12.11.26,2.71,1.05,2.81l-1.05-4.57c-.97-.93-1.83,4.03-2.11,4.39.25.51.44-.26.71-.52-.32,1.56-.23,3.88-1.75,4.92l-.35-1.05c.63.94.22,4.42-1.38,3.13-.26-.21-1.28-5.75-1.44-6.64.03.04.48.1.45.42l1.65,4.85-2.11-10.9c-1.03-.29-.76.89-.72,1.6.08,1.14.5,2.78.72,4.03-.15-.2-.66-1.11-1.05-.7-.32.33-1.91,8.06-2.05,9.06-.33,2.52.27,5,.3,7.27.15,10.73-.54,21.33-.73,31.99-.09,4.84.38,9.87-.34,14.6l13.89-.35c.81,2.79-2.6.29-2.98.71-.08.39.11,1.65,0,1.76-.14.14-3.74.14-3.87,0-.12-.13.13-1.28,0-1.41-.11-.12-3.06-.11-3.17,0-.38.4,1.14,2.38-1.92,1.78-.27-.05.15-1.73-1.95-1.08l-.35,15.12,22.65-.36c.37-.02.24,1.01.21,1.05-.34.42-6.87.42-8.2.72-.29.07-.27,1.1-1.3.69l.36-.7c-4.39-.82-8.93-.17-13.36,0,.7,2.2-.53,3.6-.72,5.79-.1,1.19.5,6.2.32,6.47-.58.88-5.2.24-6.28.39l.72-5.08-.02-40.62c-.17-.18-3.16,1-3.16,1.23v11.6c0,.09.5.48.35.88-.56-.52-3.51-.52-3.51-.7v-13.01l-2.84.92-.68,13.5c.95-.25,2.39-.7,3.34-.7.79,0,3.69.36,3.73,1.23l-.04,16c-.56-.39-3.51-.17-3.51-.35v-15.47c-.59.22-3.39.23-3.52.35-.58.55.47,14.04.01,16,2.3-.72,4.33-.3,6.67-.18l-.35,14.07h-3.17s.35-13.36.35-13.36c-.11-.11-3.17.19-3.17.35v12.66c-.96,0-3.8.01-3.88-1.23l1.07-44.13c-.43-.57-.64,0-.7.52-.21,1.61.1,3.61.02,5.29-.46,9.47-.94,18.98-.35,28.48l-.72,10.71-2.13-.57.72-34.59c-4.03-.4-2.06,2.4-2.14,4.71-.05,1.48-.64,3.45-.68,4.95-.15,4.77.62,10.36.4,14.79-.09,1.72-1.44,4.24-1.34,6.05.04.71,1.16,1.59.46,2.58-.6.85-7.97.26-9.34.32.14-.98,2.69-.58,2.81-.7.41-7.59.71-15.23.7-22.85l-.7.52-.35,17.76c-.68-.07-.68-1.41-.72-1.92-.14-2.15.35-4.04.38-5.98.06-3.57-.07-7.16-.02-10.74l-1.05,1.93v15.12c0,.06-.34,1.03-.7.88l.35-17.41-.7-.52v16.7c0,.06-.34,1.03-.7.88-.08-4.88-.02-9.74.36-14.6l-.71-2.97c.04,5.81.05,11.61-.35,17.41l-.7.52.35-17.76-.7-.52v16.88h-.7c-.39-1.04.35-2.68.35-3.34v-13.01c0-.06-.47-.55-.7-.53v17.05c0,.06-.47.55-.7.53v-24.43c0-2.28,1.88-7.88,3.1-9.91.6-1.01,3.55-4.67,4.55-4.97,2.97-.87,7.11,4.66,7.76,7.21.18.68-.16,1.34-.64.81-.1-.11-.56-1.97-.99-2.7-1.04-1.76-3.34-4.01-5.51-3.99-.7,0-.57.04-.54.72,3.58.03,7.62,5.27,6.33,8.79,2.17.39,3.32-2.58,3.51-4.39.13-1.18-.09-2.49,0-3.69-.11-.12-4.39,1.46-2.81,0,.14-.13,3.2-.74,3.69-.73,1.6.03,3.27,1.09,4.57,1.09,1.16,0,2.44-1.01,3.46-.96.85.04,1.98.9,2.9.94.99.04,1.94-.71,3.13-.71,1.32,0,2.36.86,3.69.73l-2.46-1.23c-2.16-.21-1.02-.16-1.06-1.93-1.52.12-3.95.5-3.52,2.46-1.71-.76-3.13-.09-3.16-2.46-.14-.1-2.22.62-2.47.87-.53.54-.26,1.51-.34,1.6-.11.12-3.02-.62-3.13-.74-.22-.26.08-1.89-.04-2.42-1.35-.4-.41,1.84-.7,2.11-1.68.3-1.46-.39-1.76-1.76-1.96.51-2.93,1.58-3.51-1.05.66.21,1.26-.65,1.41-.71l-1.05-.24-5.99-15.58c-1.19-.36-.55,1.31-1.4,1.4l1.05-3.16c-1.07-.19-.54.32-.73.83-.68,1.76-.94,3.01-1.37,4.79-.94.43-1.16,4.36-1.41,5.27-.1.33-.24.68-.35,1.05-.08.3-.24.64-.35,1.05-.06.24-.24.59-.35,1.05-.58,1.95-.74,2.51-1.05,4.57-.08.28-.23.62-.35,1.05-.08.14-.47.24-.73.84-.8,1.84-1.36,5.23-1.73,7.25h-1.05s0-1.76,0-1.76c-1.41-.02-2.53.98-3.51-.53,0-.51,3.78-1.92,4.56-1.23l7.74-26.72,8.08,20.04c.17-.07,2.79-.69,2.94-.69,1.42.03,3.34,1.28,4.66,1.38,1.21.09,2.04-.67,3.13-.71,1.2-.04,2.1.74,3.12.7,1.09-.04,2.1-1.06,3.16-1.02.8.03,4.18,1.63,4.43,1.39-.64-2.52-2.54-3.13-4.92-3.16.16-2.09,2.17,0,3.51-.35.22-.2-1.03-2.74-1.05-3.38-.03-.95.96-1.59.94-2.71-.01-.79-.56-2.4-1.12-3.05-.88,2.01-.31,3.03-2.87,3.13-2.14.08-3.42-1.5-4.92-1.63-1.99-.17-3.44,3.17-6.21,1.24-1.36-.95-1.63-7.08-1.65-8.9l.9,2.27.86,4.59.35-38.67c-2.45.78-2.67,3.38-5.27,3.87v-2.46s1.05,1.4,1.05,1.4c-.02-.6-.04-1.18.17-1.76.44-1.19.49.33.53.35.78.54.64-.7,1.06-1.21,2.38-2.89,3.56-.37,5.36-.61,1.05-.14,2.28-1.67,3.24-1.67,1.08,0,2.32,1.72,3.1,1.67.91-.05,2.1-1.57,3.56-1.35.79.12,1.45,1.24,2.3,1.42-.05-.67-.34-1.2-.37-1.91-.52-11.47.46-23.33.02-34.83-.12-.64-2.01-2.12-2.82-2.28v36.56c-.94-.12-2.32,1.4-2.93,1.35-1.07-.1-3.38-2.08-2.69-3.46,1.78.98,2.43,1.67,3.51-.53-1.8.14-4.03-.93-3.51-2.98,1.41.33,2.37,2.1,3.17-.17l-2.6-1.28c-2.16-3.74,2.09.6,2.59-1.9l-2.93-1.54-.22-2.14c.13-.19,2.62,2.38,3.15.17.24-1-.74.01-1.58-.48-.98-.58-1.89-2.02-1.58-3.2.91-.11,1.06.97,1.95,1.07.97.11,1.79-1.03.98-1.41-1.47-.69-3.44-.26-2.92-2.82l2.59,1.08c1.41-1.97.06-1.11-1.03-1.76-.61-.36-2.35-2.41-1.04-2.47.36-.02,1.65,1.62,2.64-.19l-2.73-1.65c-.44-2.85,1.01-.4,1.49-.36.89.07,1.67-1.58,1.24-2.02-.18-.18-3.61-.24-2.81-2.47,1.37.74,1.27,1.71,2.81.17.21-.9-3.84-1.77-2.81-3.34,1.04.86,3.4,1.21,2.38-.63-.29-.53-2.31-.55-2.39-2.35-.08-1.58,1.99,1.06,2.47.52.27-3.27-.28-1.44-1.52-2.13-1.02-.57-1.03-1.35-.94-2.43.43-.5,1.87,2.04,2.46.52.47-1.23-3.63-2.3-2.46-3.69.41-.48,1.83,1.84,2.11.52.3-1.43-2.96-2.37-1.94-4.04,1.12,1.34,2.85,1.51,1.6-.46-.41-.64-1.57-.62-1.78-2.18-.2-1.45,1.62.69,2.11.17.15-1.75-2.67-1.73-2.11-3.86.3-.35,2.02,1.6,1.76.17-.22-1.22-2.44-1.82-1.76-3.69,3.48,3.02.54-1.41-.7-2.46.28,1.42-1.75,2.15-2.11,2.99-.61,1.42,1.89-.62,2.1-.88.77,2.31-2.74,2.81-1.93,4.92l1.93-1.4c.8,2.15-2.17,2.34-2.46,4.04-.27,1.61,2.28-.7,2.46-.87,1,2.36-3.5,2.73-1.92,4.57l2.28-1.05c.11,2.07-2.55,2.58-2.82,4.04-.27,1.48,2.1-.62,2.46-.87.75,2.24-2.18,2.4-2.46,4.04-.27,1.61,2.28-.7,2.46-.87.96,2.88-2.36,2.18-2.47,4.39-.07,1.5,1.99-.64,2.47-.87.85,2.21-2.29,2.54-2.48,3.68-.42,2.52,1.59.47,2.48-.17,1,2.12-2.55,2.52-2.81,3.7-.34,1.58,2.28.36,2.81-.18.5,2.36-2.71,1.88-2.82,4.04-.07,1.48,2.21-.81,2.82-.87.75,2.39-2.08,2.21-2.46,3.69-.53,2.04,2.04-.18,2.46-.52.51,2.16-1.54,2.48-2.81,3.7.31,2.11,2.42-.62,2.81-.18.83,2.56-2.45,2.27-2.82,3.68-.54,2.03,2.34.03,2.82-.52.46,2.51-.48,1.91-1.73,3.01-2.24,1.97.58,1.85,1.73.5.89,2.4-2.57,2.65-2.81,4.04-.27,1.51,2.46-.44,2.81-.35-.17,2.34-1.35,2.1-2.8,3.52.04,1.78,2.32-.38,2.46-.18,1.07,2.71-2.25,2.33-2.48,3.68-.37,2.23,2.35-.64,2.83-.16-.01,2.94-3.69,4.62-5.99,2.57-.19-6.75.21-13.53.23-20.27.01-3.77-.27-7.55-.23-11.32.01-1.04.41-1.95.38-3.14-.01-.37-.14-1.6-.71-1.59-.03.76-2.12,2.1-2.12,2.63v33.22l-.7-.52-.37-40.8c.28-1.5.28-3.81,2.12-2.62v-1.91c-2.72-1.57-2.71,3.31-3.16,3.67-.09.07-1.54-.77-2.39-.28-.69.4-1.33,3.66-1.48,3.79-.19.17-1.07-.7-1.95-.03-.18.13-1.36,1.78-1.48,2.05-.9,2.01-.03,7.79-.07,10.48-.01.83-.37,1.6-.38,2.43-.13,10.52.03,20.99-.33,31.48l1.57-.71.18.7c-.73.49-5.39,2.95-5.57,3.23-.34.54.12,2.97-.06,3.81-.82.07-2.45-.03-2.75-.94l.64-31.05c-.46-.54-1.62,1.79-2.29,1.75-.25-.02-.89-1.13-.82-1.52.09-.46,3.46-3.53,3.79-5.34-.23-4.86,1.04-10.7.39-15.47-.1-.74-.3-1.29-1.07-1.56-1.05,3.18-.27,5.89-.34,8.98-.05,2.28-.37,4.62-.39,7.03,0,.58.32,1.11.32,1.41,0,.09-1.04.66-1,1.39-.62.48-.38-1.63-.37-1.78.23-2.79,1.12-6,.75-8.8-.09-.67-.7-.47-.75-.73-.11-.66.39-1.25.38-1.68,0-.25-.77-.02-.73-.69.08-1.38,1.13-4.27,1.37-6.06.1-.73-.11-2.59.09-2.9.1-.15,1.25-.31,1.69-.6.75-.5,1.15-1.56,2.14-1.56v7.38h-.7v-5.27c-.54.26-1.32.89-1.33,1.51,0,.26,1.02,3.95,1.15,4.13,1.22,1.63,2.07-1.18,2.89-1.36.58-.13,1.12.45,1.85.14,1.26-.54,3.48-3.57,4.58-4.59l-4.21,3.34c-.32-3.33.77-6.57,0-9.84-.9.35-2.86.15-3.51.53-.53.31-1.74,2.72-2.81,2.99.59-1.27-.8-3.55-.65-4.31.07-.35,1.75-2.59,2.14-2.85,1.43-.99,3.46-.62,4.34-1.25.51-.36,1.81-2.51,2.43-3.2,1.81-2.02,9.01-9.2,9.54-11.13.35-1.28-.46-2.68-.47-3.5-.02-4.69,1.08-11.54.23-16.11-.17-.9-3.21-7.57-3.84-8.82-.17-.33-.22-.83-.71-.87-2.66,11.01-4.68,22.37-3.52,33.75.77-.28.97-.83,1.07-1.56.96-7.06-1.11-14.11,1.28-21.57,1.47-4.59,4.03-2.21,4.59,1.24.48,2.96.37,13.67-.83,16.23-.89,1.9-3.77,3.54-4.01,5.31.07-.04.38.09.62-.08.33-.24.25-1.21,1.14-.98.17,1.69-2.25,4.72-1.76,1.05ZM83.46,126.64l-3.87-73.83,3.16,73.3c.23,1.27,2.16,1.28,3.16,1.58.15-1.96-.27-3.9-.71-5.8-.1-.42-.1-1.09-.69-.52-.47.45-.31,3.4-.45,4.31-.05.31-.16,1.06-.61.96ZM78.1,72.79c.09-.2-.64-3.24-.65-3.98-.01-4.51.97-9.63,1.07-14.11.01-.56-.06-1.03-.68-1.18l-1.73,24.46c-1.06.95-.35.85-.36,2.06-.13,10.32-1.28,20.64-1.79,30.94-.23,4.62-.32,9.28-.33,13.9.59,0,.67-1.17.7-1.58,1.25-15.73.73-31.96,3.13-47.49.27-1.77-.05-1.48.65-3.03ZM83.8,81.29c.31-3.16-1.36-3.16-1.05,0h1.05ZM83.98,81.64v.35c.23-.12.23-.23,0-.35ZM84.86,93.24c-.82-.77-3.1,5.12-.35,1.76.38.3.25,3.1,1.41,2.81l-1.06-4.57ZM74.31,96.76c.06-.94-.16-2.48-1.4-2.46l-.7,4.22c.95-.44.85-1.94,1.06-2.81l1.05,1.05ZM75.37,150.72v-14.06c0-.26.57-1.03.36-1.58h.34c-.35.82.71,2.28.71,2.64v12.13h1.05c.18-5.3-1.13-10.62.36-15.82,2.33.8,1.38,4.42,1.39,6.14.02,3.11.02,6.23.02,9.33h1.05l.36-12.66,1.75,1.41c.2-1.76-.46-3.4-.7-5.1-.08-.59.11-2.48,0-2.63-.63-.81-.62.91-1.05.7.09-1.41,1.52-3.74,0-4.57.31.52-.25,3.3-.89,2.12-.55-1.01-.72-3.76-1.4-4.93l-1.59,4.92c-1.73-.94-.13-1.37-.02-1.67.34-.97.86-5.53,1.09-5.71.04-.03,1.01-.04,1.05,0,.21.19.57,4.84.71,5.63.84-.45,1.04-2.46,1.07-3.33.14-4.32-1.38-9.21-1.78-13.37-.23-2.35.24-2.64-.33-5.29-.18-.84.52-2.56-.72-2.27-.13.9.19,2.1,0,2.93-.07.28-.69.24-.72.43-.08.68.75,1.28.74,2.42-.02,3.59-1.53,9.59-2.08,13.43-.21,1.46-.83,4.11-.74,5.23.12,1.48.68,2.97,1.05,4.4.59.47,1.53-3.8,1.67-4.13.84-1.89,1.8,2.98,2.09,3.69.19.48.82.3.84.95.01.44-.15,2.15-.74,2.29l-1.76-4.92c-.7,1.53-1.01,3.69-2.11,4.92l-1.41-3.86c-1.26,6.89-.03,13.78-.35,20.74.22.01.67-.41.7-.53ZM85.91,104.84c-.55-.53-.61.19-.78.45-.24.36-1.24,2.42-.97,2.71.84.43,1.07-1.74,1.75-1.05.29.29.02,2.93,1.05,3.16.17-.82-.67-4.91-1.06-5.27ZM73.26,109.41c.25-.26-1.13-3.02-1.75-2.46l-.7,4.57c1-.19.82-2.57,1.05-2.81l1.4.7ZM87.32,118.56c-.84-.64-1.64,2.25-1.4,2.81l1.05-1.05c.22.96.42,1.94.88,2.83.12.23.37,1.31.88.68.17-.21-1.19-5.11-1.41-5.27ZM71.85,123.12c.17-.18-.99-3.1-1.59-2.11-.59.97-.68,3.71-1.22,4.92.98.17.59-.21.79-.77.31-.87.5-1.83.62-2.74l1.4.7ZM72.91,123.13c-1.06-.17-.56.26-.71.85-.16.63-.91,4.21-.69,4.42.2.19,1.51.06,1.72-.58.31-.94-.75-3.43-.32-4.69ZM85.56,130.51c.16-1.54,0-2.35-1.75-2.11-.34,1.31.55,1.88,1.75,2.11ZM73.26,129.46c-1.61.35-2.5.63-2.11,2.46,1.67-.18,2.42-.67,2.11-2.46ZM83.81,131.21v6.15c0,.12.84,1.94.97,2.19.18.32.26.94.78.45.14-.13,1.33-3.24,1.31-3.64-.06-1.13-1.14-1.74-1.22-2.2-.22-1.17,1.27-3.11-1.84-2.95ZM73.61,132.97c-1.82-.01-2.43.19-2.11,2.11,1.31-.31,2.52-.55,2.11-2.11ZM94,166.37v-17.4c-2.04-4.33-2.29-11.03-4.19-15.15-.19-.41.17-.64-.73-.49l-3.85,10.04c-.21,4.11-.42,8.21-.39,12.27,0,1.68-.28,6.94.35,8.03,3.05,2.58,5.51,6.65,9.15,8.33.15-.58-.6-.16-.71-.57-.24-.97.26-2.13.35-3.1-.63-2.38-7.33-6.44-7.71-8.46.35-3.4-.9-16.32,1.2-18.47,2.04-2.09,3.29.21,3.98,2.03,2.54,6.69.89,14.47,1.48,21.37.06.65.13,1.85,1.06,1.58ZM65.88,141.23c.23-1.5,0-3.98,0-5.63,0-.08-.44-1.59-.53-1.59-.1.35-.53,1.43-.53,1.59v5.98c0,.57.89.75,1.05-.35ZM73.26,135.43c-3.13.23-3.28,2.01-.52,3.16.4.13.68-2.72.52-3.16ZM82.75,151.25v-11.78c0-.06-.48-.55-.7-.53v11.78c0,.06.48.55.7.53ZM59.9,142.81c-.71.38-.88,6.82-1.41,7.96,1.28,1.17.38,1.38.02,2.78-.11.44.07,1.44-.02,1.56-.64.81-.67-1.46-1.41-.52,1.34,4.62,1.5,1.38,2.3-.88.12-.34.04-.81.51-.7l1.41,5.97c-.67-.11-.57-.74-.74-1.19-.21-.56-.91-4.16-1.36-2.15-.11.5-.59,3.22-.71,3.34-.89.92-1.05-2.57-1.75-2.46.38,2.71-.38,5.7-.39,8.26,0,1,.38,1.86.4,2.8.03,1.76-.09,3.53-.01,5.29.02.43-.27,1.31.35,1.23v-11.43c0-.32.45-.92,0-1.58h.7c-.3.65.35,1.61.35,1.93v7.73c0,.42-1.2,2.53.35,2.29.69-3.77.06-7.64.36-11.42.03-.41.13-2.43.87-2.29,1.31,3.09.94,7.04.9,10.38-.01.97-1.04,3.34.68,3.32.3-.38-.21-8.23-.02-9.68.17-1.28.95-2.49,1.08-4.19.18-2.32-.16-4.87-.02-7.22l-.7,1.05c.04-4.09-.27-8.4-.74-12.45-.07-.63-.18-1.51-1.02-1.26-.02,1.17.02,2.35,0,3.51ZM89.64,145.77c-.6-.5-1.56-1.14-2.31-1.38l3.33,2.99c.52-.37-.78-1.41-1.03-1.61ZM90.76,147.8l-3.79-2.52,3.69,3.51c.33-.05.22-.8.1-.99ZM99.98,150.9c.07-.88-.25-1.7-.45-2.54-.15-.61-.42-2.08-.95-2.38-.79,2.25-.54,3.6,1.4,4.92ZM69.39,158.63c.12-.21.13-.73.4-1.17.32-.53,1.42-1.16.84-1.64l-2.28,1.94c1.55-1.44,2.67-2.5,2.28-4.74l-1.58,1.23,1.75-2.12-.69-.34c.59-.7,1.29-2.12,0-1.94v-.34c1.45.2,0-1.82.33-2.64-1.39.38-2.71,1.7-3.49,2.82l1.05-.18-.7,1.05,1.05.18c-.85,1.11-1.64,1.98-1.38,3.47.04.25.58.17.61.39.08.57-.37,3.16-.28,3.48.1.32.65.18.69.22.08.09-1.6,2.79,0,1.75-1.29,1.86-.88,2.73-.7,4.92,1.65-1.33,3.19-2.52,3.5-4.75l-1.04.36c.3-1.03.71-1.23,1.4-1.93l-1.59,1.04c-.18-.22.22-.91-.17-1.05ZM89.78,156.88c-.44-.37-1.33-.05-1.05-1.06l.52-.69,1.94,1.04c-.14-1.73-.17-2.07-1.76-2.99,1.9-.65-.51-1.15-1.08-2.1-.41-.68.25-2.17-1.73-1.94-.11.69.87.19,1.06.35.67.59-.66.71-.72.93-.27,1.01.3,1.82,1.06,2.42-.33.36-.88-.77-1.04-.53-.11.16-.1,3.44.2,3.85l2.26,2.83-2.1-1.4.69,1.23-.69.34c.33.5,3.42,3.77,3.86,3.34-.24-1.27.37-1.69-1.05-2.28h1.05s-.67-.74-.67-.74c-.24-.7.74-.42.68-.66-.06-.22-.55-.82-.71-1.24-.01-.04.37.29,0-.35-.1-.18-.19-.24-.35-.35-.02-.01.04-.35-.18-.34-.14.08-.24.21-.18.34ZM83.1,156.52c-.07-2.11.73-3.19-1.09-4.71-1.33-1.11-3.52-1.3-5.14-.65-.53.22-2.39,2.35-2.47,2.76-.13.68.62,2.65.27,3.65.6,0,.41-.84.8-1.3.59-.69,4.37-.93,5.32-.78,1.05.17,1.35.96,2.3,1.03ZM97.87,169.01c-.16-3.19,0-6.62,0-9.84,0-.34.58-2.62.88-2.63.37.32.88,1.95.88,2.28v11.78c.51.3,1.05-.5,1.05-.88v-11.6c0-.06.47-.55.7-.53v13.71h.7v-19.34l-1.58,4.22-1.76-4.57c-.53.57-.73,4.07-.88,4.22-.74.73-.98-1.01-1.75-.7.17,2.99.84,5.97,1.05,8.97.09,1.24-.33,6.19.35,6.68,1.18.84.36-1.65.35-1.76ZM84.16,162.85c.86-1.03-1.84-4.69-2.99-4.91-3.17-.61-7.48,1.34-7.03,4.91,1.64-2.49,3.7-3.02,6.67-2.45,1.33.25,1.91,2.33,3.35,2.45ZM76.07,165.84c.36,1.26-.26,3.99,0,5.45-.82.05-.62.12-.7-.52-.13-1.04.1-2.27,0-3.35-3.66,1.94-.87,4.03.63,6.22.22.32-.06.65.78.46v-8.61c0-.42,2.76-1.41,3.36-.55.36.51.13,7.3-.21,7.76l-.69-.18c.83,1.71,1.84,3.2,2.1.36.22-2.36-.27-4.83.35-7.21,1.01-.24,1.37.66,2.1,1.06.44-7.31-10-7-9.84,0,.55-.39,1.68-2.37,2.11-.88ZM82.4,171.64c.68-1.48,2.14-3.34-.35-3.86.02.87-.04,1.76,0,2.64.02.42-.26,1.31.35,1.22ZM89.78,238.79v-30.24l1.76.35c.6-1.74-1.68-2.12-1.78-2.98-.44-3.67.2-8.94.81-12.59.06-.38.53-2.3,1.15-2.01,1.1.52,1.53,4.9,1.6,6.13.41,6.55-.18,14.22,0,21.1.08,2.93-.14,5.88-.01,8.81.02.43-.27,1.31.35,1.23.45-5.48.36-11.01.36-16.52l1.41.52-.71-4.04-.7,1.05c-.1-1.96-.06-14.03,1.06-14.76,1.54-1.02,2.05,4.38,2.12,5.44.12,1.87-.34,3.73-.33,5.32.01,1.75.63,3.87.32,5.76l.37-2.97c.4-.78.61-1.2.71-2.1.24-2.23.22-7.64-.02-9.87-.14-1.24-.75-3.17-2.1-3.55-.81-.23-1.62.42-2.13.07-.66-.45-.85-4.59-3.06-3.48-.73.36-.55,1.08-1.14,1.16-.06-1.5-.82-3.87-2.14-4.72-.43-.28-1.59-.46-1.69-.6-.52-.8.47-6.5-.3-7.94.78-.87.47-5.74.09-6.43-.36-.64-.62-.11-.81.25-.59,1.14-.92,2.67-1.39,3.88l.35,17.06c.63,1.41,1.23,3.3,3.08,3.42-.7-1.93-.86-4.11-.72-6.17.04-.55.05-2.06.9-1.93,2.72.42,1.58,7.53,1.57,9.31-.09,13.81.04,27.64.08,41.44l.99.59ZM71.86,172.35c.31,1.24-.35,2.61-.35,3.69,0,5.14.87,10.63.35,15.82-.19,1.92-1.09,3.43-1.93,5.09,1.45-1.18,3.82-3.87,4.05-5.79.49-4.06,0-10.14-.02-14.44,0-.58.34-1.25.27-1.69-.05-.32-1.92-3.19-2.36-2.68ZM91.06,174.94c-2.55-1.73-5.33-.13-2.68,1.97-1.19-.11-1.77-.14-1.42,1.24.11.44,1.4-.28,1.06.88l-1.41-.17c.56,1.08-.23,2.68,1.41,2.28.16.61-.72.16-.72.53,0,1.13,1.85,2.93,2.66,3.68l.87-.7c-.4,1.99,1.54,2.34,2.85,1.26,2.73-2.25-.15-9.29-2.63-10.97ZM67.28,176.56c-.16.14-.7.07-1.21.71-1.55,1.93-3.44,8.67-1,10.2,1.34.84,3.89-1.53,4.25-2.73.1-.32-.52-1.39-.64-1.5,1.54,1.04,2.13-.95,2.38-2.37.33-1.95-.4-7.29-3.24-5.33-.52.36-.48.96-.55,1.02ZM103.49,182.54c-.69-2.74-2.66-4.51-5.62-3.87.06.39-.1,1.67,0,1.76.13.12,2.54.11,3.52.53s1.3,1.1,2.11,1.58ZM56.84,183.35c1.01-.82,5.1-.68,4.82-2.03-.19-.92-3.94.19-4.48.44-1.24.57-2.59,3.46-1.33,2.89.5-.22.68-1.05.98-1.3ZM101.74,193.44v-8.09l1.76.7c.3-3.13-3.17-5.07-5.97-4.2.06,2.62.04,5.27.01,7.91,0,.65-.4,1.36-.38,1.71.01.21.6.14.7.47.22.7-.42,1.67,1.2,1.1.63-.22.31-1.27,1.08-1.01l1.59,1.4ZM102.44,193.09c1.16-.92,1.85-4.28,1.07-5.47-.43-.64-1.07-.36-1.07.02v5.45ZM65.88,189.57l1.4-1.23-.17-.17c-.51.72-1.51.44-1.23,1.4ZM101.38,199.77c.69-.76-1.72-2.52-2.11-2.11-.69.74,1.89,2.35,2.11,2.11ZM59.55,199.42c-.49-.51-3.35,1.28-2.81,2.46.15.16,2.02-1.09,2.36-1.31.51-.32.75-.83.44-1.14ZM101.38,203.28c.81-1.1-1.93-3.04-2.1-2.81-.75,1,1.41,2.37,2.1,2.81ZM59.55,202.23c-.59-.61-3.58,1.67-2.81,2.46.43.44,3.5-1.74,2.81-2.46ZM101.74,206.09c.58-1.04-2.33-2.98-2.46-2.81l.05,1.35,2.4,1.46ZM59.55,204.69c-.3-.23-3.6,2.08-2.81,3.16.42-.52,3.05-1.62,3.16-1.77.05-.07-.3-1.35-.35-1.39ZM101.74,208.91c.76-.84-2.31-2.93-2.81-2.46-.55.52,2.5,2.8,2.81,2.46ZM59.9,208.9c-.12-2.64-4.06.74-3.16,1.76.4.45,2.27-2.09,3.16-1.76ZM102.09,212.07c.61-1.46-3.55-3.51-3.86-3.16.44,1.48-.41,2.9-.54,4.03-.07.61.28,1.5.16,2.44-.53,4.28-3.57,10.12-4.12,14.55-.09.75-.08,1.15.28,1.83l-1.75-2.11-.35,3.51c1.65.3,3.07-1.39,4.47-1.68,1.3-.27,5.08-.23,6.28.25,1.17.47,1.79,2.03,3.31,1.78.39-2.15-1.16-6.05-1.06-1.4l-1.07-1.21c-1.06-6-3.39-11.78-4.19-17.77.68.14.41,1.01,1.29,1.34.38.14,1.36.35,1.16-.46-.34-.96-2.08-1.03-2.37-1.32-.13-.13-.91-2.56-.78-2.73l3.16,2.11ZM59.55,210.67c-.39-.42-3.28,1.59-3.16,2.28.13.75.79.32,1.16.12.42-.24,1.87-.96,1.94-1.04.13-.15.1-1.3.06-1.35ZM59.55,213.83c-.51-.52-3.71,1.17-3.16,2.46.15.16,4.04-1.58,3.16-2.46ZM59.55,216.64c-.47-.48-4.06,1.51-3.16,2.46.15.16,4.07-1.53,3.16-2.46ZM90.14,217.35c-.18.18-.1,2.34.87,2.11,1.35-.32.05-3.02-.87-2.11ZM59.55,219.46c-.86-.36-4.34,1.97-3.51,2.81.54.55,2.53-1.77,3.47-1.45l.04-1.36ZM59.55,223.67c.43-3.08-4.34.54-3.51,1.41l3.51-1.41ZM59.55,225.43c-.63-.63-4.56,1.61-3.51,2.81.12.14,3.1-1.58,3.29-1.73.34-.27.29-1.01.22-1.08ZM59.55,228.6c-.77-.77-4.52,1.41-3.51,3.16.79-.41,1.24-1.23,1.98-1.71.36-.23,2.46-.53,1.53-1.45ZM59.55,232.81c.22-3.25-4.7.29-3.52,1.76,1.49-.22,1.75-2.17,3.52-1.76ZM104.64,236.44c.23-.37,1.27-.28.94-1.31-.06-.19-2.86-2.24-3.24-2.39-1.1-.42-4.45-.44-5.68-.25-.55.09-4.06,1.78-4.24,2.09-.38.65-.39,2.97-.52,3.87,1.72.11.74-2.89,1.41-3.51.73-.68,1.13,1.9,1.45,2.08.16.09,2.9-.67,3.6-.3,1.85-7.2,1.87-.49,2.33-.02.04.04.56-.31,1.05-.2s2.64,1.07,2.81.9c.05-.05-.11-.63.09-.95ZM59.55,235.63c-.04-2.66-4.65.68-3.87,1.41.89.82,2.68-2.01,3.87-1.41ZM78.88,235.63c-.55-.69-.88,1.06-1.21,1.42-.43.46-1.83.91-1.96,1.28-.81,2.44,2.02-.03,2.46.46.86,2.79-3.27,1.79-2.81,4.57.24.27,3.39-2.4,2.82-.17-.32,1.24-2.46,1.48-2.74,2-.14.25-.13,1.27-.08,1.33.42.46,2.82-1.68,2.82.18,0,1.31-3.82,1.23-2.82,3.68l2.46-1.05c1.54,1.96-4.23,2.92-2.81,4.57.29.33,2.24-1.15,2.64-1.4l.18,1.05.35-1.06c1.36.05,2.34,1.33,3.86,1.06.12-2.78-4.41-1.62-3.51-4.57.25-.29,3.78,2.18,3.52.52-.34-2.14-4.51-1.4-3.52-4.04.15-.17,3.88,1.89,3.87.87-.03-1.86-5.23-2-3.69-4.4,1.13.57,5.85,2.56,2.96-.15-1.12-1.05-3.71-1.11-3.14-3.01l3.51,1.05c.9-1.81-2.72-2.25-3.11-2.87-.23-.37.05-1.21-.06-1.35ZM87.32,272.19c-.93-11.55.27-23.06.01-34.63.1-.54-2.7-2.05-2.82-1.93.84,2.36.04,4.62-.02,6.84-.25,10.83.02,21.74-.51,32.55l-1.58,1.57c3.76-.64,2.67-4.49,3.16-7.21.6-.12.72.15.98.6.4.71.12,1.94.77,2.21ZM99.98,235.98c-1.38-.26-.44,2.36-.7,3.16,1.38.26.44-2.36.7-3.16ZM59.55,237.39c-.55-.52-5.04,1.48-3.86,2.81.31.35,2.45-1.75,3.25-1.49.65-.03.79-1.15.61-1.32ZM96.81,245.47c.34-.35,1.72-5.8,1.75-6.55.08-2.04-3.21-1.17-3.46-.25-.11.4.82,5.41,1.02,6.28.1.42.11,1.12.69.52ZM103.49,246.17c-.7-1.65.98-6.1.67-7.14-.21-.7-3.38-1.94-3.41-.5-.03,1.34,1.46,5.35,2.01,6.81.19.51-.33,1.02.73.83ZM110.88,260.94c-.15-.53-.28-.9-.27-1.48.1-3.27.51-4.25-.05-7.52-.63-3.67-.78-7.35-1.26-11.04-.58.4-.51.96-.55,1.56-.22,3.22.02,6.36-.05,9.51-.03,1.21-.66,2.66-.66,3.87,0,.45.69,5.22.82,5.53.56,1.38,6.1,3.9,7.49,5.19-.94,2.91,1.13,3.89,1.91,6.33.55.51,1.34-1.43,1.48-1.86.22-.69.39-1.27.27-2.01-.58-.19-1.02,3.05-1.75,2.11v-4.57s.71,2.11.71,2.11c.6.04.42-1.65.37-1.95-.14-.77-.63-1.24-.71-1.76-.32-2.26-.03-4.93-.72-7.19-.64.13-.66.69-.71,1.22-.21,1.91-.06,4.2-.34,6.17-1.4-.47-.33-3.73-.7-4.22-1.6-.39.14,2.43-1.23,2.46l-.18-3.16c-1.6-.33.2,2.44-1.4,2.11v-2.81c-1.49-.37-.08,1.87-1.05,2.11-.24-.77.65-3.08-.7-2.81l-.7,2.11ZM58.84,241.26c-2.28-.76-4.9,3.25-1.71,1.63.46-.23,1.9-.92,1.71-1.63ZM97.17,246.88c.85-.36,1.01-1.66,1.05-2.46-.85.36-1.01,1.66-1.05,2.46ZM102.44,247.58c.08-.97-.14-2.59-1.05-3.16l1.05,3.16ZM117.21,252.86c-.92-.25-.63.38-.91.66s-1.52,1.47-1.2,1.79c.83.14,2.58-1.86,2.11-2.46ZM82.05,257.42c1.14-1.24-2.74-3.44-4.22-3.02-.75.21-3.68,2.03-2.81,3.02.38.43,3.38-2.34,2.82-.17-.47,1.78-3.69,1.21-2.81,3.69,2.82-1.67,4.24-1.42,7.03,0,.6-2.8-3.79-2.18-3.87-4.39-.02-.54-.06-.62.53-.54.71.1,3.08,1.7,3.34,1.41ZM121.78,254.26c-.84-.05-.62-.11-.7.53-.17,1.38-.23,2.73-.47,4.11-.17,1.04-.88,2.93-.92,3.65,0,.15.61.11.68.39.28,1.18-.15,2.97.1,4.42.03.2.86,2.46.95,2.57.18.21,4.28,2.79,4.73,3s.72.46,1.25.33v-4.22s-.35,2.11-.35,2.11l-.35-2.46-.7,1.75c-1.31.29-.49-1.71-.7-2.46l-1.05,1.76c-.17-1.09.53-2.91-.7-3.51l-.35,2.81-.02-5.46c-.01-3.32-.19-4.52-1.29-7.82-.16-.48-.11-.99-.1-1.48ZM126.7,260.24c-.39-.39-2.5,1.72-2.11,2.11.68.2,2.45-1.76,2.11-2.11ZM131.62,260.59l-.7.17c.32.4.41.89.37,1.39-.29,3.65-1.59,8.29-.57,11.83.21.75.81.67,1.05,1.04.29.44.15,1.06.56,1.56.19.23,3.72,2.46,3.86,2.29l.35-3.51-1.05,1.05v-2.11s-.35,0-.35,0l-.35,1.75-.18-2.11-.88,1.75v-2.11s-1.06,1.4-1.06,1.4c.43-2.58-.08-5.36,1.05-7.73l-1.4.35-.71-7.03ZM82.05,264.46c.94-1.04-2.36-2.92-3.08-3.1-1.32-.33-4.76,1.67-3.95,3.45,1.05-.36,3.29-2.78,2.83-.16-.24,1.37-3.81.9-2.84,3.33,1.27-.2,1.9-1.09,3.34-1.09.89,0,3.52,1.27,3.69,1.09.18-.2-.05-1.26-.32-1.61-.74-.96-3.23-.54-3.55-2.78-.08-.54-.04-.61.49-.49.61.14,3.18,1.58,3.38,1.37ZM114.74,271.84c-.11-.95.61-1.82.18-2.79-.9-2.04-4.5-4.66-6.5-5.64.19,1.12.25,2.54.89,3.51.28.43,3.12,3.22,3.68,3.71.25.21,1.69,1.31,1.76,1.23ZM141.11,280.1c-.28-1.1,0-4.54,0-5.98,0-1.19-.18-.92-.32-1.79-.14-.86-.7-4.59-1.09-4.89-.94-.74-.67,3.08-.73,3.49-.17,1.13-.7,1.83-.71,3.19,0,1.28.52,5.35.83,6.59.38,1.51,1.27,1.17,2.13,1.72,1.07.69,2.09,1.46,3.23,2.05.65-1.46-1.03-2.65-.53-4.21l-.7,1.75v-2.11s-.36,1.41-.36,1.41l-.71-2.11-.35,1.4c-.22.01-.67-.41-.7-.53ZM187.87,280.63v9.14c.52-.06.6-1.53.66-1.98.68-4.77.46-9.67,1.46-14.39l-1.06-5.78-1.06,11.6-.96-2.38-.8-6.06c-.64.17-.87,1.11-.97,1.67-.41,2.38-.31,5.2-.46,7.62-.05.74-.62,1.44-.65,2.16-.04.95.78,4.79.33,5.42l-1.91-.36-13.55,1.42-.04-4-1.37-6.89c.14,2.2-.49,4.35-.7,6.51-.11,1.07.35,4.02-.36,4.56-.29.23-1,.19-1.26.51-.05.06.16,1.37.21,1.43.04.05.77-.35,1.22-.36.77-.02,2.24.18,2.78.03.5-.14.23-2.86,1.97-.37l.7-1.05.71,1.05c.06-.33-.18-.97.18-1.06,1.05-.26.94,1.34,1.58.71.18-.18-.47-1.36.7-1.05l.71,1.05c.06-.31-.19-.93.18-1.06.73-.24.55,1.52,1.23.71.09-.11-.06-.78,0-1.06.96-.25.67.59,1.23,1.05l.53-1.05.71,1.05c.58.06.38-.8.88-1.05.7-.36.4,1.33,1.22.68.17-.14-.35-1.49,1.41.02v-1.06s1.06,0,1.06,0v1.76s-24.96,2.29-24.96,2.29l.53,1.24,26.89-2.47c.38-3-.02-6.79.35-9.68.07-.52.27-1.09.7-.52ZM82.01,269.77c-.15-.17-3.91-1.46-4.27-1.38-.16.04-2.81,1.54-2.9,1.69-1.63,2.74,2.42.32,3.52.32,1.53,0,2.25,1.1,3.69,1.09-.08-.44.16-1.48-.04-1.72ZM121.43,271.49c-.06,3.35,2.64,5.22,4.74,7.37.42,0,.91-2.32.71-2.8-.2-.49-5.01-5.08-5.46-4.58ZM137.6,273.6l-.17-1.75c-.71.62-.96,2.06.17,1.75ZM81.7,275c.06-.04.39-1.12.21-1.41-1.18-1.88-6.66-1.73-7.24.52-.52,2,2.53-.53,3.64-.43.64.06,3.08,1.55,3.39,1.31ZM148.15,285.2c.29-4.33-1.29-8.36-1.58-12.65-1.06,1.14-.25,2.9-.61,4.31-.12.48-.68.87-.85,1.54-.16.64.02,1.86-.12,2.59,1.48.37.08-1.87,1.05-2.11l1.23,7.38c.72.38,4.32,3.18,4.74,2.81l.36-3.87.7,1.05c.47-2.28-.04-5.37-.57-7.68-.13-.54-.17-1.31-.82-1.46-.19,1.69-.13,3.81-.37,5.43-.16,1.05-1.24,2.47-.69,4.06l-.7-1.76-.7.7v-1.75s-1.05,1.4-1.05,1.4ZM180.14,280.28c-.29-1.28-.72-3.37-2.44-3.14l-.72,2.79c.71-.06.89-2.35,1.75-1.76.1.07.8,2.08,1.41,2.1ZM135.49,283.09c.76-2.25-.57-4.05-2.81-4.57l.74,2.94,2.06,1.63ZM166.43,281.33c.22-.25-1.11-3.01-1.93-2.81-.79.85-1.34,1.99-1.24,3.16h2.11c.08-.74-1.21-.17-1.4-.35-.22-.21.41-1.04.35-1.4.91-.49,1.49,2.11,2.1,1.4ZM135.14,285.2l-2.81-3.86c-.37,2.02.55,4.01,2.81,3.86ZM144.28,288.01c.68-2.73-2.63-3.53-4.4-4.91.07,1.48,1.38,1.99,2.12,2.78.67.71,1.08,2.14,2.27,2.13ZM116.51,288.01c-.11-.1.55-2.13,0-2.81-.53.43-2.94.52-3.12.74-.24.28.09,2.5-.03,3.13.73-.32,1.47-.68,2.29-.72.7-.03,4.24.05,4.86.14.66.09,2.47,1.11,2.68.93.68-.57-.66-.72-.71-.93-.27-1.36.58-2.48-1.75-2.23-.26.25.6,2.14-.7,1.76l-.7-2.11-.7,2.11-.71-2.11c.44.9-.55,2.89-1.41,2.11ZM112.25,287.7c-.31-.28-7.56,1.53-8.19,2.04-.43.35-.11,1.57-.57,2.14l9.49-2.11c-.15-.35-.65-2-.74-2.07ZM151.31,292.93c1.03-2.69-1.06-3.83-3.16-4.92-.29,2.17,1.65,3.71,3.16,4.92ZM116.51,289.07c-4.19-.39-2.43,1.63-2.84,4.37-.1.69-1.59,3.52-1.38,3.71,1,.03,2.49-.04,3.13-.91,1.54-2.09,1.15-4.75,1.09-7.18ZM57.09,291.88c.43.43,2.15-1.48,1.94-2.1-.36.2-2.45,1.58-1.94,2.1ZM129.16,292.94c-.73.74-7.89-3.73-8.43-3.16.03,2.51-.44,7.03,2.67,7.7,1.42.3-.8-2.97-.85-3.38-.1-.77.46-1.71.28-2.56,1.67.14,2.84,1.29,4.49,1.66,1.79.41,3.57-.07,5.35.45.07-1.13.16-2.13-.88-2.81l-.52,1.76c-2.07.43-.04-1.84-2.11-1.41v1.76ZM141.29,290.48c-.35.24.19.48.36.69.35-.23-.16-.47-.36-.69ZM142.34,291.18c-.33.39.88.99,1.23.88l-1.23-.88ZM57.09,292.23c-.42-.43-.94.56-1.13.8-1.29,1.62-2.35,3.94-2.84,5.95-.26,1.07-1.26,8.41-.95,8.72.09.09.86.09,1.08-.21.41-.55.52-6.68.83-8.25.23-1.14.71-2.68,1.18-3.74.26-.58,2.05-3.04,1.82-3.27ZM150.96,294.69c.57-1.03-2.2-2.74-2.46-2.46-.63.68,1.61,2.7,2.46,2.46ZM60.6,292.59c-2.39.99-4.06,4.51-4.99,6.79-1.02,2.5-1.84,5.23-1.7,7.98,2.36-.34,4.96,1.08,7.21,1.08.48,0,3.55-.59,3.69-.73.19-.19.25-.74-.45-.62-1.61.27-3.12.9-4.83.63-.03-3.35,1.32-6.37,2.31-9.47.15-.45.36-.96-.37-.73-1.15.37-2.18,8.11-2.54,9.44-.17.63.1.91-.8.76.1-2.38.14-5.84.87-8.09.56-1.74,2.31-3.43,2.82-5.26-3,2.84-4.37,6.44-5.45,10.38-.15.56.38,1.04-.7.86.12-4.66,1.67-9.62,4.92-13ZM157.64,296.45c.38-1.88-.55-3.03-2.46-3.16-.17,1.47.86,3.27,2.46,3.16ZM134.43,301.72c.07-1.13-.79-2-.97-3.07-.23-1.35.44-3.75-1.03-4.24-.26-.09-1.09-.14-1.16-.07-.51.5,1.13,7.59,3.16,7.38ZM62.71,297.15c.08-.08.83-1.75.89-2.1-.17.69-1.51,1.32-1.58,1.41-.37.47.32,1.03.69.69ZM156.93,298.56c.3-1.45-.7-1.85-1.75-2.46-.49.62,1.18,2.25,1.75,2.46ZM138.3,298.21c-.08-.08.17-1.47-.53-1.76l-.53,1.75c-.54-.14-3.37-1.17-3.51-1.05-.64.53.47.76.69.88.92.51,1.93.64,2.85,1.09.12,3.43-.39,6.98.33,10.33-.51.09-2.69-.13-2.81,0-1.28,1.33,3.12,1.68,3.87,1.41.1-1.54-.79-11.52-.36-11.96.33-.33,2.55.64,2.47-.53-.02-.27-.3-1.51-.37-1.58-.8-.74-1.04,2.47-2.1,1.41ZM88.03,307.52c.57-2.25-.42-6.79,0-9.32l-.72,7.19.02,2.65c.22.01.67-.41.7-.53ZM162.91,300.68c-.12-.14-2.13-1.2-2.45-1.76-.22,1.42.81,2.65,2.28,2.46.31-.04.23-.63.18-.7ZM152.36,301.38c-1.46-.17-1.46.52,0,.34v-.34ZM166.43,309.11c-.57-.69-.82.66-.84,1.01-.09,1.81-.22,5.09,2.25,4.97.16-.82-.8-1.01-.98-1.65-.21-.74-.1-3.94-.42-4.33ZM186.82,310.16h-2.11v5.27c0,.11,1.67-.12,2.11.35v-5.63ZM60.25,310.86v6.15c0,.35-.89,1.89.35,2.28-.13-2.64.69-5.27.36-7.91-.07-.52-.27-1.09-.7-.52ZM138.65,311.22c-.38-.04-1.33.24-1.42.59-.45,1.82.95,11.48.37,12.07-.26.26-2.8-.54-2.46.52.2.63,2.87.56,3.52.53v-13.71Z" fill="#3e3b39"/>
    <path d="M68.34,159.34c.12-.11.22-.25.35-.35-.1.14-.27.24-.35.35Z" fill="#3e3b39"/>
    <path d="M67.99,160.04s.08-.45.35-.7c-.1.13-.17.44-.35.7Z" fill="#3e3b39"/>
    <path d="M57.79,273.6c.13-.06.74-.11.71.18-.15.78-.27,1.58-.46,2.35-1.83,7.27-4.84,14.88-6.34,22.13-1.08,5.21-.56,12.84-.6,18.39-.04,5.92.06,11.85.01,17.77-.13.15-2.29-.45-2.11-1.22l.35-28.31-2.11.35c-.5-2.24.9-1.71,1.72-2.67.72-.84,2.17-4.81,1.11-5.62l-2.12-.32c.59-1.23,3.37-.06,3.51-.18.1-.09-.07-.57,0-.7,1.41-2.55,1.7-5.31,2.46-8.09.32-.55.26-.42.35-1.05.49-1.75.67-2.96,1.05-4.57.09-.32.23-.62.35-1.05.06-.23.25-.71.35-1.05.08-.29.24-.63.35-1.05.58-1.95.94-3.33,1.41-5.27Z" fill="#3e3b39"/>
    <path d="M68.69,183.24c-.14-.1-.25-.21-.35-.35.13.12.23.24.35.35Z" fill="#3e3b39"/>
    <path d="M90.49,157.23c.02.1.01.34,0,.35-.7.45-.66-.66-.7-.7.02.05.3-.05.35,0,.1.1.34.3.35.35Z" fill="#3e3b39"/>
    <path d="M68.34,182.89c-.09-.08-.61-.06-.9-.32-1.24-1.12-.1-4.46-.16-6.01,1.78,1.94-.46,4.24,1.05,6.33Z" fill="#3e3b39"/>
    <path d="M161.15,302.08c.35.27.35.22.7.35.3.15,2.31,1.36,2.38,1.48.2.35.34,1.57-.44,1.33-.29-.09-3.06-1.87-3.18-2.09-.47-.82-.31-1.15.54-1.07Z" fill="#3e3b39"/>
    <path d="M69.39,158.63c-.33.57-.68.31-.7.35.11-.09.07-.57.7-.35Z" fill="#3e3b39"/>
    <path d="M101.03,300.31l-3.87-.18c.19-.57.36-1.12.38-1.73.35-13.24-.02-26.52.32-39.76.03-1.29.5-2.43.39-3.89-.09-1.16-.79-.6-.76-1.69.04-1.89.95-3.62,1.97-5.13,1.75,0,2.5,4.42,2.26,5.79-.79,4.47-.25,9.65-.32,14.45-.1,7.3-.58,14.81-.73,22.12-.07,3.28-.18,6.83.36,10.03Z" fill="#3e3b39"/>
    <path d="M58.49,254.61c.14-.11.62-.41.7-.35.4,1.49.99,2.74-1.05,2.81.15-.8.21-1.66.35-2.46Z" fill="#3e3b39"/>
    <path d="M61.66,246.88c-.17.07-.61-.14-.97.08-.19.12-2.32,3.17-2.56,3.6-.74,1.35-1.22,2.88-1.4,4.4-.62-.1-.39-1.83-.36-2.3.06-1.14.41-2.18.37-3.32-.81-.2-.84.35-.96.96-.43,2.3-.07,5.89-.08,8.37,0,.65-.33,1.27-.33,1.78,0,1.85.64,4.12.32,6.11l.7-.7c-.59,1.35,1,2.23,1.05,2.97.05.96-1.34,3.12-1.05,4.41l-.35-3.34-.7-.52c-.46.6.45,5.26.33,6.46-.25,2.47-2.36,5.95-2.44,8.65v-34.45s-2.11,1.3-2.11,1.3l-.35,31.04c-.59,0-.67-1.17-.7-1.58-.47-5.67.53-11.92.72-17.57.15-4.43-.19-8.89.04-13.32.08-.24,1.73-1.53,1.95-1.59,1.15-.31,1.42,1.42,4.56-.33l12.41-8.5v5.98c-1.24-.36-2.23-1.38-3.64-1.3-.47.03-2.71.74-3.16.99-1.07.59-.89,1.18-1.28,1.71,1.21-.52,2.32-1.32,3.7-1.41,4.51-.32,5.11,3.78,4.74,7.39-2.64.44-.86-1.32-1.1-2.27-.11-.43-.93-.39-1.02-.79-.18-.77.04-1.15-.34-2.22-.17-.48.13-.88-.92-.94-1.35-.08-2.26.39-3.3.94-.14.07-.23.25-.35.35-.36.29-.84-.25-1.05,1.05-2.16,1.86-3.01,2.76-3.52,5.63-1.16.87-.79,1.32-.35,2.46.06.16-.1.61,0,.69.24.19,2.53-.94,3.35.35.58.91-.69,1.56-.54,1.76.02.03.66-.08.72.22.14.61-.43,1.27-.37,1.9l1.05-.35-.35,2.46,1.4-1.4c.02,1.54.13,3.09-.35,4.57h1.41s-.35,1.41-.35,1.41c.55.28,1.26-.88,1.4-.7.73.95-1,1.34-1.05,1.41-.06.09.62,1.26.88,1.4.72.38.29-1.19,1.23-.7v5.1c0,.26.57,1.03.36,1.58h.35s0-6.5,0-6.5c0-.12-.38-.37-.29-.95.02-.11.65-1.7.98-1.69.48,2.51.25,5.03.36,7.56.02.43-.27,1.31.35,1.23v-10.37c0-.16,1.09-1.54.71-2.29h.7v10.02c0,.19-1.23,2.7-1.29,3.56-.11,1.58.98,3.84.33,5.32-.22.49-.08.53-.79.44l-7.56-20.04c-1.1-1.29-2.21,1.2-2.64.71-.16-.18.34-1.17-.35-1.06-.46,1.31.65,2.28.69,3.3.01.3-.43,1.86-1.04,1.27-.24-.23-1.31-4.8-1.37-5.49-.44-4.89,2.72-11.05,5.58-14.9ZM60.25,261.64c.42-.41.76-3.13-.7-2.81,0,.28-.3,3.76.7,2.81ZM58.84,261.29c.21-1.25-.29-1.74-1.4-2.11-.48,1.14-.25,2,0,3.16l.35-2.11,1.05,1.05Z" fill="#3e3b39"/>
    <path d="M67.64,247.58l-.88,2.46c.03-.84-1.14-2.02-1.93-1.4-.61.47.96.86,1.07,1.58.2,1.31-.74,2.73-.72,4.04.85-.1,1.58-4.75,2.81-3.51.47.47-1.65,3.82-2.1,4.4l-.71-.89-1.05.35.35-6.33c-1.35-.39-.2,1.9-1.26,2.09-.88.16-1.33-.55-1.2-1.39.66-.57.63-.62,1.05-1.05.1-.11.27-.31.35-.35,1.13-.51,3.05-.41,4.22,0Z" fill="#3e3b39"/>
    <path d="M94,249.34c-.56,1.82-1.25,3.5-1.41,5.44.91-.14,1-2.14,1.25-2.98.11-.37.01-1.38.68-1.06,1.46.69.61,3.36.71,4.39,1.26,13.75-.25,27.69-.14,41.52.01,1.38.64,2.95.49,4.36-1.16-.75-2.22.24-3.34-.19.19-.57.36-1.12.38-1.73.29-10.89-.2-21.83-.03-32.73.07-4.59.77-6.77-.33-11.3-.3-1.22.35-3.86.88-5.04.24-.53-.04-.86.86-.7ZM95.06,263.76c-1.44-1.34-2.06,3.86-.87,4.57.95.13.4-.59.35-1.05-.07-.64-.33-1.16-.18-1.92.09-.48.98-1.34.7-1.6ZM95.06,275.71c-2.38-1.15-1.93,4.2-1.37,4.54,1.7,1.04.57-1.76.64-2.61.08-.92.72-1.12.74-1.93ZM95.06,288.01c-2.6-.96-1.84,4.25-1.37,4.54,1.7,1.04.57-1.76.64-2.61.08-.92.72-1.12.74-1.93Z" fill="#3e3b39"/>
    <path d="M112.99,305.59l-.36,15.82-7.73.71c-.61-2.01,1.41-1.7,1.06-3.51-.26-.26-1.98.82-1.42-1.52.14-.57,1.99-.13,1.44-1.8-.11-.35-1.85,0-1.45-1.75,1.11-.68,1.72-.26,1.43-1.96-.22-.22-1.99.66-1.43-1.21.1-.33.98-.15,1.27-.52.8-1.02-.04-1.8-1.25-1.43.03-.45-.12-1.04.16-1.43.34-.48,7.12-1.3,8.29-1.38Z" fill="#3e3b39"/>
    <path d="M63.07,214.18c.33.11.96-.62,1.05-.17.18.82.17,6.87,0,7.75-.17.92-1.59.75-1.06,2.27l1.05-.35c-.31,2.34.43,5.72,0,7.91-.19.99-1.2.75-1.42,1.75-.42,1.92,1.34.08,1.41.18-.05,1.71.35,3.44-.7,4.92.34.33,5.39-3.54,5.81-4.21l.53.88-7.74,5.1,1.05-1.23-1.75.53c0-5.8,0-11.61-.02-17.42,0-1.51,0-3.04,0-4.54.05-6.97-.6-14.15,1.07-20.93,1.05-.11,1.22,1.2,1.37,1.97.6,3.17,1.32,10.73.3,13.58-.25.68-1.22,1.02-.96,2.02Z" fill="#3e3b39"/>
    <path d="M66.94,211.37l1.05-.35c-.36,2.11.5,5.98.01,7.84-.07.26-1.81,1.03-1.06,2.71l1.05-.35c-.23,2.26.31,5.05.02,7.22-.19,1.41-1.32,1.52-1.43,2.44-.12,1.01.95.19,1.08.72.41,1.6.08,4.19-1.94,4.39-1.24.03-.19-11-.17-12.12.1-6.91.08-13.87,0-20.77-.03-2.03-.59-4.05-.36-6.31.16-1.6,1.48-5.9,2.38-2.38.48,1.89.83,13.45.25,14.85-.23.54-1.27.97-.86,2.12Z" fill="#3e3b39"/>
    <path d="M173.11,330.9c-.64-.13-.66-.69-.72-1.22-.34-3,.23-6.16.33-9.12.02-.65-.39-1.54-.34-2.51.06-1.37,2.2-5.54,3.66-5.36,1.32.16,2.74,3.26,3.06,4.49,1.02.34-1.13-4.28.34-2.81.85.85.72,5.05.7,6.33l-.7-2.46c.28,2.97-.25,6.03-.32,8.93-.02.85.66,4.42-.05,5.12-.16.16-4.37.16-4.54,0-.74-.71-.19-10.22-.37-11.94h4.22c.25-2.81-2.61-7.87-4.39-3.16-.2.54-.88,3.28-.88,3.69v10.02Z" fill="#3e3b39"/>
    <path d="M58.62,278.29c4.37-4.32,4.24,6.79,1.44,7.27-3.56.61-3.18-5.55-1.44-7.27Z" fill="#3e3b39"/>
    <path d="M128.74,282.11c.33.57-.07,2.31.07,3.1h-1.05s0-2.81,0-2.81l-.34,1.91c-.07.55-2.1-.59-2.14-.71-.16-.55.15-1.6.02-2.26-.93.16.38,2.12-1.05,1.75v-2.46c-1.31-.37-.44,1.45-.71,1.75-2.66-.55-2.17-1.43-2.11-3.86.28-.29,7.1,3.23,7.31,3.58Z" fill="#3e3b39"/>
    <path d="M64.36,255.72c2.37-.2.77,6.46-1.11,5.92-1.04-.3-1.14-5.73,1.11-5.92Z" fill="#3e3b39"/>
    <path d="M154.12,326.69c-.4.7-.21,3.73-.35,3.87s-2.93-.1-3.52,0c.48-1.48.36-3.03.35-4.57,1.24.5,2.07.96,3.51.7Z" fill="#3e3b39"/>
    <path d="M81.31,281.72c.2.23-.04,1.28.04,1.72-2.6-.93-4.23-.9-6.68.35-.72-2.01,2.4-3.41,3.95-3.1.18.04,2.59.92,2.68,1.03Z" fill="#3e3b39"/>
    <path d="M174.51,298.21c-.21,1.12-.96,1.91-.7,3.16-2.79-.08-4.8.93-4.22-2.81l4.92-.35Z" fill="#3e3b39"/>
    <path d="M81.34,279.92c-2.96-1.37-3.86-1-6.68.35-.66-3.72,6.84-4.07,6.68-.35Z" fill="#3e3b39"/>
    <path d="M159.4,316.49c-1.33-1.34-.37-3.62-1.33-5.53-.67-1.34-2.18-1.05-1.48-3.62.44.28,2.81,1.24,2.81,1.58v7.56Z" fill="#3e3b39"/>
    <path d="M173.81,304.89l-3.87.35c.14-1.54-.69-2.94,1.21-3.18,2.64-.34,2.88.31,2.66,2.83Z" fill="#3e3b39"/>
    <path d="M162.91,327.74c.81.04,2.03-.07,2.13.87.24,2.08.54,4.5-2.13,4.06v-4.92Z" fill="#3e3b39"/>
    <path d="M118.61,318.25c.52-.06.63.92.67,1.26.5,4.56-.88,9.85-.32,14.56-1.58.26-.35-2.19-.35-2.63v-13.18Z" fill="#3e3b39"/>
    <path d="M63.07,242.66c.07-.76-.21-1.79.17-2.47.72-1.28.79,1.62,1.23,1.41l.36-2.46,1.05,1.4v-2.11s1.06,0,1.06,0c.5,2.15-1.06,2.85-2.63,3.89-.45.3-1.16.27-1.24.33-.43.31-.07.18-1.05.7-.14.08-1.7,1.28-2.46,1.76-.07.04-.16,1.07-1.05,1.05v-2.81s1.05,1.76,1.05,1.76v-2.46s.71,1.4.71,1.4l.35-2.11,1.4,1.4v-2.11s.7,0,.7,0v1.41s.35,0,.35,0Z" fill="#3e3b39"/>
    <path d="M46.89,330.55c-.65-.24-.38-2.06-.34-2.63.16-2.48.25-5.12.53-7.56.05-.44-.03-1.78.51-1.76.14,3.98.26,8.07-.7,11.95Z" fill="#3e3b39"/>
    <path d="M101.03,313.33c.75,2.55-4.59,2.59-3.87,0h3.87Z" fill="#3e3b39"/>
    <path d="M159.39,317.19l.35,9.49c-.42.55-.64,0-.7-.52-.13-1.13-.28-2.74-.35-3.88-.03-.46.29-.95.28-1.41-.03-.83-1.07-3.87.42-3.69Z" fill="#3e3b39"/>
    <rect x="97.52" y="309.81" width="3.52" height="1.76" fill="#3e3b39"/>
    <rect x="97.52" y="320" width="3.52" height="1.76" fill="#3e3b39"/>
    <path d="M68.69,256.02c-4.08,2.47-2.07-1.85-.46-2.39,2.24-.75.36,1.2.46,2.39,1-.6.65-1.36,1.4-1.76v3.16c-.83.09-1.35-.69-1.4-1.4Z" fill="#3e3b39"/>
    <path d="M63.6,283.09c1.26-.29,1.15,3.69.34,3.86-1.67-.54-1.52-2.89-.34-3.86Z" fill="#3e3b39"/>
    <path d="M181.2,309.81c.14.14.19,3.7-.7,3.87l-1.41-3.86h2.11Z" fill="#3e3b39"/>
    <rect x="97.52" y="316.49" width="3.17" height="1.76" fill="#3e3b39"/>
    <path d="M65.52,266.56c-2.01.31-1.63-4.58-.88-4.56,1,.03.97,3.83.88,4.56Z" fill="#3e3b39"/>
    <path d="M60.6,186.41v6.68h-.35v-5.63c-.34.09-1.62.28-1.71.4-.33.38.42,1.99-.39,2.06-.05-2.63-.66-3.58,2.46-3.51Z" fill="#3e3b39"/>
    <path d="M56.57,285.9c1.51-.31.8,3.76-.35,3.51-1.51-1.04-.87-2.49.35-3.51Z" fill="#3e3b39"/>
    <path d="M66.27,259.5c-1.19-2.05,2.41-2.72,2.77-1.53.43,1.42-2.4,2.18-2.77,1.53Z" fill="#3e3b39"/>
    <path d="M93.95,309.86c.18.11.53,1.57.41,1.7l-2.81.35c-.64-1.56,1.09-2.87,2.41-2.06Z" fill="#3e3b39"/>
    <path d="M65.88,267.62c.45-.69.23-3.29.39-3.48.19-.22,1.96-.14,2.09-.6.25-.87-.42-3.11-.34-3.25.05-.09,1.44-.74,1.72-1.11.26,2.09-.76,4.32-1.81,6.1-.39.66-1.23,2.28-2.05,2.34Z" fill="#3e3b39"/>
    <path d="M65.53,260.24c1.71-.55,2.93,2.87,1.57,3.16-1.03.22-1.9-2.38-1.57-3.16Z" fill="#3e3b39"/>
    <path d="M94.36,320.01c.32,2.18-1.18,1.79-2.82,1.76v-1.76s2.82,0,2.82,0Z" fill="#3e3b39"/>
    <path d="M63.42,255.31c-.81.18-.56-.1-.79-.45-.73-1.14-.68-2.46-.61-3.77,2.1.22,1.27,2.75,1.4,4.22Z" fill="#3e3b39"/>
    <path d="M94,316.49v2.11s-2.46,0-2.46,0c-.42-2.27.61-1.78,2.46-2.11Z" fill="#3e3b39"/>
    <path d="M67.64,141.41c-.22-.84-.54-1.45.03-2.25,1.52-2.13,3.04,2.17-.03,2.25Z" fill="#3e3b39"/>
    <path d="M94.01,313.32c.39,2.66-.61,1.3-2.46,2.11v-2.11s2.46,0,2.46,0Z" fill="#3e3b39"/>
    <path d="M61.66,250.4c-.13.62-.19,2.75-.41,3.09-.49.74-2.26.36-1.55-1l1.96-2.09Z" fill="#3e3b39"/>
    <path d="M61.6,254.67c.16.1.96,2.2.76,2.4-2.08-.02-2.24-.53-2.46-2.46.49.07,1.32-.17,1.7.06Z" fill="#3e3b39"/>
    <path d="M168.54,307.35c-.47.48-4.06-1.51-3.16-2.46.2-.22,4.1,1.49,3.16,2.46Z" fill="#3e3b39"/>
    <path d="M175.4,308.05c1.47-.46,2.18,2.46.35,2.47-1.23,0-1.13-2.23-.35-2.47Z" fill="#3e3b39"/>
    <path d="M178.73,304.54h-1.05c.17-1.34-.49-3.14.53-4.22.84,1.23.46,2.82.52,4.22Z" fill="#3e3b39"/>
    <path d="M60.23,272.91c.14.09,1.32,2.82-.15,2.8-1.57-.02-.84-1.94-.88-2.83.31.05.85-.09,1.03.02Z" fill="#3e3b39"/>
    <path d="M178.03,299.61c-.4.21-2.68.46-2.44-.5.51-2.01,2.35-1.43,2.44.5Z" fill="#3e3b39"/>
    <path d="M101.74,301.37c.57.43,0,.64-.52.7-1.25.16-2.76-.11-4.05,0-.06-.51.92-.63,1.26-.67,1.1-.12,2.21,0,3.31-.03Z" fill="#3e3b39"/>
    <rect x="180.14" y="322.82" width=".35" height="7.73" fill="#3e3b39"/>
    <path d="M70.09,164.96c.34,1.46-.42,1.95-1.4,2.81l.11-1.65,1.29-1.16Z" fill="#3e3b39"/>
    <path d="M111.23,283.09c-.15.46-1.65.8-2.09.89-.59.12-1.16.23-1.77.16.73-1.12,2.68-1.03,3.87-1.05Z" fill="#3e3b39"/>
    <path d="M101.04,175.16c.51,1.35-2.67.49-2.81.34-1.08-1.13,2.67-.11,2.81-.34Z" fill="#3e3b39"/>
    <path d="M129.86,279.58c.09.08-.1,2.53-1.05,2.11v-2.11c.29.04.97-.07,1.05,0Z" fill="#3e3b39"/>
    <path d="M57.79,244.42c-.2.74.61,2.75-.7,2.46.2-.74-.61-2.75.7-2.46Z" fill="#3e3b39"/>
    <path d="M71.15,165.66c-1.42.26-.44-1.76-.35-2.46l.35,2.46Z" fill="#3e3b39"/>
    <path d="M178.56,313.68c.23.12.23.23,0,.35v-.35Z" fill="#3e3b39"/>
    <path d="M106.48,284.14c.23.12.23.23,0,.35v-.35Z" fill="#3e3b39"/>
    <path d="M97.89,229.98c.12.11,2.5.1,2.82-.13.72-.52-.02-3.19,1.38-3.01.19.56-.6,3.8-.92,3.89-.4.11-3.39.03-3.68-.17-.7-.5.03-3.2-1.03-3.71-.79,1.77.61,4.24-1.59,4.56-.17-.41.42-.67.52-1.24.11-.64-.07-1.35.08-2.03.04-.16.9-1.94.99-2,1.24-.89,1.22,3.66,1.42,3.84Z" fill="#3e3b39"/>
    <path d="M90.1,136.87c1.08.73-.22,4.38-1.68,1.84-.9-1.57,1-2.3,1.68-1.84Z" fill="#3e3b39"/>
    <path d="M87.96,163.3c.72.41,1.48,1.84,1.12,2.72-1.41-.14-2.96-3.78-1.12-2.72Z" fill="#3e3b39"/>
    <path d="M91.19,175.86c.09,1.3-.15,2.73.03,4.01.08.56,2.02,5.65-.1,2.56-1.06-1.54-.87-4.17-.64-6.05.06-.52.27-1.08.7-.52Z" fill="#3e3b39"/>
    <path d="M101.04,184.65v6.68h-.7v-5.1c0-.37-1-.67-1.41-.53v6.68c-.27.2-.7-.71-.7-.88v-7.21l2.81.35Z" fill="#3e3b39"/>
    <path d="M88.55,153.02c.19.22.71.46.36.69-.17-.21-.71-.44-.36-.69Z" fill="#3e3b39"/>
    <path d="M87.85,155.12c.23.12.23.23,0,.35v-.35Z" fill="#3e3b39"/>
    <path d="M69.05,160.75c.69-.06.35.69-.18,1.05l.18-1.05Z" fill="#3e3b39"/>
  </g>
</svg>