<?xml version="1.0" encoding="UTF-8"?>
<svg id="Capa_1" xmlns="http://www.w3.org/2000/svg" version="1.1" viewBox="0 0 386.13 282.91">
  <!-- Generator: Adobe Illustrator 30.3.0, SVG Export Plug-In . SVG Version: 2.1.3 Build 182)  -->
  <path d="M94.38,266.61c-8.51-2.86-18.01-6.1-22.94-13.02-3.6-10.83-8.09-65.23-1.95-74.02,6.23-3.32,17.31-5.47,23.33-9.51,1.45-2.9,3.56-5.93,5.31-8.5,1.15-5.56.43-14.94.67-20.29-.68-4.46-8.42-4.85-9.97-10.54-1.94-5.84-4.26-14.26-.6-19.41,3.36-4.1,5.21-10.68,6.54-16.23,2-7.93-7.05-3.92-7.99-21.87-3.01-9.58,33.86-22.38,37.55-27.41,9-8.57,16.29-27.74,30.14-27.97,23.32,3.1,48.54-4.48,70.07,6.99,10.07,4.98,15.44,10.71,21.36,20.05,9.68,6.53,25.94,11.09,26.79,24.76.81,6.96,1.15,13.56,8.48,16.5,12.32,7.66,10.29,27.86-.61,36.01-8.76,7.09-20.4,9.28-31.34,9.77-11.38.7-24.5-1.73-35.36,3.72-3.76,2.95-5.45,8.11-8.12,12.05-1.79,2.71.7,2.95,2.67,3.29,5.06.89,11.55,2.65,16.55,2.36,7.09.06,3.59-11.43,12.2-9.57,3.39.74,6.21,3.22,9.66,4.2,3.21,1.14,6.66-.05,9.83-.09,3.48.62,14.49,4.65,21.26,4.07,33.89-2.92,113.32,1.74,47.42,34.5-5.56,5.41,4.68,6.3,3.82,20.23,0,5.32-1.64,9.98-6.89,10.75-8.15,2.51-39.57-2.71-33.96,10.8,5.84,14.13-3.87,28.46-12.7,38.45-8.52,4.26-97.05,4.23-138.43,5.19-14.42.59-28.99-.81-42.78-5.24Z" fill="#f9f2e8"/>
  <g>
    <path d="M263.89,176.26c-.14.39-.36.21-.61.3.14-.39.36-.21.61-.3Z" fill="#3e3b39"/>
    <path d="M279.74,169.86c.06-.25.11-.21.3-.3-.08.24-.1.2-.3.3Z" fill="#3e3b39"/>
    <path d="M209.96,169.55c.02.44-.37.24-.61.3.14-.18.05-.44.61-.3Z" fill="#3e3b39"/>
    <path d="M206.3,171.08c-.16.4-.3.25-.61.3.22-.12.26-.22.61-.3Z" fill="#3e3b39"/>
    <path d="M272.43,172.91c-.05.08.13.42-.18.64-.34.23-.94.19-1.34.28.01-1.01.67-.56,1.52-.91Z" fill="#3e3b39"/>
    <path d="M254.45,176.87c-.18.4-.36.21-.61.3.16-.39.35-.21.61-.3Z" fill="#3e3b39"/>
    <path d="M266.03,177.17c-.04-.34.21-.25.3-.3-.05.09.04.35-.3.3Z" fill="#3e3b39"/>
    <path d="M260.54,176.26c.03-.16.2-.21.3-.3-.1.06-.18.26-.3.3Z" fill="#3e3b39"/>
    <path d="M257.8,241c.22-.58-1.61-1.08-1.99-1.09-1.06-.04-1.75.94-2.88.64-.07,1.82,4.46,1.56,4.87.45Z" fill="#3e3b39"/>
    <path d="M347.08,163.46c-.29-.36-1.03.84-1.51,1.07-.97.46-5.75,1.98-5.19-.16.68.86,5.73-.72,4.87-1.52-.16-.15-3.03,1.25-4.14,1.19-.68-.04-.91-.84-1.58-1.11-3.54-1.46-10.92-.74-14.86-.98-6.67-.4-13.34-1.44-20.05-1.22-.86-.2-.43-3.82-.2-4.58-.57-.64-14.47-.24-16.47-.17-1.65.55-1.12,3.1-1.05,4.44l-13.35-.3c-.88-1.34-.68-3.55-2.94-3.06.02,1.04.99.39,1.59,1.61.63,1.27,1.02,3.66,1.16,5.09.55.06,0-.56.74-.64,4.83-.5,9.83.52,14.64.65,5.13.14,10.28-.26,15.41.13l.3.46c-8.68-.26-17.36-.21-26.05-.61v.61c-1.19-.18-2.25-.84-3.5-.61l4.88,1.83-.31.91,2.74-.3-.16.6c1.46-.79,3.12.32,4.73,0-.67,1.32-1.93.17-1.83,1.83,1.1-.19,2.26-1.01,3.65-.61-.18,1.8-2.35,1.11-3.66,1.22-.02-.2.01-.41,0-.61-.81.14-1.81.42-2.61.34-.58-.06-.09-.29-1.81-.33-.48-.01-.9-.26-1.46-.23-1.15.04-1.76,1.52-2.87,1.7-.76.12-2.08-.44-3.27-.23-1.19.2-2.37,1.5-4.13.9-.02.34,1.31.71,1.49.74.84.12,2.11-.17,3.08.18-.19.24-.23.8-.3.91.68-.32,1.67-.64,2.44-.61-.33.71-.89.28-.91,1.22,1.14-.42,2.07-1.18,3.35-.91-.61.86-2.14,1.78-3.18,1.53-.29.03-.18-.41-.17-.62-1.02.38-1.79-.11-1.83.91,1.89-.09,2.46.61,2.61.62.16,0,3.99-.87,2.87.29-.25.27-1.95.35-2.44.31.79,1.74-1.54,1.6-2.74,1.21-.18-.39,1.28-.33.61-.91-.14-.12-2.37,1.05-3.05.61,1.32-2.15,2.97-.14,4.87-.91-.41-1.05-1.82-.43-2.56-.6-.31.04-.19-.4-.18-.62-.54.03-1.2.45-1.83.3,0-.2,0-.41,0-.61-1.16.25-2.15.43-3.35.3l.16-.91c-.74.77-3.24,1.13-2.13-.61l-1.68,1.52h2.13c-.02.2.03.42,0,.61.92-.18,1.77-.46,2.74-.3.11.37-.27.69-.3.91.86-.21,1.58-.74,2.44-.3-.14.68-2.11,1.16-2.43.91.01-.2-.03-.42,0-.61-1.02.24-1.41.77-2.74.3-.11-.37.27-.7.31-.91-1.29.25-1.94,1-3.35.3l.46-.9c-.98.31-1.31,1-1.98,1.52.73-.14,3.07-.3,2.74.61.89-.35,2.06-.66,2.73.15-.16.12-.21.3-.3.46.9-.48,2.91-1.36,2.28.3.6-.65,2.1-.93,2.59,0-1.7,1.24-3.42.23-5.18,0-.9-.12-3.13.46-2.74-.61-.97.38-1.73.36-2.74.3.02-.2-.03-.43,0-.61-.6.24-1.66.4-2.3.34-.58-.06-.41-.65-.61-.65-.3,0-.7.33-1.16.29-.74-.08-1.5-.45-2.32-.28l.15-1.53c-1.49.78-2.69,1.13-4.42.92l1.22.76c-1.14,1.16-3.21,1.17-4.66.75-.26-.08-.2-.6-.39-.6-1.47-.04-3.5.46-5.09,0-.26-.08-.21-.58-.41-.61-.7-.09-2.09.61-3.26.31-.24-.06-.19-.59-.4-.62-.11-.01-2.14.27-2.24.33-.05.03.55.86-.43.89l-9.03-1.51c-1-.82,2.23-.61,2.55-.57,1.18.13,2.4.75,3.4.87.6.07.46-.09.44-.6l-7.47-1.53c-1.34.34,1.44.51.76,1.22-.3.31-2.22.21-2.44,0-.64-.62.78-.49.61-.91-1.44.16-2.28.5-3.72-.03-.19-.07-.21-.47-.47-.56-.66-.22-1.78-.2-2.51-.33.33-.46.81-.81,1.22-1.22-1.25.21-2.33.88-3.65.61.22-.6,1.34-.72,1.89-.94.38-.15.74-1.18,2.07-.43.59.48.05.41-.31.77,1.44-.24,2.49-.47,3.96,0l-.61.6c1.17.12,2.34-.17,3.35-.76-1.07-.93-2.6.26-3.96-.46l.91-.91c-.9-.3-2.32-.37-3.13-.63-.27-.09-.23-.59-.4-.61-.56-.07-1.54.78-2.44.9-1.13.15-2.09-.08-3.17-.28l1.74-1.51h1.92s-.31-.92-.31-.92c1.63-.85,2.85.06,4.19.23,2.23.28,4.45.37,6.63.99.79-1.18-2.24-.21-2.58-1.22,1.33-.1,2.59.32,3.88.54.59.1.37,0,.38-.54-1.03.07-1.96-.44-2.94-.6-.96-.16-1.04-.21-1.53-.31-1.4-.31-6.55-.77-7.88-.46-1.26.29-3.67,2.2-5.03.46.68-.35,1.64-.15,2.22-.32.27-.08,1.73-1.01,2.58-1.13,2.08-.31,2.43.27,3.92.51,3.75.6,7.53,1.06,11.24,1.86.72-1.12-.96-.18-1.06-.92l4.26.3c-.17-.61-.99-.66-1.51-.77-1.93-.41-3.97-.5-5.91-.79-.48-.07-1.84-.13-2.02-.56,3.16-.23,6.23.58,9.29,1.22l-.04-.61-3.16-.92c1.24.08,2.9-.62,4.1-.33.42.1-.23,1.24.77.93v-5.02s1.37-6.86,1.37-6.86c-2.4,2.34-1.53,5.96-2.49,8.84-10.2,1.17-20.5,1.12-30.72,2.12-6.17.61-15.91,1.56-21.55,3.74-3.13,1.21-5.3,3.41-1.01,5.11,13.87,5.47,35.87,6.11,50.89,7.31,19.91,1.58,40.04,3.52,60.03,2.13,11.38-.79,13.93-3.11,23.51-7.88,5.09-2.53,10.57-4.91,15.55-7.61,1.01-.55,2.56-1.09,2.24-2.48-9.85-1.14-19.83-.76-29.7-1.84l-30.02-.6c-.49-.38,0-.55.45-.61,2.21-.28,5.88-.06,8.25-.01,9.7.21,19.5.82,29.23,1.24,7.89.34,16.58.19,24.39,1.21.73.1,2.7.41,3.21.76.53.36.01.64-.33.9-6.12,4.56-14.82,9.55-21.41,13.62-.19.12-1.52.89-1.26,1.18l23.91-14.32-.44,1.23c-6.98,5.19-14.42,9.79-21.62,14.65-.45.3-.44.83-.49.87-.9.77-.3-1.26-.9-1.21,0,.66.17,1.6-.61,1.83l-.3-.91c.2,1.25-.21,2.06-1.52,2.13-.38-.4.98-2.14-.3-1.83v2.44s-.77-.3-.77-.3c-.34-.03-.03.76-.15.91-.92,1.18-.33-2.69-.91-2.44-.11.99.36,2.27-.46,3.04v-3.35s4.11-2.43,4.11-2.43c-2.9,1.3-5.51,2.34-8.72,2.7-27.91,3.16-59.11.54-87.1-2.1-13.77-1.3-30.75-2.55-43.72-7.16-2.19-.78-7.06-2.49-3.12-4.63,9.48-5.13,34.59-6.64,45.92-7.4,4.92-.33,9.88-.13,14.78-.61.25-1.18-1.54-.31-2.27-.29-2.54.06-5.1-.07-7.64-.03l-19.03,1.53c-.13-.79.31-3.12-.29-3.52-.76-.51-4.8-.24-5.15-.8.03-2-1.3-3.68-1.54-5.62-.31-2.55-.19-6.57.73-8.95.4-1.03,1.82-2.83,1.92-3.58.16-1.23-.77-3.02.35-4.52.17-.23,4.05-3.79,4.3-3.92,1.29-.66,3.25-.78,4.47-1.32.93-.42,2.42-2.34,3.63-3.07.89-.54,2.63-.86,3.36-1.66.91-1.01.81-3.48,1.32-4.78l.89,2.61c.69.88,1.69-.02,1.85.13.04.04,0,.67.29,1.07,1.38,1.95,3.25-.88,2.76-2.59.63.18.56,1.41,1.52,1.22.92-1.05-3.06-7.24-3.04-8.83,1.46-.26,1.26.32,1.53,1.52l1.52-.61c.15,1.98-.05,2.13,2.13,2.44.27.83-.99,1.97-.87,2.54.11.54.93.62,1.1.88.29.45.07,2.09,1.15,2.07.73-.02.57-.84.98-.94.37-.09.99.14,1.26-.03.3-.19.39-2.72.8-2.71l.76,3.66c1.06-.45,1.59.32,2.58.34,3.26.06-.47-3.58-.75-5.07,1.32.64,2.28,2.21,3.95,1.98.25-1.37-1.03-2.1-1.58-3.14-1.34-2.5.09-1.79,1.04-3.35.48-.78.75-2.85.85-2.96.74-.79.65,1.81.74,2.15.32,1.18,2,5.21,3.61,4.83,2.32-.55-1.43-4.78.21-5.61,1.05-.54.91.36,1.32.67.25.19.75.11.96.4.86,1.14.18,3.96,3.02,3.01.5-.17.41-.95.64-.87,1.03.37,2.68,2.32,3.84,2.86.98.46,2.29.4,3.02.95.71.53.69,1.57,1.36,2.3.26.29,1.93,1.38,2.22,1.45,1.45.33,1.29-1.04,1.67-1.4.44-.41,1.54-.18,2.25-.96,1.32-1.46-.66-1.27-.48-2,.61-.28,2.56-1.88,2.95-1.94.2-.03,3.23,1.11,3.94,1.16,1.52.12,1.19-.88,1.51-.93.64-.1,1.21.83,1.96.63.26-1.35-.77-2.37-.91-3.65,2.79,1.16,1.27-1.66,2.13-2.29.08-.06,1.53-.61,1.74-.66.3-.08.79.29.96.18.38-.24.86-2.33.96-2.41.33-.25,2.19,1.37,2.91,0,.41-.78-.4-1.07-.47-1.68-.09-.85.66-2.68.3-3.8,2.73.31,2.15-1.63,2.57-3.37.15-.63.78-1.48.77-1.97-.01-1.15-1.72-1.04-2.06-1.43-.24-.28-.2-1.27-.41-1.42-.34-.23-1.38.26-1.95-.33-.4-.41-.69-1.95-1.45-2.66-.7-.65-4-2.07-4.12-2.28-.18-.31.05-1.06-.11-1.57-.04-.12-1.03-2.03-1.15-2.21-.73-1.13-2.64-1.55-2.75-1.67-.5-.53.48-.64.51-.69,1.81-3.36-1.27-2.64-1.72-3.27-.34-.48.77-1.34.59-1.93-.16-.56-1.82-1.05-1.82-1.26-.13-.64.84-.62.93-.93.3-1.06-1.06-.67-.93-1.66.13-.13,2.45.04,2.13-.76-.61-1.52-5.38-1.96-6.39-3.66l2.76.33c.08-1.11,1.45-2.04,1.06-2.91-.19-.42-2.68-1.95-3.13-2.06-1.48-.39-2.82.49-4.02.07-.45-.16-3.38-2.28-3.54-2.58-.32-.6.37-1.61.17-1.82-.11-.13-2.88-.69-3.35-.61-.39-2.1,3.62-.32,2.29-3.05-.37-.77-3.6-.7-4.42-.31-.15-.71.71-.89.86-1.43.62-2.18-2.06-.79-3.09-1.01-.15-.03-1.31-1.38-1.35-1.71-.21-1.69,2.25-1.53,2.04-3.59-.17-.59-3.37-.62-3.61-.82-.55-.44-.01-2.27-.07-2.53-.24-1.12-4.68.03-5.53-.23-.09-.03-1.59-.88-1.66-.94-.41-.39-.21-1.42-.69-1.91-.33-.34-1.18-.37-1.69-.75-.25-.19-2.07-2.1-2.4-2.47-.39-.44-.44-1.12-.94-1.5-.83,0-.42.93-1.14.87-2.72-.22-2.81-2.3-3.89-2.85-.17-.09-3.44-1.22-3.64-1.24-.74-.1-1.55.38-2.26.14-1.04-.36-1.41-6.14-4.31-1.8-.7-.37-.37-2.29-.95-2.44-1.76-.46-.9,1.91-1.78,1.53-.34-.15-.92-1.03-1.4-1.35-1.96-1.28-1.15.77-1.79,1.21-.29.2-1.03.1-1.53.3-.29.11-.52.67-.81.72-.1.02-1.83-.54-1.9-.62-.19-.2.25-.93-.55-1.44-.14-.09-2.92-.52-3.38-.59-.95-.13-1.07.82-1.76-.68-.47.47-3.06,1.12-3.15,1.26-.24.38.29,1.46-.54,1.75-1.61.55-4.05-1.85-4.37-1.48-.08.41.1,2.03,0,2.13-.09.09-2.24.06-2.61.02-.25-.03-2.66-1.25-2.86-1.4-.44-.33-.45-.99-.79-1.34-.07-.07-.26-.2-.54-.39-5.81-3.84-12.89-5.26-19.75-4.03l-7.38-1.11c-1.68,1.62-3.97,2.64-6.3,2.64-.46,0-.92,0-1.38,0-2.6,3.13-6.44,7.22-5.91,7.76,1.06-.06,1.84-.98,2.74-1.37,2.75-1.19,4.69-.55,7.46-.77,1.11-.09,2.2-.55,3.35-.62,4.08-.22,7.69.6,11.65-.85,1.21-.44,2.33-1.32,3.42-1.76.44-.18.89-.19.63.33-.39.78-4.69,2.85-5.72,3.11-3.39.85-5.88.02-9.06.07-1.43.02-2.83.55-4.24.64-2.72.18-4.4-.53-7.17.45-.88.31-5.14,2.37-5.64,2.89-.87.9-1.12,2.63-1.73,3.76-1.54,2.84-4.19,5.91-5.49,8.52-.14.28-.34.43-.24.82,3.12-.27,5.96.37,8.83,1.53l3.66-8.53c-.19,3.23-1.79,6.12-2.73,9.12l4.07,1.81c1.98-1.25,2.65-3.83,3.99-5.47.55-.68,1.91-1.49,2.46-2.42.38-.12.61.07.45.45-.13.3-1.99,1.79-2.56,2.62-1.01,1.46-1.61,3.31-2.92,4.7-.75.8-1.23-.04-.46,1.36-.83-.08-1.28-1.04-1.61-1.2-.36-.17-3.62-1.24-3.82-1.19-.58.15-2.8,3.63-3.56,4.23,2.78.46,4.79-1.61,7.31-1.82-1.98,2.39-5.77,2.28-8.44,3.29-2.51.95-5.48,2.63-8.13,3.76-.38.16-3.03,2.05-2.32.43.47-1.06,8.99-4.12,10.72-5.64.61-.53,3.67-4.74,3.28-5.18-1.7-.43-7.8-2.13-9.01-1.24-.22.16-2.57,4.06-2.93,4.69-2.6,4.56-3.97,8.83-5.98,13.52-.33.78-.88,2.27-1.73,2.54,1.75-7.63,4.58-14.22,8.74-20.82,2.79-4.42,6.8-10.76,9.87-14.81,1.34-1.77,4.79-5.59,7.3-8.7-1.14,0-2.28.03-3.41.08-1.35,1.46-2.86,2.83-3.27,3.15-1.33,1.04-.34,2-.63,2.41-.39.55-2.17-.1-2.76,1.22-.47,1.05.38,1.97.17,2.83-.08.33-.8.31-.91.7-.14.52.66,1.49-.17,2.26-1.09,1.01-2.86-1.1-3.82-.48-.34.22-.4.9-.65,1.21-.3.35-.82.5-.97.86-.28.67-.14,2.66-.56,2.93-.25.16-1.81.46-2.27.02-.15.27-.3.54-.47.81-.48.76-1,1.47-1.55,2.14-1.47,9.25-3.49,18.52-6.24,27.49-1.47,4.8-3.89,10-5.07,14.74-1.13,4.58-.93,9.59-1.73,14.27l-2.74-1.22c.6,3.04,2,6,2.66,9.07.93,4.33-.3,4.13-1.06,7.61-1.1,5.01.09,9.31-.06,14.26-.12,3.81-1.04,7.8-1.25,11.55-.26,4.82.72,9.36.94,14.02.4,8.38-1.13,17.65-.31,25.91.22,2.25,1.63,4.14,1.84,6.39.77,8.38-1.83,17.32,1.45,25.67.82,2.1,2.23,4.09,4.02,5.43l-2.57.11c-.65-1.26-1.85-.62-2.46-2.09-.6-.26-.39.61-.61.62-.59.02-.72-.78-1.37-.62-.43.46,1.41,2.92.76,3.65-.55-.07-1.54-4.15-2.29-3.35-.14.15,1.19,2.82,1.36,3.36.43,1.29.35,3.47,1.69,4.1,3.01,1.43-.54-3.58-.31-3.8l2.43,1.07-1.52-2.29c1.1.19,2.37.86,3.5.85.73,0,1.57-.47,2.2-.47.33,0,1.19.91,1.3.08.07-.49-.87-1.07-1.17-1.56-.92-1.5-1.11-1.45-1.99-2.58-2.45-3.11-1.7-3.78-2.41-7.34-.45-2.26-1.27-4.81-1.45-7.09-.16-2.04-.12-6.23.3-8.19.07-.33.82-.44,1.1-.48,2.84-.35,6.45-.11,9.42-.34,4.58-.36,9.52-1.42,14.03-1.23,10.33.43,21.09,1.55,31.33,3.1,1.6.24,3.17.72,4.77.87l-.15-1.53c1.18-.18,2.71,1.45,3.34,1.53.93.13.06-.96.76-.92.03.26-.09.66.05.85.5.67,11.66,1.04,13.47,1.31,2.83.42,5.66,1.64,8.4,2.26,3.59.82,7.24,1.39,10.82,2.28.97-3.51,1.39-.23,1.71-.01.14.09.67-.28,1-.22.36.06,2.05,1.05,2.94,1.29,2.94.81,6.46,1.09,9.52,1.75.4.09,1.62.67,1.75.53.1-.1-.18-1.46.61-1.53l.31,2.44,1.21-2.43c.14,2.17,1.16,1.59,2.53,2.2.9.4,1.78.97,2.65,1.31.46.18,1.34.05,1.49.18.15.12.56,2.6.65,2.71.81.88.57-1.7.61-1.99.2-1.55.9.55,1.08.75.35.37,2.26,1.6,2.29,1.75.13.66-.61,1.98-.32,2.84,1.63-.13,1.19-1.96,1.22-3.04.73.21.57,1.55.61,2.13l.91-.91.31,1.83.91-.16c-.31.71-2.89,2.91-.6,2.44l-.92,2.59,1.83-1.52c.39,1.25-.8,2.23-.91,3.23-.08.68.27,1.26.22,1.76-.05.45-.54.9-.55,1.58,0,.57.66.42.66.6,0,.41-.64,1.45-.96,1.79-1.42,1.54-5.53,4.18-7.43,5.67-1,.78-2.2,2.2-3.23,2.87-1.42.92-3.49,1.22-4.56,2.45-.28.32-.27.98-.61,1.22-.33.24-1,.16-1.43.4-3.07,1.65-5.93,3.74-8.84,5.48-.93.56-4.83,2.87-4.97,3.57-.07.36.08,1.3,0,1.37-.09.08-.95-.1-1.32,0-.12.03-1.13.37-1.63.52-.62.19-6.3,3.64-6.51,3.96-.21.32-.65,1.55.16,1.3,2.29-1.32,4.55-3.2,6.89-4.38.4-.2,1.32-.67,1.68-.7.88-.08,7.1,1.63,7.43,2.26.89,1.71.5,5.16.61,7.09h2.74c2.14-1.36,4.33-2.64,6.38-4.14,2.89-2.11,5.66-4.78,8.44-7.09,2.37-1.98,4.07-2.45,5.68-5.14.21-.34,5.04-4.24,6.01-5.26,4.14-4.37,6.5-8.66,7.29-14.8.28-2.19-.78-4.12-.62-5.77.06-.6,1.51-.91.95-2.28-.4-.15-1.34.43-1.51.3-.11-.09-.85-1.91-1.29-2.53-2.92-4.12-9.67-8.85-14.5-10.18-1.48-.41-1.05-.41-1.97-.79-13.49-5.57-27.54-5.45-41.79-7.26-10.79-1.37-21.49-3.57-32.34-4.53-13.13-1.16-26.46-.1-39.61.6-3.18.17-6.41.11-9.6.31.48-2.13-.72-3.53-1.2-5.35-.18-.68-.63-2.78-.63-3.33v-8.07c2.38-.17,5.55.63,7.72-.66,1.2-.72-.24-2.22.24-2.96.2-.31,6.3-1.63,7.21-1.78,3.3-.51,5.86.66,9,.5,1.57-.08,3.79-.83,5.51-.86l.18-2.17c2.25.17,4.67-.53,6.87-.62,2.77-.12,6,.71,8.5.63,1.54-.05,2.37-.19,1.99-1.84,4.48.24,8.86-.67,13.26-1.22.25-.03,1.1-.11.6.3-3.28.83-7.94,1.66-7.16,6.09h-2.13s1.82.61,1.82.61c-1.05.04-2.11-.07-3.16.04-.32.03-1.43.12-1.41.57h4.27c.04.72.1.54-.45.61-.96.13-2.09-.04-3.05-.13l-2.89.44h5.79v.3h-5.03l-1.67.91c1.09-.01,2.08-.46,3.2-.31.56.07.5-.1.45.61h-5.48c.73,1.26,2.58.21,3.66.76l-3.66,1.06c2.37.08,4.44.11,6.7-.6l-.61.6.91.3-1.83.3h3.35c.24,1.15-1.47.39-2.25.66-.41.14-.39.79-.71.88-.6.16-1.92-.04-2.69,0-.37.01-1.13-.23-1.06.3h8.84v.3c-.38-.12-.88.31-1.07.31h-6.86v.3h8.99c.05,0,.48.41.46.61-1.94-.21-3.39-.35-5.33.01-.5.09-.52-.2-.46.6h6.7l-2.9.61h-2.59c-.49.38,0,.56.45.61,1.18.15,2.6-.11,3.81,0l-.61.6h3.96s-2.74.91-2.74.91l9.75-.6c.06.76.07.52-.46.6-2.21.33-4.5.31-6.71.61-.46.06-.94.04-1.06.61.84.14,2.09-.19,2.83,0,.35.09.24.88.97.94,1.7.14,5.43-.98,7.36-1.2.65-.07,1.3-.05,1.94-.04.52.39-.04.55-.45.61-1.18.15-2.48.14-3.66.31-.53.08-.51-.16-.46.6l7.01-.6-3.56.87-.7.65,7.92-.3-5.33.91-1.07.6c1.68.02,3.36-.01,5.04-.01,2.76,0,3.99-.2,6.73-.55,1.44-.19,2.92-.38,4.37-.34l-7,1.22c0,.53,1.33.33,1.69.32,1.17-.06,2.3-.46,3.49-.32l-4.57,1.82c4.06-.03,7.79-2.22,11.88-1.82l-4.51,1.12-.97.55c1.21.03,1.42,1.14,2.74.76l-.92.3c.36,1.95,1.9-.63,2.35-.84.38-.18,4.24-1.29,4.51-1.29h5.64l-6.34,1.75-.67.69c3.42.1,6.87-1.75,10.21-2.13.31-.04,1.43-.23,1.37.3-1.42.32-2.86.67-4.26,1.07-.48.14-1.66.3-1.83.76,3.04-.01,6.03-1.46,9.03-1.79.33-.04,1.1-.27,1.03.27-3.13,1.25-6.72,1.34-9.9,2.14-.42.11-.95,0-1.07.61,4.14-.29,8.08-1.24,12.03-2.44.6.49.17.48-.27.64-1.68.62-3.89.9-5.67,1.19-.18.84.41.68,1.04.58,2.68-.4,5.62-1.93,8.41-2.11-.1.56-.63.51-1.03.65-1.36.46-2.94.67-4.35,1.15-.47.16-.87-.27-.71.64l8.83-1.52-4.26,1.22c-.24.92.73.65,1.34.57,1.91-.25,4.47-1.75,6.1-1.78.24,0,1.16.16,1.09.59-2.25.61-5.25.87-7.01,2.44l8.99-2.13-2.59,1.07-.92.76c2.35-.08,4.6-1.16,6.89-1.49.32-.05,1.39-.28,1.34.27-1.53.15-3.02.7-4.46,1.19-.47.16-.87-.27-.71.64l8.83-2.13c0,.46-.92.57-1.29.69-1.47.47-3.02.71-4.5,1.14-.08.48.43.31.77.31,2.72-.01,5.5-2.24,8.37-1.84l-6.4,1.83c-.1,1.45,2.52-.38,3.35,0,.19.37-1.31.37-.61.91.86.67,9.51-2.35,11.42-2.45.67-.03.82.08.08.39-1.66.69-3.78.64-5.1,1.75,3.14.11,5.88-1.88,8.98-2.14.24-.02,1.11-.09.61.31-.71.43-4.84,1.04-5.02,1.22-.91.88,1.38.31,1.63.32,1.53.06,8.17-.91,9.34-1.54.08-.04-.82-.97,1.07-.94.53,0,1.2,0,1.37.63-1.5.08-3.2.75-4.57,1.39-.21.1-1.17.28-.6.75.32.26,2.97-1.09,3.65-.91l-1.52,1.21,3.35-.6-1.22.91c3.32.23,6.32-1.59,9.59-1.83.15.7-1.24.77-1.67.92-.12.79.13.63.76.6,2.51-.11,6.54-2.21,9.48-2.72.3-.05,1.12-.24,1.04.28l-4.26,1.23c-.06.54,1.03.32,1.36.3,4.68-.42,10.84-1.81,15.51-2.77,9.96-2.06,10.24-3.62,17.89-9.23,6.43-4.72,12.91-9.36,19.25-14.18.8-.97.45-2.8.52-3.98,1.23-.17,3.18-.09,4.29-.44.45-.14,2.63-1.66,2.11-2.3ZM280.65,165.9c-.24-1.17,1.77-.41,2.43-.61.24,1.17-1.77.41-2.43.61ZM219.71,166.21c.94.13,2.52-.46,3.05.6-.64.04-1.26.01-1.9-.08-.31-.05-1.21-.08-1.15-.52ZM224.28,164.68l-1.67.3-3.2-.6c1.79-.25,3.13-.19,4.87.31ZM300.92,166.14c1.06-.02,2.33-.48,3.5-.24,1.1.89-3.25,1.04-3.76.91-.25-.06-.17-.63-.36-.62-.5.02-1.82,1.14-2.89.62.15-1.71,2.53-.65,3.5-.67ZM306.25,168.33c-.62-.74,3.82-.67,4.27-.6-.32.95-1.52.4-2.16.75-.28.15.02.66-.03.72-.51.58-3.06.29-3.9.35.42-.93,1.57-.95,2.44-.91l-.61-.3ZM312.34,169.86c-.15-1.16,1.75-.87,2.44-.91-.39.82-1.65.9-2.44.91ZM315.69,170.62c-.04.47-2.44,1.35-3.04,1.06-.78-.66,3.14-2.2,3.04-1.06ZM312.34,170.16c-.1,1.35-2.13,1.28-3.05,1.21.68-1.05,1.86-1.38,3.05-1.21ZM303.2,175.34c-.17-.77.2-.53.57-.79.57-.4,2.66-1.65,3.08-.58-.28.33-.73.2-.91.76,1.24-.36,2.36-.98,3.65-.91l-1.75,1.45-1.73.08c-.29.04-.23-.45-.18-.61-.89.26-1.78.65-2.74.61ZM289.79,178.09c-1.22.13-2.4.49-3.65.3-.16-1.52,3.14-1.36,3.62-.87.14.14-.01.45.03.57.97-.11,1.97-.52,3.05-.3.17,1.33-2.56,1.26-3.03.89-.11-.09.03-.45-.02-.59ZM283.39,178.39c-.65,1.21-2.21.89-3.35.91.89-1.43,1.94-1.05,3.35-.91ZM278.83,175.65c.12-1.66,2.61-.46,3.66-.61-.03,1.57-2.64.24-3.66.61ZM282.48,177.18c.4-.5,2.99-.8,3.35.3-.48.65-4.27.87-3.35-.3ZM285.76,175.41c.34-.03,2.12.17,2.21.24.65.54-1.15.88-1.42.89-1.68.06-2.4-.98-.79-1.14ZM292.16,177.15c-.25-.08-.24-.58-.41-.58-.18,0-4.31.88-3.17-.3.9-.93,2.86.15,3.57.24.92.12,2.28-.66,3.43.06-.84,1.1-2.29.94-3.42.58ZM283.39,172.6c1.05-1.63,2.9-1.19,4.57-1.21-.03.3.04.62,0,.91.74-.2,1.43-.91,2.44-.61-.23.59-2.37,1.85-2.74,1.52-.12-.37.28-.71.3-.91-1.78.49-2.67.61-4.57.3ZM280.04,172.29c-.28-.56,1.61-1.42,1.72-1.44.49-.08,1.32.39,1.94.22-.19,1.54-2.52,1.22-3.66,1.22ZM293.75,171.99c.18.78-.21.53-.57.79-1.08.77-2.53,1.24-3.69.28,1.39-.95,2.54-1.29,4.26-1.06ZM309.6,170.17l-1.99,1.2h-1.36c.01-.18-.03-.41,0-.6-.77.12-3.88.59-4.27.3-.05-.04.02-.47,0-.61-1.12.19-2.2.43-3.35.3.15-.99,3.07-1.12,3.35-.91.05.04-.02.47,0,.61,1.61-.28,2.63-1.01,4.57-.3.12.08-.28.44-.3.61,1.21-.18,2.09-.84,3.35-.61ZM306.55,171.69c-.08,1.33-1.77,1.27-2.74,1.21.58-.92,1.68-1.38,2.74-1.21ZM294.37,170.77c.14-1.63,2.78-.67,3.96-.91-.26.94-3.71,1.12-3.96.91ZM299.54,171.39c-.76,1.4-2.13.68-3.35.6.63-.98,2.37-.5,3.35-.6ZM295.89,171.08c-.6,1.11-2.33.44-3.35.6-.49-.38,0-.55.45-.61.9-.12,1.97.08,2.9,0ZM294.89,172.67c.72-.19,1.48-.04,2.21-.07.18.78-.21.53-.57.79-1.32.93-1.83.81-3.38.43.18-.33,1.49-1.08,1.75-1.14ZM297.38,173.64c1.3-.92,2.16-.95,3.69-.43-1.06,1.34-2.7,1.31-4.26,1.21-.18-.78.21-.53.57-.79ZM299.85,172.6c.34-1.81,2.65-1.15,3.96-.91-.79,1.37-2.65.82-3.96.91ZM301.07,169.25c.41-.86,1.96-.56,2.74-.6-.45,1.01-1.88.51-2.74.6ZM302.21,167.8c-1.06.45-2.45.14-3.58.22.79-1.37,2.65-.82,3.96-.91.08.61.06.5-.38.69ZM300.15,168.64c-.67,1.14-2.55.42-3.66.6.86-1.27,2.46-.85,3.66-.6ZM295.28,168.03c.58-1.13,2-.92,3.05-.91-.58,1.13-2,.92-3.05.91ZM295.89,168.34c.15,1.16-1.75.87-2.43.91-.15-1.16,1.75-.87,2.43-.91ZM290.71,167.72c-.05-.45.8-.55,1.09-.58,1.05-.11,2.12.01,3.17-.02-.83,1.2-2.99.38-4.26.6ZM293.14,168.34c.23.77-.66.75-1.14.82-1.04.15-2.07.09-3.12.09-.08-.61-.06-.5.38-.69,1.13-.48,2.67-.12,3.89-.22ZM294.36,174.43c.15.71-.08.49-.39.68-.99.63-2.13.59-3.26.53.24-1.67,2.47-1.15,3.65-1.22ZM294.37,175.95c-1.02-.82,3.06-1.14,3.35-.91-.65,1.22-2.21.89-3.35.91ZM298.32,176.56c.25.6-.82,1.06-1.14,1.13-3.18.73-.89-1.84,1.14-1.13ZM298.33,176.26c-.19-1.07,1.5-.88,2.13-.91.19,1.07-1.5.88-2.13.91ZM301.37,176.87c-.58.92-1.68,1.38-2.74,1.21-.01-1.14,2.02-1.25,2.74-1.21ZM300.16,175.04c-.17-.82.22-.52.6-.75,1.11-.67,2.03-.93,3.36-.76l-2.04,1.46-1.92.06ZM308.36,173.04c-.52.18-.96.24-1.5.17.1-1.35,2.13-1.28,3.04-1.21-.12.31-1.31.97-1.54,1.05ZM302.9,167.88c.78-.58,1.83-.47,2.74-.45-.46.82-2.1,1.3-2.74.45ZM296.08,164.72c.75-.08,1.5-.04,2.25-.04.49.38,0,.55-.45.61-.99.13-2.18-.09-3.2,0-.03-.45,1.09-.54,1.41-.57ZM296.8,165.9c-.75,1.18-2.77.4-3.96.6.75-1.18,2.77-.4,3.96-.6ZM293.45,164.68c.22,1.2-2.05.38-2.74.6.45-1.01,1.88-.51,2.74-.6ZM284.31,165.9l1.49-1.4,4.29.18c-.62,1.22-2.14.33-3.13.38-1.12.05-1.27,1.29-2.66.84ZM287.05,167.72c1.54-1.21,2.67-2.85,4.87-1.82-1.54,1.45-2.61,2.2-4.87,1.82ZM279.88,168.94c.27-.03.22.46.16.61.74-.38,1.92-.31,2.74-.3.02.2-.01.41,0,.61.7-.13,3.26-.6,3.66-.3.04.03,0,.48,0,.61,1.73-.4,2.62-.91,4.57-.3l-2.27,1.23c-.44-.09-2.17.1-2.3-.01-.05-.04.02-.68,0-.91-.78.18-3.14,1.06-3.66.61-.05-.04.01-.68,0-.91-.9.16-1.9.95-3.05.61.02-.2-.04-.45,0-.61-.56.28-1.5.31-2.13.3.47-.94,1.19-1.38,2.27-1.22ZM275.47,171.68c-.02-.2.02-.41,0-.61-1.17.25-2.2.26-3.35-.15.3-.64,3.21-.56,3.35-.46.05.03-.02.47,0,.61.74-.16,1.26-.81,2.13-.61.31.84-1.97,1.34-2.13,1.22ZM277.61,171.99c.08-1.33,1.77-1.27,2.74-1.21-.52,1.06-1.65,1.33-2.74,1.21ZM277.3,174.12c-.13-1.52,3.64-2.02,3.65-1.06,0,.08-.53.48-.6.76.87-.19,1.89-.78,2.32-.83.69-.07,1.84.47,2.69.21.28-.03.22.44.17.61.31-.08,1.37-.44,1.52-.3.19.17-.28.76-.3.91,1.37-.36,2.4-.9,3.96-.61-.4,1.92-2.48,1.59-3.96,1.21,0-.19-.03-.41,0-.6-.6.16-1.19.36-1.83.3-.12-.09.53-.65.61-.91-.94.25-1.87.92-2.58.92-.77,0-1.71-.53-2.6-.32.02-.2-.04-.44,0-.61-1.04.23-1.95.44-3.05.3ZM280.65,176.26c.49.43-1.05,1.17-1.36,1.18-.77.05-2.03-.63-2.91-.58.26-1.23,3.93-.9,4.27-.6ZM278.52,177.78c-1.05,2.01-2.87.58-4.57.6.91-1.63,3.06-.78,4.57-.6ZM245.15,177.17c.97-.13,1.97.03,2.9.31-.17.96-3.15.49-3.35.3-.46-.43.04-.55.45-.61ZM237.99,176.26c.22,1.2-2.05.38-2.74.6.45-1.01,1.88-.51,2.74-.6ZM220.01,174.13c-.05.6-.59-.04-.61.91,1.28-.17,1.41-.98,3.12-.28,1.07.44.48.18,1.56.38,1.39.27,2.71.88,4.16.81v.91c-1.78.07-3.55-.32-5.31-.64-.42-.07-.71-.43-1-.48-.65-.11-2.56.65-2.54-.71-4.37.59-2.93-2.16.61-.91ZM213.92,172.3c-.02.2.04.44,0,.61.85-.09,2.85-.22,3.35.61-1.61.69-2.47,1.13-4.26.61-.24-.9.74-.52.92-1.22-.75.08-3.93,1.4-3.35,0-.76.15-2.42.5-2.13-.61-1.41.23-1.97.4-3.35-.31-.08-.3.38-.48.61-.61-.95.16-2.08.22-3.05.3-.4-.29,2.13-1.17,2.59-1.22.53-.06,1.38-.17,1.06.62,1.29-.33,2.11-.06,3.35.31-.03.63-1,.07-1.22.91,1.23-.2,3.02-1.24,3.66,0,.59-.07,1.23.04,1.83,0ZM210.88,174.58c.26-.58,2.61-.27,2.74-.15.95.81-2.45,1.1-2.74.15ZM202.49,173.2c-1.53-.37.66-.95,1.49-.9.51.03,1.52.32,1.71.9-1.06.43-2.12.26-3.2,0ZM203.25,173.82l-2.59.3-.45-.61,3.04.31ZM206.3,174.73c-.56.2-2.52.59-2.44-.6l2.44.6ZM205.7,173.52c.8-.21,1.98-.76,2.43.3-.65.21-2.03.49-2.43-.3ZM193.2,169.55c-.07-.44.54-.43.85-.51,2.5-.7,5.1-1.3,7.68-1.61-.08.48-.58.57-.97.7-2.4.76-5.03,1.26-7.56,1.43ZM193.81,171.69c.25,1.13-1.49.44-2.13.6l2.13-.6ZM204.47,168.34c-.03.43-1.18.71-1.51.77-.62.12-1.21.2-1.84.14.02-1.41,2.5-.78,3.35-.91ZM205.61,168.71c.74-.12,1.47-.09,2.21-.07-1.01,1.16-2.58,1.37-3.96.91.09-.46,1.38-.78,1.75-.84ZM204.78,168.03c.64-1.48,1.83-.63,3.05-.6l-3.05.6ZM215.44,170.77c-1.28.21-2.28.88-3.65.61l2.31-1.21,1.34.61ZM213.01,170.16c-1.32.6-2.5.74-3.96.61-.06-.35.09-.65.3-.91-.78.19-1.63.31-2.44.3.51-1,2.17-1.25,3.05-.61l3.04.61ZM208.29,164.99c.95-.09,1.94.05,2.89,0l-1.22.3.31.6-3.96-.31c.15-.46,1.56-.56,1.98-.6ZM185.89,168.64l-3.04.91c.55-.76,2.17-.82,3.04-.91ZM182.54,169.56c.21.11-.18.52-.61.3-.21-.11.18-.52.61-.3ZM180.41,170.47c1.74-.39,2.93.59,4.57.61l-2.88.9c-.52.12-2.11-1.14-1.69-1.51ZM186.05,172.6c-.81.07-2,.2-2.59-.46.82-.25,3.33-1.07,3.96-.45.64.63-1.18.9-1.37.91ZM185.89,169.4l2.74-.76c.21.93-2.34,1.47-2.74.76ZM186.5,168.33c.24-.47,1.61-.68,2.12-.77.51-.09,1.01-.2,1.54-.13.07.44-.54.42-.85.51-.87.25-1.89.41-2.8.4ZM194.26,167.11c.24.02.35.44-.04.61-.48.21-1.65.2-2.24.31-.01.58,1.29.3,1.6.23,1.84-.4,4.22-1.6,6.12-2.11,1.63-.44,3.37-.88,5.07-.87l-.91.6,3.04.15c-.45.82-2.16.25-2.41.5-.19.19.47.98-1.17,1.1-.82.06-1.9-.53-1.29-1.14.05-.05,2.45-.21,1.07-.62l-4.41.92.61.6c-2.26-.25-4.23.93-6.33,1.46l-3.41-.4c1.4-.02,3.43-1.46,4.72-1.37ZM190.15,169.86h2.74c-.15.67-2.53,1.13-2.74.91-.06-.06.04-.66,0-.91ZM196.55,174.58c-.55.73-2.06.3-2.89.15-.46-.09-.59.15-.46-.6-.75-.05-2.28.14-2.74-.61l3.96-.31c.25,1.2-1.08.14-1.22.91.88.06,1.43.08,2.32.05.45-.01,1.16-.39,1.03.4ZM193.81,171.38c.03-.43,1.19-.71,1.51-.77.69-.13,1.19-.09,1.84-.14.05-.13-.1-.45.03-.57.12-.11,2.77-.66,3.17-.66,1.42.01-.34.88-.45,1.23,1.46-.15,2.48-.84,3.96-.61.15.79-.15.54-.61.75-1.04.48-2.03.55-3.17.47-.29.04-.23-.45-.18-.61-.87.09-1.85-.06-2.74,0-.14.42.27.53-.59.77-.91.25-1.84.13-2.76.14ZM199.9,171.39c-.7.94-2.04,1.06-3.04.6.66-.9,2.09-.87,3.04-.6ZM198.33,174.94c-.4-.08-1.47-.03-1.47-.5,1.21-.28,4.17-.7,4.57.91-1.04,0-2.08-.21-3.1-.4ZM208.9,176.81c-.89-.02-3.22-.43-4.24-.6-.77-.13-3.09-.15-2.93-1.18l8.22,1.22c.07.44-.79.56-1.06.55ZM208.44,175.64c.61-1.11,2.11-.25,3.05-.3.14,1.34-2.33.27-3.05.3ZM211.49,176.87c0-1.4,1.79-.82,2.74-.92l-.61-.6c.57-.39,3.04-.31,3.35,0,.44.44-.12.53-.39.68-.28.15-2.15,1.06-2.27,1.09-.66.14-1.97-.53-2.82-.25ZM249.67,179.93c-1.82.44-3.38-.57-4.83-.64-1.27-.06-2.82.49-4.25-.29l.45.61c-2.58.17-5.28-.66-7.77-.91-5.37-.52-11.43-.33-16.66-1.31-.34-.06-1.21-.06-1.15-.51,1.08-.24,2.03-1,3.2-.94.71.04,1.12.49,1.6.56,4.09.63,9.13,1.58,13.19,1.59-.03-.19.01-.41,0-.61-1.74.15-2.66.1-4.42-.31-1.28-.3.06-.93.88-.89,1.07.05,2.31.88,3.54.59.02.2-.02.41,0,.61.57-.05,1.09-.32,1.98-.31.4,0,1.29-.22,1.07.46-.18.56-2.49.46-3.05.46.01.1-.04.28,0,.3.48.22,3.21.21,3.96.31l-.91-.6c2.34-.53,3.47-2.26,6.09-1.22l-.6.75c.22.42,1.28.61,1.75.69,1.82.28,4.67.39,6.47.39.09-.2-.03-.58.29-.77,1.39-.85,2.06.77-.29.77-.14.32-.12,1.14-.51,1.23ZM250.7,180.15l-.52-.54c1.16-.33,2.03-1.44,3.35-1.22l-.16.6c.94-.94,4.47.45,5.04,0,.08-.07-.31-.72,0-1.22-1.53.81-2.54.55-4.11,0-.34-.12-.74.06-.46-.61-2.68,1.04-2.23-.66-.16-.93.5-.06,1.06-.03.77.62,1.95-.67,1.44.3,1.7.31.49.03,1.64-.61,2.39-.32.29-.04.23.44.18.61,1.54-.76,3.75.35,5.49,0l-.16.91c.49-.45,1.19-.68,1.84-.64.57.04.4.61.63.63.58.06,1.81-.26,2.56.01-.81,1.31-3.3.98-4.71.9-.56-.03-2.02-.21-2.73-.29-.75-.08-1.56-1.2-2.01,0l10.97,1.83c-6.66.1-13.26-.25-19.89-.67ZM270.9,178.08c.66-1.25,1.79-.92,3.04-.91.06,1.32-2.24.82-3.04.91ZM283.85,180.81c-1.01.04-1.99.51-3.03.33-.27.03-.2-.43-.17-.61-1.66.39-2.68.91-4.74.64-.1-.01-.98-.33-1.66-.47-1.01-.2-2.03-.43-3.04-.63,1.18-1.28,3.41-1.2,4.96-.75.26.07.21.6.39.61.4.02,1.09-.5,1.65-.31l-.16.6c.84-.54,1.95-.24,2.9-.3.12.07-.27.44-.3.61,2.09-.49,4.01-.18,6.09.15-.72.79-1.84.09-2.9.13ZM287.05,180.22s.03-.43,0-.61c-.7.12-1.16.33-1.96.31-.33,0-1.89-.19-1.99-.62,1.14-.5,3.73-1.31,3.96.3.79-.13,2.82-1.01,3.35-.3.93,1.25-3.03,1.14-3.35.91ZM296.58,180.45c-1.79.27-4.28-.19-6.17.07.17-.32,1.54-1.11,1.75-1.16.45-.11,1.71.14,2.12.36.15.08.07.48.09.5.15.1.54-.55,1.04-.58.52-.03,1.34.47,2,.28.08.4-.57.49-.83.53ZM301.59,179.82c-.27.01-2.55-.14-2.66-.21-.05-.03.02-.47,0-.61-1.39.26-2.14,1.31-2.74-.3-1.06.2-1.58.99-3.05.3.15-.93,2.74-1.14,3.05-.91.07.05-.06.45,0,.61.9-.17,1.81-.38,2.74-.3.03.2-.03.41,0,.61,1.62-.3,2.62-.06,4.11-.31.71.55-.92,1.11-1.46,1.13ZM308.4,176.41c-.88.47-3.53,2.09-4.16,2.25-.55.15-.59-.37-.42-.58.03-.03.38.1.6-.21.08-.11-.05-.35,0-.4-1.05.3-1.88.83-3.05.61.41-.88,1.58-.93,2.33-1.33.75-.4.78-1.13,2.39-1.12,1.82.01-1.04,1.17-1.18,1.28-.29.22-.33.39-.49.56.92-.27,4.38-1.98,4.57-1.83.55.46-.4.66-.59.76ZM311.43,174.58c-.64.38-1.36.8-2.14.76l1.46-1.12,1.28-.4c.17.82-.22.52-.6.75ZM315.41,172.76c-.87.43-1.82.55-2.76.75.01-.2-.04-.43,0-.61-4.52,1.07-2.87-1.16.3-.91.11.37-.26.69-.3.91,1.13-.27,2.11-1.04,3.35-.91.15.76-.14.54-.59.77ZM315.39,169.86c.48-1.18,1.68-.93,2.74-.91-.5,1.03-1.79.95-2.74.91ZM328.79,165.9c.17.81-.21.52-.6.76-1.56.92-3.69,1.96-5.49,1.98,1.53-1.41,3.93-3.1,6.09-2.74ZM322.09,166.51c-.42.92-1.57.96-2.44.91,0-1.33,1.58-.86,2.44-.91ZM319.35,166.2c.06.06-.03.67,0,.91h-3.04c.11-.95,2.85-1.12,3.05-.91ZM316,166.21c-.5.91-1.83,1.01-2.74.91.5-.79,1.89-.98,2.74-.91ZM315.08,164.68c.17,1.27-2.37.43-3.04.3l3.04-.3ZM313.25,165.59c1.06.81-2.85.64-3.04.61-1.06-.81,2.85-.64,3.04-.61ZM312.34,166.51c.49.38,0,.55-.45.61-1.09.14-2.39-.1-3.51,0,.75-1.18,2.77-.39,3.96-.6ZM309.29,165.29c.79.82-1.88.62-2.13.6-.26-1.19,1.76-.98,2.13-.6ZM306.55,164.99l-.3,1.21h1.52c.41,1.1-2.62,1.02-2.74.91l.91-1.52h-3.05c-.49-.38,0-.56.45-.61.99-.13,2.18.09,3.2,0ZM289.79,160.41v-2.44l10.97.3v2.44s-10.97-.3-10.97-.3ZM301.68,157.67l-2.6.02-5.93-.62c2.42.24,5.43-.33,7.77,0,.13.02.87.3.76.61ZM301.98,160.72c-.03-.19-.2-4.1.61-3.04.03.19.2,4.1-.61,3.04ZM302.9,160.72c.09-1.02-.13-2.21,0-3.21.05-.42.23-.96.61-.45l.3,3.66h-.91ZM263.59,91.85c-.43.02-.79.11-1.07-.3-1.14-1.69,2.12-1.86,1.07.3ZM259.02,93.38c.86,0,3.7-.26,3.92.8.02.11-.23.99-.27,1.02-.15.11-3.53-.77-3.65-.91-.07-.08.04-.66,0-.91ZM258.41,92.77c.13.12-.55,3.03-1.67,2.74-1.21-.32,1-3.36,1.67-2.74ZM255.97,90.03c.34.38-.95,2.29-1.52,2.44-.58-.76,1.04-2.97,1.52-2.44ZM248.05,59.56c.17.81-.2.52-.6.76-1,.58-2.25,1.42-3.36,1.68-.65-.6,3.27-2.76,3.96-2.43ZM240.1,96.01c-.03-.32.61-.22.63-.2.08.09-.05.68,0,.92l1.52-.61c.11,1.04-1.07,3.37-2.05,3.61-.55.14-1.05-.26-1.42-.2-.44.08-.87,1.17-1.71.85l3.02-4.37ZM224.28,99.47c-.26-1.23,1.61-1.99,2.11-1.19.68,1.08-1.38,1.31-2.11,1.19ZM235.25,89.42l-1.22,1.82,1.52-.3-.14.62-4.73,3.04c-.28-.3,1.02-2.17,1.27-2.54.44-.65,2.36-3.34,3.3-2.64ZM234.03,88.19c-.07.09-1.98.75-2.13.61-.2-1.65,2.96-1.68,2.13-.61ZM232.2,90.03l-3.22,4.86-1.05.63,1.51-4.12c.29-.52,2.38-1.69,2.75-1.36ZM230.68,85.76c.24.24-.34.9-.6,1.07l-3.51,3.19c-.3-1.1,3.68-4.7,4.12-4.26ZM227.33,86.07l-1.06,1.52-1.68,1.52c-.29-.97,1.86-3.71,2.74-3.04ZM225.19,85.76c.18.19-.16,1.03-.41,1.26l-2.03,2.39c-.31-.73,1.88-4.26,2.44-3.65ZM245.24,245.82c-.15.48-3.56,3.64-3.89,3.26-.13-1.45.53-3.67-.28-4.98-.46-.74-5.68-1.93-3.68-.05.51.48,2.24.56,2.4.8.15.23.12,5.04-.02,5.53-.27.91-3,2.24-3.88,2.82-.87.58-1.41,1.85-2.76,1.66v-4.72c0-.2-.71-1.29-1.22-1.06.3,2.09-.09,6.27-1.21,8.08-.85,1.37-4.58,2.76-5.8,4.1-.27-1.8.36-4.59,0-6.25-.09-.43-1.65-1.84-2.02-1.91-.36-.07-.87.29-1.4.18-.52-.11-4.06-1-4.2-1.17-.62-.74,1.4-1.86,1.93-2.18,2.66-1.63,5.58-3.09,8.74-2.08-.25-.64-1.07-.6-1.67-.92-.1-.05-1.25-.67-.92-.91.44-.46,5.01-3.17,5.55-3.29,1.4-.31,2.9.53,4.35.24-.21-.54-2.96-1.36-2.43-2.12,4.11-2.16,7.05-3.26,11.58-1.22.46.63-2.58,2.39-2.44,3.35.21.21,1.71-.99,1.97-1.23.64-.57.91-1.5,1.68-1.51-.07,1.61.1,4.06-.37,5.57ZM246.22,244.21c-.19-.19.65-4.86.89-5.27.35-.59,2.74-1.91,3.07-2.95-1.75,0-2.9,2.55-4.45,2.74-1.97.24-4.49-1.32-6.52-1.22-.57-.48,3.18-3.21,3.82-3.33,1.41-.27,5.71.41,6.93,1.2.26.17.18.56.22.61.06.08.54-.28.63.44.47,3.65-1.07,6.68-4.59,7.79ZM259.02,222.57v5.33c0,.3-1.93,5.42-2.14,5.64-.43.43-.56-.02-.61-.45-.07-.57-.33-2.7-.3-3.04.06-.64,2.05-3.87,2.41-5.52.16-.73-.43-2.2.64-1.96ZM246.92,208c.96.15,7.37,4.78,8,5.72.66.97,1.31,1.94,1.96,2.91,1.66,2.47,1.5,4.67.83,7.53-.16.67-2.15,5.21-2.4,5.37-.62.39-4.55-.89-5.75-.25v.91c1.56.06,5.08-.37,5.65,1.51.26.86.26,3.14,0,3.99-.23.76-1.7,1.94-2.31,2.58-.29.31-.27,1.23-.91.6.02-.71,0-4.04-.34-4.38-.44-.43-6.23-1.21-7.27-1.26.16-2.08,3.75-2.71,4.5-3.43.14-.14,1.67-3.04,1.86-3.47,1.03-2.39,1.61-5.11,1.56-7.73-.1-.12-.84.35-.91.31-.14-.1-1.19-2.88-.92-3.35.91,0,1.97.13,2.74-.46-.7-1.4-2.84-.38-3.59-.83-.2-.12-1.4-2.58-2.19-2.83,0-.41,2.17-.42.91-1.23-.37-.24-1.06.22-1.64.15-1.4-.17-3.04-.9-3.85-2.12,1.14.34,3.17-.39,4.05-.25ZM244.7,206.73l-3.15,1.15c-.38-.21-3.52-1.43-2.94-2.06,2.23-.87,3.86.81,6.09.92ZM238.91,204.9c.04.44-1.13.55-1.41.57-1.72.12-3.51-.43-4.98-1.34,1.87-1.84,4.37.19,6.39.77ZM219.55,200.33c2.4.12,6.27.87,8.75,1.32,1.73.31,3.4.83,5.12,1.13l-2.86,1.21-7.49-1.52.3-1.21c-.97.08-1.55.89-2.59.93-1.25.05-2.86-.58-4.11-.78.8-1.01,1.65-1.13,2.88-1.07ZM175.42,194.81c8.47.95,16.82,2.32,25.24,3.41,4.01.52,7.31.57,11.29.9,1.6.13,3.38.8,5.03.91l-2.34,1.15c-14.79-2.36-29.74-4.19-44.7-5.76-.31-.03-1.43-.12-1.4-.57,2.34-1.45,4.36-.33,6.89-.04ZM131.95,193.93c5.22-.71,10.46-.48,15.71-.6.72-.02,1.39-.32,2.11-.33,6.29-.09,12.53.07,18.75.93-1.05,1.74-2.44.55-3.58.38-4.85-.76-8.95-.05-13.62-.06-3.97,0-7.92-.56-11.91-.33-1.1.06-7.19,1.2-7.45.93-.06-.06.04-.66,0-.91ZM130.29,193.91c.58.08.48.41.75.93-.39-.14-.9.31-1.07.31h-7.16v-.91c2.44.24,5.07-.65,7.48-.33ZM117.63,194.54c1.41.27,4.1-1.37,3.96.91-1.42-.44-4.23,1.18-3.96-.91ZM201.55,160.09c-2.42-.02-4.86.49-7.27.64-1.73.11-7.83-.14-9.01.74-.6.45-.19,2.15-.3,2.9h-1.53s0-3.96,0-3.96l20.11-1.22c.47,3.26-1.13,4.42-2.02.9ZM200.21,158.59c.07.53-.69.29-1.06.3-3.04.11-6.11.14-9.14.31-2.39.14-5.56,1.15-7.77.15,5.98.05,12.05-1.67,17.97-.76ZM188.63,123.99c.05-.42.17-.89.61-.45.17.17.99,3.77,1.37,4.57.43.92,1.4,1.61,1.61,2.66.1.49.34,3.46.29,3.86-.03.24-2.29,3.88-2.45,4.06-.89,1-2.32,1.41-2.82-.2-.69-2.21,1.39-4.63,1.66-6.9.29-2.36-.6-5.07-.28-7.6ZM190.76,121.11c.67,1.56,1.12,3.59,1.77,5.09.73,1.69,2.43,3.25,2.19,5.27-.87.16-.5-.21-.68-.67-1.32-3.24-3.51-5.02-3.86-8.96-.06-.64-.2-.84.58-.73ZM191.68,110c.85-.23,1.44-1.2,2.43-1.08.54.55-2.15,4.21-2.65,4.79-.13.15-.23.85-.7.39-.1-.11-.61-2.59-.62-2.91-.08-1.95.72-.97,1.54-1.19ZM195.4,118.3c-.23,1.59.49,4.29-.97,5.55.03-1.47-2.88-5.49-2.68-6.51.13-.69,2.04-1.58,2.57-2.13.2-.21,1.62-2.09,1.77-2.35.79-1.35.58-4.01,2.6-3.64-.37,3.2-2.83,5.85-3.29,9.08ZM198.52,90.01c.13-.4,2.24-3.13,2.6-2.72.11.13-.33,3.22-.44,3.37-.28.39-1.26.18-1.57.57-.19.23.58,3.11-.42,2.15-.4-.39-.37-2.73-.17-3.37ZM198.38,88.5l.31-3.35,1.52.31c.37.42-1.16,2.83-1.83,3.04ZM216.05,90.03c-.19,1.35.18,2.26-1.83,2.13-.17-.15,1.19-1.99,1.29-2.06.21-.15.46-.03.53-.07.09-.64-.03-1.29.91-1.22.21,1.2-.35.91-.91,1.22ZM214.53,95.2c.06-1.16,1.46-1.63,2.43-1.52.22.85-2.21,1.72-2.43,1.52ZM215.14,107.7c.71.78-4.14,4.41-4.41,5.49-.68,1.15-1.92-1.75-1.66-2.12.87-.3,1.84-.71,2.62-1.19.44-.27,3.29-2.36,3.45-2.18ZM213.77,89.42c-.27.3-1.95,2.16-2.29,1.82.25-.68,3.46-5.69,4.26-4.87.32.32-1.62,2.66-1.97,3.05ZM213.31,94.9c.3,2.01-2.6.73-2.13,2.44l2.74.31c.31.44-.74,1.27-1.22,1.22-.12.17,2.43,1.45.39,2.07-2.14.65-1.16-1.07-1.57-1.63-.68-.93-3.13-.89-3.05-1.77.15-1.64,3.47-2.57,4.84-2.63ZM210.24,83.14c-.04.25-2.36,3.55-2.77,4.25-.17.29-1.43,3.66-2.08,2.94-.5-.55,2.87-5.91,3.41-6.8.32-.52-.01-1.51,1-1.12.22.09.48.42.44.73ZM206.3,95.51c-.21.85-.42,2.15-1.52,1.83v-1.83s1.52,0,1.52,0ZM206,109.83c.15.71-.09.49-.39.68-.44.29-4.61,2.25-4.79,2.06-.13-.8,1.22-2.92,1.83-3.22.32-.16,2.42.96,3.34.48ZM198.38,127.04c-.29.3-.4.58-.91.46l.32-8.36,1.2-2.61c.21,1.06.18,2.36.45,3.36.21.8,1.68,3.84,1.64,4.06-.04.2-2.34,2.72-2.7,3.08ZM202.96,122.02c-1.33-2.93-2.86-5.66.19-8.18.69-.57,3.59-2.29,4.33-1.83.44.28,1.06,2.57.83,3.32-.42,1.32-4.08,4.53-4.66,6.3l-.69.39ZM212.88,123.87c-.56.69-1.74.92-2.46,1.5-1.98,1.59-2.48,3-5.64,3.05-.5-.55,3.72-7.57,4.57-8.38.52-.49,5.55-3.45,5.79-3.2.2.21-.97,2.15-1.13,2.67-.39,1.31-.34,3.39-1.13,4.36ZM215.51,123.15c-1.59,2.69-.6-2.35-.28-3.33.09-.29.58-1.97,1.13-1.45.82.76-.33,3.9-.85,4.78ZM214.53,102.52c.6-2.04,1.86-2.8,3.96-2.43,1.06,1.02-3.43,2.27-3.96,2.43ZM218.49,98.56c-.19-.18.64-2.44,1.52-2.13-.26.82-.27,2.49-1.52,2.13ZM221.84,96.43c.27.3-1.44,3.93-2.13,4.26-.57-.75,1.5-4.97,2.13-4.26ZM217.28,92.16l.14-1.23,2.6-1.51c.36.34-2.42,3.1-2.74,2.74ZM219.26,71.44c-.08.3-.68,1.77-.77,1.82.16-.11,1.79-1.08,1.52-.16-.46.25-3.07,2.57-3.35,2.29-.34-.35,1.52-1.93,1.83-2.13-.15.1-1.16.17-.91-.45.21-.52,1.25-1,1.68-1.37ZM218.19,62.91c.24.22-2.22,3.93-2.74,3.35-.32-.35,2-4.02,2.74-3.35ZM216.05,61.99c.05,1.47-.97,3.08-2.13,3.96.03-1.56.76-3.18,2.13-3.96ZM213.08,51.55c.19-.33.53-1.32.99-1.13,1.53.63-1.35,3.08-1.67,2.74-.21-.23.51-1.31.68-1.61ZM212.4,50.42c.25.24-1.62,4.15-2.43,3.35-.38-.38,1.6-4.14,2.43-3.35ZM208.44,63.82c1.69.44,1.69,3.15,1.82,4.57-.95-.15-2.06-4.3-1.82-4.57ZM206.91,65.04c1.03-.21,1.46,2.24,1.17,2.7-.05.08-1.67.76-1.78.65.24-1.13.82-2.13.61-3.35ZM205.24,82.41c.34-.28.49-.74,1.07-.61l-3.81,9.13-.75.92c.12-3.18.93-7.34,3.5-9.45ZM200.77,76.11c.18-.4.63-1.51,1.27-1.32-.44,1.19-.77,2.87-1.82,3.65-.08-.85.23-1.59.56-2.34ZM197.06,73.92c.25-.25,2.63-2.42,2.85-2.18.62,1.27-3,3.73-3.35,3.35-.37-.4.23-.9.5-1.17ZM196.83,84.56c.26.16.4,1.97.33,2.41-1.22.04-.84-1.54-1.22-2.28-.01-.26.76-.21.89-.13ZM194.12,85.61c.03-.21.4-1.93.91-1.37.16.17,1.15,3.98.83,4.49l-1.74,1.3c.12-1.41-.17-3.05,0-4.42ZM193.81,100.39c.72-.19,1.53,1.08,1.21,1.52-.04.05-1.15.38-1.21.31v-1.83ZM194.72,106.79c.18.66-.88,1.05-1.32,1.27-.56.27-1.06.65-1.73.56.54-1,1.92-1.71,3.05-1.82ZM193.2,92.16c-1.37-.98-.55-2.43-.3-3.65.53-.07.29.69.3,1.06.03.86-.02,1.73,0,2.59ZM193.81,81.8c-.15.85-.96,6.49-1.22,6.7-.08.07-.66-.04-.91,0-.28-2.5.14-4.01,1.37-6.1.23-.39-.05-.77.76-.6ZM192.9,68.09c.1,1.22-.01,3.36-1.52,3.65.5-.99.23-3.56,1.52-3.65ZM193.2,79.06c.15.16-1.24,3.32-1.98,3.34-.16-.44,1.39-3.98,1.98-3.34ZM191.37,89.72c.32.34.23,3.25.61,3.96l-.61-.91c-.52-.14-.08.93-.75.6-.93-.46-.16-2.44.15-3.2.1-.25.06-1.03.61-.45ZM190.76,67.17c.13.12-.57,2.09-.75,2.45-.23.44,0,.74-.77.59-.36-.66.51-3.98,1.52-3.04ZM189.09,87.27c.15-.54.09-.71.76-.59.05,1.31.09,2.45-.47,3.66-.21.46.05.75-.75.61.13-1.13.16-2.6.46-3.67ZM189.24,103.74c-.22,1.16-.32,2.38-.6,3.52-.13.52.3.89-.62.74.23-1.65-1.51-4.58,1.22-4.26ZM186.5,86.68c1.35-1.01.72,3.85.6,4.26-1.56.27-.83-4.09-.6-4.26ZM186.8,114.4c-.18-.79.05-1.74.89-1.2.5.32,1.13,4.09.32,4.85-.53.11-.75-.28-1.07-.6-.53-.54-2.48-2.91-2.59-3.51-.26-1.41,2.23.69,2.44.45ZM182.84,114.1c-.09.78,2.53,3.26,2.14,3.65-.55.55-2.72-2.68-2.75-3.5,0-.28.36-.14.61-.15ZM182.08,113.79v-.3c.2.1.2.2,0,.3ZM183.15,86.67c-.18-.76-1.28-3.67.27-2.72.27.17.72,2.59-.27,2.72ZM181.17,48.59c.49-.1,2.49,3.14,2.28,3.35-.63.63-1.13-.86-1.52-.91,0,6.49-.54,1.95-1.02-1.28-.05-.35-.37-1.03.26-1.16ZM179.49,69.61c.88-.14.5.19.65.71.26.91.92,3.84.26,4.47-.4.39-.91-.56-.91-.76v-4.42ZM177.05,72.66c.93-.26,1.59.63,1.12,1.45-.04.07-.51.06-.53.26-.11.83,1.15,1.9-.59,1.64v-3.35ZM178.12,114.4c.19-.38-.03-1.53.61-1.21.36.18,1.85,3.09,2.34,3.75,2.34,3.18,3.68,3.85,4.18,8.31.17,1.55.19,8.51-1.66,8.96-1.55.38-3.69-6.33-4.27-7.29-.84-1.38-2.13-1.4-3.02-3.98-1.01-2.93-1.02-6.68-1.07-9.75.39.05.48.52.73.79.63.67,1.48,1.79,2.16.42ZM174.83,73.04c.14-.32.32-.76.69-.39.09.1.58,2.38.6,2.63.04.73-.37,3.33-.93,1.82-.26-.7-.61-3.46-.36-4.06ZM175.54,127.04c.14.18,1.31,2.5,1.21,2.6-1.88.12-3.28-1.53-4.66-2.19-.77-.37-3.79-1.08-4.05-1.45-.46-.66,1.51-4.01,1.86-4.89,2.44.65,2.81,3.13,3.97,4.56.47.58,1.24.79,1.67,1.37ZM152.72,124.65c.55-1.66,3.51.85,4.06.72.41-.1.34-.98.54-1.16.2-.18.79.08.85-.22.13-.63-.25-1.35-.32-1.97.5-.13.14.54.49.62,1.23.29,1.77-.84,2.85-.93.2,1.91,1.71,3.46,3.05,4.74.25.24.85.43.88.48.31.52-2.19,4-2.71,4.68-.87,1.14-2.6,2.57-3.3,3.71-1.75,2.85-1.91,7.17-5.53,8.94l-1.22-12.65c.84-1.9-.2-5.3.35-6.96ZM163.03,107.4l-.91,2.13,1.83-.91c-.03,1.92-1.92,1.61-.92,3.96l-4.26-3.82c-.12-.31,1.06-1.14,1.36-1.36.26-.2.3-.42.76-.3-.36,2.12,1.66-.14,2.13.31ZM161.06,52.55c-.76-.07-2.05-.52-2.89-.61l.77-.31,6.54.93c-1.44-.09-2.99.12-4.42,0ZM160.91,63.82c-.12-.09-1.35-2.29-1.49-2.63-.51-1.28-.39-2.11.83-.83.19.19,1.82,2.29,1.85,2.44.08.45-.85,1.26-1.19,1.02ZM162.12,48.28c.37-.39,2.78,1.99,2.13,2.74-.44.51-2.27-2.15-2.13-2.74ZM162.73,70.83c.89-.49,2.37,1.89,2.13,2.13-.35.35-2.48-1.81-2.13-2.13ZM165.01,89.11c-.88.19-1.83-2.59-1.67-2.74.83-.77,2.97,2.46,1.67,2.74ZM164.09,90.02c.87.08,1.26,1.01,1.06,1.81-1.66,1.1-3.12-2.01-1.06-1.81ZM166.39,97.95c-.65.66-3.12-2.82-3.48-3.37-.4-.63-1.96-2.96-.24-2.34,1.06,1.96,3.78,3.25,3.72,5.72ZM159.62,112.8c-.17-.53-.61-.87-.55-1.44.63-.07,2.66,2.54,2.43,2.74-2.52.15-1.46.06-1.89-1.3ZM164.7,124.77c-1.82-1.12-4.06-5.4-3.8-7.62,1.28.68,3.32-.14,4.27.12.72.2,3.21,1.96,3.51,2.63.24.54-1.77,5.29-2.01,5.47-.15.11-1.65-.4-1.97-.59ZM168.8,111.79c-.05-.45.46-3.15,1.24-2.56.12.09.75,2.9.61,3.04l-1.85-.48ZM170.56,116.33c-.03.2-.5,1.51-.95,1.41-1.03-.25-2.2-1.96-2.31-3.03.53.26,2.9.24,3.01.34.05.05.27,1.08.24,1.28ZM168.52,86.07c.35-.35,2.79,2.12,2.43,2.43-.65.57-2.49-1.7-2.43-2.43ZM168.52,97.03c-.74.2-1.76-1.86-1.52-2.13.46-.51,1.65,1.68,1.52,2.13ZM173.09,62.91c1.07.66.91,2.28.91,3.35-.79.13-.55-.12-.7-.66-.25-.92-.27-1.75-.21-2.69ZM172.78,119.58c-.46.05-1.73-.82-1.81-1.11-.13-.44.73-2.08,1.2-1.63.1.1.71,2.64.61,2.74ZM172.48,64.73l-1.01-.36-2.04-1.77c2.02-.17,3.01-.17,3.04,2.13ZM168.52,83.02c1.13-.48,3.33,2.14,2.74,2.74-.63.63-3.18-2.31-2.74-2.74ZM167.91,74.79c-.89.8-3.54-3.77-3.35-3.96.5-.49,3.64,3.7,3.35,3.96ZM158.56,45.48c2.65-1.23,6.14-2.08,9.05-2.38-.07.49-1.11.63-1.52.76-1.92.59-4.28.84-6.09,1.53-1,.38-1.7,1.22-2.75,1.36-.19-.64.9-1.08,1.31-1.27ZM156.96,73.59c.04-.06,1.14-.35,1.37-.35,1.23.05,2.24,1.8,2.88,2.76-.84.01-4.99-1.24-4.25-2.41ZM156.03,76.92c1.33.36,5.92.62,6.7,1.37.38.36.35.58.3,1.07l-3.05-.3.61,1.52-1.22.15c.93,1.01,2.55.7,3.35,1.83.14.69-.3.39-.72.5-1.62.43-2.85-.88-4.46-1.42-.13-.75.9-.16.56-1.16-.44-1.32-2.88-1.44-2.08-3.55ZM153.9,80.28c.65-.14.69.33.97.71.34.47,2.12,2.59,1.77,2.95-.75.78-3.28-2.79-2.74-3.65ZM153.29,90.03c1.66-.29,2.74.42,2.74,2.13-.32.33-3.29-.99-2.74-2.13ZM154.82,96.59c.84-.57-1.05-2.78.14-2.3.68.28.97,1.76,1.68,2.28,1.04.74,1.57.29,3.16,1.58.23.19.63-.07.89.47.2.41.31,1.02-.26,1.13-.19.04-3.6-.51-3.75-.63-.09-.07-.16-.9-.39-1.29-.86-1.45-.85-.34-1.49-.04-1.18.55-1.53-.53-2.3-.76-.68-.2-.17.83-.89.6-.69-3.05,2.25-.4,3.21-1.05ZM151.76,82.71c1.01.96-3.92,1.26-4.42,1.22-.36-.03-3.39-.78-3.51-.92-.07-.08.04-.66,0-.91,2.72-.44,5.24.24,7.92.61ZM150.85,124.61v4.42c-.72.15-.49-.09-.68-.39-.4-.62-1.78-3.42-1.78-4.03,0-2.19,2.46-.17,2.46,0ZM147.5,70.83c.45-.51,2.59,2.31,2.13,2.74-.94.88-2.51-1.79-2.13-2.74ZM142.46,78.14c.07-.12,2.17-1.61,2.3-1.67,1.06-.44,2.39.16,1.82,1.05-.17.26-2.04.2-2.45.45-.61.37.26,1.16-.11,1.7-1.22,1.11-2.15-.57-1.56-1.53ZM133.48,72.35c1.02-.92,2.55,2.15,3.35,2.44v-1.22c3.12,1.02-.62-1.87,0-2.44.75-.68,3.36,1.73,2.65,2.98-.07.12-.61-.04-.53.51.25,1.62,3.07,3.89-.08,4.1-.41-.81-6.04-5.77-5.39-6.36ZM137.44,128.42c-.55-.55,2.11-3.1,2.43-2.74.4.45-1.84,3.34-2.43,2.74ZM132.26,76.32l2.74.91-1.52-1.98c1.21-.86,4.19,3.01,3.65,3.5-.57.52-3.57-1-4.19-1.45-.38-.28-.81-.38-.69-.99ZM130.43,131.47c1.59.62,2.05-.08,3.28-.53.48-.17,1.22.03,1.61-.22.62-.38-.1-2.59.89-2.91.01,2.7-.32,6.15-1.7,8.5-.24.41-1.82,2.39-2.11,2.46-.57.13-.7-.59-.85-.97-.31-.79-1.43-6.02-1.12-6.34ZM122.62,93.32c.49-.04.83-.7,1.42-.55.2.19-.96,2.13-1.11,2.15-.79.13-2.39-.79-2.55-1.7-.21-1.19,1.85.13,2.24.09ZM120.07,134.21c1,.33,1.31.84,2.43.3-.03,2.14.96.37,1.15.31.3-.08.9.06.99-.01.19-.17-.4-2.56.46-2.13.63.31.81,2.27,1.98,2.13.53-2.02-1.43-3.63-1.06-5.49,1.57,0,2.68,3.23,3.11,4.51.49,1.46,1.41,4.66,1.56,6.08.11,1.11-2.71,3.78-3.61,4.2-.4.19-.5.18-.9,0-1.05-.48-3.25-4.95-4.14-6.24-.77-1.11-2.71-2.18-1.96-3.67ZM116.72,134.82c.54-.08.67-.02,1.05.32.79.68,2.96,3.84,3.65,4.88.2.3,1.24,1.96,1.08,2.11-3.86-.94-6.59-2.94-5.79-7.31ZM123.42,174.89c-.07.55.1.49-.61.45l-.61-6.71c-.92.11-5.75,2.17-6.09,1.83.04-.55-.16-1.39.14-1.84.22-.33,5.92-1.88,6.87-2.12.02,2.68.65,5.71.31,8.38ZM120.98,166.21l-4.57,1.52c-.46-3.21,2.66-1.22,4.57-1.52ZM125.56,171.99c-.28-.28-.27-1.59,1.03-1.18,1.4.44-.49,1.72-1.03,1.18ZM127.52,170.46l1.39-.29c.42,1.68-1.71,2.22-1.39.29ZM129.52,171.08v-1.22c1.01.13,3.01-.55,3.04.91l-3.04.3ZM138.05,168.03c-4.61.45-9.37,1.03-13.71,2.74-.11.59.72.15.89.32.52.55-.33,1.73-1.2,1.5v-7.31h-7.62c-.05-3.69-.09-7.43-.31-11.12-.18-2.97-.93-6.58-.92-9.46,0-.46.37-3.63.46-3.8.31-.56.5-.06.77.16.55.43.96,1.1,1.54,1.5,2.43,1.67,6.05,2.78,6.39,6.4.48,4.97-.33,10.68-.3,15.69,1.38.4,2.55.03,3.94.02,0-3.96-.82-7.75-.63-11.75.06-1.13.27-3.89.69-4.79.61-1.31,3.25-3.73,4.32-5.13,1.59-2.08,3.06-4.16,4.07-6.59,1.31-3.15,1.15-6.85,4.54-8.57,2.36-1.2,1.19,1.03,1.47,1.48.82,1.34,1.42-.78,1.68-1.08.61-.7,2.38-2.03,3.23-1.39.32.25,2.77,4.82,2.86,5.38.35,2.22-.13,5.23.02,7.59.14,2.05.81,4.51.92,6.7.25,4.6-.1,9.29.29,13.88l-13.38,1.25-.03,6.37ZM139.27,169.55c.09-.57.15-1.99,1.06-1.82,1.2.21-.51,2.18-1.06,1.82ZM140.64,167.42v-.3c.2.1.2.2,0,.3ZM142.16,161.63l16.3-1.21c-.58,1.19-2.09.55-2.85.65-4.82.62-10.01,1.71-14.82,1.17l1.37-.61ZM141.25,166.81v-.3c.2.1.2.2,0,.3ZM155.53,166.16l-9.56.65c.04-.62-.27-1.85.5-2.09l9.56-.65c-.04.66.26,1.84-.5,2.09ZM162.43,162.09v5.94h-1.52v-5.18l-15.36,1.49c-.55.4.1,4.7-.16,5.64-.04.16-2.18,1.03-2.16.03.03-2.13.59-4.57.35-6.82l19.16-2.16c.18.43-.3.91-.3,1.06ZM163.34,165.9c.91.06,2.11-.83,2.13.61-.65-.17-2.38.53-2.13-.61ZM167.6,166.2h-1.52v-.61h1.52v.61ZM163.34,164.98v-4.57c-2.84-.47-5.67-1.03-8.53-.61,1.09-3.91-1.34-8.43.15-12.19.72-1.81,2.24-3.3,3.12-4.8,1.01-1.72,1.29-4.1,2.15-5.78.63-1.22,1.93-2.14,2.63-3.16,1.28-1.86,2.64-4.01,3.55-6.05.54-.39,4.48,1.77,5.25,2.17.58.3,1.1,1.02,1.75,1.29,1.3.55,3.65.57,4.68,1.71,1,1.11,2.01,3.9,2.86,5.37,1.38,2.38,3.36,4.8,4.11,7.47.6,2.11.21,6.06-.13,8.29-.11.75-.9,4.25-1.38,4.41-.64.22-3.33-.1-3.74.38-.35.41.4,3.92-.32,4.4l-16.17,1.66ZM172.79,183.57c-.21-.11.18-.52.61-.3.21.11-.18.52-.61.3ZM176.89,182.35c-.45-.05-.93-.24-.45-.61,1.22.03,3.11-.2,3.96.91-1.14-.27-2.36-.17-3.51-.3ZM182.29,185.91c-1.2.26-2.47.45-3.71.4,0-.47,1.07-.43,1.47-.5,1.11-.22,2.26-.44,3.4-.4.05.47-.81.43-1.16.51ZM189.55,182.65v-.61h.91v.61h-.91ZM190.46,185.4c.35-.37,2.54-.21,2.74.6-.24-.03-3.59.29-2.74-.6ZM199.16,188.45c-2.08.51-4.42.65-6.57.6l7.31-1.21c.15.92-.22.49-.74.62ZM198.99,186.62c-.2.59-1.75.31-2.25.26-.52-.05-1.34-.18-1.86-.28-.5-.09-.53.2-.46-.6l4.57.61ZM196.25,183.27s.88-.03.91,0c.07.06.37,1.76.31,1.83-.83.92-.63-1.11-.68-1.17-.04-.04-1.14-.12-.53-.65ZM203.26,186.01h-.91v-1.53h.91v1.53ZM201.73,180.83c-.59-.1-.14.71-.32.89-.25.26-3.47-.51-3.6-.65-.15-.15.13-.7-.24-.86-.69-.3-2.27-.21-3.01-.9l-.15,1.22c-1.07-.2-1.91.29-1.83-1.22-.41-.18-.28,1.25-.91.61-.06-.07-.22-1.5-.31-1.83l-.3.91c-1.02.1-.98.05-.91-.92l-.91.61-.31-1.22c6.79.66,13.5,2.25,20.26,3.04,11.26,1.32,23.4,2.23,34.74,3.05,4.91.35,10.09.15,14.93.61.54.05.82.1,1.28.42.16.11-.01.6.24.5,1.58-1.57,1.15-.36,1.81-.28,8.14,1.09,18.58-.97,26.85-.34,1.57.12,2.05.92,2.17.93.5.06,1.38-.42,2.08,0,.36-.04-.09-.82.33-.94,1.4-.4,3.69-.14,5.15-.29,2.37-.25,4.92-.82,7.31-.92.69-.03,1.52-.24,1.38.62.47.14.32-.72.76-.91.6-.27.41.52.47.58.47.39,1.02-1.32,2.11-.88l-.3,3.35c-1.24.31-.1-1.38-.91-1.52l-.31,1.83c-1.18.3-.15-1.14-.91-1.22-.15.29-.26,1.47-.31,1.52-.7.71-.68-1.35-1.21-1.22.41,1.28-2.54,2.23-2.45.92h-.3c-.15,1.48-.55.26-.61.2-.94-.81-.46.54-.61.71-.6.67-.57-.57-.62-.6-.68-.49-.57.54-.61.58-.57.51-.64-.58-.75-.6-1.09-.21-.9.78-1.08.92-.57.46-.65-.61-.76-.62-.81-.1-1.16,1.11-1.83.02l-.15.92-.76-.62c-.07.89-1.97.77-2.69.61-.28-.06-.07-.83-.97-.61-.12.03-.07.92-1.07.61-.04-.01.77-.96-.45-.61-.23.07.23.82-.31.92-.45.08-.68-.63-1.21-.62-.23,0-.11.53-.18.59-.6.47-.54-.4-.8-.58-.59-.43-3.28.51-4.36.01l.61.6c-.83.33-1.45-.6-1.98-.62-.08,0-.32,1.15-1.38.62l-.15-.61c-.28.03-.04.54-.35.62-.5.13-5.39.11-6.03,0-.49-.09.32-1.57-.78-1.23v1.22c-6.63-.41-13.3-.41-19.93-.67-.6-.19-.49-.9-.49-1.46-.64-.07-.14,1.06-.3,1.22-.06.07-1.77.07-1.83,0-.13-.14.21-1.22-.15-1.22l-.15,1.22c-.94.27-.76-1.11-1.07-1.22-.77-.28-.24.8-.61.92-.87.26.02-1.25-1.06-.92-.18,2.04-.62.67-1.36.63-.76-.04-1.24.98-1.09-.63-.56-.14-.11.62-.45.61-.31,0-.09-.64-.15-.92l-.76.62c-.34-1.09-.54-.68-.46.3-.63.12.06-1.23-.76-.91-.35.14.07.83-.32.94-.19.05-3.48.03-3.94-.01-.34-.04-.09-.9-.16-1.22-.72.06.27,1.21-1.06.91-.33-.07-.09-.89-.16-1.22-.64-.07-.14,1.06-.3,1.22-.56.55-1.25-.4-.91-1.22-.95-.26-.51.94-1.37.92-.39,0,.25-1.23-.76-.92-.04.23.15.87-.16.93-.34.06-5.58-.46-6.06-.61-.48-.14.23-1.21-.79-.93l.15.91c-.88.15-1.06-.41-1.07-1.22l-.3.91c-1.1.28-.8-.52-1.52-.92l-.46.91c-.48-.19-.4-1.14-.47-1.22-.72-.8-.44,1.57-1.21.91-.07-.06-.28-1.07-.77-1.21-.2,0-.99,3.02-1.37-.31l-.6.15c.06.32.82,1.13-.16,1.08-1.02-.05-2.84-.41-3.92-.61-.42-.08-.12-.87-.2-1.22-.62-.1-.04.86-.47.93-1.15.2-3.3.18-3.95-.93-.66,1.54-1.12,0-1.22,0-.74-.11-.35.5-.47.59-.57.46-.82-.78-.94-.84-.1-.06-1.82.35-2.2.26-.71-.16-2.07-.54-3.24-.78-.82-.17-1.54.68-1.54-1.05ZM205.09,188.44c-.41-1.2,2.91-.44,3.05-.3,1.02,1.07-2.98.11-3.05.3ZM238.91,192.71l1.98-.61,2.28.61h-4.27ZM254.08,195.23c-1.61.57-3.74,1.08-5.43,1.14,1.51-1.33,4.17-1.35,6.09-1.82.15.85-.18.51-.67.69ZM255.21,193.93c-.99.13-2.18-.09-3.2,0-.5-.38,0-.55.45-.61.99-.13,2.18.09,3.2,0,.5.38,0,.55-.45.61ZM256.89,194.23c-.22-1.2,2.05-.38,2.74-.6-.45,1.01-1.88.51-2.74.6ZM270.9,196.06c.44-.71,1.97-.77,2.74-.91-.47.9-1.86.92-2.74.91ZM272.73,196.67c.55-.76,2.17-.82,3.04-.91-.55.76-2.17.82-3.04.91ZM281.26,195.76c-.21-.11.18-.52.61-.3.21.11-.18.52-.61.3ZM315.04,187.79c-.08.09-1.76.62-2.08,1.26-.14-.65,1-2.33-.31-2.13.36,1.65-.37,3.37-1.99,3.96-.64.23-.41-.56-.45-.61-.04-.04-.53.13-.62-.2-.13-.47.34-1.59-.3-1.63-.22.51-.2,2.94-.31,3.05s-2.54.11-3.05.3c-.2-.18.98-1.82-.3-1.52v1.52s-.61-.91-.61-.91l-.3.91c-.58.06.01-.63-.76-.61-.78.03-.4.35-.46.91l-.3-.91c-1.54-.38-.52.9-1.11,1.24-.35.2-2.25.4-2.69.31-.36-.08.41-1.38-1.54-.94-1.03.23-.55,1.13-.94,1.24-.68.19-1.22.14-1.35-.47-.34-1.61-.67.43-.75.45-.86.2-.9-1.15-1.37-.61-.09.11.09.79,0,.92-.48.61-.64-.6-.79-.61-.21-.02-1.96-.04-2.06-.02-.39.07.49.37-1.29.35-4.73-.04-10.07.17-15.21-.03-4.63-.18-9.24-.48-13.86-.61-.15-1.45.7-2.84-1.22-2.44l.92.76c-.95.09-.87,1.94-1.52,1.37-.11-.09.3-.74-.46-.61-.09.02-.68,1.84-.76-.3-1.02-.26-.45.76-.61.91-.59.57-.56-.55-.76-.61-.67-.22-.27.94-1.22.62l.15-.91c-1.9,2.26-1.36.14-1.52,0-.6-.53-.6.62-.76.62-.56,0-.66-.64-1.22-.63-.18,0-.09,1.05-.75.6-.07-.05.17-.85-.78-.6-.21.05.04.84-.6.62-.36-.12-.04-.76-.16-.92-.65-.82-.57,1.73-1.22.91-.12-.15.2-.79-.16-.92-.69-.24-.29.56-.61.62-.72.12-.31-.57-.64-.63-1.04-.18-3.52.34-4.77.25-.32-.02-.66-.37-1.03-.42-.5-.07-2.24.09-2.51-.15-.15-.13.05-.78-.03-.87-.71-.87-.38,1.26-1.06.91l-.46-1.21-.3.91c-1.01.07-1-2.01-1.67-.31-.91-.69-.51-1.47-.46-2.44l-1.21,2.43-.31-1.82-.76,1.52c-.72-1.16-1.82-.31-2.51-.38-2.35-.25-4.9-.66-7.3-1.03-1.12-.17-1.12-.4-1.19-.41-.44-.03-.97.62-1.5-.31-.62,1.65-.77-.05-1.22-.3l-.76.91c-.06-.26.16-.81-.16-.92-.65-.21-.38,1.19-1.06.61-.07-.06-.08-.7-.46-.91l-.76.91c-.1-2.15-.68-.32-.76-.3-.98.28-.77-.66-1.22-.92-.47,2-.61.54-1.07,0-.31-.36-.21.99-.75.61l-.16-.91-.3.91h-.91v-.91c-.5-.13-.22.43-.35.53-1.1.78-.8-.78-.87-.84-.27-.27-1.44.84-1.22-.3l-.61.91c-1.2.23-.16-.83-.3-.91-.73-.44-.98.57-1.11.6-1.76.41-.51-1.47-1.02-2.74l37.89,4.26.2,1.22.3-1.22c1.53.35,3.11.25,4.64.64.4.1,2.06,2.23,1.76-.34.56-.1.17.55.36.84.4.61,2.84.05,2.08-.54-.25-.2-1.76.39-1.83-.3,7.12-.05,14.2.56,21.33.91l-1.52.6c2.17.02,4.35,0,6.51.04.41,0,.87.33,1.23.29.3-.03-.07-.79.64-.64.17.04.1,1,1.22.62.21-.07.16-2.07.91-.31l.21-.54c6.66-.32,13.41-.31,20.06-.68l.15.61,1.07-.61.61.6-.3-.91c.6.07,1.38-.13,1.94,0,.33.08-.02.82.65.62l.16-.92.76.92c.21-.01.1-1.67.76-.92.14.16-.3,1.01.3.92l.92-1.22c.03.86-.03,1.73,0,2.59.02.37-.23,1.13.3,1.06.02-2.38.13-4.45,3.05-4.26l-.3,3.35c.45-.05.52-1.33.57-1.71.07-.49-.06-1.77.07-1.92.15-.17,3.65-1.18,4.24-1.55-.11.55.19,2.44-.04,2.7ZM339.16,170.01c-7.65,4.91-14.67,10.73-21.97,16.12-.26.19-1.3,1.03-1.49.79.23-.68-.33-1.76-.23-2.25.18-.97,13.93-10.23,15.86-11.53.79-.53,7.82-5.47,8.14-5.11-.03.67.2,1.46-.3,1.98Z" fill="#3e3b39"/>
    <path d="M258.41,177.78c.08-.13.16-.24.3-.3-.07.25-.11.2-.3.3Z" fill="#3e3b39"/>
    <path d="M211.48,172.6c-.47.26-.43.2-.91.3.21-.5.6-.21.91-.3Z" fill="#3e3b39"/>
    <path d="M212.09,172.3s-.38.23-.61.3c.17-.1.3-.39.61-.3Z" fill="#3e3b39"/>
    <path d="M273.03,172.6c-.26.37-.39.21-.61.3.28-.41.42-.22.61-.3Z" fill="#3e3b39"/>
    <path d="M260.85,175.95c.1-.09.24-.29.3-.3-.1.07-.17.22-.3.3Z" fill="#3e3b39"/>
    <path d="M127.72,49.71c-.51.5-1.05.98-1.59,1.45-.53,1.9-1.12,3.61-2.86,4.74l-.15-1.52c-.17-.18-2.13.57-2.42.78-.93.65-.84,2.19-.93,2.27-.09.08-.78-.3-1.23-.18-.64.17-1.03,1.1-1.82,1.11-.71.56-1.42,1.1-2.12,1.62-.04,3.94,0,7.85.29,11.63.31,4.04,1.88,7.97.32,12.19l-1.53,1.97c-.34-1.26.94-3.1-.3-3.96-.24,1.09-.08,3.26-1.22,3.81.63-2.91.95-6.16.92-9.16-.06-4.87-.35-9.92-.66-14.95-.31.21-.63.41-.94.61l.67,7.19c-.92.15-.49-.23-.61-.74-.49-1.99-.53-4.09-.58-6.13-.31.19-.62.36-.94.54v2.07h-.3c.25-.54-.13-1.32-.26-1.76-.61.32-1.23.63-1.88.91,0,.18,0,.35-.02.53-1.75.51-3.3.82-5.16.63-.13.34.34,1.16.31,1.21-.09.13-2.42.5-3.05.76-.38.16-3.39,1.81-3.52,1.97-.72.89,1.69,1.35,1.68,1.69-.33.56-2.51,1.47-2.67,1.74-.21.38.07,1.03-.35,1.64-.33.48-1.55.68-1.55.89,0,1.25,3.01,1.19,3.83,1.08,1.01-.14,2.13-1.47,3.33-1.24,1.48.29-1.55,1.62-1.82,1.83-.87.68-3.54,2.96-1.22,3.08,1.4.07,1.55-.95,2.58-1.55l.46,1.22,1.98-1.22c.37,1.59-1.3,2.49-.6,3.96,1.79-.24,2.96-1.68,4.56-2.29-.54.58-.15,1.48-.29,2.08-.08.34-.77.2-.93.97-.41,1.99.72,1.2.92,1.38.5.43-1.03,2.21-1.19,2.6-.27.66-.24,1.52-.5,1.97-.13.22-.69.22-.76.52-.41,1.62.66,2.3,2.15,1.92-.07,1.23-1.5.48-1.52,2.01-.02,1.25,1.04.75.88,1.44-.38,1.66-3.8,2.15-3.94,3.41-.23,2.09,2.57.07,3.06.46-.41.75-1.33,1.81-1.45,2.65-.1.67.79,1.13.85,1.78.06.69-.48,1.08-.55,1.58-.14.95.41,2.41-.98,3.13-.5-1.08.13-2.83-.31-3.77-.67-1.42-1.74,1.68-1.8,2.44-.26,3.4,1.93,4.36-3.26,4.65-1,.06-3.51-1-3.5,1.1,0,2.05,3.18,2.05,3.38,2.29.93,1.07-1.91,2.07-2.29,2.43-1.66,1.54.07,5.03-.31,7,1.5,1.1,1.16,4.19,3.51,3.06-.61,2.57,1.6,1.37,2.4,1.87.14.09.13.8.56,1.19.59.53,1.46.43,1.83.68.44.29.51,1.36,1.93,1.31-.32,4.91,1.02,9.38.91,14.32-.07,3.07-.8,6.41-.94,9.42-.19,4.09.18,8.24,0,12.34-.86-.02-3.98,1.04-4.22,1.74-.23.71.31,1.58.28,2.37-.05,1.44-.59,3.14-.33,4.72-4.06,1.13-8.07,2.54-12.17,3.52-1.41.34-2.82.26-4.05.53-.76.17-4.36,1.08-4.8,1.3-.14.07-.39.4-.3.46,1.67-.31,3.56.14,3.07,2.24-.05.21-3.57,1.25-4.15,1.4-.87.22.03-1.14-.18-1.9-.33-1.17-2.02-.74-2.09-.83l.16-.6c-1.05,1.16-2.24-.26-2.9,1.21,1.11.16,3.14-1.01,3.6.52.62,2.06-2.55,2.33-3.91,2.83v.61l19.73-4.8c2.94.02,7.13.31,9.99-.05.65-.08,1.42-2.04,2.58-1.39-.59,1.92-.18,12.16-1.52,13.12l-30.78,4.7v.91c2.25-.3,4.6-.52,6.83-.94,1.64-.31,3.34-1.83,4.75-.13.12.55-.21.49-.6.6-3.36.98-7.57.19-10.98,1.37v2.13c6.23-.81,12.31-2.51,18.47-3.62,1.34-.24,3.04-.2,4.45-.43,2.22-.35,4.77-1.5,7.11-1.13.47.07.47-.19.46.46,0,.82-.28,2.69-.45,3.52-.45,2.05-1.53,3.65-2.14,5.48-1.29,3.82-1.63,7.35-4.88,10.35-1.76,1.63-1.28-.21-1.38-.3-.23-.2-1.99.33-2.43.45-.59.16-1.82.5-2.13,1.06.72.23,2.91-1.07,2.74.31l-19.81,4.88v.91l13.41-3.04c-.08.45-.55.6-.92.76-1.84.79-5.73,1.66-7.85,2.2-1.53.39-3.03.87-4.64.7v2.74l6.7-1.22c-.74,1.08-2.54.9-3.66,1.37-.99.42-1.69,1.55-3.04,1.37v.91c.62-.23.58.6.8.62.47.05,4.36-1.45,4.38-.78l-5.18,1.68v.61l7.01-1.52c-.36.69-1.75.77-2.43.91l1.82.6c-.58.42-3.83.76-3.96.92-.18.22.05,1.09.48,1.18.13.03,2.21-.33,2.58-.41,3.63-.82,7.07-3.64,10.87-4.36,1.09-.21,1.55.14.47.78-.93.55-5.15,1.37-5.57,1.9-.22.28.28.96.74.9l13.12-3.97c.68,0,.84.07.08.39-1.05.44-2.23.64-2.97,1.61l.92.15-.16,1.21c1.05-.24,1.56-1.38,2.19-1.77,1.46-.88,3.67-.91,5.04-1.36.59-.19,4.05-1.53,4.29-1.73.56-.46.41-1.4.55-1.52.18-.16,1.17.06,1.63-.04,1.93-.41.79-.11,2.13-.02.12,0,1.93-.21,2-.28.09-.1-.09-.94,0-1.31.09-.35.87-.03.53-2.12-.19-1.19-1.02-2.84-1.83-1.06-.13.28-.18,2.07-.83,1.45-.81-.77.19-4.05,0-5.18l-1.28,4.37c-.14.38-.7.45-.87.72-.41.67-.13,2.38-1.2,2.22.58-3.06,1.99-5.93,1.82-9.14-.61.12-.5.64-.61,1.07-.42,1.65-.49,3.4-1.08,5.02-.18.49-.31,1.43-1.05,1.22.39-2.21,1.13-4.37,1.49-6.59.48-3.01.77-6.62.65-9.72-.01-.37.23-1.13-.3-1.06-.47,4.06-.7,8.16-1.73,12.13-.47,1.8-1.29,3.45-1.78,5.23-.25.91-.44,3.69-.73,4.09-.21.29-.88.23-.94.18-.43-.39,2.66-9.76,2.96-11.21.6-2.94.47-8.84,1.36-11.13.2-.51.83-.52,1.01-.82.29-.47-.12-1.26.45-1.22l.92,8.23c.41-.05.53-.41.59-.77.58-3.45-.77-7.83-.29-11.41l.61,1.52c.3,0,.45-.27.53-.53.51-1.66.91-7.34,1-9.36.1-2.17.16-5.19-.01-7.33-.03-.35-.09-1.37-.61-1.37-.68,4.04.09,8.36-.91,12.36-.13.51.31.89-.61.74-.26-1.87.26-4.12.19-5.89-.09-2.02-.82-4.67-.81-6.74,0-1.96.69-4.51.81-6.46.05-.74-.86-3.31.42-3.15v5.94c0,.13.47,1.83.57,2.19.14.52-.22.85.65.7.4-1.28-.48-2.17-.62-3.18-.33-2.33.03-5.85.03-8.23,0-2.69-.03-5.39-.02-8.09l-.92,4.74c.39,1.75.35,3.53.31,5.32l-.83-2.98-.09-1.59-.39,2.81-.52,1.15v-6.4l.61.61v-4.87s.61,3.04.61,3.04c.18-5.54,1.38-11.01.93-16.62-.04-.53.06-1.17-.62-1.35-.15,2.67-.51,5.37-1.01,7.98-.1.54,0,1.71-.82,1.46.06-2.87.9-5.64.61-8.53l-.6.31c-.12-3.61,0-7.17.92-10.66l.6,2.74c-.23-3.14,1.54-8.99.4-11.82-.76-1.89-1.17-4.31-1.33-6.6-.12-1.74.12-3.59,0-5.34l-.6,2.13c-.56-3.65-.87-7.43-.63-11.13.03-.44.03-1.6.62-1.66.03.96-.03,1.93,0,2.9.01.37-.23,1.13.3,1.06.68-2.58.48-5.45.95-8.04.06-.33.1-1.14.58-1.1v4.42c0,.06-.67,1.77.3.76.19-.2.73-4.69,1.15-5.43l.07-6.15.58,3.83c2.41,3.04,1.09.63.94-.94-.61-6.13,2.87-9.1,5.1-14.1,1.21-2.71,4.03-10.33,4.58-13.1.07-.33.11-.65.07-.99-1.39,1.62-1.71,4.37-2.51,6.48-.44,1.17-1.24,3.24-1.83,4.27-.18.32-.48.88-.84.38,2.22-5.19,4.12-10.58,5.59-16.05,1.26-4.68,2.75-9.88,3.89-14.97ZM85.52,184.2c-.28.38-2.6.65-3.23.9l-.31-2.59c.45-.27,3.09-.67,3.34-.43.08.07.35,1.93.2,2.13ZM89.55,183.22c-.15.24-3.12,1.13-3.3.96.49-1.07-.14-1.71-.31-2.74.9.2,2.63-.71,3.37-.17.36.26.43,1.62.23,1.95ZM90.21,182.96v-2.44s2.13,0,2.13,0l-.3,1.52c4.78-1.63.28,1.52-1.83.92ZM86.1,222.57c.2.1.2.2,0,.3v-.3ZM74.67,227.44c-.07-.44.53-.41.85-.52,1.42-.46,3.16-.93,4.63-1,.07.44-.53.41-.85.52-1.42.46-3.16.93-4.63,1ZM78.31,230.33c-1.73.41-3.4,1.12-5.16,1.38,2.1-1.66,5.33-1.9,7.92-2.13-.42.82-1.92.55-2.76.74ZM83.51,227.75c-.53-.48.37-.65.61-.75,1.04-.42,2.52-.78,3.65-.77.14.83-.15.53-.66.69-.42.13-3.46.96-3.6.83ZM85.03,231.41c-.78-.73,2.85-1.77,3.35-1.52-.18.5-3.21,1.65-3.35,1.52ZM87.17,225.01c.38-.7,1.71-.94,2.43-.91,0,1.32-1.58.86-2.43.91ZM93.87,219.53l-.61.61c-.09-.64-.03-.69.61-.61ZM90.21,226.53l3.96-1.52c-.16,1.65-2.74,1.42-3.96,1.52ZM98.44,225.01c-.1-.57.58-.13.85-.37.08-.07.72-2.12,1.28-1.45.42.5-1.04,2.75-2.13,1.82ZM97.98,219.21l3.05-4.56c-.4,1.94-1.27,3.57-3.05,4.56ZM107.58,125.68v10.66c-.39.51-.55-.04-.61-.45-.15-1.18-.17-2.47-.33-3.66l.94-6.55ZM107.27,104.96c.21.25-.2,5.67-.3,6.56-.05.43-.18.88-.61.45-.22-.22-.64-2.67-.62-3.18.01-.38.75-4.73,1.53-3.82ZM105.43,131.91l.62-4.4v7.31c-1.22.2-.36-2.19-.62-2.91ZM102.4,180.52s-.64.12-.61-.15c.48-.83.95-.2.61.15ZM102.86,179.3l.15-1.52-.9.46c.55-.51.4-1.45.6-1.98-.2.17-.78.55-.91.15l2.43-4.11-1.82,2.35c-.39.59,0,1.55-1.21,1.46.65-1.14,1.18-2.37,1.82-3.51-.4.56-1.36,1.49-1.83,2.13.61-1.46.58-4.33,2.57-4.29.26,0,.14.61.17.63.03.02.58-.35.61-.31-.07.73.13,1.58,0,2.28-.02.13-1.07,2.08-1.21,2.29.26-.34.86-.93,1.22-1.22.4,2.18-.57,3.47-1.67,5.18ZM102.47,197.19c-3.28.85-6.57.56-9.88,1.1-3.07.5-6.17,2.5-9.08.67l19.8-2.59c.17.74-.28.67-.84.82ZM104.53,219.22c-.55,0-.32-1.31-.3-1.67.14-1.94.63-4.67,1-6.62.06-.34.06-1.21.51-1.15.29,3.24-.58,6.32-1.22,9.44ZM106.98,197.75c-.05.82-.33,3.41-.66,3.93-.2.32-.73.41-.81.54-.2.34-1.17,6.36-1.61,7.69-.07.21-.74,1.95-1.2,1.39.5-4.06,2.55-7.76,2.74-11.88.85.14-.39,2.12.91,1.83-.45-1.89.06-3.87.31-5.79.54.21.34,1.81.31,2.3ZM107.88,167.12l-.8-4.37c.38-1.11.05-2.33.19-3.41.07-.56-.1-.49.61-.45v8.23ZM108.65,127.81c1,4.04-.02,8.1.15,12.19l-.61-.45.46-11.74ZM108.51,188c.07-1.36-.18-2.98-.01-4.28.06-.44.23-.94.61-.45l-.76,14.62c-.54-.37-.44-.77-.44-1.32.02-2.82.45-5.74.6-8.57ZM109.71,69.31c.51-.26.91.52.91.76,0,1.98.26,4.87,0,6.7-.02.13-.3.87-.61.76-.42-2.72-.31-5.47-.31-8.22ZM109.41,82.56c.03-.1.41-.47.61-.46.45.45.11,4.73,0,5.64-.07.56.09.49-.61.45.26-1.56-.35-4.25,0-5.64ZM110.01,93.68c-.48.04-.47-1.3-.44-1.57.55-5.11,1.56-10.47,2.31-15.61.07-.48.13-1.84.56-2.02.13,6.47-1.43,12.84-2.44,19.19ZM113.52,86.37v-.3c.2.1.2.2,0,.3Z" fill="#3e3b39"/>
    <path d="M103.01,175.65c.07-.12.22-.2.3-.3-.07.11-.23.2-.3.3Z" fill="#3e3b39"/>
    <path d="M103.01,172.6c.08-.12.14-.38.3-.61-.1.18-.19.4-.3.61Z" fill="#3e3b39"/>
    <path d="M103.31,171.99c.08-.12.24-.2.3-.3-.07.12-.25.2-.3.3Z" fill="#3e3b39"/>
    <path d="M103.62,171.69c.08-.12-.17-.64.3-.61.16.58-.25.52-.3.61Z" fill="#3e3b39"/>
    <path d="M102.7,176.26c.12-.31.13-.34.3-.61-.09.13-.02.37-.3.61Z" fill="#3e3b39"/>
    <path d="M213.31,262.18c.23-.9,1.97-1.77,2.77-2.26.93-.56,2.97-1.37,3.54-1.79.58-.42,1.54-2.17,2.68-2.35.51.31-.1.68-.3.92-2.08,2.52-5.2,3.6-7.77,5.48h-.91Z" fill="#3e3b39"/>
    <path d="M198.38,262.18c-.01-.65.38-.83.81-1.17.78-.62,5.96-3.29,6.5-2.79.04.28.03.39-.14.61-.71.91-4.94,1.77-5.64,3.35h-1.52Z" fill="#3e3b39"/>
    <path d="M189.24,262.18c-.47-1.49.45-4,1.98-4.57.15,1.51-1.23,3.11-1.67,4.57h-.3Z" fill="#3e3b39"/>
    <path d="M244.7,160.72l.18.92c2.02-.08,4.06.08,6.08,0,.73-.03,1.4-.31,2.12-.35.6-.03,1.15.36,1.5.35.25,0-.02-.95.78-.62-.17,1.25,0,2.16-1.52,1.83l.61.91c-1.48.38-3.65-.66-4.97-.31-.17.04-.83,1.31-2.17,1.23-.12,0-.64-1.18-2-.62l.91-.6h-2.44s.31-5.49.31-5.49l.76.92c.37-.02.01-1.08.15-1.22.32-.33,8.71-.19,9.1.05.17.11.45,1.38.35,1.48l-6.7.31c-.16,1.21.96.61,1.37.61h5.64v.61h-10.06ZM245.3,159.5c-.33-.33-.94.27-.61.61.33.33.94-.27.61-.61Z" fill="#3e3b39"/>
    <path d="M339.15,161.33c.49.38,0,.55-.45.61-3.2.41-7.32-.83-10.68-.29-7.5-.7-15.01-1.27-22.54-1.54l-.45-.61,34.12,1.83Z" fill="#3e3b39"/>
    <path d="M239.82,155.84c.45-.08.39.57.46.91.67,3.27.35,6.33.44,9.62.04,1.63.76,3.28.01,5.01,3.51-.94,1.33,1.08-.61.91-.35-.77.63-.57.61-.75-.04-.31-.52-.91-.58-1.56-.28-2.68-.1-6.6-.64-9.06-.05-.24-.55-.08-.63-.64-.13-.97.14-2.2.02-3.22l-.57,2.63c-.55,3.21.02,6.94-.33,10.03-.05.46-.06.94-.62,1.06.22-4.06-.5-8.55.44-12.5.76-3.17,1.74-3.46,1.7.18,0,.72-.78,1.91.29,1.66v-4.27ZM240.12,161.63c.15-1.27-.45-1.27-.3,0h.3Z" fill="#3e3b39"/>
    <path d="M275.78,252.44c.04.71.1.54-.45.61-1.93.25-3.78-.32-5.49-.33-.91,0-4.81.73-5.33.33-.7-.55.79-.54.61-.91-3.89-.34-7.87-.62-11.73-1.21-.77-.12-.27-.32-.76-.77l6.81.5c5.35,1.43,10.85,1.26,16.34,1.79Z" fill="#3e3b39"/>
    <path d="M275.47,260.66c-6.88-.37-14.07-.95-20.86-2.14-.54-.1-.91.33-.77-.59,6.84.75,13.77,1.04,20.57,2.13.45.07.94.02,1.06.61Z" fill="#3e3b39"/>
    <path d="M268.77,161.33c.07.12-.11.68,0,.98.12.3,1.07.54.6,1.76-.94.33-.55-.91-.61-.91h-6.7c-.09,0,.07,1.56,0,1.83-1.17-.77-.75-2.43-.61-3.66,1.02.23,7.12-.31,7.31,0Z" fill="#3e3b39"/>
    <path d="M290.71,209.47c.29.78-1.26.83-1.71.88-7.67.78-15.71,1.2-23.28-.42,0-.51,5.94.44,6.54.47,6.17.27,12.33-.37,18.45-.93Z" fill="#3e3b39"/>
    <path d="M241.65,147.92c-.15.14-1.8-.13-1.82.61,2.9.74,3.62,4.07,3.35,6.71-.79.07-.51.05-.6-.46-.33-1.85-.87-5.13-3.05-5.82-1.49-.47-2.11,1.63-2.67,2.55-.66,1.07-1.33.52-.64-.94.7-1.47,4.54-5.16,5.43-2.64Z" fill="#3e3b39"/>
    <path d="M138.96,189.66c.02-.51-.21-.65.38-.54,2.4.45,4.96-.19,7.39-.37,2.69-.2,5.37-.1,8.07-.61-.2.71-1.67,1.52-2.29,1.52h-13.56Z" fill="#3e3b39"/>
    <path d="M261.76,154.93l-2.42-3.52c-.45-.72-1.98-.43-2.33.17-.23.4.28,1.02.14,1.61-.19.78-2.48,1.88-1.79,3.57h-.91c-.84-2.4,1.2-2.89,1.68-3.98.28-.63-.54-2,1.29-2.37,2.43-.5,4.76,2.16,4.34,4.52Z" fill="#3e3b39"/>
    <path d="M320.27,205.82v.91c-4.15.69-8.3-.26-12.49,0l.45-.61,12.04-.3Z" fill="#3e3b39"/>
    <path d="M138.01,177.43c.04-.14.03-.42.11-.47.86-.53,6.95.2,8.46-.09l-5.64.91c-3.34.16-6.77-.34-10.05.31l-.16-.92c2.36.31,5.19-.59,7.27.26Z" fill="#3e3b39"/>
    <path d="M304.42,211.91l-3.51.6c-1.82-.26-11.2,1.17-12.03.3-.16-.16-.07-.82.45-.61l15.09-.3Z" fill="#3e3b39"/>
    <path d="M180.4,188.14c.15.94-.24.48-.76.6-1.74.38-3.24.13-4.84.35-3.07.42-5.89,1.83-9.02,1.48-.52-.39.04-.55.45-.61,1.18-.15,2.35-.14,3.57-.4,1.29-.27,2.91-.96,4.08-1.1,2.1-.26,4.39.24,6.52-.33Z" fill="#3e3b39"/>
    <path d="M138.96,185.4c.48.37,0,.56-.45.61-4.07.48-8.24.6-12.34.61-.29-.81,1.54-.87,1.98-.91,3.58-.29,7.24.29,10.81-.31Z" fill="#3e3b39"/>
    <path d="M239.36,260.66c-.11-.03-.54-.52-.46-.61,3.7-.6,7.55-.34,11.27,0,.12.32-1,.61-1.07.61-2.17,0-8.11.42-9.75,0Z" fill="#3e3b39"/>
    <path d="M261.76,160.11h7.01v.61h-7.16c-.06,0-.35.46-.45.3.09-1.33-.09-2.64-.53-3.89-.19-.55-1.41-2.39-1.3-2.5.85-.86,3.13,4.62,2.44,5.48Z" fill="#3e3b39"/>
    <path d="M262.67,207.03l-7.77-.61-4.72-.91c3.57-.04,7.22.04,10.74.69.56.1,1.54.19,1.76.83Z" fill="#3e3b39"/>
    <path d="M264.2,167.42c-.3.54-1.55.92-2.12,1.07-2.5.64-6.48,1.02-8.24-1.22,1.26-.13,2.11.64,3.5.77,2.33.21,4.58-.34,6.87-.62Z" fill="#3e3b39"/>
    <path d="M163.95,171.39l-2.29.6c-.85.04-7.13.15-7.15-.76-.01-.58,1.87-.49,2.29-.47,2.3.09,4.81.69,7.15.62Z" fill="#3e3b39"/>
    <path d="M277.89,229.26c-.13.13-3.52.15-3.64.02-.54-.57.55-1.3,1.22-1.22l-.61-.3v-.45c.37-.9,3.18-.23,3.31.32.02.08-.23,1.58-.29,1.64Z" fill="#3e3b39"/>
    <path d="M164.56,183.57l-4.11.6h-6.55s.45-.61.45-.61c3.4.06,6.87-.83,10.21,0Z" fill="#3e3b39"/>
    <path d="M276.39,230.49c-.92.27-7.65-.62-7.92-.91-.06-.06.04-.67,0-.91,2.21.53,4.7.58,6.87,1.2.41.12.95.04,1.05.62Z" fill="#3e3b39"/>
    <path d="M315.69,196.98c.5.38,0,.55-.45.61-.84.11-9.91-.26-9.91-.76,3.47-.56,6.9.28,10.36.15Z" fill="#3e3b39"/>
    <rect x="235.56" y="160.41" width=".61" height="9.75" fill="#3e3b39"/>
    <path d="M135.92,180.22c.48.37,0,.56-.45.61-2.66.31-5.44.46-8.08,0-.49-.4.04-.56.46-.61,1.19-.16,2.23.34,3.35.34,1.5-.01,3.13-.62,4.72-.33Z" fill="#3e3b39"/>
    <path d="M257.19,165.9h-.3c.12-.38-.31-.88-.31-1.07v-6.7c0-.11.66-1.99.76-1.98.59.51-.15,1.67-.15,1.98v7.77Z" fill="#3e3b39"/>
    <path d="M258.41,167.42h-.61v-9.45h.3c-.19.48.31,1.14.31,1.37v8.07Z" fill="#3e3b39"/>
    <path d="M268.16,163.77c.3,1.14-1.17.37-1.52.61l.31.6h-3.96c-.21-1.67,2.73.54,2.43-.91-.12-.1-3.91.28-2.74-.61l5.48.3Z" fill="#3e3b39"/>
    <path d="M274.56,168.34c.06.8.04.51-.46.6-1.85.34-4.8.82-6.24-.6h6.7Z" fill="#3e3b39"/>
    <path d="M233.12,169.86c-2.76,2.18,1.56,1.93,3.05,2.59-2.06,1.58-7.88-1.62-3.05-2.59Z" fill="#3e3b39"/>
    <path d="M238.3,174.43c-.59,1.02-3.61.45-4.65.23-.27-.06-3.02-.9-2.36-1.45.27-.23,5.91,1.68,7.01,1.22Z" fill="#3e3b39"/>
    <path d="M269.68,255.18c.49.4-.04.56-.46.61-1.42.19-3.44-.45-4.72-1.09-.43-.21-.77.07-.61-.74l5.79,1.22Z" fill="#3e3b39"/>
    <path d="M255.67,156.15c1.29,1.26.32,3.97.61,5.63l-.61,3.51v-9.14Z" fill="#3e3b39"/>
    <path d="M277.76,244.21c-.24-.07-.63-.73-.46-.91.42-.46,4.16.18,5.03.31.53.08.51-.16.46.6-1.34-.24-3.87.33-5.03,0Z" fill="#3e3b39"/>
    <path d="M238.3,152.8c.12.15-1.19,3-1.37,3.65-.28.97-.29,1.95-.46,2.9-.09.5.2.53-.6.46-.02-2.28.53-4.46,1.68-6.4.1-.17.29-1.17.76-.6Z" fill="#3e3b39"/>
    <path d="M346.47,162.55c.07.57-.6.21-.92.16-1.09-.17-2.15-.57-3.22-.74-.28-.05-3.59.15-2.56-.64,2.39-.17,4.57.09,6.7,1.22Z" fill="#3e3b39"/>
    <path d="M264.5,171.69l-2.23,2.03c-.4.21-1.61.28-1.73.41-.71.78,1.1.4.91.91l-2.29.3c-.05-1.1,1.15-1.27,1.98-1.52-.21-.66-1.88-.3-2.29,0l.46-.9c-1.3-.1-2.31.65-3.35,1.22l.61.6h-1.52c-.5-.43,2.67-2.22,3.04-2.3,1.2-.26,2.45.75,3.21.76,1.03,0,2.24-1.26,3.2-1.5Z" fill="#3e3b39"/>
    <path d="M146.28,187.23l-3.84.88-4.08.34c-.15-.94.24-.48.76-.6,2.23-.49,4.86-.59,7.16-.62Z" fill="#3e3b39"/>
    <polygon points="300.15 205.81 303.64 205.19 306.09 205.21 309.29 205.81 300.15 205.81" fill="#3e3b39"/>
    <path d="M301.68,198.81c.27.96-1.05.62-1.69.62-1.97.01-3.94-.44-5.92-.32.41-1.18,1.34-.3,1.68-.3h5.94Z" fill="#3e3b39"/>
    <path d="M277.45,238.72c-.33-.04-.86-.49-1.37-.31-.12-.81.15-.61.77-.62,1.12-.02,3.34.22,4.54.35.3.03,1.15.13,1.09.58-1.6-.14-3.46.19-5.03,0Z" fill="#3e3b39"/>
    <path d="M265.04,168.87c-1.07,1-5.17,1.05-6.63.98-.06-.43.84-.47,1.15-.52,1.95-.3,3.94-.13,5.71-1.3.14.12-.19.81-.22.84Z" fill="#3e3b39"/>
    <path d="M152.07,173.21v.3c-.73-.32-1.88.31-2.29.31h-5.94v-.3c.57.26,1.41-.31,1.68-.31h6.55Z" fill="#3e3b39"/>
    <path d="M231.9,168.03l-6.55,1.53h-.46c-.32-.25,2.32-1.53,2.59-1.53h4.42Z" fill="#3e3b39"/>
    <path d="M283.24,207.64c-.24.01-.89.28-1.51.32-.31.02-1.45.19-1.39-.32l5.65-.62,3.49.62c-2.07.07-4.17-.1-6.25,0Z" fill="#3e3b39"/>
    <path d="M264.11,233c2.01-.59,2.79,1.28.86,1.48-1.85.19-2.22-1.08-.86-1.48Z" fill="#3e3b39"/>
    <path d="M242.87,168.94c-1.52-1.27-.72-3.76-.91-5.48.56.12.56.6.62,1.05.16,1.38.18,3.02.29,4.43Z" fill="#3e3b39"/>
    <path d="M268.77,236.59c.28.25-1.98,3.46-2.74,1.67-.4-.94,2.01-1.62,2.74-1.67Z" fill="#3e3b39"/>
    <path d="M127.08,183.27c.15.93-.23.49-.74.62-1.26.32-3.06.73-3.83-.62h4.57Z" fill="#3e3b39"/>
    <path d="M273.95,220.14v.61h-5.48c-.02-.2.4-.61.46-.61h5.03Z" fill="#3e3b39"/>
    <path d="M252.01,170.77l-4.26-2.43c1.64-.11,3.79.65,4.26,2.43Z" fill="#3e3b39"/>
    <path d="M163.88,178.47c.07.04.05.47.28.53.49.12,1.59-.31,1.62.31l-5.18.31c-.37-1,3.12-1.23,3.28-1.14Z" fill="#3e3b39"/>
    <path d="M263.89,204.6c-.23-1.21,1.43-.39,2.03-.42.59-.02,1.14-.2,1.76-.21s1.97-.32,1.69.62h-5.48Z" fill="#3e3b39"/>
    <path d="M270.6,166.81c-.32.86-1.82.71-2.53.54-.25-.06-2.25-1.03-1.74-1.46.22-.19,3.51,1.25,4.26.92Z" fill="#3e3b39"/>
    <path d="M230.38,173.21c-1.53.38-5.28-.83-3.35-2.43-.12,2.01,2.46,1.2,3.35,2.43Z" fill="#3e3b39"/>
    <path d="M241.04,256.09v.61h-4.42c-.05,0-.48-.41-.46-.61h4.88Z" fill="#3e3b39"/>
    <path d="M145.67,184.79c.05.44-.8.55-1.09.58-1.33.15-2.75.11-4.09.33-.14-.93.23-.5.77-.59,1.45-.26,2.94-.39,4.41-.32Z" fill="#3e3b39"/>
    <path d="M237.69,257.92c.23.77-.66.75-1.14.82-.84.12-1.67.11-2.51.09-.23-.77.66-.75,1.14-.82.84-.12,1.67-.11,2.51-.09Z" fill="#3e3b39"/>
    <path d="M289.18,201.85l3.49-.62c.53.04,1.02.3,1.55.33.76.05,1.89-.83,1.66.29h-6.7Z" fill="#3e3b39"/>
    <path d="M327.58,207.03c.15.94-.24.48-.76.6-1.35.29-2.73.39-4.11.31-.08-.39.57-.49.83-.53,1.29-.2,2.73-.19,4.04-.38Z" fill="#3e3b39"/>
    <path d="M270.6,157.98c.12.14-.79,2.87-.92,3.5-.11.52.34.91-.6.76,0-.19.55-5.35,1.52-4.26Z" fill="#3e3b39"/>
    <path d="M271.51,165.9c-.77,1.02-.64-2.29-.62-2.6.03-.53-.05-1.82.62-1.97v4.57Z" fill="#3e3b39"/>
    <path d="M281.26,223.48c-1.22.09-2.45-.12-3.6-.53-.49-.18-.82.16-.67-.69,1.28.37,3.34.19,4.26,1.21Z" fill="#3e3b39"/>
    <path d="M319.65,203.99l3.49-.62c.64.15,1.93-.44,1.69.62h-5.18Z" fill="#3e3b39"/>
    <path d="M278.21,220.14c.02-.41,1.44-.57,1.72-.59.65-.04,1.15.32,1.46.3.27-.01-.12-.99,1-.39.37.2.5,0,.39.68h-4.57Z" fill="#3e3b39"/>
    <path d="M318.13,211c-.14.46-1.57.57-1.98.6-1.06.09-2.14-.05-3.19,0l3.96-.77,1.22.17Z" fill="#3e3b39"/>
    <path d="M255.06,165.9c.07.8.04.5-.46.6-.93.17-2.16.14-3.02.29-.39.07-.07.81-.18.94-1.95-1.3,2.58-2.12,3.66-1.83Z" fill="#3e3b39"/>
    <path d="M123.73,179.31c.48.37,0,.56-.45.61-1.04.12-2.16-.03-3.2.3-.17-.7.3-.73.83-.83.94-.17,1.88-.06,2.82-.08Z" fill="#3e3b39"/>
    <path d="M245.61,172.91c-.21.49-1.4.87-1.88,1.01-.49.14-.95.27-1.47.21-.26-.66,1.18-.99,1.52-1.06.62-.14,1.19-.23,1.83-.15Z" fill="#3e3b39"/>
    <path d="M265.72,198.2c.05.45-.82.45-1.15.52-1.01.19-2.09.25-3.11.39-.15-.94.24-.48.76-.6,1.14-.25,2.33-.39,3.5-.31Z" fill="#3e3b39"/>
    <polygon points="270.29 165.59 269.98 162.38 270.59 161.33 270.29 165.59" fill="#3e3b39"/>
    <path d="M261.45,167.11c-.79.15-.54-.15-.75-.61-.41-.88-.56-1.77-.47-2.74.44-.07.4.51.53.84.31.78.65,1.67.69,2.51Z" fill="#3e3b39"/>
    <path d="M242.87,157.97c-.65.17-.71-.27-.91-.74-1.12-2.55,1.27-1.14.91.74Z" fill="#3e3b39"/>
    <path d="M250.49,164.99c.67.61-2.33,1.43-2.59,1.52-.92-.02-.31-.35.07-.54.52-.27,1.38-.25,1.6-.98l-3.35,1.21,2.65-1.46c.29.01,1.55.19,1.61.25Z" fill="#3e3b39"/>
    <path d="M274.86,168.03c1.23.24,2.18-.65,3.35-.77-.86.76-2.86,2.35-3.35.77Z" fill="#3e3b39"/>
    <path d="M244.97,154.65c.17.11.38,1.45.33,1.8-1.29.17-1.7-2.69-.33-1.8Z" fill="#3e3b39"/>
    <path d="M276.69,165.59c.88.75-2.46,1.15-2.74.91-.21-1.13,2.03-.37,2.74-.91Z" fill="#3e3b39"/>
    <path d="M253.84,164.07c.15.92-.23.49-.74.61-.74.19-1.53.33-2.3.29.55-.76,2.17-.82,3.04-.91Z" fill="#3e3b39"/>
    <path d="M244.4,167.12c.95.56,1.12,2.05,1.37,3.04-.85-.77-1.47-1.86-1.37-3.04Z" fill="#3e3b39"/>
    <path d="M322.7,214.35c-.17.53-1.88.35-2.29.3-.44-.06-.94-.23-.45-.61l2.74.31Z" fill="#3e3b39"/>
    <path d="M352.26,175.96c-.04.43-1.36.53-1.71.57-.44.05-.89.07-1.33.04-1.06-.8,2.85-.64,3.04-.6Z" fill="#3e3b39"/>
    <path d="M284,167.12c.12.95-1.14,1.02-1.82,1.07.37-.86.92-.98,1.82-1.07Z" fill="#3e3b39"/>
    <path d="M234.03,175.35v.3s-1.83,0-1.83,0c-.25-1.17.95-.15,1.83-.3Z" fill="#3e3b39"/>
    <path d="M269.07,172.6c-.1.44-.49.7-.91.6v-.61s.91,0,.91,0Z" fill="#3e3b39"/>
    <path d="M267.85,171.38l-1.82,1.21c-.19-.81,1.35-.97,1.82-1.21Z" fill="#3e3b39"/>
    <path d="M279.13,166.51c.33.33-.27.94-.61.61-.33-.33.27-.94.61-.61Z" fill="#3e3b39"/>
    <path d="M280.35,167.73c.21.11-.18.52-.61.3-.21-.11.18-.52.61-.3Z" fill="#3e3b39"/>
    <path d="M264.96,171.38c.2.1.2.2,0,.3v-.3Z" fill="#3e3b39"/>
    <path d="M265.57,171.08c.2.1.2.2,0,.3v-.3Z" fill="#3e3b39"/>
    <path d="M245.76,166.2c.2.1.2.2,0,.3v-.3Z" fill="#3e3b39"/>
    <path d="M181.17,188.45c.2.1.2.2,0,.3v-.3Z" fill="#3e3b39"/>
    <path d="M258.56,175.34c.2.1.2.2,0,.3v-.3Z" fill="#3e3b39"/>
    <path d="M246.07,164.98c.2.1.2.2,0,.3v-.3Z" fill="#3e3b39"/>
    <path d="M246.68,164.68c.2.1.2.2,0,.3v-.3Z" fill="#3e3b39"/>
    <path d="M280.8,167.42c.2.1.2.2,0,.3v-.3Z" fill="#3e3b39"/>
    <path d="M130.13,207.95l-1.07,2.43c.92-1.08,1.8-.81,2.7-1.02.98-.22,2.68-.82,3.69-.82.13,0,.47,1.61.48-.29.55-.12.19.51.3.61.07.06,1.21-.99,1.83-.61l-.91,1.52c1.06-.18,1.88-.93,2.97-1.15.43-.09,1.19-.32.99.38-.35,1.2-4.13,4.37-2.13,1.08-.51-.39-2.9,1.65-3.83,1.81-2.27.38-1-1.21-1.51-1.2l-1.67,1.22-.15-1.21c-1.2,2.1-2.85.56-3.31.64-.54.09-1.16,1.64-2.02,1.49-.65-.75,1.96-3.73,2.59-4.27.34-.29.5-.73,1.07-.61ZM136.83,209.78c-.43-.22-.81.19-.61.3.43.22.81-.19.61-.3Z" fill="#3e3b39"/>
    <path d="M115.8,219.22c-.48-.42-1.3-.46-1.62-.99-.77-1.31-1.93-6.97-2.03-8.61-.31-5,1.5-10.06,1.52-15.08.53,0,.33,1.33.32,1.69-.04.85-.32,1.63-.33,2.41-.02,1.23.33,2.42.32,3.37-.03,2.34-.52,4.8-.3,7.31.29,3.33,1.87,6.58,2.12,9.91Z" fill="#3e3b39"/>
    <path d="M112.45,106.78c.37-.49.55,0,.61.45.59,4.66-.88,10.29-.31,15.09-.92.15-.49-.23-.61-.74-.37-1.5-.41-3.2-.61-4.74-.88.34-.07,3.37-1.22,2.59l.92-8.38c.52.02.65-.2.54.38-.17.9-.38,1.72-.23,2.66.5-.16.91-2.52.91-2.89v-4.42Z" fill="#3e3b39"/>
    <path d="M104.23,232.63c.2.54,1.55.75,2.06.83.86.14,1.73,0,2.59.16.31.06,1.08.18.83.68-3.16,1.69-6.3-.99-9.44-1.06-.12-2.05,1.42-.8,2.51-.96.76-.12,1.49-.97,2.15-1.23,1.28-.51,2.75-.55,3.87-1.46,1.02,1.41-3.58,2.82-4.57,3.05Z" fill="#3e3b39"/>
    <path d="M153.59,211.91c-1.38,1.45-3.85,1.7-5.48,2.89,1.96.85,3.12-.74,4.87-.76-.01,1.33-1.97.99-1.22,2.43-1.44.57-1.73-.96-2.39-1.06-.91-.15-3.29,1.42-2.49-.76-.35-.25-2.17,1.2-2.13.15.06-1.43,7.4-3.08,8.83-2.89Z" fill="#3e3b39"/>
    <path d="M152.67,244.51c.16,2.71.35,5.68,0,8.38-.05.42-.16.88-.61.45-.27-.25-.34-1.95-.31-2.44l-.91.91c-.5-2.5-2.34-4.55-3.05-7l1.34,1.24,2.31,4.54-1.52-4.87c.52-.1.78.26,1.05.62.49.66.41,1.75,1.08,2.12.11-1.12-.14-2.42,0-3.51.06-.44.24-.95.61-.45Z" fill="#3e3b39"/>
    <path d="M149.63,229.89c-.74.99-2.23,1.49-3.36,1.97-1.28.55-1.56.52-2.76,1.19-1.65.92-5.58.48-7.6.79,1.37-1.38,4.25-1,6.09-1.22l-1.22-1.21c3.34.58,5.77-.95,8.83-1.52Z" fill="#3e3b39"/>
    <path d="M81.68,241.77c.34,1.71-.66,1.07-1.8,1.71-1.81,1.02-3.44,2.85-5.36,3.78-.28-1.6,2.5-3.19,3.8-3.66-.15-.47-1.9-.59-2.13-.92-.17-.25.3-.91.46-.91h5.03Z" fill="#3e3b39"/>
    <path d="M112.76,127.96c.05-.66.27-1.92.38-2.67.04-.26.14-.92.53-.83-.11,3.39.15,6.83.02,10.22-.07,1.73-.18,4.05-.36,5.74-.03.31-.51,2.8-.87,2.32-.22-.5.3-1.14.3-1.37,0-4.3-.3-9.19,0-13.41Z" fill="#3e3b39"/>
    <path d="M132.86,227.45c.09.06.29,1.5.61,1.99.7,1.07,2.32.72,2.45,1.97-1.67.76-2.88-1.31-3.56-1.47-.61-.15-1.46.43-2.12.46-.99.04-2.71-.79-3.36-1.52-2.13-2.4,3.14.38,3.66.33,1.49-.15,1.25-2.43,2.32-1.75Z" fill="#3e3b39"/>
    <path d="M148.71,209.17c.17.87-.23.49-.66.69-.78.36-1.62.59-2.39.97-.42.21-1.35.64-1.51,1.08,1.86-.48,3.28-1.31,5.22-1.63.41-.07.99-.56.87.26-1.25.72-2.64,1.27-3.97,1.84-.35.15-.98.06-1.16.2-.16.13-.24,1.64-.82,1.77-1.27.28-.33-1.96-.46-2.13l-1.52.61c-.21-.8.31-.54.58-.79,1.73-1.65,3.52-2.32,5.82-2.87Z" fill="#3e3b39"/>
    <path d="M113.37,178.39c-.45.07-.42-.53-.51-.85-.87-3.04-.17-5.78-.08-8.73.08-2.7-.24-5.43.29-8.09,1.22-.19.3.77.3,1.07v16.61Z" fill="#3e3b39"/>
    <path d="M159.99,218.61c-1.41-.13-2.77.69-3.96,1.37l3.04-.15c.8.7-4.67,2.01-4.87,1.82-.54-.5,1.18-1.32,1.53-1.37,0-.16-2.11-.22-1.52-1.06.31-.44,5.92-2.8,5.79-.62Z" fill="#3e3b39"/>
    <path d="M190.77,241.77c.87.28.52-.54.61-.61.27-.22.68-.11.61.45-.07.49-1.59,3.53-1.82,3.21l.31-2.44c-.28.54-1.3,3.19-1.98,3.04-.78-.17-.35-3.02-.09-3.3.11-.12.61.06.87-.24.32-.36.41-1.57,1.05-1.94l.46,1.83Z" fill="#3e3b39"/>
    <path d="M126.47,209.78l-2.33,2.71c-.99.33-1.58-.72-2.4-.87-.96-.18-2.18.1-3.18-.01-1.01-.87,3.6-1.52,4.05-1.46.52.07,1.25.8,1.59.77s1.39-1.52,2.28-1.13Z" fill="#3e3b39"/>
    <path d="M154.74,214.43c.26.15-.38.63.95.35,1.79-.37-.58,1.27-.84,1.59-.63.79-1.47,3.08-2.33,2.84-.37-.1-.48-2.6-.42-2.82.12-.49,1.97-2.34,2.64-1.96ZM154.35,215.56v.3c.2-.1.2-.2,0-.3Z" fill="#3e3b39"/>
    <path d="M118.25,233.54l.3-2.44c1.15.31.13,2.05.91,2.44.07-.53.54-3.6,1.53-2.74.16.14-.76,4.11-.92,4.26-.39.4-1.03-.98-1.37-.91-.29-.05.11,1.5-.77.77-.64-.53-1.94-3.74-.61-4.12l.92,2.74Z" fill="#3e3b39"/>
    <path d="M87.47,235.07c-.23,1.16-6.72,3.31-7.01,3.04.09-1.05,1.68-1.77,2.53-2.19,1.38-.68,2.95-1.38,4.47-.85Z" fill="#3e3b39"/>
    <path d="M114.28,121.1c-.44.05-.55-.8-.58-1.09-.18-1.71-.05-4.36.29-6.06.24-1.22,1.07-.98,1.22.28.27,2.28-.8,4.6-.93,6.87Z" fill="#3e3b39"/>
    <path d="M112.45,239.33c-.38,1.69,1.54.3,2.89.3.62,0,.89-.18.77.62-1.05-.2-6.01,2.24-6.4,1.83-.75-.8,1.88-2.91,2.74-2.74Z" fill="#3e3b39"/>
    <path d="M132.87,235.37l.31.91c-.76.18-4.84-.66-3.96-1.83.92.21,5.49-1.14,5.18.45l-1.52.46Z" fill="#3e3b39"/>
    <path d="M138.27,213.22c.16.1.2.68.52.73.35.05,1.17-.41,1.7-.21.25,1.09-2.33,1.05-2.83.92-.34-.09-.21-.78-.96-.93-.6-.11-3.38.15-3.52,0-.45-1.02,1.09-1.21,2-1.23.91-.02,2.32.25,3.1.71Z" fill="#3e3b39"/>
    <path d="M88.08,236.9c.05.06.05.94-.07,1.15-.27.5-5.1,2.26-6.03,1.89-.12-.67.44-.82.9-1.08.41-.23,5.01-2.17,5.19-1.96Z" fill="#3e3b39"/>
    <path d="M142.62,217.7c-.08.08-1.75-.05-2.25.03-1.17.19-2.33.66-3.54.75-.53.04-.79.33-1.22-.33-.13-.62.64-.69,1.01-.81,1.78-.58,3.71-.41,5.51-.83.45.09.65,1.02.48,1.19Z" fill="#3e3b39"/>
    <path d="M91.43,245.12c-1.09.23-1.95.89-3.05.76.92-.75,4.7-3.58,5.63-3.52.11,0,.05,1,1.67.17-1.15,1.03-2.54,1.97-3.96,2.59,0-.09-.12-.19-.15-.3-.06,0-.09.29-.15.3Z" fill="#3e3b39"/>
    <path d="M91.43,245.12c.1,0,.3.02.3,0-.09.04-.11.3-.3,0Z" fill="#3e3b39"/>
    <path d="M98.44,250c.28.28-1.24,2.43-1.45,2.96-.34.85-.71,3.21-.95,3.56-.19.26-.86.25-.94.18-.35-.34.54-3.55.85-4.18.2-.4,2.05-2.98,2.5-2.53Z" fill="#3e3b39"/>
    <path d="M131.34,238.42c-1,.88-5.06-1.95-5.18-3.35.64-.54,3.98,1.7,4.57,2.28.33.32.71.53.6,1.07Z" fill="#3e3b39"/>
    <path d="M127.69,240.24c-1.19-.09-2.04-1.05-3.23-1.19-.81-.1-3.75.74-3.47-.48.38-1.64,6.53-.44,6.7,1.67Z" fill="#3e3b39"/>
    <path d="M153.59,224.1c-.09-.27-.31-.82-.26-1.03.26-1,4.71-1.64,5.74-1.4.06,1.24-1.32.78-2.14,1.06-.99.34-2.42.92-3.35,1.38.04.13-.11.47.03.57.08.06,2.12.13,1.49.95-.2.26-5.28,2.15-6.09,2.44.11-1.37,1.95-1.33,2.86-2.17.82-.76.33-1.13,1.71-1.79Z" fill="#3e3b39"/>
    <path d="M212.09,243.9c.11-.21.86-1.29,1.22-.76-.82,2.61-1.67,5.3-1.53,8.07-1.45,1.66-.38-5.08-.3-5.48.53-.24.2-.62.3-.91.08-.22.28-.87.3-.91Z" fill="#3e3b39"/>
    <path d="M212.09,243.9c-.08.28-.2.46-.3.91-.05.19-.21.43-.3.91-.39.18-.67.09-.6-.44.23-1.86,1.37-4.94,2.73-6.26.13,1.47-1.01,2.57-1.45,3.89-.12.35,0,.76-.07.99Z" fill="#3e3b39"/>
    <path d="M130.73,248.78c.14.14.3,1.49,1.07,1.83l.45-.91,1.22,6.09c-.79.82-1.84-3.59-1.98-3.96-.07-.17-2.28-4.56-.77-3.05Z" fill="#3e3b39"/>
    <path d="M83.51,243.9c-1.1.32-5.83,3.87-6.4,3.35-.11-.53.28-.75.6-1.07,1.02-.99,4.24-2.82,5.64-2.89.26-.01.18.42.16.61.84-.25,3.56-.79,2.7.57-.12.2-4.06,2.03-4.22,1.87-.67-.65,1.39-1.41,1.52-2.44Z" fill="#3e3b39"/>
    <path d="M128.15,225.92c-.08-.02-.6-.45-.31-.61.26-.37,5.4-.62,6.4-.92.63.59-.2.52-.45.85-.11.14.03.68,0,.68-1.36,0-4.58.26-5.64,0Z" fill="#3e3b39"/>
    <path d="M122.66,214.65c-.13.03-.4.49-.61.6-.26-.15-.65-.69-.46-.91.57-.63,7.02-.67,8.22-.61.37.64-1.26.91-1.37.91-1.43,0-4.65-.27-5.79,0Z" fill="#3e3b39"/>
    <path d="M107.58,236.59c.83-.19,5.44.11,5.18,1.37-.28,1.32-6.11-.55-5.18-1.37Z" fill="#3e3b39"/>
    <path d="M163.96,232.02l1.21-.91c.12.65-.64,3.22-1.37,3.04-.55-.13-.19-1.27-.76-1.22l-.92,1.52c-.11-1.16.95-4.97,1.83-2.44Z" fill="#3e3b39"/>
    <path d="M104.53,239.94c.39,1.01-2.16,5.14-3.04,4.26-.41-.41,1.66-4.69,3.04-4.26Z" fill="#3e3b39"/>
    <path d="M144.14,222.27c.58-1.18,6.22-1.41,6.7-.91.39.4-.56.91-.76.91h-5.94Z" fill="#3e3b39"/>
    <path d="M139.88,227.14c.34,1.58-.74.42-1.22,1.21,4.02-.03,3.58,2.83-.22.71-.34-.19-1.99-1.82-1.13-1.93h2.57Z" fill="#3e3b39"/>
    <path d="M100.57,240.86l-4.26,4.12c-.27.39-.87-.1-.92-.31-.13-.63,4.01-4.25,5.18-3.8Z" fill="#3e3b39"/>
    <path d="M135.27,220.17c.58.93-.31.91-1.03.88-1.51-.06-2.65-.87-4.11-1.07.46-1.54,4.81-.34,5.14.19Z" fill="#3e3b39"/>
    <path d="M120.07,241.77c-.74.71-2.8-2.16-2.97-2.96-.24-1.07-.05-1.96.99-.99.17.16,2.19,3.75,1.98,3.95Z" fill="#3e3b39"/>
    <path d="M114.28,243.91c.84,1.1-4.33,1.75-4.57,1.52-1.19-1.16,3.84-2.48,4.57-1.52Z" fill="#3e3b39"/>
    <path d="M147.8,223.79c-.36.48-4.99,1.09-5.18.15-.12-.6.37-.57.75-.65.42-.09,5.44-.85,4.43.5Z" fill="#3e3b39"/>
    <path d="M98.43,255.18s-.87.03-.91,0c-.68-.65,1.42-5.22,2.74-5.48l-1.83,5.48Z" fill="#3e3b39"/>
    <path d="M177.56,259.24c-.26-.2-2.59-1.43-2.03-1.93,1.16-.68,5.5,2.51,3.5,3.04-.97.26-1.09-.82-1.47-1.12Z" fill="#3e3b39"/>
    <path d="M126.47,216.48l.38-.69c1.45.1,5.42-1.35,5.72.38-.48-.2-1.14.31-1.37.31h-4.72Z" fill="#3e3b39"/>
    <polygon points="96.3 238.42 95.92 239.86 90.82 241.46 92.07 240.12 96.3 238.42" fill="#3e3b39"/>
    <path d="M106.97,240.55c-.22,1.25.17,1.97.61,3.04-1.34.17-1.64-.39-1.98-1.52-2.41,4-1.16-1.37,1.37-1.52Z" fill="#3e3b39"/>
    <path d="M195.94,239.03c.36.41-1.87,3.99-2.3,4.55-.33.42-.73,1.01-1.35.93-.28-.29,2.28-4.29,2.67-4.79.29-.36.35-.83.98-.69Z" fill="#3e3b39"/>
    <path d="M187.72,218.3c-.25-.17-1.16-3.75-.15-3.96,1.19-.25,2.08,5.23.15,3.96Z" fill="#3e3b39"/>
    <path d="M137.44,245.12c.16.18-1.06,4.21-1.29,4.65-.67,1.29-1.77.17-1.45-.99l.91.31c-.07-.44,1.13-4.76,1.83-3.96Z" fill="#3e3b39"/>
    <rect x="111.24" y="131.47" width=".61" height="8.23" fill="#3e3b39"/>
    <path d="M225.19,225.32c-.5,1.47-1.98,2.13-1.52,3.96-1.45.07-1.53-1.5-2.13-2.43l1.52.6c.26-.99,1-2.11,2.14-2.13Z" fill="#3e3b39"/>
    <path d="M210.57,242.08c-.04,1.29-.44,2.54-.6,3.81-.04.32.25,3.49-.61,2.59-.61-.64.09-4.86.47-5.79.2-.48-.04-.75.74-.61Z" fill="#3e3b39"/>
    <path d="M128.6,231.41c.07.07.03.7-.13.93-.6.82-4.42-.37-4.43-.78-.01-.67,4.4-.31,4.56-.15Z" fill="#3e3b39"/>
    <path d="M222.15,241.46c.37-.29.78-.52,1.07-.91.37,1.07-2.59,6.52-2.29,3.05.13-.31.28-.87.3-.91.1-.18.28-.58.3-.61.11-.15.46.42.61-.61Z" fill="#3e3b39"/>
    <path d="M220.93,243.6c-.25.6-.92,1.08-.61,2.14-1.98.49-.27-3.13.36-4.06.51-.76,1.73-2.01,1.47-.2-.06.05-.4-.09-.55.06s-.01.47-.06.55c-.13.22-.23.34-.3.61-.08.27-.25.32-.3.91Z" fill="#3e3b39"/>
    <path d="M108.49,255.48c-.56,1.09-1.16,3.88-1.8,4.68-.23.28-.86.26-.93.19-.24-.22.84-2.87,1.1-3.32.28-.49.96-1.59,1.64-1.56Z" fill="#3e3b39"/>
    <path d="M106.05,255.48c.19.23-1.2,3.87-1.48,4.47-.24.51-.17,1.21-.95,1.01-.05-1.58.82-3.6,1.64-4.91.12-.19.37-1.09.79-.57Z" fill="#3e3b39"/>
    <path d="M176.29,240.25c.2,1.54-3.66,3.4-4.11,1.97-.54-1.71,3.42-.54,4.11-1.97Z" fill="#3e3b39"/>
    <path d="M214.83,242.69c.18.2-1.25,4.54-1.44,5.12-.16.52.13.8-.69.66-.09-1.35.18-2.79.68-4.04.09-.23.93-2.31,1.45-1.74Z" fill="#3e3b39"/>
    <path d="M153.29,247.56c.37-.5.55,0,.61.45.27,2.14.15,4.72,0,6.86-.31.13-.61-.71-.61-.76v-6.55Z" fill="#3e3b39"/>
    <path d="M140.49,225.31c-1.47.06-2.97-.05-4.41-.31-.39-.07-.99-.1-.46-.6.41-.38,5.02-.75,4.87.91Z" fill="#3e3b39"/>
    <path d="M103.62,235.68c.14,1.91-2.91,1.83-3.96.76l2.32-.72,1.64-.04Z" fill="#3e3b39"/>
    <path d="M115.5,96.12c-.3.3-.63.07-.61-.45.08-1.43.83-3.67,1.38-5.02.15-.36.31-1.22.75-1.23-.33.92-1.28,6.46-1.52,6.7Z" fill="#3e3b39"/>
    <path d="M85.64,257.61c-.45.55-.67-.43-.78-.58-.88-1.18-2.1-2.8-1.95-4.3.74.44,3.15,4.37,2.74,4.87Z" fill="#3e3b39"/>
    <path d="M194.42,249.69c-.19.2-2.78-.68-3.07-1.04-1.91-2.37,4.07,0,3.07,1.04Z" fill="#3e3b39"/>
    <path d="M145.97,227.75c-.23,1.62-3.1,2.12-3.96.76l3.96-.76Z" fill="#3e3b39"/>
    <path d="M165.48,217.09l.91-.31c-.02.26-.27,2.07-.91,1.52-.8-1.62-1.6-3.3-1.53-5.18l1.23,2.58.29,1.39Z" fill="#3e3b39"/>
    <path d="M138.65,198.81c.08.07.09.78.28,1.03.07.09,1.59.81,1.83,1.14.24.34-1.28,3.14-1.5-.03l-.6.31c-.03-.14-1.1-3.38,0-2.44Z" fill="#3e3b39"/>
    <path d="M144.45,209.16l.46.31-3.81,2.59c.72-1.66,2.14-3.08,3.81-3.81l-.46.9Z" fill="#3e3b39"/>
    <path d="M177.36,244.81c-.19.19-3.25-.33-3.04-1.37.21-1.06,3.98.42,3.04,1.37Z" fill="#3e3b39"/>
    <path d="M139.27,244.51c.26.55-1.12,4.74-1.83,3.96-.17-.45,1.08-4.81,1.83-3.96Z" fill="#3e3b39"/>
    <path d="M115.5,197.89h-.61v-6.7h.3c-.26.57.31,1.41.31,1.68v5.03Z" fill="#3e3b39"/>
    <path d="M230.68,224.1c.16.16-1.59,2.6-1.83,2.89-2.49,2.81-.12-2.91,1.83-2.89Z" fill="#3e3b39"/>
    <path d="M201.73,214.65c.13.13-1.17,2.99-1.37,3.36-.23.43.02.75-.76.59-.17-1.3.57-2.44,1.18-3.53.25-.45.58-.78.95-.43Z" fill="#3e3b39"/>
    <path d="M127.99,219.53c.56.41-.14.53-.43.64-1.34.52-2.44-.23-3.84-.04-.09-.61-.05-.5.38-.69.48-.21,3.73-.04,3.89.08Z" fill="#3e3b39"/>
    <path d="M232.2,225.01c.38.36-1.78,3.16-2.74,2.74-.38-.36,1.78-3.16,2.74-2.74Z" fill="#3e3b39"/>
    <path d="M203.56,214.65c-.08,1.1-.92,3.06-2.13,3.35-.14-1.2.93-2.96,2.13-3.35Z" fill="#3e3b39"/>
    <path d="M90.21,252.43c-.25.63.76,3.83.61,3.96-.17.15-.86.01-1.07-.3-.25-.36-.22-2.62-.15-3.21.05-.42.23-.96.61-.45Z" fill="#3e3b39"/>
    <path d="M122.18,233.52c-.1.06-.87.14-.88-.12.66-1.22.3-3.23,1.52-4.12.07.62-.39,4.1-.63,4.24Z" fill="#3e3b39"/>
    <path d="M170.65,222.27c.19.18,1.42,3.64,1.53,4.26-.81.17-.52-.21-.76-.6-.47-.79-1.27-2.36-1.36-3.22-.07-.58.36-.66.59-.44Z" fill="#3e3b39"/>
    <path d="M156.94,204.6l-2.74-2.44c1.71-.16,3.06.55,2.74,2.44Z" fill="#3e3b39"/>
    <path d="M206.91,211.3c-.33.06-3.46.11-3.04-.76.62-1.26,3.75.14,3.04.76Z" fill="#3e3b39"/>
    <path d="M117.02,235.06c-.87.84-2.66-2.51-2.13-3.35l1.52,1.98c.17.28.84,1.15.6,1.37Z" fill="#3e3b39"/>
    <path d="M167,228.97c-.13,1.05-.22,2.3-.52,3.3-.16.53.11.79-.7.66-.07-1.2-.04-2.25.47-3.35.21-.46-.05-.75.75-.61Z" fill="#3e3b39"/>
    <path d="M168.83,212.82c-.25-1.82.9-1.93,2.13-2.74.62.85-1.81,3.12-2.13,2.74Z" fill="#3e3b39"/>
    <path d="M175.83,228.06c-.91.16-.48-.24-.64-.71-.38-1.13-.74-2.36-.88-3.55.82-.93,1.63,3.87,1.52,4.26Z" fill="#3e3b39"/>
    <path d="M87.77,238.73c.12-.15,3.04-1.16,2.74.14-.26,1.11-3.54.86-2.74-.14Z" fill="#3e3b39"/>
    <path d="M134.09,250.6c-.46.56-.65-.39-.75-.6-.45-1.01-.6-2.26-.77-3.35.77-.87,1.66,3.79,1.52,3.96Z" fill="#3e3b39"/>
    <path d="M236.16,226.84c.26.28-1.09,2.12-1.35,2.47s0,.76-.78.58c-.63-.82,1.68-3.52,2.13-3.04Z" fill="#3e3b39"/>
    <path d="M132.87,221.66c.02.45-1.08.53-1.4.57-1.14.14-2.66.45-2.86-.87l4.26.3Z" fill="#3e3b39"/>
    <path d="M138.35,202.46c-.7.8-1.79-2.86-1.52-3.35.79.12,1.82,3.01,1.52,3.35Z" fill="#3e3b39"/>
    <path d="M189.85,257.01c-.35,1.18-.76,3-1.82,3.65-.08-.85.23-1.59.56-2.34.18-.4.63-1.51,1.27-1.32Z" fill="#3e3b39"/>
    <path d="M238.6,215.57c.21.22-1.22,3.72-1.83,3.04-.25-.28.73-3.33,1.83-3.04Z" fill="#3e3b39"/>
    <path d="M214.23,207.03c.09-.1,2.6.24,2.43,1.06-.25,1.22-3.28-.17-2.43-1.06Z" fill="#3e3b39"/>
    <path d="M206.91,234.15c.24.22-1.53,2.76-2.13,2.13-.67-.7,1.12-2.51,2.13-2.13Z" fill="#3e3b39"/>
    <path d="M140.18,218.92c.15-.68,1.44-.59,1.97-.62.61-.03,2.93-.35,2.6.62h-4.57Z" fill="#3e3b39"/>
    <path d="M181.89,204.94c.12.09,1.3,2.28,1.26,2.7-.5.53-2-1.86-2.12-2.3-.18-.63.63-.58.87-.41Z" fill="#3e3b39"/>
    <path d="M234.34,216.48c-.04,2.85-3.35,4.88-.76.6.23-.38-.06-.77.76-.6Z" fill="#3e3b39"/>
    <path d="M192.59,213.13c.13.12-.68,3.32-1.52,3.04.04-.68.31-2.32.6-2.84.19-.35.86-.26.92-.2Z" fill="#3e3b39"/>
    <path d="M172.78,222.88l.91,3.96c-.62-.47-1.28-1.95-1.45-2.66-.14-.59-.38-1.53.53-1.3Z" fill="#3e3b39"/>
    <path d="M206.3,226.84c.2.18-.67,1.68-.61,2.13-2.49-.53-.22-2.86.61-2.13Z" fill="#3e3b39"/>
    <path d="M167.91,214.35l-.15,3.65c-.71-.86-.83-1.97-.55-2.99.15-.55-.08-.8.7-.66Z" fill="#3e3b39"/>
    <path d="M125.56,228.67c-1.14-.03-2.51.37-3.05-.91,1.01.13,3.01-.56,3.05.91Z" fill="#3e3b39"/>
    <path d="M94.78,235.37c.3.92-2.33,1.63-2.43,1.52-.78-.83,1.71-1.94,2.43-1.52Z" fill="#3e3b39"/>
    <path d="M170.65,226.53c-1.03-.73-1.86-2.4-2.13-3.66,1.07.8,2.04,2.31,2.13,3.66Z" fill="#3e3b39"/>
    <path d="M190.76,214.04c-.23.58.53,2.68-.45,2.74-.75-.64-.83-2.79.45-2.74Z" fill="#3e3b39"/>
    <path d="M196.25,241.16c.17.2-1.01,3.01-1.37,3.04-.92-.58.17-1.88.58-2.47.26-.36,0-.75.79-.57Z" fill="#3e3b39"/>
    <path d="M92.95,233.85c.7.71-1.41,1.9-2.13,1.52-.26-.84,1.81-1.85,2.13-1.52Z" fill="#3e3b39"/>
    <path d="M238.3,226.84c.15.14-.67,1.73-.83,2.07-.2.41.19.84-.69.67-.32-.6.62-3.58,1.52-2.74Z" fill="#3e3b39"/>
    <path d="M184.97,208.25c-.65-.2-1.46-2.76-1.21-3.05.69-.81,1.59,2.62,1.21,3.05Z" fill="#3e3b39"/>
    <path d="M215.44,218c-.01,1.93-3.3,1.26-1.95.28.26-.19,1.81-.4,1.95-.28Z" fill="#3e3b39"/>
    <path d="M227.02,225.62c.23.24-1.72,2.89-2.13,2.43-.41-.74,1.81-2.76,2.13-2.43Z" fill="#3e3b39"/>
    <path d="M99.66,234.76c.7.71-1.73,2.09-2.13,1.06-.24-.62,1.89-1.3,2.13-1.06Z" fill="#3e3b39"/>
    <path d="M167.91,225.31c-.91.1-1.29-1.8-1.52-2.43.51-.54,1.78,1.91,1.52,2.43Z" fill="#3e3b39"/>
    <path d="M112.15,230.5c.53.47-1.88,1.76-2.13,1.52-.25-.84,1.77-1.84,2.13-1.52Z" fill="#3e3b39"/>
    <path d="M169.74,236.29c.23.89-1.63,1.44-1.83,1.22-.75-.83,1.31-1.46,1.83-1.22Z" fill="#3e3b39"/>
    <path d="M110.62,111.05l-.91,3.35c-.08-.91.02-1.77.26-2.64.14-.52-.22-.85.65-.7Z" fill="#3e3b39"/>
    <rect x="109.41" y="146.7" width=".3" height="1.52" fill="#3e3b39"/>
    <path d="M123.73,69.3c-.11.21-.52-.18-.3-.61.11-.21.52.18.3.61Z" fill="#3e3b39"/>
    <path d="M96.15,242.07c.2.1.2.2,0,.3v-.3Z" fill="#3e3b39"/>
    <path d="M231.75,208.86c.2.1.2.2,0,.3v-.3Z" fill="#3e3b39"/>
    <path d="M168.06,225.62c.2.1.2.2,0,.3v-.3Z" fill="#3e3b39"/>
    <path d="M91.43,215.87c-.24.75.29,1.7-.77,1.84-.35.05-6.01-.72-6.24-.93-.52-.49.07-.52.46-.6,2.39-.44,4.24.06,6.54-.31Z" fill="#3e3b39"/>
    <path d="M90.52,214.35c.14-.13,3.37-.35,3.79-.29,1.46.21,3.22,1.8.79,1.67-.83-.04-4.19-.11-4.44-.45-.17-.23-.2-.87-.14-.93Z" fill="#3e3b39"/>
    <path d="M79.24,219.53c.21-.99,1.81-.4,2.1-.65.12-.1.03-.65.19-.86.4-.55,3.72-.1,4.42.45.13.79-1.02.36-1.61.52-.34.09-.63.54-.68.54h-4.42Z" fill="#3e3b39"/>
    <path d="M80.15,221.66l-5.48-.45c1.31-.89,5.03-1.52,5.48.45Z" fill="#3e3b39"/>
    <path d="M78.02,221.97c-.37,1.06-4.87.72-4.87.15,0-.91,4.16-.26,4.87-.15Z" fill="#3e3b39"/>
    <path d="M90.51,202.46c.18.2-1.32,3.83-2.13,3.04-.54-.53,1.1-3.18,2.13-3.04Z" fill="#3e3b39"/>
    <path d="M87.77,220.14l-2.19,1.01c-.47,0-2.58.6-2.69.51-.57-.47.4-.65.61-.75,1.32-.62,2.8-.91,4.27-.77Z" fill="#3e3b39"/>
    <path d="M92.04,208.56c-.02.86.04,1.73,0,2.59-.02.47.29,1.21-.45,1.06-.81-.74-.49-2.1-.24-2.99.15-.54-.1-.79.69-.66Z" fill="#3e3b39"/>
    <path d="M80.46,213.13c-.65-.09-1.63-1.32-1.99-1.81-1.91-2.63,2.47.02,1.99,1.81Z" fill="#3e3b39"/>
    <path d="M82.59,211.91l-.91-.31-.45.91c-1.77-2.71.34-3.33,1.36-.61Z" fill="#3e3b39"/>
    <path d="M90.21,212.52c-.07.06-.66-.04-.91,0v-3.35c.6.13,1.04,3.23.91,3.35Z" fill="#3e3b39"/>
    <path d="M95.39,206.42c.09.09-.24,2.19-.31,2.59-.09.5.2.53-.6.46v-3.05c.25.04.85-.06.91,0Z" fill="#3e3b39"/>
    <path d="M87.16,213.43c-.54.61-1.88-2.18-1.52-2.74.52.2,1.79,2.44,1.52,2.74Z" fill="#3e3b39"/>
    <path d="M93.26,209.77c-.74.97-.95-2.82-.15-3.04l.15,3.04Z" fill="#3e3b39"/>
    <path d="M81.37,204.9l-.15,2.43c-.81-.27-.54-3.34.15-2.43Z" fill="#3e3b39"/>
    <path d="M80.15,193.02c-.25.45-1.56.72-2.06.83-.5.11-3.25.56-3.42.39.17-2.02,1.13-1.24,2.29-1.22,1.06.02,2.13-.01,3.19,0Z" fill="#3e3b39"/>
    <path d="M100.87,193.02c.14.87-.18.51-.7.65-1.51.41-3.21.23-4.78.57-.14-.87.18-.51.7-.65,1.47-.4,3.24-.33,4.78-.57Z" fill="#3e3b39"/>
    <path d="M99.05,191.5c0,.49-1.04.49-1.42.56-1.42.27-2.92.4-4.37.35-.07-.44.54-.42.85-.51,1.61-.46,3.27-.44,4.93-.4Z" fill="#3e3b39"/>
    <path d="M99.05,186.62c1.06.81-2.85.64-3.05.6.52-1.06,2.1-.47,3.05-.6Z" fill="#3e3b39"/>
    <path d="M113.37,63.82l.62,5.32c-.15.64.44,1.93-.62,1.69v-7.01Z" fill="#3e3b39"/>
    <rect x="113.37" y="71.44" width=".61" height="1.22" fill="#3e3b39"/>
    <path d="M145.82,35.48c.2.1.2.2,0,.3v-.3Z" fill="#3e3b39"/>
    <path d="M233.12,183.27v1.22c-.97-.26-1.81-.03-1.53-1.22h1.53Z" fill="#3e3b39"/>
    <path d="M310.21,183.87c-.11.21-.52-.18-.3-.61.11-.21.52.18.3.61Z" fill="#3e3b39"/>
    <path d="M253.23,186.62c-.11.21-.52-.18-.3-.61.11-.21.52.18.3.61Z" fill="#3e3b39"/>
    <path d="M207.52,181.44c.21.11-.18.52-.61.3-.21-.11.18-.52.61-.3Z" fill="#3e3b39"/>
    <path d="M200.51,180.83c.21.11-.18.52-.61.3-.21-.11.18-.52.61-.3Z" fill="#3e3b39"/>
    <path d="M230.68,185.4c-.11.21-.52-.18-.3-.61.11-.21.52.18.3.61Z" fill="#3e3b39"/>
    <path d="M242.41,185.7c.2.1.2.2,0,.3v-.3Z" fill="#3e3b39"/>
    <path d="M305.49,186.01c.2.1.2.2,0,.3v-.3Z" fill="#3e3b39"/>
    <path d="M230.07,187.23l.3.61c.04-1.47,1.02-.18.92.61h-1.83s.61-1.22.61-1.22Z" fill="#3e3b39"/>
    <path d="M244.54,188.75c.2.1.2.2,0,.3v-.3Z" fill="#3e3b39"/>
    <path d="M239.06,189.66c.2.1.2.2,0,.3v-.3Z" fill="#3e3b39"/>
    <path d="M231.59,250.3c.9.97-4.46,4.05-4.87,3.65-.78-1.54,4.65-3.89,4.87-3.65Z" fill="#3e3b39"/>
    <path d="M236.16,247.86c-.05,1.27-1.73,1.54-2.74,1.52-.15-.81.17-.53.61-.74.31-.15,2.02-.88,2.13-.78Z" fill="#3e3b39"/>
    <path d="M236.62,247.56c.2.1.2.2,0,.3v-.3Z" fill="#3e3b39"/>
    <path d="M254.14,231.1c-.05,1.38-1.21,2.4-2.29,3.04.3-1.11,1.42-2.28,2.29-3.04Z" fill="#3e3b39"/>
    <path d="M240.73,97.04c.32.34-.79,1.24-1.07,1.52.14-.5.58-2.04,1.07-1.52Z" fill="#3e3b39"/>
    <path d="M104.08,175.95c.2.1.2.2,0,.3v-.3Z" fill="#3e3b39"/>
  </g>
</svg>