<?xml version="1.0" encoding="UTF-8"?>
<svg id="Capa_1" xmlns="http://www.w3.org/2000/svg" version="1.1" viewBox="0 0 530.71 228.43">
  <!-- Generator: Adobe Illustrator 30.3.0, SVG Export Plug-In . SVG Version: 2.1.3 Build 182)  -->
  <path d="M76.17,214.39c-3.32,0-6.12-.27-8.54-.82-.83-.19-2.7-.74-4.5-2.2-6.93-2.29-13.28-5.34-19.44-8.31-3.31-1.59-6.44-3.1-9.65-4.49-.34-.14-1.6-.58-2.53-.9-6.15-2.15-9.24-3.23-11.57-6.37-.74-1-1.25-2-1.61-2.92-1.49-1.92-2.17-4.15-2.26-6.09-.12-2.52.33-5.2.77-7.8.2-1.21.48-2.86.5-3.52.36-11.24.3-23.06.25-34.48-.03-6.37-.06-12.96-.02-19.37.06-8.72-.19-17.58-.44-26.16-.14-4.88-.28-9.86-.37-14.88-3.38-1.34-5.19-3.65-6.09-5.23-1.06-1.87-3.11-6.9.67-13.2.97-1.61,2.35-2.94,4.01-3.84,6.08-3.31,11.6-7.9,17.45-12.76,2.97-2.47,6.05-5.03,9.26-7.46,3.97-3.01,6.47-4,9.32-4.99.76-.26,1.42-.49,2.25-.84.84-.55,2.76-2.28,3.93-3.33,3.52-3.16,6.85-6.15,10.79-7.37,2.04-.64,4.53-1,6.83-1,1.72,0,3.32.2,4.76.61,1.52-.69,3.36-1.18,5.53-1.18.67,0,1.36.05,2.03.15.9.13,1.72.35,2.46.62,2.02-1.02,4.08-1.34,5.78-1.37h.25c2.48,0,4.6.61,6.32,1.37,1.78-.82,3.74-1.23,5.87-1.23.19,0,.39,0,.59.01,2.67.1,4.81.85,6.46,1.71,1.63-.74,3.68-1.28,6.21-1.28h0c2.34,0,4.29.49,5.88,1.17,1.21-.36,2.6-.6,4.17-.6,1.99,0,4.04.4,6.08,1.19,1.4-.39,2.84-.59,4.26-.59,1.67,0,3.15.27,4.43.65,1.82-.8,3.72-1.2,5.65-1.2s3.71.42,5.14.99c1.6-.83,3.62-1.5,6.02-1.5,2.27,0,4.19.57,5.77,1.34.96-.34,2.04-.61,3.24-.72.43-.04.88-.06,1.31-.06,2.62,0,4.71.74,6.18,1.42,1.21-.45,2.71-.82,4.45-.82.35,0,.71.01,1.06.04.82.07,1.58.22,2.29.42,1.37-.57,3.01-.99,4.91-1,2.74,0,5.02.82,6.81,1.81,1.35-.39,2.92-.68,4.65-.68.45,0,.91.02,1.35.06,1.4.13,2.62.45,3.67.85,1.05-.4,2.26-.71,3.65-.84.55-.05,1.1-.08,1.63-.08,2.12,0,3.9.42,5.34.98,1.44-.54,3.23-.97,5.38-.97.48,0,.97.02,1.45.07.93.08,1.78.25,2.56.47,2.05-.74,4.07-1.11,6.01-1.11s3.49.33,4.88.83c.96-.35,2.02-.62,3.2-.74.53-.06,1.06-.08,1.59-.08,1.87,0,3.5.36,4.85.84,1.27-.44,2.78-.79,4.49-.79.23,0,.46,0,.68.02,2.28.12,4.15.84,5.65,1.73,1.41-.35,2.83-.58,4.29-.58.03,0,.08,0,.11,0,1.46.01,2.78.24,3.9.52,1.78-.93,4.16-1.77,7.08-1.77.17,0,.34,0,.51,0,1.89.06,3.47.57,4.76,1.24,1.65-.48,3.29-.73,4.9-.73,1.68,0,3.18.27,4.47.66,1.57-.67,3.49-1.17,5.77-1.17,1.52,0,3.07.23,4.62.7.15-.05.3-.09.45-.13,1.42-.39,2.84-.58,4.22-.58,1.55,0,2.93.24,4.12.58,1.44-.66,3.22-1.16,5.32-1.19.05,0,.14,0,.19,0,2.46,0,4.48.65,5.99,1.36,1.37-.42,3.12-.81,5.21-.81,1.09,0,2.19.11,3.28.32.54.11,1.07.25,1.58.42.55-.16,1.12-.29,1.71-.38.7-.11,1.41-.16,2.11-.16,2.57,0,4.73.7,6.4,1.48,1.24-.46,2.75-.84,4.49-.9.16,0,.32,0,.48,0,1.76,0,3.29.33,4.57.77,1.47-.66,3.32-1.29,5.51-1.35.13,0,.26,0,.38,0,2.55,0,4.66.69,6.28,1.49,1.26-.46,2.78-.84,4.52-.9.16,0,.33,0,.5,0,2.27,0,4.21.54,5.78,1.22,1.2-.37,2.61-.64,4.22-.64.41,0,.83.02,1.24.05,1.76.15,3.3.64,4.58,1.22,1.2-.38,2.59-.64,4.18-.69.18,0,.37,0,.55,0,1.77,0,3.28.28,4.51.64,1.07-.32,2.34-.57,3.78-.6h.25c2.62,0,4.76.69,6.33,1.4.95-.27,2.1-.53,3.39-.64.4-.03.81-.05,1.24-.05,1.63,0,3.4.24,5.27.51,2.52-1.51,5.11-1.83,6.84-1.83.44,0,.89.02,1.35.06,1.59.13,3.04.54,4.33,1.08,1.6-.66,3.49-1.15,5.65-1.15.48,0,.96.02,1.44.07,1.55.16,2.92.61,4.14,1.18,1.13-.32,2.23-.5,3.22-.58.52-.04,1.04-.06,1.55-.06,1.6,0,3.02.21,4.22.48,1.57-.66,3.56-1.17,6-1.17.71,0,1.44.04,2.18.13,1.23.14,2.35.44,3.35.81,1.57-.53,3.44-.92,5.62-.92.7,0,1.43.04,2.15.12.93.1,1.79.28,2.57.51,1.69-.79,3.76-1.43,6.17-1.43,4.1,0,7.82,1.84,10.48,5.17,1.13,1.42,1.88,3.12,2.17,4.91.64,3.99-.61,7.03-1.77,8.87-.06.1-.13.2-.2.3.39.69.71,1.42.96,2.17,2.01,1.1,3.61,2.83,4.56,4.91,1.76.2,4.29.87,6.52,3.09,1.54,1.53,2.57,3.5,2.95,5.63h3.27c5.84,0,10.57,4.73,10.57,10.57v1.83c.91.91,1.67,1.99,2.21,3.21,1.39,3.13,1.8,7.56-.41,11.59.03,2.3-.33,5.74-3.17,8.74-.35.37-.72.71-1.1,1.02v109.9c0,5.84-4.73,10.57-10.57,10.57h-153.82c-7.23,0-16.08-.31-22.55-.54-3.81-.13-7.1-.25-8.56-.25-2.05,0-4.05,0-6.06,0-15.92,0-32.38.02-48.08,1.84-1.81.21-3.72.31-5.84.31-3.4,0-6.78-.27-10.05-.52-3.05-.24-5.93-.47-8.6-.47-.8,0-1.55.02-2.24.06-17.75,1.07-35.74,1.15-53.14,1.22-2.79.01-5.58.02-8.37.04-20.55.11-41.81.77-62.36,1.4-5.44.17-10.88.34-16.31.49-1.82.05-4.17.26-6.65.48-3.62.32-7.73.68-11.59.68Z" fill="#f9f2e8"/>
  <path d="M505.99,72.09c-1.77-.16-3.94.43-5.59-.32-.38-.17-5.64-4.67-6.43-5.39-.61-.56-1.33-.55-1.05-1.75h9.95v-1.87h-12.75c-.44,0-5.05-5.54-6.53-5.91,2.09-.86,6.12.97,5.59-2.79-.39-.39-6.85.52-8.69-.32-1.12-.51-1.95-2.84-3.74-2.8.22-1.8,3.5-1.01,3.73-1.24v-1.86c-1.99-.23-4.52.4-6.4-.14-1.81-.52-2.89-3.18-4.79-3.61-1.55-2.24,5.76-.79,6.2-1.24,1.24-4.93-13.46.2-7.73-6.8,1.13-1.38,7.62-4.88,8.07-5.6.32-.51.37-.99.28-1.57-2.69-3.38-6.44,1.56-7.76,1.56-.92,0-2.26-1.66-4.35-1.89-4.43-.49-5.67,2.37-6.85,2.3-.77-.04-2.24-2.07-4.34-2.32-3.83-.45-4.09,1.8-5.64,1.94-1.2.11-3.08-1.55-6.2-1.29-3.31.28-3.08,2.33-3.74,2.49-.82.2-4.14-2.95-5.6-3.1-2.78-.29-5.2,3.03-6.2,2.95-.45-.03-2.85-2.75-5.01-2.94-2.79-.24-2.56,1.66-3.37,2.17-.83.52-7.45-1.04-9.57-.87-1.84.15-3.79,1.39-5.61,1.16-1.48-.19-2.82-1.92-5.04-1.89-1.67.03-2.85,1.43-4.29,1.28-1.25-.14-1.93-1.39-4.4-1.32-2.56.08-2.96,1.63-4.13,1.93h-.8c-1.54-.32-3.25-2.33-5.08-2.49-2.24-.2-3.44,1.71-5.02,1.74-1.32.03-3.04-2.42-5.42-2.33-1.89.07-3.82,1.91-5.67,1.9-1.97-.02-3.17-2.54-5.6-2.48-1.6.04-4.13,2.28-6.33,2.27-1.29,0-2.07-1.76-4.16-1.69-1.89.06-3.38,1.9-5.04,1.9-1.94,0-4.13-2.84-6.7-2.44-2.22.34-1.81,2.83-3.84,2.41-1.79-.38-1.36-2.17-3.12-2.53-3.21-.64-5.04,1.45-7.47,1.31-1.95-.11-2.92-2.01-4.99-1.98-2.15.03-3.08,2.59-4.97,2.52-1.61-.06-2.59-2.65-6.06-1.7-1.06.29-1.94,1.75-3.27,1.71-1.06-.03-1.81-1.25-2.76-1.57-4.19-1.42-5.31,2.23-7.2,2.22-1.43,0-2.75-3.36-7.62-1.45-.88.35-.91,2.12-2.82,1.9-2.43-.28-3.42-2.97-4.43-3-2.76-.09-4.23,2.4-5.63,2.55-1.44.16-3.52-1.29-5.58-1.3-2.09-.02-6.18,1.92-6.75,1.82-1.15-.21-2.12-2.89-3.79-2.98-1.59-.09-3.72,1.85-5.01,1.81-1.38-.04-2.28-2.12-4.91-1.84-1.83.19-3.31,2.29-4.51,2.4-1.59.15-2.04-3.91-7.4-1.83-1.12.43-2.07,1.92-2.95,1.83-.98-.09-1.98-1.67-3.83-1.84-3.07-.28-3.95,2.01-6.24,1.97-2.12-.03-2.33-2.29-5.59-1.98-2,.19-2.15,1.46-3.22,1.8-3.28,1.03-3.69-1.58-6.08-1.8-2.64-.24-5.45,2.06-6.77,1.79-.98-.2-2.92-2.94-5.06-2.94-1.75,0-3.35,2.48-4.99,2.44-1.26-.03-1.78-1.79-3.12-1.9-1.24-.11-2,1.04-3.11,1.26-4.1.79-5.42-2.09-7.99-1.85-1.89.18-3.47,2.53-5.05,2.49-1.52-.04-2.72-3.06-4.96-3.06-2.08,0-3.53,3.03-5.6,3.03-2.2,0-3.88-3.68-7.14-2.14-.92.44-1.39,2.13-2.79,2.16-1.87.04-3.78-2.86-7.35-1.73-1.11.35-1.45,1.95-3.2,1.78-1.28-.13-1.93-1.61-2.98-2.05-4.66-1.95-5.54,1.63-7.59,1.43-1.76-.17-1.85-2.59-5.01-2.59-3.1,0-2.89,1.94-4.48,2.43-4.42,1.36-4.93-2.74-8.58-2.87-3.37-.12-3,2.8-5,3.02-2.34.26-4.21-3.23-7.47-3.17-2.08.03-1.69,1.27-2.91,2.13-4.35,3.07-4.65-1.14-7.03-1.49-2.88-.42-3.67,2.87-5.67,3.04-1.28.11-1.91-1.9-3.12-2.27-1.52-.46-4.14-.2-5.68.28-3.35,1.04-9.77,8.63-13.42,10.21-4.22,1.82-5.35,1.42-9.64,4.66-9.29,7.03-17.68,15.44-28.03,21.08-3.26,5.43,6.1,2.68,6.85,3.42-.01,16.99,1,33.65.89,50.67-.12,17.82.33,36.36-.24,54.12-.1,2.98-1.4,7.91-1.27,10.48.02.33.91.28,1.19.85.29.61.03,1.58.62,2.37.59.8,8.01,3.09,9.81,3.88,10.5,4.56,20.25,10.29,31.15,13.37.11.03.11.92.56,1.02,6.44,1.46,17.25-.4,24.14-.6,26.28-.77,52.86-1.76,78.92-1.9,20.44-.11,40.71-.01,60.94-1.24,8.52-.51,18.09,1.6,26.15.66,18.29-2.12,36.82-1.87,55.28-1.91,4.26,0,20.09.81,31.56.79h153.44v-119.92c6.25,4.63,3.55-.15,4.35-3.51.05-.23,2.26-1.23,1.23-3.54ZM492.18,71.77h-2.05v-1.89c.68.61,1.36,1.24,2.05,1.89Z" fill="#f2efe6"/>
  <path d="M496.04,75.46c-.11-.11-1.47-.21-2.08-.71-1.3-1.05-3.01-3.36-4.47-3.64-9.1-.13-18.28,1.43-27.37,1.26-2.53-.05-18.27-1.97-18.94-1.28l-.62,7.46c6.84.9,13.63-.95,20.18-1.27,9.7-.47,23.56,2.16,32.38-.58.67-.21,1.94-.21.91-1.25ZM497.91,78.55c-2.03.36-6.34-1.17-6.84,1.56v49.43c-2.49-1.26-4.35-.08-6.53,0-2.08.07-13.79-.06-14.57.66-.27.25-.8,5.83-.65,6.81h-3.12c-.59-.58.36-14.05.06-16.52-.16-1.32-.59-.02-.64-3.65-.16-12.58-.04-25.12.59-37.65-8.03-.41-3.8,2.49-3.74,7.16.12,9.04,1.01,18.25,1.24,27.36.22,8.47-1.17,16.98-1.48,25.38-.3,8.21-4.77,3.1-6.33,5.35-.75,1.08.03,4.73-.27,5.02-.92.89-16.14-.07-18.65,1.86.48-5.33-.74-10.58-.65-15.88.09-5.46,1.36-11.03,1.29-16.78-.05-4.56-1.14-10.26-1.29-14.87-.11-3.34.63-23.05-.68-23.88-.83-.52-4.22.18-5.51-.09l1.25,71.5c-5.29-.03-10.59.02-15.88.02-6.13,0-12.37-.27-18.65-.05-1.58.05-3.04.76-4.63.65.12-4.59-.39-9.32-.39-13.89,0-5.18-.16-9.9-.26-15-.15-8.2.72-17.56.05-25.54-.09-1.07-.15-2.15-.58-3.15-.86-1.98-11.19-7.3-13.47-7.67-1.77-.29-6.83-.71-8.63-.68-1.03.02-7.99,1.55-8.35,1.96-.3,3.8.12,7.65-.05,11.46-.07,1.47-.63,2.83-.67,4.3-.52,17.04.21,34.36.3,51.36l.75.49,98.15-1.15c2.89-.15.87-5.28,1.62-6.15.71-.83,5.93-.47,6.15-.68.24-.23-.18-5.18,0-6.22,2.53-.45,5.1.97,7.39-.08l.07-7.38c.45-.45,11.09.45,12.69.69,1.1.17,8.07,1.81,8.47,2.1.84.63.25,6.9-.02,7.16-.2.2-4.65-.31-4.97,1.86,2.44,1,3.34-.3,5.59-.61.19,5.06-.24,10.2-.03,15.26.05,1.28,1.06,1.96,1.11,2.94.13,2.48-1.8,12.81-2.29,15.71-.34,2.01.12,7.12.59,9.19.16.7,1.82-.02,1.24,1.66-8.79-.13-17.63-1.09-26.45-.64-7.32.37-15.06,2.2-22.33,2.54-11.08.51-22.46-1.86-33.57-1.92-15.35-.08-31.81,3.06-46.65,2.51-4.13-.15-7.8-2.85-6.24,4.39l136.5-1.55c2.5-3.38-2.5-1.24-.8-3.44,1.04-1.34-.07-.89.26-1.76.1-.26,3.06-2.18,3.68-2.37-.56-3.46.3-7.01-.04-10.5-1.13-11.81-.93-24.52-.65-36.7.06-2.63,1.7-8.93.08-11.08-.48-.64-1.84-.38-2.26-.98-.77-1.09-.16-16.66-.26-19.65-.1-3.02-1.05-6.84-1.11-9.93-.13-6.51,1.97-13.46,1.09-20.2ZM419.57,81.66c-4.48-.68-1.69,1.98-1.29,4.72.25,1.71-.06,3.51.06,5.23.93-.29,1.16-3.21,1.23-4.05.15-1.95-.08-3.95,0-5.9ZM448.79,83.53l-2.52.28c-.22.19-.46.4-.52.69-.27,1.17,1.14,7.73,1.18,9.58l1.86-10.56ZM422.68,86.02v21.14c1.43.08,1.11.23,1.25-.92.63-5.39,1.32-13.55.01-18.7-.26-1.05.63-1.81-1.26-1.51ZM423.29,110.88c.31-2.59-.92-2.59-.61,0h.61ZM413.35,125.8c1.36-3.78.69-7.3.62-11.18-.88-.08-1.01,2.35-1.06,2.97-.14,1.64-.15,4.24-.21,6.02-.02.69-.38,2.36.65,2.19ZM494.17,156.27c-8.12.96-17.08.06-25,2.04-.63.16-1.87.18-1.73,1.06,3.93-.13,8.22-1.07,12.09-1.26,3.88-.2,9.59.66,13.08.02,1.07-.19,1.75-.66,1.55-1.86ZM492.93,162.49c-2.71.53-5.79.31-8.41.62-.93.11-1.9.51-.92,1.24,3.26-.48,6.17.83,9.32,1.24v-3.11ZM493.56,173.68c-.12-1.32.53-7.48-.93-7.45-.14,0-1.3,1.48-2.17,1.24-.27,1.09,1.42,1.96,1.25,2.77-.4,1.89-13.81,3.07-16.17,3.44.35,1.5,1.06.76,1.74.81,1.21.09,3.41.47,4.16.43,3.81-.22,7.94-2.11,12.13-1.24ZM441.95,169.33c-11.9-1.03-24.33-2.24-36.06.3,0,1.01,18.32,0,20.24.28,2.25.32,4.51,2.19,7.45,1.29l8.36-1.88ZM484.23,169.96c-4.85-1.35-9.21.11-13.99.61-5.18.55-10.36.92-15.53,1.89-1.01.19-1.08-.41-.93,1.22,7.86.31,15.33-2.04,23.24-1.94l7.22-1.78ZM367.34,173.69l-5.59-.63.62,2.48,4.96-1.86ZM407.45,174.92c-3.82.17-7.69-.13-11.5,0-.29,1.79.38,1.03,1.44,1.33,4.61,1.3,7.12-.81,11.62-.71.28-2.4-.94-.65-1.55-.62ZM492.93,178.66c-2.88.51-5.85.83-8.69,1.57-.71.18-2.02-.04-1.87.91,2.4.54,5.15-.45,7.19-.54.2,0,.82,2.18,3.38,1.17v-3.11ZM492.93,185.49c-.24-.27-6.54.85-6.83,1.86,1.86-.13,3.98,1.12,5.8.54,1.04-.33,1.41-1.97,1.03-2.4ZM387.86,187.36h-26.11v1.86c4.04-.09,8.11.12,12.15.03,2.26-.05,5.44-.03,7.43-.15,1.66-.1,3.95-.31,5.6-.5.93-.11,1.9-.5.92-1.25Z" fill="#f2efe6"/>
  <path d="M372.94,48.09c-3.01-4.89-5.89-4.9-11.19-3.73v-3.11s4.35-.3,4.35-.3c-2.48-2.49-5.31-4.4-4.98-8.39-.93.28-1.17,3.21-1.23,4.05-.71,9.34.25,19.73.02,29.24-.77,31.2-2.11,61.4-1.29,92.64.3,11.43,2.72,25.32,1.29,36.68-.09.73.06,1.31-.64,1.85-2.94,2.22-37.28.25-43.87.27-18.46.04-37-.21-55.28,1.91-8.06.93-17.63-1.18-26.15-.66-20.23,1.22-40.5,1.12-60.94,1.24-26.06.14-52.64,1.14-78.92,1.9-6.9.2-17.7,2.06-24.14.6-.45-.1-.45-.99-.56-1.02-10.9-3.08-20.65-8.81-31.15-13.37-1.8-.78-9.21-3.07-9.81-3.88-.58-.79-.32-1.75-.62-2.37-.28-.58-1.17-.52-1.19-.85-.12-2.57,1.18-7.5,1.27-10.48.57-17.76.12-36.3.24-54.12.11-17.02-.9-33.68-.89-50.67-.75-.75-10.11,2.01-6.85-3.42,10.36-5.64,18.74-14.05,28.03-21.08,4.28-3.24,5.41-2.84,9.64-4.66,3.65-1.57,10.06-9.16,13.42-10.21,1.54-.48,4.17-.74,5.68-.28,1.21.36,1.85,2.38,3.12,2.27,1.99-.17,2.79-3.46,5.67-3.04,2.38.35,2.69,4.55,7.03,1.49,1.23-.87.83-2.1,2.91-2.13,3.26-.05,5.14,3.43,7.47,3.18,2-.22,1.63-3.15,5-3.02,3.64.13,4.16,4.24,8.58,2.87,1.59-.49,1.38-2.43,4.48-2.43,3.16,0,3.24,2.42,5.01,2.59,2.05.2,2.92-3.38,7.59-1.43,1.05.44,1.71,1.92,2.98,2.05,1.75.18,2.09-1.42,3.2-1.78,3.57-1.13,5.48,1.77,7.35,1.73,1.4-.03,1.87-1.73,2.79-2.16,3.26-1.55,4.94,2.13,7.14,2.14,2.07,0,3.52-3.03,5.6-3.03,2.24,0,3.44,3.02,4.96,3.06,1.58.04,3.16-2.31,5.05-2.49,2.57-.25,3.89,2.64,7.99,1.85,1.11-.21,1.87-1.36,3.11-1.26,1.34.11,1.86,1.87,3.12,1.9,1.63.04,3.23-2.44,4.99-2.44,2.14,0,4.09,2.74,5.06,2.94,1.32.27,4.13-2.03,6.77-1.79,2.39.22,2.8,2.84,6.08,1.8,1.07-.34,1.22-1.6,3.22-1.8,3.26-.32,3.47,1.94,5.59,1.97,2.29.04,3.16-2.25,6.24-1.97,1.85.17,2.85,1.75,3.83,1.84.88.08,1.83-1.4,2.95-1.83,5.36-2.09,5.82,1.98,7.4,1.83,1.2-.11,2.68-2.21,4.51-2.4,2.63-.28,3.53,1.8,4.91,1.84,1.3.04,3.43-1.9,5.01-1.81,1.67.09,2.64,2.77,3.79,2.98.57.11,4.67-1.83,6.75-1.82,2.06.02,4.14,1.46,5.58,1.3,1.4-.15,2.88-2.65,5.63-2.55,1.01.03,2,2.72,4.43,3,1.91.22,1.94-1.55,2.82-1.9,4.87-1.91,6.2,1.45,7.62,1.45,1.88,0,3-3.64,7.2-2.22.95.32,1.71,1.54,2.76,1.57,1.33.04,2.21-1.42,3.27-1.71,3.47-.95,4.44,1.64,6.06,1.7,1.89.07,2.82-2.49,4.97-2.52,2.07-.03,3.04,1.86,4.99,1.98,2.42.14,4.25-1.95,7.47-1.31,1.76.35,1.33,2.15,3.12,2.53,2.03.43,1.63-2.06,3.84-2.41,2.57-.4,4.76,2.45,6.7,2.44,1.66,0,3.15-1.84,5.04-1.9,2.09-.07,2.87,1.68,4.16,1.69,2.2,0,4.73-2.22,6.33-2.27,2.43-.07,3.63,2.46,5.6,2.48,1.85.02,3.79-1.83,5.67-1.9,2.38-.08,4.1,2.36,5.42,2.33,1.57-.03,2.77-1.93,5.02-1.74,2.05.18,3.95,2.69,5.64,2.53,1.36-.13,1.65-1.88,4.37-1.97,2.47-.08,3.15,1.18,4.4,1.32,1.45.16,2.63-1.25,4.29-1.28,2.22-.04,3.56,1.69,5.04,1.89,1.82.24,3.77-1.01,5.61-1.16,2.12-.17,8.74,1.38,9.57.87s.58-2.41,3.37-2.17c2.16.18,4.56,2.9,5.01,2.94,1,.08,3.42-3.24,6.2-2.95,1.46.15,4.78,3.3,5.6,3.1.66-.16.43-2.21,3.74-2.49,3.12-.26,4.99,1.39,6.2,1.29,1.56-.14,1.81-2.39,5.64-1.94,2.1.25,3.57,2.28,4.34,2.32,1.18.07,2.42-2.79,6.85-2.3,2.09.23,3.42,1.89,4.35,1.89,1.32,0,5.07-4.94,7.76-1.56.09.59.04,1.06-.28,1.57-.45.72-6.94,4.23-8.07,5.6-5.73,7,8.97,1.87,7.73,6.8-.44.45-7.75-1.01-6.2,1.24,1.9.42,2.98,3.09,4.79,3.61,1.88.54,4.41-.09,6.4.14v1.86c-.24.23-3.51-.56-3.73,1.24,1.79-.05,2.62,2.29,3.74,2.8,1.84.84,8.3-.06,8.69.32.53,3.76-3.5,1.93-5.59,2.79,1.48.37,6.09,5.91,6.53,5.91h12.75v1.87h-9.95c-.28,1.2.44,1.2,1.05,1.75.78.71,6.04,5.21,6.43,5.39,1.65.75,3.82.16,5.59.32,1.02,2.31-1.18,3.31-1.23,3.54-.81,3.41,1.99,8.3-4.66,3.28-4.68-3.53-9.79-9.62-14.66-12.7-3.93-2.49-14.46-.22-19.24-.33-1.3,1.21,3.66,4.79,2.79,6.22-1.1-.73-5.69-.42-5.9-.63-.29-.29.69-4.45-2.18-4.97-1.49-.27-11.46-.03-12.12.63.22.6,4.26,4.23,1.55,3.73-2.02-.37-3.43-3.74-5.09-4.24-2.23-.66-5.83.2-8.27-.12.68,1.79,5.16,4.58,5.49,6.02.23,1-1.28,6.83-2.18,7.05l-78.23-.64c-2.83.27-1-6.8-.57-6.88,4.2-.73,7.76,1.31,11.77,1.32,7.13,0,15.19-1.07,22.4-1.32,1.42-.64,3.8,3.38,4.63,2.52.56-.58-.8-1.77-1.23-2.18-.86-.83-7.27-6.52-7.78-6.52h-15.23l3.73,5.59c-2.48,1.38-7.29-4.97-7.77-4.97h-10.88c-.12,0,.08-2.04,0-2.48l6.84-.63c-.47-3.08-5.95-2.85-6.22-3.1-.24-.23.17-5.17,0-6.21,2.35.12,3.07,3.29,5.3,3.71,4.53.86,10-.97,14.6-.61-.62-.86-4.9-5.59-5.28-5.59h-15.23c-.25-.72.27-2.49.93-2.49h10.88ZM354.91,32.55c-2.42-.65-.72,3.23-1.24,3.73-.7.66-8.45-.01-9.95,0-.54.48,3.6,4.66,3.87,4.82,1.34.77,5.2-.79,6.07,1.09,1.01,2.18-1.68,1.37-1.86,1.55-1.05,1.04,1.04,1.24,1.22,1.7.31.8,1.2,5.14-.28,5.14h-15.23c.04,1.24,5.45,6.84,5.91,6.84h9.64v1.86c-.44.46-6.37-.95-5.59.93.17.41,2.35,2.45,2.87,2.73,1.44.79,3.59.14,3.36,1.93.62.27,1.23-1.45,1.23-1.55v-30.78ZM325.07,57.42h9.33c-1.34-1.62-4.37-5.27-6.25-5.9-1.21-.41-7.11.65-9.57.28-.82-.12-3.36-1.17-2.83-2.46h8.7c.07-1.08-4.26-4.72-4.8-4.88-2.63-.76-9.77,3.09-10.12-2.58l6.83-.31c-3.07-1.82-6.08-6.14-9.73-6.31-9.72-.45-21.13,1.44-30.97,1.67-37.4.88-74.15-2.7-111.32-.65-7.53.41-14.93-1.16-22.37-1.29-9.87-.17-20.79,1.45-30.44,1.32-3.07-.04-7.43-1.22-10.57-1.29-7.26-.16-16.11.79-23.07.08-1.51-.15-.38-1.42-1.5-1.29-1.35,2.38-2.41,2.18-1.25,5.59l-1.24-3.72-1.86,1.55c-.12,11.71.05,23.54,1.24,35.13,9.39-.29,18.89.25,28.31.02,2.19-.05,4.66-.93,6.95-.98,25.26-.6,49.67,2.75,75.1,1.58,46.89-2.16,93.55-.75,140.53.02l27.02-1.9c-.83-1.36-3.33-3.82-4.81-4.19-3.19-.82-9.25,1.48-10.1-2.64h5.59c.95-.98-2.44-3.72-3.12-4.04-3.59-1.67-12.18,2.09-13.67-2.81ZM410.56,40.63c3.42.97,11.27-.72,15.23,0l-2.3-3.74c-5.21.31-10.93-1.17-16.03-1.25-.97-.02-1.08-.13-.94.95.11.26,3.76,3.97,4.04,4.05ZM339.68,36.28h-20.21c.04,1.46,4.46,4.97,5.56,5.32,5.3,1.69,13.7-1.14,19.3.27.66-.59-4.29-5.49-4.66-5.59ZM388.48,41.25c.55-1.09-2.33-4.97-2.8-4.97h-14.61c-.79,1.55,3.49,4.97,4.66,4.97h12.75ZM402.78,41.25c.13-.75-4.31-4.97-4.66-4.97h-9.01c.08.71,2.21,4.97,2.49,4.97h11.19ZM456.25,39.38c-3.03-4.6-9.38-1.59-13.67-3.1l3.72,1.87-1.86,1.86c3.97.08,7.91.11,11.81-.62ZM440.09,36.9h-12.43c.3.54.46,3.11.62,3.11h13.06c-.92-2.08-3.83-1.03-5.59-1.25.55-1.78,4.98.85,4.35-1.86ZM446.93,42.5c-.47.4,2.71,4.6,3.53,4.85,2.05.63,15.66.92,11.99-3.29-3.6-4.13-10.73-.66-15.53-1.56ZM431.38,48.09c-.36-1.04-3.37-5.6-4.04-5.6h-13.06c-.07,0-.92.87-.92.93,0,.33,4.24,4.66,4.65,4.66h13.37ZM443.82,42.5c-.94-.59-10.4.44-12.43,0,1.86,8.58,8.66,4.63,14.92,5.59.56-.56-2.22-5.43-2.48-5.59ZM351.8,48.09c-4.94-7.95-15.34-2.84-23-3.72,4.98,8.1,15.21,2.33,23,3.72ZM394.7,48.71v-.92c-.94-.4-3.15-4.05-3.42-4.05h-13.99c.17,1.62,4.11,4.97,5.28,4.97h12.12ZM417.71,55.55c.27-1.09-.45-1.24-.93-1.87-.85-1.11-9.25-9.94-9.95-9.94h-11.5c.81,7.01,9.21,3.42,13.85,4.38.15.03,2.19,1.77,1.69,2.46h-9.95c-.32.92,3.01,4.97,3.42,4.97h13.37ZM468.38,49.34c-3.56-1.01-11.74.75-15.85,0,.32,2.39,2.63,5.23,5.27,5.03l14.01-1.31c.18-.18-3.13-3.64-3.42-3.72ZM433.56,49.96c-2.92-.82-9.37.61-12.75,0,1.93,8.08,9.57,4.5,15.54,4.97.67-.66-2.04-4.76-2.79-4.97ZM449.1,49.96c-2.8-.78-8.9.58-12.12,0,1.77,7.87,9.3,3.45,14.92,4.35.49-.42-2.27-4.2-2.79-4.35ZM397.81,50.58c-1-.62-10.93.46-13.06,0,2.79,7.2,9.73,6.08,16.16,4.97-1.15-.61-2.86-4.81-3.11-4.97ZM461.98,62.26c4.73-.59,12,.28,16.34-.49.88-.16,1.65-.51,1.55-1.54-.07-.32-4.66-4.22-4.98-4.35-1.27-.54-8.1-.25-8.66.33-.32.33.15,3.42-.03,4.32h-3.12s0-4.36,0-4.36c-.75-.26-5.17.3-4.97.93l3.85,5.16ZM437.29,57.42c-3.21-.01-6.43,0-9.64,0,2.93,7.38,9.32,4.85,15.54,4.97-.96-1.11-3.56-5.34-4.76-5.47-.58-.07-.98.5-1.14.5ZM455.01,56.8h-13.06c-.32,1.15,4.27,6.22,4.66,6.22h12.12c-.15-2.42-3.21-3.77-3.73-6.22ZM417.39,58.04c-3.61.15-7.27-.11-10.88,0l2.8,4.34c-2.44-.33-5.25-4.02-6.86-4.32-3.27-.63-7.02.49-10.24.91,3.3,5.11,8.2,3.11,13.39,3.4,1.67.09,3.15.63,4.92.68,4.87.13,9.77-.15,14.64-.03.29-1.2-.44-1.2-1.04-1.75-.68-.61-3.65-3.41-3.94-3.55-1.69-.79-2.16.3-2.78.33ZM385.07,59.28c-3.43-.97-11.27.72-15.23,0,1.15,4.91,5.18,2.54,8.37,2.46,3.01-.07,6.04.11,9.04.02-.22-.59-1.85-2.39-2.18-2.48ZM428.9,66.12c-1.02-.66-13.18.49-15.54,0l2.48,2.8c-3.23,1.92-4.71-2.72-6.65-3.29-2.41-.71-7.28.1-10.13-.74,2.36,3.5,6.43,4.32,4.35,9.32l-2.48-.62c-.63,2.26,4.08,2.15,4.35,1.87.31-.32-.77-3.86,1.55-3.73h26.42c.86-.88-3.04-3.37-3.76-4.04-.49-.46-.52-1.51-.59-1.56ZM438.84,76.69c.7-.7-3.09-4.44-3.72-3.72-1.19,1.33,3.31,4.14,3.72,3.72ZM267.87,134.51h-9.33v-39.17c1.5-.13,2.75.74,4.14,1.04,2.08.45,1.14.25,2.56.77,2.47.89,13.64,5.29,14.33,7.31,1.32,19.52,1.95,38.77,1.99,58.36.02,7.77-.65,15.71-.02,23.59.19,2.36,1.28,4.74,1.24,7.16.82,1,1.13-.07,1.24-.93.21-1.72-.2-3.53.63-5.29,1.41.31.95,5.59,1.24,5.59h11.5c.14,0,.83,1.18.94.31.39-2.14-.61-4.18-.65-6.19-.25-15.04.86-30.4.68-45.44-.02-1.58-1.81-10.86.27-10.86h17.1c.23,0,1.44,3.8,2.01,4.21,1.25.91,6.46.52,6.7.76.26.25-.57,3.28.58,4.08s4.96-.19,5.57.34c.27.24.17,2.72,1.3,3.37.92.53,5.82.47,6.75,1.65.75.95-1.45,2.84,3.55,3.02,4.07.15,2.22-2.74,3.4-5.61l1.85,4.35c-.17-14.01-1.94-27.95-1.26-41.99.09-1.81.74-9.9,1.27-10.54.47-.56,5.04-3.36,5.59-2.8l-.62,64.65-6.83-.62.62-3.73h-9.01c-1.23,0-1.4-3.92-1.67-4.24-.77-.92-5.73-.28-6.46-1.31-.66-.95-.04-3.54-.27-3.78-.32-.33-5.6.41-6.16-.06-.39-.33-.55-4.1-.72-4.25-.39-.38-6.52.28-6.81-.03-.14-.15.33-3.73-.93-3.73h-10.57c-2.6,0-.97,2.7-.93,4.05.27,11.21,1.01,22.4,1.27,33.54.16,6.8-.6,13.47-.65,20.23,9.44.53,18.83,1.6,28.32,1.27,5.31-.19,12.76-.62,17.97-1.3,1.15-.15,1.85-.78,2.82-1.21l.94,4.98c1.73.06.3-9.48.29-10.86-.33-29.02,1.42-57.89.62-87.04-.08-2.92.58-19.17-.56-19.96-.3-.21-6.2-.75-7.19-.77-.95-.01-1.99.53-3.08.52-22.82-.1-46.69-1.61-69.01-.67-5.89.25-11.85.87-17.75,1.26l.62,116.27,9.33-.63c-.92-1.56-.53-2.73,0-4.34l.62,4.35h1.86c-.55-5.55.73-12.39.05-17.76-.15-1.2-1.26-.63-1.36-1.79-.55-6.59.1-15.1.09-21.77-.01-6.12-.04-12.25-.03-18.37ZM193.88,77.94c-.87-.45-1.66.39-1.24.61.87.45,1.66-.39,1.24-.61ZM252.33,77.93c-8.18.13-16.4-.16-24.59-.02-30.81.5-61.72,2.44-92.58,2.48-15.12.02-30.47,0-45.39,0-2.35,0-15.05-.31-15.92.3-1.04.73.11,7.97.06,10.02-.09,4.21-1.09,9.41-1.26,13.66-.97,23.89,1.09,47.58.59,71.47-.14,6.76-.11,13.53.02,20.23,5.31-.17,10.53-.85,15.88-.65,8.24.31,16.56,1.98,24.87,1.91,18.73-.14,38.33-3.42,57.16-2.5,7.79.38,15.76,3.14,23.35.3.68-6.58.72-13.26.62-19.92-.16-10.41-1.94-22.14-1.95-32.3,0-2.95,1.24-6.37,1.33-9.3.28-9.72-.43-19.44.58-29.12.25-1.04,14.94-7.83,17.1-8.53,8.39-2.74,29.12-6.09,37.29-3.69,1.2.35,1.51.55,1.93,1.8l.84,40.08c-.37,1.38-2.77.77-3.02,1-.36.34.32,3.91-.06,4.3-.49.5-5.96.44-6.19.65-.23.21.17,4.62,0,5.6-1.64.68-5.47-.86-6.45-.58-1.88.54-.62,5.19-1.01,5.55-.3.28-6.99.52-8.09.62l.71,43.13c.72,2.17,6.22.43,8.28.37,5.57-.16,11.7-.27,17.12.65l-1.24-117.51ZM237.4,140.72c.73-14.69,1.37-29.56-.93-44.15-.44,6.07-.47,12.28-.34,18.37.03,1.47.64,2.83.67,4.3.15,6.42-.29,12.89-.03,19.31.03.76-.47,2.31.62,2.17ZM214.4,125.19v-14.3h-.62v14.3h.62ZM230.57,128.3c-.32-3.55.74-6.73.64-10.29-.03-.89-.17-3.73-1.26-4.01l-.62,12.43c-.57.57-6.76-1.18-7.46,1.23l8.71.63ZM226.83,133.9c-6.82-1.77-13.87.72-20.83,0-2.41.31-.38,1.79,1.29,1.82,4.33.07,11.71-.22,16.12-.58.75-.06,3.33-.23,3.42-1.23ZM272.84,134.51c-1.05.04-1.33-.42-1.1.79.55,2.98-.26,6.77,1.72,8.54l-.62-9.33ZM209.12,146.32c3.95.39,8.96,0,13.06,0,.13,0,2.42-.58,2.17-1.24-6.26.03-12.41-.33-18.65,0-.03.59,3.11,1.21,3.42,1.24ZM202.59,153.78v22.07l1.24,4.66c.75-4.4.78-8.91.66-13.39-.08-3.15-.29-8.18-.63-11.18-.11-.93-.13-1.92-1.27-2.15ZM221.24,159.38h-1.24v20.52h1.24v-20.52ZM215.03,180.52v-15.85c0-.67-1.25-2.71-.63-4.04h-.62s0,18.96,0,18.96c0,.11.84.98,1.24.93Z" fill="#3e3b39"/>
  <path d="M497.91,78.55c.88,6.74-1.23,13.68-1.09,20.2.06,3.09,1.02,6.91,1.11,9.93.1,3-.51,18.56.26,19.65.42.59,1.78.34,2.26.98,1.62,2.15-.02,8.45-.08,11.08-.28,12.18-.47,24.89.65,36.7.33,3.49-.52,7.04.04,10.5-.62.19-3.58,2.11-3.68,2.37-.33.87.78.41-.26,1.76-1.7,2.2,3.3.07.8,3.44l-136.5,1.55c-1.55-7.23,2.12-4.54,6.24-4.39,14.84.55,31.3-2.59,46.65-2.51,11.11.06,22.49,2.44,33.57,1.92,7.27-.34,15.01-2.17,22.33-2.54,8.82-.45,17.65.52,26.45.64.58-1.68-1.08-.96-1.24-1.66-.47-2.07-.93-7.18-.59-9.19.49-2.9,2.41-13.23,2.29-15.71-.05-.98-1.06-1.66-1.11-2.94-.2-5.06.23-10.2.03-15.26-2.26.31-3.15,1.61-5.59.61.32-2.17,4.77-1.67,4.97-1.86.26-.26.85-6.54.02-7.16-.39-.29-7.36-1.93-8.47-2.1-1.6-.24-12.24-1.14-12.69-.69l-.07,7.38c-2.28,1.05-4.85-.37-7.39.08-.17,1.05.24,6,0,6.22-.22.22-5.45-.14-6.15.68-.75.87,1.27,6-1.62,6.15l-98.15,1.15-.75-.49c-.08-17-.82-34.32-.3-51.36.04-1.47.61-2.83.67-4.3.17-3.8-.25-7.66.05-11.46.36-.41,7.32-1.94,8.35-1.96,1.8-.04,6.86.39,8.63.68,2.28.37,12.6,5.69,13.47,7.67.43,1,.49,2.08.58,3.15.68,7.98-.2,17.34-.05,25.54.09,5.1.26,9.83.26,15,0,4.57.51,9.3.39,13.89,1.59.11,3.05-.6,4.63-.65,6.28-.22,12.52.05,18.65.05,5.29,0,10.6-.06,15.88-.02l-1.25-71.5c1.29.27,4.68-.43,5.51.09,1.32.83.57,20.54.68,23.88.16,4.61,1.24,10.3,1.29,14.87.07,5.76-1.2,11.32-1.29,16.78-.09,5.3,1.13,10.55.65,15.88,2.51-1.93,17.73-.98,18.65-1.86.3-.29-.48-3.94.27-5.02,1.56-2.25,6.02,2.85,6.33-5.35.31-8.4,1.69-16.91,1.48-25.38-.23-9.11-1.12-18.32-1.24-27.36-.06-4.67-4.3-7.57,3.74-7.16-.63,12.53-.74,25.07-.59,37.65.05,3.63.48,2.33.64,3.65.3,2.48-.65,15.95-.06,16.52h3.12c-.15-.98.38-6.55.65-6.81.78-.72,12.48-.59,14.57-.66,2.19-.08,4.05-1.26,6.53,0v-49.43c.51-2.72,4.81-1.19,6.85-1.56ZM494.8,134.52h-2.48v.61h2.48v-.61ZM498.84,186.74v.62c.4-.21.4-.41,0-.62Z" fill="#3e3b39"/>
  <path d="M496.04,75.46c1.03,1.04-.23,1.04-.91,1.25-8.82,2.74-22.68.11-32.38.58-6.55.31-13.35,2.17-20.18,1.27l.62-7.46c.66-.69,16.41,1.23,18.94,1.28,9.09.17,18.27-1.39,27.37-1.26,1.46.28,3.16,2.59,4.47,3.64.61.49,1.96.6,2.08.71Z" fill="#3e3b39"/>
  <path d="M441.95,169.33l-8.36,1.88c-2.95.89-5.2-.98-7.45-1.29-1.93-.27-20.24.73-20.24-.28,11.74-2.55,24.17-1.33,36.06-.3Z" fill="#3e3b39"/>
  <path d="M484.23,169.96l-7.22,1.78c-7.9-.1-15.37,2.25-23.24,1.94-.14-1.63-.08-1.03.93-1.22,5.18-.97,10.35-1.34,15.53-1.89,4.78-.5,9.14-1.96,13.99-.61Z" fill="#3e3b39"/>
  <path d="M493.56,173.68c-4.19-.87-8.32,1.02-12.13,1.24-.75.04-2.95-.33-4.16-.43-.68-.05-1.39.69-1.74-.81,2.36-.37,15.77-1.55,16.17-3.44.17-.81-1.52-1.68-1.25-2.77.87.24,2.03-1.24,2.17-1.24,1.47-.03.81,6.13.93,7.45Z" fill="#3e3b39"/>
  <path d="M387.86,187.36c.98.74.01,1.14-.92,1.25-1.66.19-3.94.4-5.6.5-2,.12-5.18.1-7.43.15-4.05.08-8.12-.12-12.16-.03v-1.86h26.12Z" fill="#3e3b39"/>
  <path d="M494.17,156.27c.19,1.19-.49,1.66-1.55,1.86-3.49.64-9.19-.22-13.08-.02-3.87.2-8.17,1.13-12.09,1.26-.15-.88,1.1-.9,1.73-1.06,7.92-1.98,16.88-1.08,25-2.04Z" fill="#3e3b39"/>
  <path d="M422.68,86.02c1.89-.3.99.47,1.26,1.51,1.3,5.15.62,13.31-.01,18.7-.13,1.15.19,1-1.25.92v-21.14Z" fill="#3e3b39"/>
  <path d="M492.93,178.66v3.11c-2.56,1-3.17-1.18-3.37-1.17-2.04.09-4.79,1.08-7.19.54-.15-.95,1.16-.73,1.87-.91,2.84-.74,5.81-1.06,8.69-1.57Z" fill="#3e3b39"/>
  <path d="M492.93,162.49v3.11c-3.15-.42-6.06-1.72-9.32-1.24-.99-.73-.02-1.13.92-1.24,2.61-.31,5.69-.09,8.41-.62Z" fill="#3e3b39"/>
  <path d="M407.45,174.92c.61-.03,1.83-1.78,1.55.62-4.5-.1-7,2-11.62.71-1.06-.3-1.72.46-1.44-1.33,3.82-.13,7.68.17,11.5,0Z" fill="#3e3b39"/>
  <path d="M448.79,83.53l-1.86,10.56c-.04-1.85-1.45-8.41-1.18-9.58.07-.29.31-.51.52-.69l2.52-.28Z" fill="#3e3b39"/>
  <path d="M419.57,81.66c-.08,1.95.15,3.95,0,5.9-.07.84-.3,3.76-1.23,4.05-.11-1.72.19-3.52-.06-5.23-.4-2.73-3.19-5.39,1.29-4.72Z" fill="#3e3b39"/>
  <path d="M413.35,125.8c-1.03.17-.67-1.5-.65-2.19.06-1.78.07-4.38.21-6.02.05-.62.19-3.05,1.06-2.97.07,3.88.74,7.4-.62,11.18Z" fill="#3e3b39"/>
  <path d="M492.93,185.49c.38.43.02,2.07-1.03,2.4-1.82.57-3.94-.67-5.8-.54.29-1.01,6.59-2.12,6.83-1.86Z" fill="#3e3b39"/>
  <polygon points="367.34 173.69 362.38 175.55 361.75 173.06 367.34 173.69" fill="#3e3b39"/>
  <path d="M423.29,110.88h-.61c-.31-2.59.92-2.59.61,0Z" fill="#3e3b39"/>
  <path d="M252.33,77.93l1.24,117.51c-5.42-.92-11.55-.81-17.12-.65-2.06.06-7.56,1.8-8.28-.37l-.71-43.13c1.1-.1,7.79-.34,8.09-.62.38-.36-.87-5.02,1.01-5.55.98-.28,4.81,1.25,6.45.58.16-.98-.23-5.39,0-5.6.23-.21,5.7-.15,6.19-.65.38-.39-.3-3.96.06-4.3.25-.24,2.65.37,3.02-1l-.84-40.08c-.41-1.25-.73-1.45-1.93-1.8-8.17-2.41-28.9.95-37.29,3.69-2.15.7-16.85,7.49-17.1,8.53-1.02,9.68-.31,19.4-.58,29.12-.08,2.93-1.33,6.35-1.33,9.3.01,10.17,1.79,21.89,1.95,32.3.1,6.66.06,13.34-.62,19.92-7.59,2.83-15.55.08-23.35-.3-18.83-.92-38.44,2.36-57.16,2.5-8.31.06-16.63-1.6-24.87-1.91-5.35-.2-10.57.48-15.88.65-.13-6.7-.17-13.48-.02-20.23.5-23.88-1.56-47.58-.59-71.47.17-4.24,1.17-9.45,1.26-13.66.05-2.05-1.1-9.29-.06-10.02.86-.6,13.57-.3,15.92-.3,14.92,0,30.26.02,45.39,0,30.86-.04,61.78-1.98,92.58-2.48,8.19-.13,16.4.15,24.59.02ZM169.01,82.28h-2.48s.93,12.43.93,12.43l1.55-12.43ZM87.57,83.53h-2.48s.62,9.32.62,9.32c.78,1.02,1.13-.06,1.24-.92.35-2.7-.51-5.66.62-8.4ZM96.28,106.53v-21.76c0-.14-2.29-1.47-2.48-1.24.28,6.46.65,13.05,1.32,19.5.07.71.28,3.43,1.17,3.5ZM77.62,84.15l-1.88,1.55,2.19,15.86c1.16,0-.9-15.88-.31-17.41ZM199.48,90.37c-.26-.21-4.89,1.78-5.62,2.17-.4.21-2.33.63-1.21,1.56.26.21,4.89-1.78,5.62-2.17.4-.21,2.33-.63,1.21-1.56ZM182.7,120.83v-10.26c0-2.07-3.19-7.73-5.91-7.73-6.03,0-7.25,13.76-6.53,17.99h12.43ZM121.14,132.02c.39-3.56.84-7.18,1.4-10.72.3-1.92,2.35-4.26.15-6.05-1.56-.29-.82,1.22-.9,2.18-.31,3.72-1,7.49-1.26,11.18-.05.74-.52,3.4.61,3.41ZM76.38,117.1c-1.65-.14-1.02-.05-1.21.94-.57,2.94.01,4.32,0,6.8-.04,9.51.64,18.87,1.53,28.32.32,0,.86-3.38.93-4.05.55-5.37,1.36-13.43,1.3-18.64-.05-4.1-2.56-9.04-2.54-13.37ZM127.36,117.72v14.92c1.78.31,1.02-.44,1.4-1.37,2.02-4.92.52-4.57-.12-8.3-.09-.55.36-7.42-1.27-5.25ZM146.01,128.3c-.14-.13-1.35.07-1.86,0,.52,6.23-2.69,11.97-3.11,18.03l2.5-1.05c-.75-2.42,3.1-16.4,2.46-16.98ZM94.41,160.62c-1.32-9.14,3.57-17.81,2.49-26.73l-3.51,16.05-.15,4.04,1.17,6.64ZM85.71,155.65c1.98-.99,1.3-4.62,1.16-6.45-.06-.78-.35-3.85-1.16-4.12v10.57ZM172.75,145.7c-.8-1.06-1.13.08-1.23.92-.41,3.18-.7,6.1-1.31,9.27-.18.94-.99,1.65-1.15,2.58-.38,2.23.25,4.34.59,6.49l3.03-12.82.07-6.45ZM140.73,146.95v.62c.4-.21.4-.41,0-.62ZM100.63,153.16v19.27c.93.04,1.08-2.19,1.17-2.87.7-5.33.13-10.14.07-15.48l-1.24-.92ZM133.58,161.24c.23.22,1.94-.03,2.49-.31,2.06-1.02,1.03-5.15,1.24-7.15-1.35.53-4.28,6.93-3.72,7.46ZM233.06,154.41v11.19c1.44.08,1.11.23,1.25-.92.39-3.35-.14-6.93,1.87-9.95l-3.11-.32ZM159.69,176.78l1.24-16.78-1.68,4.22c-.54,2.57-1.15,5.17-.72,7.83l1.16,4.73ZM129.84,161.87c-1.67-1.61-1.28,3.82-1.23,4.35,2.78,1.44,1.95-3.66,1.23-4.35ZM112.44,172.75c-.03,3,.02,6.02,0,9.01,1.46.08,1.1.21,1.24-.92.43-3.37-.61-7.16.5-10.58l-1.11-7.15c-.63,3.18-.6,6.43-.63,9.63ZM123.01,171.19c3.16-.3,2.65-3.16.92-4.96-1.64-.88-.7,4.4-.92,4.96ZM87.57,192.95c-1.17-6.33-.07-13.2-.81-19.4-.08-.64-.13-2.48-1.05-2.35l-1.18,20.78c.57,1.24,1.83,1.03,3.04.98ZM165.29,185.49v-9.64c0-.1-.61-1.82-1.24-1.55-.42,3.72-.88,7.42-.63,11.19h1.86ZM108.08,186.11c2.67-3.77,1.5-6.35,1.25-10.56-1.46.78-1.72,4.34-1.85,5.91-.08.97-.53,4.24.6,4.65ZM190.16,177.41v12.12c0,.19-1,2.37-1.2,2.53-.62.48-2.35-1.48-1.91.88l4.98.63v-13.37c0-.47-1.03-1.83-.63-2.8h-1.24ZM147.25,183.62c.32-.31,0-4.94-.92-5.58l-3.42,6.21c.72-.48,4.18-.48,4.34-.63ZM77.59,194.16c.82-.92-1.6-6.42-1.79-7.77-.22-1.58.03-3.32-.03-4.95-.03-.75.46-2.31-.62-2.16l-.62,15.54c.58-.17,2.96-.54,3.07-.66ZM95.04,192.33c5.19.09-.11-9.43,1.23-13.05l-1.23,7.15v5.9ZM90.06,192.95c3.67-.61.11-7.66,1.23-10.56l-1.23,5.91v4.65ZM184.56,182.38c-1.48-.09-1.09-.2-1.24.93-.39,3.1-.36,6.27-1.26,9.32l2.5.32v-10.57ZM109.19,187.55c-.11-.14-1.65-.89-1.71-.82-1.9,7.17,1.97,4.7,6.83,3.72-.38-1.84-4.37-.82-4.91-1.33-.19-.17.1-1.18-.2-1.58ZM142.28,192.34c-3.91-1.64-7.4.74-11.36-.51l-4.18,2.36,15.53-1.86Z" fill="#f2efe6"/>
  <path d="M325.07,57.42c1.49,4.9,10.08,1.13,13.67,2.81.68.32,4.07,3.06,3.12,4.03h-5.59c.86,4.12,6.91,1.83,10.1,2.64,1.48.38,3.98,2.83,4.81,4.19l-27.02,1.9c-46.98-.77-93.64-2.18-140.53-.02-25.43,1.17-49.84-2.19-75.1-1.58-2.29.05-4.76.93-6.95.98-9.42.23-18.92-.31-28.31-.02-1.19-11.59-1.37-23.42-1.24-35.13l1.86-1.55,1.24,3.72c-1.16-3.4-.1-3.21,1.25-5.59,1.13-.12-.01,1.14,1.5,1.29,6.96.71,15.81-.24,23.07-.08,3.14.07,7.5,1.25,10.57,1.29,9.66.14,20.57-1.48,30.44-1.32,7.44.13,14.84,1.7,22.37,1.29,37.17-2.04,73.92,1.53,111.32.65,9.83-.23,21.24-2.12,30.97-1.67,3.65.17,6.66,4.49,9.73,6.31l-6.83.31c.34,5.67,7.49,1.83,10.12,2.58.54.15,4.87,3.79,4.8,4.88h-8.7c-.53,1.28,2.01,2.33,2.83,2.46,2.47.38,8.36-.68,9.57-.28,1.88.63,4.91,4.29,6.25,5.9h-9.33ZM195.13,37.52h-24.56c-.13,0-2.42.58-2.17,1.24,9.09,1.75,17.59.78,26.73.63v-1.86ZM86.64,43.74c2.95-.23,6.05.17,9.01,0l-7.22-1.18c-2.24,1.01-7.63-.06-9.21,1.11-.27.2-.97,3.77-.91,4.07.26,1.14,1.81.94,2.69,1.01,7.78.58,15.57-.91,23.34-.66-.3-1.11-3.1-1.22-4.01-1.26-5.45-.22-11.06,1.13-16.81.64-2.46-.21-5.17-.79-2.4-3.01,1.87.39,4.07-.6,5.5-.72ZM223.73,45.61c-10.92-1.35-22.01.06-32.94-1.25-.3,1.72.36,1.05,1.36,1.4,7.97,2.82,13.76,1.13,21.94,1.07l9.64-1.23ZM309.52,50.58c.74-.65-2.25-3.49-3.43-3.71-6.17-1.17-14.46,1.13-20.81.61-1.01.77.01,1.13.92,1.24,2.51.32,5.5-.26,8.09,0,2.31.24,14.09,2.87,15.23,1.86ZM106.22,48.71h17.41l-8.99-1.27c-2.4.26-5.17-.27-7.5.03-.91.12-1.93.48-.92,1.24ZM208.18,51.21l-6.83-.62c.24,1.13,1.22,1.16,2.15,1.26.88.1,4.32.44,4.68-.64ZM190.15,51.83c-12.66.37-25.36-1.81-37.93.3,9.43,1.17,18.87-.42,28.32.97l9.61-1.27ZM309.84,53.69c-3-.02-6.02.02-9.01,0,.23,1.15,1.22,1.15,2.15,1.27,3.75.45,7.92.85,11.52.91-.89-.85-2.26-2.59-3.52-2.65-.56-.03-.98.48-1.14.47ZM330.04,54.94c-2.6-.94-5.36-.6-8.08-.62l2.15,1.26,5.92-.64ZM139.17,56.81c-.09-.08-1.31-.24-1.24.3-.81,3.53,2.31,1.84,4.97,2.17.49-2.22-2-.88-3.33-1.23-.61-.16-.35-1.19-.41-1.24ZM183.31,57.42l-17.12-.03-9.61,1.26,9.54,1.64,17.19-2.87ZM269.73,57.42c-2.34.78-4.82-.28-7.14-.02-.93.1-1.9.52-.93,1.26,2.16-.09,4.37.15,6.53,0,1.24-.08,1.8.49,1.54-1.24ZM224.36,59.29l-9.33-1.24c-.21,1.35.53,1.52,1.58,1.83,1.36.39,5.36,1.09,6.85,1.24,1.52.16.78-.84.89-1.83ZM190.78,65.5c-2.27-.22-4.91.32-7.12-.03-.83-.13-2.85-1.83-3.44-1.21-2.16,2.22,5.67,3.02,6.59,3.04.78.02,4.61-.14,3.97-1.8ZM78.25,67.99c1.37-.81,15.21.61,18.03,0-.09-.9-2.74-1.07-3.49-1.17-5.15-.65-10.38-.68-15.46-1.95l-.31,4.36c1.74.63,1.12-1.17,1.24-1.24Z" fill="#f2efe6"/>
  <path d="M267.87,134.51c-.02,6.11.02,12.24.03,18.37.01,6.67-.64,15.18-.09,21.77.1,1.16,1.21.6,1.36,1.79.68,5.37-.6,12.22-.05,17.76h-1.86s-.62-4.35-.62-4.35c-.54,1.61-.93,2.78,0,4.34l-9.33.63-.62-116.27c5.9-.39,11.86-1.01,17.75-1.26,22.32-.94,46.19.57,69.01.67,1.09,0,2.14-.54,3.08-.52.99.02,6.89.56,7.19.77,1.13.79.48,17.04.56,19.96.79,29.15-.95,58.02-.62,87.04.02,1.39,1.44,10.92-.29,10.86l-.94-4.98c-.98.43-1.67,1.06-2.82,1.21-5.21.69-12.66,1.11-17.97,1.3-9.49.34-18.87-.73-28.32-1.27.05-6.77.81-13.44.65-20.23-.26-11.14-1-22.34-1.27-33.54-.03-1.34-1.67-4.05.93-4.05h10.57c1.27,0,.79,3.59.93,3.73.29.31,6.42-.35,6.81.03.16.16.33,3.92.72,4.25.55.47,5.84-.27,6.16.06.23.24-.4,2.83.27,3.78.72,1.04,5.69.39,6.46,1.31.26.32.44,4.24,1.67,4.24h9.01l-.62,3.73,6.83.62.62-64.65c-.54-.57-5.12,2.24-5.59,2.8-.54.64-1.18,8.73-1.27,10.54-.68,14.04,1.09,27.98,1.26,41.99l-1.85-4.35c-1.18,2.88.67,5.76-3.4,5.61-5-.18-2.8-2.08-3.55-3.02-.93-1.18-5.83-1.11-6.75-1.65-1.12-.65-1.02-3.13-1.3-3.37-.61-.53-4.38.5-5.57-.34s-.32-3.83-.58-4.08c-.24-.24-5.45.15-6.7-.76-.57-.41-1.78-4.21-2.01-4.21h-17.1c-2.09,0-.29,9.28-.27,10.86.18,15.04-.93,30.39-.68,45.44.03,2.01,1.04,4.05.65,6.19-.11.87-.79-.31-.94-.31h-11.5c-.29,0,.17-5.28-1.24-5.59-.83,1.76-.42,3.57-.63,5.29-.11.85-.41,1.93-1.24.93.04-2.42-1.05-4.8-1.24-7.16-.64-7.88.03-15.82.02-23.59-.04-19.59-.68-38.85-1.99-58.36-.69-2.01-11.86-6.41-14.33-7.31-1.42-.52-.49-.32-2.56-.77-1.39-.3-2.64-1.17-4.14-1.04v39.17s9.32,0,9.32,0ZM325.69,85.4c-.77-1.01-1.13.01-1.24.92-.41,3.2-.19,9.08-.02,12.47.2,4.19.77,9.44,1.27,13.66.11.93.49,1.9,1.24.92.08-9.33-2.43-18.68-1.24-27.97ZM285.9,100.95c-.63-.63-5.63-1.52-6.83-1.25l4.7,2.44c.82.44,3.25-.09,2.13-1.2ZM320.71,104.04c.45-.87-.39-1.66-.61-1.24-.45.87.39,1.66.61,1.24ZM320.71,105.29l-1.24.92c1.14,3.15-3.16,12.38,1.87,11.2l-.63-12.12ZM261.65,136.38h-3.11s1.25,10.56,1.25,10.56l1.86-10.56ZM307.66,161.86c1.26,1.25,4.03-2.16,1.55-3.1-2.31-.87-1.71,2.94-1.55,3.1ZM331.91,159.39c-.78-.82-7.48-1.18-5.59.61.45.43,7.5,1.37,5.59-.61ZM314.5,163.12h-6.84c.08.5-.13,1.71,0,1.86.24.27,6.54-.76,6.83-1.86ZM315.58,172.59l-7.91,1.39c.83,1.36,1.42.57,2.34.54,2.32-.09,4.65-.39,6.98-.22-.09-.33-1.3-1.67-1.41-1.7ZM309.09,176.56c-.54-2.73-2.06,1.45-1.43,2.09l5.59-.63-4.16-1.46ZM311.39,181.76h-3.73c-1.32,3.7,5.15,1.12,3.73,0ZM260.4,187.36c-1.51-1.57-2.16,4.93-1.86,5.6h3.11c-.42-.9-1.05-5.39-1.25-5.6Z" fill="#f2efe6"/>
  <path d="M354.91,32.55v30.78c0,.1-.61,1.82-1.23,1.55.24-1.79-1.91-1.14-3.36-1.93-.51-.28-2.7-2.33-2.87-2.73-.78-1.87,5.15-.46,5.59-.93v-1.86h-9.64c-.46,0-5.87-5.6-5.91-6.84h15.23c1.48,0,.6-4.34.28-5.14-.18-.46-2.27-.65-1.22-1.7.18-.18,2.87.63,1.86-1.55-.87-1.88-4.73-.32-6.07-1.09-.27-.16-4.41-4.34-3.87-4.82,1.49-.01,9.25.66,9.95,0,.53-.5-1.18-4.38,1.24-3.73Z" fill="#f2efe6"/>
  <path d="M428.9,66.12c.07.05.1,1.1.59,1.56.72.67,4.61,3.16,3.76,4.04h-26.42c-2.33-.12-1.24,3.41-1.55,3.74-.27.28-4.98.39-4.35-1.87l2.48.62c2.08-5-1.99-5.82-4.35-9.32,2.85.85,7.73.03,10.13.74,1.94.58,3.42,5.22,6.65,3.29l-2.48-2.8c2.37.49,14.52-.66,15.54,0Z" fill="#f2efe6"/>
  <path d="M417.71,55.55h-13.37c-.41,0-3.74-4.05-3.42-4.97h9.95c.5-.69-1.55-2.43-1.69-2.46-4.64-.96-13.04,2.63-13.85-4.38h11.5c.7,0,9.1,8.83,9.95,9.94.48.63,1.2.78.93,1.87Z" fill="#f2efe6"/>
  <path d="M417.39,58.04c.62-.03,1.09-1.11,2.78-.33.29.14,3.27,2.94,3.94,3.55.61.55,1.34.55,1.04,1.75-4.86-.12-9.77.16-14.64.03-1.77-.05-3.25-.58-4.92-.68-5.19-.29-10.09,1.72-13.39-3.4,3.22-.43,6.97-1.54,10.24-.91,1.61.31,4.42,3.99,6.86,4.32l-2.8-4.34c3.61-.11,7.27.15,10.88,0Z" fill="#f2efe6"/>
  <path d="M339.68,36.28c.37.1,5.32,5.01,4.66,5.59-5.6-1.41-14,1.41-19.3-.27-1.1-.35-5.53-3.86-5.56-5.32h20.21Z" fill="#f2efe6"/>
  <path d="M461.98,62.26l-3.85-5.16c-.2-.63,4.22-1.19,4.97-.93v4.36s3.11,0,3.11,0c.18-.9-.29-4,.03-4.32.56-.58,7.39-.87,8.66-.33.32.13,4.91,4.03,4.98,4.35.09,1.03-.68,1.38-1.55,1.54-4.35.78-11.61-.1-16.34.49Z" fill="#f2efe6"/>
  <path d="M351.8,48.09c-7.8-1.39-18.02,4.39-23-3.72,7.67.88,18.06-4.24,23,3.72Z" fill="#f2efe6"/>
  <path d="M455.01,56.8c.52,2.44,3.58,3.8,3.73,6.22h-12.12c-.4,0-4.98-5.07-4.66-6.22h13.06Z" fill="#f2efe6"/>
  <path d="M431.38,48.09h-13.37c-.41,0-4.65-4.33-4.65-4.66,0-.07.85-.93.92-.93h13.06c.67,0,3.68,4.56,4.04,5.6Z" fill="#f2efe6"/>
  <path d="M468.38,49.34c.29.08,3.6,3.55,3.42,3.72l-14.01,1.31c-2.63.2-4.94-2.64-5.27-5.03,4.12.75,12.3-1.01,15.85,0Z" fill="#f2efe6"/>
  <path d="M388.48,41.25h-12.75c-1.17,0-5.45-3.42-4.66-4.97h14.61c.47,0,3.34,3.89,2.8,4.97Z" fill="#f2efe6"/>
  <path d="M446.93,42.5c4.79.91,11.93-2.56,15.53,1.56,3.67,4.21-9.95,3.92-11.99,3.29-.83-.25-4-4.46-3.53-4.85Z" fill="#f2efe6"/>
  <path d="M443.82,42.5c.26.17,3.04,5.03,2.48,5.59-6.26-.97-13.05,2.99-14.92-5.59,2.03.44,11.49-.59,12.43,0Z" fill="#f2efe6"/>
  <path d="M394.7,48.71h-12.12c-1.18,0-5.12-3.35-5.28-4.97h13.99c.26,0,2.47,3.65,3.41,4.05v.92Z" fill="#f2efe6"/>
  <path d="M397.81,50.58c.25.15,1.96,4.35,3.11,4.97-6.43,1.11-13.37,2.23-16.16-4.97,2.13.46,12.05-.62,13.06,0Z" fill="#f2efe6"/>
  <path d="M410.56,40.63c-.27-.08-3.92-3.79-4.04-4.05-.14-1.07-.03-.96.94-.95,5.1.08,10.82,1.56,16.03,1.25l2.3,3.74c-3.96-.72-11.81.97-15.23,0Z" fill="#f2efe6"/>
  <path d="M433.56,49.96c.75.21,3.47,4.32,2.79,4.97-5.97-.47-13.61,3.11-15.54-4.97,3.37.61,9.82-.82,12.75,0Z" fill="#f2efe6"/>
  <path d="M437.29,57.42c.16,0,.56-.57,1.14-.5,1.2.14,3.8,4.36,4.76,5.47-6.22-.11-12.62,2.41-15.54-4.97,3.21,0,6.42-.01,9.64,0Z" fill="#f2efe6"/>
  <path d="M449.1,49.96c.53.15,3.28,3.93,2.79,4.35-5.62-.9-13.15,3.52-14.92-4.35,3.23.58,9.32-.78,12.12,0Z" fill="#f2efe6"/>
  <path d="M237.4,140.72c-1.08.15-.58-1.41-.62-2.17-.26-6.41.17-12.89.03-19.31-.03-1.47-.64-2.83-.67-4.3-.13-6.1-.1-12.31.34-18.37,2.3,14.58,1.66,29.45.93,44.15Z" fill="#f2efe6"/>
  <path d="M402.78,41.25h-11.19c-.28,0-2.41-4.26-2.49-4.97h9.01c.35,0,4.8,4.22,4.66,4.97Z" fill="#f2efe6"/>
  <path d="M385.07,59.28c.33.09,1.95,1.89,2.18,2.48-3,.09-6.03-.09-9.04-.02-3.19.08-7.21,2.45-8.37-2.46,3.97.72,11.81-.97,15.23,0Z" fill="#f2efe6"/>
  <path d="M202.59,153.78c1.14.23,1.16,1.22,1.27,2.15.34,3,.54,8.04.63,11.18.12,4.48.09,8.99-.66,13.39l-1.24-4.66v-22.07Z" fill="#f2efe6"/>
  <path d="M440.09,36.9c.63,2.71-3.8.08-4.35,1.86,1.76.22,4.68-.83,5.59,1.25h-13.06c-.16,0-.32-2.57-.62-3.11h12.43Z" fill="#f2efe6"/>
  <path d="M456.25,39.38c-3.9.74-7.84.71-11.81.62l1.86-1.86-3.72-1.87c4.29,1.51,10.64-1.5,13.67,3.1Z" fill="#f2efe6"/>
  <path d="M226.83,133.9c-.1.99-2.67,1.17-3.42,1.23-4.41.36-11.78.65-16.12.58-1.67-.03-3.7-1.51-1.29-1.82,6.96.73,14.01-1.76,20.83,0Z" fill="#f2efe6"/>
  <path d="M230.57,128.3l-8.71-.63c.7-2.41,6.89-.66,7.46-1.23l.62-12.43c1.1.29,1.24,3.12,1.26,4.01.1,3.55-.96,6.74-.64,10.29Z" fill="#f2efe6"/>
  <rect x="220" y="159.38" width="1.24" height="20.52" fill="#f2efe6"/>
  <path d="M215.03,180.52c-.4.05-1.24-.82-1.24-.93v-18.96h.62c-.62,1.33.63,3.37.63,4.04v15.85Z" fill="#f2efe6"/>
  <path d="M209.12,146.32c-.3-.03-3.45-.65-3.42-1.24,6.24-.33,12.39.03,18.65,0,.25.66-2.05,1.24-2.17,1.24-4.1,0-9.11.39-13.06,0Z" fill="#f2efe6"/>
  <path d="M272.84,134.51l.62,9.33c-1.99-1.78-1.17-5.57-1.72-8.54-.22-1.2.05-.75,1.1-.79Z" fill="#f2efe6"/>
  <rect x="213.78" y="110.89" width=".62" height="14.3" fill="#f2efe6"/>
  <path d="M438.84,76.69c-.41.41-4.91-2.39-3.72-3.72.64-.71,4.43,3.02,3.72,3.72Z" fill="#f2efe6"/>
  <path d="M193.88,77.94c.42.22-.36,1.06-1.24.61-.42-.22.36-1.06,1.24-.61Z" fill="#f2efe6"/>
  <rect x="492.31" y="134.52" width="2.48" height=".61" fill="#f2efe6"/>
  <path d="M498.84,186.74c.4.21.4.41,0,.62v-.62Z" fill="#f2efe6"/>
  <path d="M182.7,120.83h-12.43c-.72-4.23.5-17.99,6.53-17.99,2.71,0,5.91,5.66,5.91,7.73v10.26Z" fill="#3e3b39"/>
  <path d="M76.38,117.1c-.02,4.34,2.5,9.28,2.54,13.37.06,5.21-.75,13.27-1.3,18.64-.07.67-.61,4.05-.93,4.05-.88-9.45-1.57-18.81-1.53-28.32.01-2.48-.57-3.87,0-6.8.19-.99-.44-1.09,1.21-.94Z" fill="#3e3b39"/>
  <path d="M96.28,106.53c-.89-.07-1.09-2.79-1.17-3.5-.66-6.46-1.03-13.04-1.32-19.5.19-.23,2.48,1.1,2.48,1.24v21.76Z" fill="#3e3b39"/>
  <path d="M87.57,192.95c-1.2.04-2.47.26-3.04-.98l1.18-20.78c.91-.13.97,1.72,1.05,2.35.74,6.2-.37,13.08.81,19.4Z" fill="#3e3b39"/>
  <path d="M190.16,177.41h1.24c-.41.97.63,2.32.63,2.8v13.37l-4.98-.63c-.44-2.36,1.29-.4,1.91-.88.21-.16,1.2-2.35,1.2-2.53v-12.12Z" fill="#3e3b39"/>
  <path d="M94.41,160.62l-1.17-6.64.15-4.04,3.51-16.05c1.09,8.92-3.81,17.58-2.49,26.73Z" fill="#3e3b39"/>
  <path d="M146.01,128.3c.63.58-3.22,14.56-2.46,16.98l-2.5,1.05c.42-6.06,3.63-11.8,3.11-18.03.51.08,1.72-.13,1.86,0Z" fill="#3e3b39"/>
  <path d="M172.75,145.7l-.07,6.45-3.03,12.82c-.34-2.15-.98-4.26-.59-6.49.16-.93.97-1.65,1.15-2.58.61-3.17.9-6.09,1.31-9.27.11-.85.43-1.98,1.23-.92Z" fill="#3e3b39"/>
  <path d="M127.36,117.72c1.64-2.17,1.18,4.7,1.27,5.25.64,3.73,2.14,3.38.12,8.3-.38.93.38,1.68-1.4,1.37v-14.92Z" fill="#3e3b39"/>
  <path d="M77.59,194.16c-.1.12-2.49.49-3.07.66l.62-15.54c1.08-.15.59,1.41.62,2.16.06,1.62-.19,3.36.03,4.95.19,1.35,2.61,6.84,1.79,7.77Z" fill="#3e3b39"/>
  <path d="M100.63,153.16l1.24.92c.05,5.34.63,10.15-.07,15.48-.09.68-.24,2.91-1.17,2.87v-19.27Z" fill="#3e3b39"/>
  <path d="M112.44,172.75c.03-3.2,0-6.46.63-9.63l1.11,7.15c-1.1,3.42-.07,7.21-.5,10.58-.14,1.13.21,1-1.24.92.02-3-.03-6.01,0-9.01Z" fill="#3e3b39"/>
  <path d="M77.62,84.15c-.59,1.53,1.48,17.42.31,17.41l-2.19-15.86,1.88-1.55Z" fill="#3e3b39"/>
  <path d="M121.14,132.02c-1.13,0-.66-2.67-.61-3.41.26-3.7.94-7.46,1.26-11.18.08-.97-.66-2.47.9-2.18,2.2,1.8.16,4.13-.15,6.05-.56,3.54-1.01,7.16-1.4,10.72Z" fill="#3e3b39"/>
  <path d="M142.28,192.34l-15.53,1.86,4.18-2.36c3.96,1.24,7.45-1.14,11.36.51Z" fill="#3e3b39"/>
  <path d="M233.06,154.41l3.11.32c-2.01,3.02-1.48,6.6-1.87,9.95-.13,1.15.19,1-1.25.92v-11.19Z" fill="#3e3b39"/>
  <path d="M159.69,176.78l-1.16-4.73c-.42-2.65.18-5.26.72-7.83l1.68-4.22-1.24,16.78Z" fill="#3e3b39"/>
  <polygon points="169.01 82.28 167.47 94.72 166.54 82.28 169.01 82.28" fill="#3e3b39"/>
  <path d="M95.04,192.33v-5.9s1.23-7.15,1.23-7.15c-1.35,3.62,3.95,13.14-1.23,13.05Z" fill="#3e3b39"/>
  <path d="M165.29,185.49h-1.86c-.25-3.77.21-7.46.63-11.19.63-.27,1.24,1.45,1.24,1.55v9.64Z" fill="#3e3b39"/>
  <path d="M184.56,182.38v10.57l-2.5-.32c.9-3.05.87-6.22,1.26-9.32.14-1.13-.24-1.01,1.24-.93Z" fill="#3e3b39"/>
  <path d="M109.19,187.55c.3.4.02,1.4.2,1.58.54.51,4.53-.51,4.91,1.33-4.86.98-8.73,3.44-6.83-3.72.06-.07,1.6.67,1.71.82Z" fill="#3e3b39"/>
  <path d="M133.58,161.24c-.55-.53,2.37-6.93,3.72-7.46-.21,2,.83,6.13-1.24,7.15-.55.27-2.25.53-2.49.31Z" fill="#3e3b39"/>
  <path d="M108.08,186.11c-1.13-.41-.69-3.68-.6-4.65.13-1.58.39-5.13,1.85-5.91.25,4.21,1.43,6.8-1.25,10.56Z" fill="#3e3b39"/>
  <path d="M147.25,183.62c-.16.15-3.62.15-4.34.63l3.42-6.21c.93.65,1.24,5.28.92,5.58Z" fill="#3e3b39"/>
  <path d="M87.57,83.53c-1.13,2.74-.27,5.7-.62,8.4-.11.86-.46,1.94-1.24.92l-.62-9.32h2.48Z" fill="#3e3b39"/>
  <path d="M90.06,192.95v-4.65s1.23-5.91,1.23-5.91c-1.12,2.91,2.44,9.95-1.23,10.56Z" fill="#3e3b39"/>
  <path d="M85.71,155.65v-10.57c.82.27,1.11,3.34,1.16,4.12.14,1.83.82,5.46-1.16,6.45Z" fill="#3e3b39"/>
  <path d="M123.01,171.19c.22-.56-.72-5.84.92-4.96,1.73,1.81,2.24,4.66-.92,4.96Z" fill="#3e3b39"/>
  <path d="M199.48,90.37c1.12.93-.81,1.35-1.21,1.56-.73.39-5.36,2.38-5.62,2.17-1.12-.93.81-1.35,1.21-1.56.73-.39,5.36-2.38,5.62-2.17Z" fill="#3e3b39"/>
  <path d="M129.84,161.87c.71.69,1.55,5.79-1.23,4.35-.04-.53-.44-5.97,1.23-4.35Z" fill="#3e3b39"/>
  <path d="M140.73,146.95c.4.21.4.41,0,.62v-.62Z" fill="#3e3b39"/>
  <path d="M223.73,45.61l-9.64,1.23c-8.19.06-13.97,1.74-21.94-1.07-1-.35-1.66.32-1.36-1.4,10.93,1.31,22.02-.1,32.94,1.25Z" fill="#3e3b39"/>
  <path d="M309.52,50.58c-1.14,1.01-12.92-1.62-15.23-1.86-2.58-.26-5.57.32-8.09,0-.91-.12-1.93-.47-.92-1.24,6.35.52,14.64-1.79,20.81-.61,1.18.23,4.17,3.06,3.43,3.71Z" fill="#3e3b39"/>
  <path d="M86.64,43.74c-1.43.11-3.63,1.11-5.5.72-2.78,2.22-.07,2.8,2.4,3.01,5.75.49,11.35-.86,16.81-.64.91.04,3.71.15,4.01,1.26-7.77-.25-15.56,1.23-23.34.66-.88-.07-2.43.13-2.69-1.01-.07-.3.64-3.87.91-4.07,1.58-1.17,6.97-.1,9.21-1.11l7.22,1.18c-2.96.17-6.06-.23-9.01,0Z" fill="#3e3b39"/>
  <path d="M195.13,37.52v1.86c-9.14.16-17.64,1.13-26.73-.63-.25-.66,2.05-1.24,2.17-1.24h24.56Z" fill="#3e3b39"/>
  <polygon points="183.31 57.42 166.12 60.3 156.59 58.66 166.19 57.39 183.31 57.42" fill="#3e3b39"/>
  <path d="M190.15,51.83l-9.61,1.27c-9.44-1.39-18.88.2-28.32-.97,12.57-2.11,25.27.07,37.93-.3Z" fill="#3e3b39"/>
  <path d="M78.25,67.99c-.12.07.5,1.87-1.24,1.24l.31-4.36c5.09,1.27,10.31,1.3,15.46,1.95.76.1,3.4.27,3.49,1.17-2.82.61-16.66-.81-18.03,0Z" fill="#3e3b39"/>
  <path d="M309.84,53.69c.16,0,.58-.5,1.14-.47,1.25.06,2.63,1.8,3.52,2.65-3.6-.06-7.78-.46-11.52-.91-.93-.11-1.92-.12-2.15-1.27,3,.02,6.01-.02,9.01,0Z" fill="#3e3b39"/>
  <path d="M106.22,48.71c-1.01-.76,0-1.13.92-1.24,2.33-.3,5.1.24,7.5-.03l8.99,1.27h-17.41Z" fill="#3e3b39"/>
  <path d="M190.78,65.5c.64,1.65-3.19,1.81-3.97,1.8-.92-.02-8.75-.82-6.59-3.04.6-.62,2.61,1.08,3.44,1.21,2.21.35,4.85-.19,7.12.03Z" fill="#3e3b39"/>
  <path d="M224.36,59.29c-.12.99.63,1.99-.89,1.83-1.49-.16-5.5-.85-6.85-1.24-1.06-.31-1.79-.48-1.58-1.83l9.33,1.24Z" fill="#3e3b39"/>
  <path d="M269.73,57.42c.26,1.74-.3,1.16-1.54,1.24-2.16.14-4.38-.1-6.53,0-.97-.73,0-1.15.93-1.26,2.32-.26,4.8.8,7.14.02Z" fill="#3e3b39"/>
  <path d="M330.04,54.94l-5.92.64-2.15-1.26c2.72.02,5.47-.32,8.08.62Z" fill="#3e3b39"/>
  <path d="M139.17,56.81c.06.05-.2,1.08.41,1.24,1.32.35,3.82-.99,3.33,1.23-2.67-.33-5.78,1.36-4.97-2.17-.07-.54,1.15-.38,1.24-.3Z" fill="#3e3b39"/>
  <path d="M208.18,51.21c-.37,1.08-3.8.74-4.68.64-.93-.1-1.92-.13-2.15-1.26l6.83.62Z" fill="#3e3b39"/>
  <path d="M325.69,85.4c-1.19,9.29,1.32,18.64,1.24,27.97-.75.99-1.13,0-1.24-.92-.5-4.22-1.06-9.47-1.27-13.66-.17-3.39-.38-9.27.02-12.47.12-.91.48-1.93,1.24-.92Z" fill="#3e3b39"/>
  <path d="M320.71,105.29l.63,12.12c-5.03,1.18-.73-8.05-1.87-11.2l1.24-.92Z" fill="#3e3b39"/>
  <polygon points="261.65 136.38 259.8 146.94 258.54 136.37 261.65 136.38" fill="#3e3b39"/>
  <path d="M315.58,172.59c.1.04,1.32,1.37,1.41,1.7-2.33-.17-4.66.13-6.98.22-.91.04-1.51.82-2.34-.54l7.91-1.39Z" fill="#3e3b39"/>
  <path d="M260.4,187.36c.2.21.82,4.7,1.25,5.59h-3.11c-.3-.66.35-7.16,1.86-5.59Z" fill="#3e3b39"/>
  <path d="M285.9,100.95c1.11,1.11-1.31,1.64-2.13,1.2l-4.7-2.44c1.2-.27,6.2.62,6.83,1.25Z" fill="#3e3b39"/>
  <path d="M314.5,163.12c-.29,1.1-6.59,2.12-6.83,1.86-.13-.14.07-1.35,0-1.86h6.84Z" fill="#3e3b39"/>
  <path d="M331.91,159.39c1.9,1.98-5.14,1.04-5.59.61-1.88-1.78,4.81-1.42,5.59-.61Z" fill="#3e3b39"/>
  <path d="M309.09,176.56l4.16,1.46-5.59.63c-.63-.64.89-4.82,1.43-2.09Z" fill="#3e3b39"/>
  <path d="M307.66,161.86c-.16-.16-.77-3.97,1.55-3.1,2.49.94-.28,4.35-1.55,3.1Z" fill="#3e3b39"/>
  <path d="M311.39,181.76c1.42,1.12-5.05,3.7-3.73,0h3.73Z" fill="#3e3b39"/>
  <path d="M320.71,104.04c-.22.42-1.06-.36-.61-1.24.22-.42,1.06.36.61,1.24Z" fill="#3e3b39"/>
</svg>