<?xml version="1.0" encoding="UTF-8"?>
<svg id="Capa_1" xmlns="http://www.w3.org/2000/svg" version="1.1" viewBox="0 0 386.13 188.75">
  <!-- Generator: Adobe Illustrator 30.3.0, SVG Export Plug-In . SVG Version: 2.1.3 Build 182)  -->
  <path d="M14.44,178.36c-7.37.09-6.04-9.25-6.05-14.11-1.08-5.68,17.36-12.63,20.46-15.41-1.07-7.63,9.47-10.53,14.53-13.71-.19-8.1-2.57-16.58,6.23-21.15,0,0,5.65-3.7,5.65-3.7.07-.51.91-14.2,1.08-14.37,3.21-10.58,1.12-8.62-4.55-16.93-4.73-5.27,6.25-14.42,8.31-18.62,2.58-4.23,9.08-1.65,12.83-1.18,0,0,3.75-.54,3.75-.54-.33-1.29-1.76-5.66-1.72-6.97-.19-3.69-.21-9.19,2.2-12.29.51-2.78-.41-15.76,2.2-17.76,6.03-8.23,17.91-13.71,28.08-12.26,6.59-.66,7.81,11.94,9.97,15.88,8.74-.69,16.33,8.67,18.93,16.18,2.91,5.47-5.7,10.1-8.65,13.25,3.28.12,25.97-4.63,28.48-2.72,1.6-4.82-4.04-29.52,4.59-30.42,3.86.25,29.47-9.67,32.51-5.95,4.52,2.88,5.78,5.84,11.5,3.51,5.35.65,19.62-.47,19.61,7.68.24,2.03-.8,13.87,1.19,15.1,3.51,3.11,151.67-32.61,146.37-16.2-4.33,4.56,8.78,123.1-6.47,118.8-25.11-2.97-172-10.62-191.58-11.37-2.23.09-5.81-3.39-7.63-4.32,0,0-25.1-.93-25.1-.93-.36,3.02,6.21,2.24,5.63,7.69-.65,4.24,1.86,2.3,4.66,2.7.74.16,9.16,2.15,10.1,2.63,7.62,1.37,3.36,19.54,4.4,24.4.64,3.56-3.85,4.47-3.84,7.05,4.19,14.65-143.68,2.05-147.69,6.05Z" fill="#f9f2e8"/>
  <path d="M157.54,62.02c-1.05-.16-1.67.26-2.41.32-.15.01-.14-.69-.88-.9-.79-.23-2.21.08-3.11-.16l-33.47,4.74-1.24-.32,35.97-5.15-.55-.74-32.85,4.41c.91-.94,3.32-1.13,4.69-1.36,9.37-1.57,18.85-2.5,28.21-4.12,2.43-.32,8.96,3.46,10.69,2.09.35-.28.04-6.94.07-8.19.03-1.21.58-2.37.41-3.68-.09-.68-.69-.49-.76-.78-.44-1.85.97-2.4,1.1-3.64.12-1.17-.85-1.7-.78-2.9.06-1.12.82-1.23,1.03-1.89.27-.85-.48-2.98-.28-3.93.15-.67,6.27-1.21,6.27-1.53-1.62-3.27-8.18-1.86-6.4-6.83l24.55-5.48c3.82-.63,8.54,4.54,11.8,4.77,2.75.19,7.26-2.32,10.21-1.8.9.16,6.29,2.94,6.63,3.65.97,1.99-.46,9.63.17,12.24.1.41,3.32,1.37,3.32,1.9v7.16l140.95-19.45c.18,1.11-.27.59-.89.74-1.69.41-3.62.55-5.35.73v1.1s2.94.19,2.94.19c-.65.03-4.11.45-2.94,1.65.21.22,5.12-.69,6.04-.75.4-.02,1.39-.23,1.29.38-.98.49-7.03.82-7.31,1.13-.06.07-.08,1.39-.03,1.44.59.62,13.81-1.61,14.32-1.1.21.21-.02,1.38-.62,1.4l-68.14,8.58c-1.23.4.19,3.13-.25,4.34l69.01-7.34c.21.84-.36.88-1,1-1.74.32-3.97.35-5.77.46-1.6,3.54,6.51.49,7.14,1.11.26,3.93-.43,7.87-.03,11.71l-68.37,6.69c-1.07.34-.46,2.68-.61,3.62-1.29-.29-.48-3.06-.73-3.3-3.69-.15-2.98.9-2.93,4.04l72.67-5.14c.03,2.09-5.28,1.23-5.51,1.47v1.1c1.78-.37,6.14-1.29,5.51,1.47-1.69.09-3.49-.3-5.09.42-.27,3.06.62,6.05.31,9.13.84.37,4.9-.61,5.14-.37.09.09-.06,1.11,0,1.46-7.06-.05-14.05,1-21.11,1.47-15.17,1.01-30.89,1.1-45.88,2.57-2.63.26-1.42,1.48-1.65,3.67-1.44-.3-.33-3.26-.55-3.31-.41-.08-3.36-.12-3.49,0s.1,2.07,0,2.57c-.86-.21.07-1.86-.71-2.41-.43-.3-2.47-.21-3.16-.17-15.53.83-31.08,2.04-46.59,2.97-3,.18-6.02-.19-9.01.35.5.69.23,3.54.36,3.67s2.4-.09,2.94,0v-3.3c1.55-.42.22,3.28.92,3.31l127.55-5.88v1.46s-12.3.37-12.3.37c-.97-.21-1.22,1.82-.73,1.84l13.02-.74c-.55,4.11.01,8.32,0,12.48-2.87.07-5.76-.08-8.64-.01-36.29.88-72.96,2.16-109.35,2.97-12.07.27-24.13.17-36.17.72-.1,2.49-.5,3.38,2.39,3.34,14.72-.24,29.6-.24,44.43-.38,16.11-.15,32.31-.86,48.42-1.13,17.87-.3,35.88.55,53.61-.35,1.52-.08,3.07.05,4.59,0,.19,1.26-.19,2.66-.16,3.86.1,4.33.64,8.42.55,12.86-.02,1.14-.5,2.29-.43,3.3.05.67,1.4.6.61,1.65-.57.76-2.65,0-3.67-.03-7.72-.22-15.48.37-23.13.4-12.08.04-24.29-1.44-36.34-1.87-10.89-.38-21.81-.07-32.7-.34-24.08-.59-48.24-2.23-72.28-2.6-2.28-.03-12.51.85-13.78-.36-.55-.52.04-.66.54-.73,1.61-.22,8.19.94,9,.36-.92-1.64-.04-3.32.02-4.94.1-2.87-.11-5.77-.01-8.64l-4.4-.37c.23-1.21-.32-3.54-.03-4.55.12-.41,1.04-.17,1.33-.56.4-.55.27-8.46-.25-8.79s-2.14.28-2.9-.22c-.69-.45-.95-3.62-.67-4.38.27-.74,1.33-.38,1.45-.82.21-.74.07-7.66-.12-8.69-.35-1.95-3.58-1.01-3.94-1.36-.15-.14-.1-3.82-.02-4.16.13-.53,1.26-.38,1.44-.66.25-.39.21-8.64.06-9.24-.1-.38-.84-.32-1.04-.86-.09-.24-.39-2.23-.38-2.53.05-1.64,1.15-1.29,1.65-1.76,1.8-1.7-.07-3.59.66-4.66.69-1.03,8.33-1.15,8.65-1.45.13-.13.04-3.67-.19-3.68l-15.72,2.26c-1.29.41.28,5.07-.22,6.38-.7,16.62-1.99,33.65-1.11,50.27.04.67-.43,1.36-.37,2.17.14,1.62,2.28,3.21,2.55,4.83.39,2.34-.42,4.81-.35,7.14h3.12c.91,2.32-4.17,1.36-5.87,1.47-1.03.07-1.99.63-2.94.66-2.38.09-5.46-1.09-8.03-.71-.84-.13-.44-1.58-.62-1.76-.63-.64-4.35-.02-5.28,0-6.83.09-13.8.38-20.57.38-1.76,0-3.16-1.1-3.37-1.14-.67-.13-1.9.44-2.87.41-1.63-.04-3.25-.68-4.96-.4.12.82-.19,1.95,0,2.68.1.41.88.43,1.13.77.79,1.03-.02,2.16-.04,3.33-.08,4.12-.03,8.21-.35,12.31h6.42c.87,0,.14,1.8.16,2.37l.37,3.33c2.02.54,9.7.15,11.05,1.07.68.46.46,2.95.88,3.52.57.77,2.99.12,3.69.68.41.32,1.65,3.9,1.65,4.26v9.36c-1.8.51-3.57-.1-5.5.37l.73,9.54c-6.14.54-12.37.44-18.55.38-8.48-.08-17.2-.48-25.68-.75-1.09-.03-5.07-.21-5.69.17-.37.23-1.57,3.53-2.19,2.76l-.25-10.4c.29-.58.64-1.1.76-1.76,1.24-7.16,2.89-14.19,4.63-21.24l-34.65-1.13-7.93,23.88c2.26.09,4.55-.11,6.8-.01,6.59.28,13.18.48,19.82.4,2.27-.03,4.52-.6,6.97-.4.87.07,2.61.29,3.1,1.11-12.34.95-24.74.12-37.07-.36v8.44h36.34c-.44,1.9-4.51,1.57-6.05,1.46-3.8-.26-6.94-1.02-11.02-.73-5.75.41-9.09.67-15.03.35-1.41-.07-4.4.32-5.47-.04-1.02-.34-.4-1.88-.62-2.13-.13-.14-3.36-.71-3.84-.75-5.92-.54-12.12.42-17.98.36-6.27-.06-12.81-.71-19.09-.77-1.09-.01-7.89,1.06-7.89-.15v-5.87c6.59-4.1,14.13-6.5,20.93-10.27.69-.78.43-6.69.78-8.21l14.1-5.17,1.79-19.13c1.35-.8,8.26-1.03,8.61-2.04.17-.49-.39-5.92-.34-7.31.09-2.32.43-6.47.84-8.71.29-1.58,1.57-2.51,1.74-3.4.48-2.51-1.07-7.97,2.95-7.52-.47-1.6-.44-3.3-.39-4.97.03-.84.29-4.6.44-5.06.25-.77,1.7-.83,2.14-1.53-2.59-.28-4.94-2.53-6.4-4.61-1.19-1.7-1.58-2.99-1.06-5.05.15-.58,2.78-6.51,3.02-6.79,1.36-1.64,6-.2,7.92-.22,4.55-.04,10.62-1.54,15.42-1.86,2.37-.16,4.79.11,7.15,0-2.61-3.92-3.55-8.64-4.41-13.21-3.13.99-5.35,2.21-6.6-1.83l2.2.18c-.94-1.21-2.71-1.61-2.94-3.3-.21-1.54,2.52.9,3.31.18-.76-2.49-.16-4.51.66-6.86.2-.59,1.04-1.47,1.05-1.76.01-.27-.59-1.24-.63-2.18-.11-2.43.67-4.11.72-5.93.03-1.12-.48-2.13-.3-3.61.12-.98,1.09-4.27,1.99-4.62l1.28,1.1c-.26-.81,1.36-2.7,2.02-2.57.55.12.7,4.44,3.31,4.44,2.92,0,2.88-5.36,3.7-5.53,1.43-.29,1.46,2.13,2.61,2.48,1.19.36,2.42-.04,3.41-.66.54.67-3.43,3.97-2.38,5.5,1.77-.78,2.31-3.66,3.1-4.54.31-.35.89-.13,1.05-.31.2-.22,0-.84.11-.97.31-.33,1.52.36,1.43-.41-3.18-.29-1.1-2.79-1.64-4.03-.59-1.38-3.35-1.77-3.15.15.13,1.2,1.42,1.21,1.48,1.31.4.58-2.54,3.39-3.67,2.93-.32-1.06.85-.64,1.07-1.33.67-2.08-2.41-4.91,3.53-4.91,2.73,0,1.22,2.13,1.81,4.06.41,1.34,2.06,1.71,2.33,2.44.54,1.44,0,3.01.15,4.22.13,1.07.93,5.82,1.37,6.37.9,1.14,3.28-.97,5.26-.85,3.16.19,8.58,3.4,9.65,6.5.25.71.02,1.67.34,2.22.39.66,2.73.81,2.35,2.31-.26,1.03-1.86.95-2.67,1.4-.47.26-3.74,2.75-4.36,3.25-1.76,1.41-2.19,4.32-5.41,2.95-.25.91.43,1.96.36,2.74-.1,1.11-2,3.32-1.86,5.52.13,2.12,5.13,3.76,2.78,6.42-.4.46-1.2.3-1.27.37-.11.11.66,2.78.77,2.88.72.64,14.86-2.25,17.02-1.79,6.29.04,15.41-3.47,21.31-3.12,2,.12,8.55,3.04,9.72,2.21.4-.28.5-1.16.36-1.3-.19-.18-1.95.25-2.58.2-1.13-.09-1.59-.73-2.19-.94.74.14,1.77-.1,2.57,0-1.82-1.59-5.25-2.15-7.71-2.56-.19,1.04.25.6.81.83.98.39,2.68,1.11,3.6,1.38ZM88.53,22.38c-.94-.91-1.24,2.54.37,2.2.13-.16-.23-2.06-.37-2.2ZM99.54,22.75c-1.25.23-1.73,1.43-2.91,2.04-1.93.99-3.5,1.06-5.53.34-.72-.26-1.05-.99-1.83-.92-.76.72,4.22,3.05.12,3.28-2.6.15-1.47-2.53-3.79-2.55-.32,2.04-.39,3.54.37,5.5l.37-1.83,1.47.36.36-.73c0,1.1.13,2.94,1.1,3.67-.57-3.44,1.12-1.69,3.02-2.58.42-.2.45-.79.9-1.01.79-.4,1.89-.29,2.52-1.17.19-.07.04,1.42,1.39.38l2.46-4.78ZM107.33,31.85c-.43-.76-.88-5.89-1.35-7.28-.17-.5-1.24-1.94-1.85-1.82-1.87.39.81,7.1.88,8.29.04.59-.52,1.68-.32,1.96.05.06,1.02.25,1.43.59.86.71,2.14,1.83,2.92,2.59,1.02,1,1.03,2.62,2.97,2.35-.18-2.03-1.26-3.48-2.56-4.96-.5-.57-2.06-1.6-2.13-1.72ZM198.28,26.79c-1.33.2-8.81-4.46-9.17-4.04.1.58-.21,1.71.06,2.14.17.28,5.45,2.75,5.81,2.84.78.19,2.94-.08,3.3-.94ZM188.37,23.11c-7.82,1.11-15.56,3.13-23.31,4.78-1.38.37-1.35,1.73.18,1.68,1.34-.04,3.44-.46,4.85-.69,6.14-.99,12.12-2.95,18.26-3.95l.02-1.82ZM194.98,30.82c-.04-.62.13-1.37-.06-1.96-.28-.86-7.29-4.3-8.75-2.81l.6,1.05,8.21,3.72ZM207.83,35.78v-7.71c0-.06.5-.58.73-.55v8.44c.86.05.65.13.73-.54.14-1.07-.03-9.02-.37-9.37l-13.21,2.57c.93,3.22-.15,6.3,0,9.54l11.5-1.89.61-.49ZM210.03,26.05v23.86c2.15-.6,2.31-.13,3.97.63.34.15,1.05.02,1.15.12.42.42-1,1.73,1.86,1.63l-1.84.19c-.53,2.17,2.47.18,4.04.73v-2.57c-.32-.31-2.01.83-2.2-.36,1.87.07,2.06.16,2.22-1.64.07-.76-.32-5.3-.56-5.71-.47-.79-2.8-.88-3.08-1.7-.9-2.61,1.17-8.63.25-11.63-.25-.81-5.54-3.86-5.8-3.56ZM185.8,27.52c-.77-.52-3.44-.88-4.04-.37-1.11.95,3.76,1.76,4.04.37ZM181.4,28.98c-.99-1.69-2.88-.99-4.4-.73,1.26,1.7,2.69,1.57,4.4.73ZM102.11,28.99c-.65-.64-.62.26-.76.52-.65,1.21-1.31,2.46-1.07,3.88-1.28-.47-1.99-1.24-2.93.36,2.41-.12,3.99,2.02,6.24,1.84-.54-1.03-1.05-6.19-1.47-6.6ZM177.36,30.08c-1.21-1.92-3.7-.84-5.5-.73.37.56,2.23,1.42,2.77,1.46.97.06,1.79-.66,2.73-.73ZM172.59,30.83c-2.42-1.11-4-1.03-6.6-.74-.16.84.05.59.47.82s2.27.96,2.68,1.01c.91.11,2.88-.25,3.45-1.09ZM194.98,33.76c-.53-1.83-3.64-2.65-5.31-2.57-6.48.32-16.47,3.37-23.24,4.67-1.58.31-2.19-.54-1.92,1.57,8.83-1.22,17.6-3.15,26.31-5.01l4.15,1.34ZM353.92,32.29c-1.25.03-9.55.76-9.89,1.12-.19.19.08,2.34-.02,2.92l9.91-1.11v-1.46c-2.42.21-4.86.77-7.27.99-.44.04-1.44.45-1.18-.44.12-.41,7.45-.74,8.45-.92v-1.1ZM113.49,32.66l-3.67.36c1.33.59,2.01,1.49,3.67,1.1-.06-.36.09-1.37,0-1.46ZM194.61,37.43c-.07-.77.23-1.9-.18-2.57-.33-.55-4.45-2.51-3.49-.37l-.59-.76c-3.93.78-7.86,1.78-11.81,2.49-1.78.32-13.52,1.81-14,2.33-.14.16.04,1.07-.02,1.44l19.65-4.05c1.89,1.09,5.44-.44,6.53-.25.82.14,2.49,2.16,3.91,1.74ZM343.27,33.76l-10.27,1.1c.19,2.17,2.64.13,4.03,1.1l-3.45.7c-.37.09-.25,1.09-.21,1.13.33.34,8.01-1.4,9.3-1.16,2.2-2.68-2.18-.74-3.6-.66-.78.04-1.53.28-1.29-.75,1.49,0,3.36-.13,4.78-.56.65-.19.86-.07.72-.91ZM120.46,34.5c-2.15.06,1.02,2.77,1.84,3.3.25-1.55-1.67-1.88-1.84-3.3ZM102.37,37.17c-.63-.57-3.97-1.81-4.88-1.92-2.27-.27-7.96.6-10.02,1.66-1.79.92-3.64,2.29-4.05,4.39-.07.35-.32,2.02.34,1.99.17-1.33,1.07-3.66,2.57-4.03-.09,1.7-1.31,3.2-2.2,4.59,2.73.35,2.8-4.28,4.59-5.68-.44,2.06-.82,4.28-2.02,6.05,1.41.3,2.14-2.97,2.76-4.22.15-.31.39-1.23.9-.93-.74,3.18-1.15,6.57-3.29,9.18.66.88,2.24-1.35,2.48-1.93.24-.58,1.86-10.74,3.76-8.9-1.3,2.95-2.42,6.66-1.17,9.79.77,1.92,2.45,2.99-.11,4.9-.87.65-1.71-.14-1.26,1.98.3,1.42,2.97,5.04,3.67,7.35.29.95.46,1.76.35,2.77,1.82-.73,2.69.44.74,1.29,3.32,2.41,3.27,1.4,2.25-1.89-.44-1.42-1.18-2.52-1.63-3.88-2.51-7.67.6-3.83,4.42-6.8,1.68-1.31,2.99-4.03,3.06-6.15.06-1.61-.9-3.72-.81-5.15.1-1.46,1.74-2.52-.44-4.47ZM332.63,35.23c-1.16,0-8.86.76-9.18,1.1-.07.08.04.8,0,1.1,2.49-.76,6.23-.46,8.56-1.17.49-.15.71-.53.61-1.03ZM354.27,37.41c.23-.28.04-1.65-.56-1.77-1.24.55-9.34,1.08-9.65,1.47-.19.23.02,1.02-.05,1.42,1.25.02,9.93-.72,10.26-1.12ZM322.71,36.33l-16.52,2.2v1.1c4.99-.8,10.18-.96,15.14-1.94,1.08-.21,1.63-.05,1.38-1.36ZM194.61,38.54c-.16-.17-3.92-1.71-4.32-1.77-2.05-.29-3.51,1.45-5.39-.03-6.59,1.67-13.6,2.11-20.1,4.12-.65.2-1.23.03-1.02.98l20.39-3.68c1.1-.16,1.84.73,2.9.76,1.21.03,3.36-1.09,3.99-1.03.22.02,5.23,2.46,3.55.66ZM332.63,36.7c-.31-.32-7.59,1.41-8.81,1.1v1.1s2.58.55,2.58.55c-1.6.35-2.88-.24-2.57,2.02,1.21-.48,8.49-.79,8.8-1.1.12-.12-.07-1.42,0-1.83-1.37.23-2.81.66-4.21.75-.47.03-1.93.3-1.67-.56.1-.34,4.58-.41,5.27-.61.63-.19.81-1.2.6-1.41ZM343.64,37.43c-.35-.37-9.52.79-10.04,1.09-.51.3-.15,1.03-.24,1.48,1.32-.21,9.91-.74,10.27-1.11.05-.05.06-1.4,0-1.46ZM323.09,38.16c-.27-.28-7.13.59-7.83.8-.49.15-.71.53-.61,1.03,1.4.29,2.95-.27,4.22-.29.32,0,1.71.11,1.65.66-1.61.33-5.54-.34-5.88,1.47-.66.08,0-.75-.9-.77s-6.09.59-6.93.84c-.93.28-1.05,1.67.48,1.62,5.1-.16,10.65-1.35,15.78-1.69v-1.83s-2.2-.55-2.2-.55l2.21-.19v-1.1ZM124.5,41.46c-.04-.53-.55-.57-.91-.74-1.58-.75-3.21-1.43-4.78-2.2,0,1.6-.97.82-1.86,1.44-1.39.97-1.07,2.37-.51,3.7,1.26.06,1.66-.72,2.55-1.29l-.54,2.02c3.67.6,2.65-3.81,6.05-2.94ZM193.14,48.07v-5.14l13.71-2.15c.2.06.61.37.61.5v5.51c-1.41.8-3.63,1-5.32,1.3-.62.11-.63-.22-.55.72.97.11,7.71-.14,7.71-.92v-9.36c-.86-.05-.65-.12-.73.54-.16,1.26.14,2.74,0,4.04l-.73,3.86v-7.16c0-.19.58-.77.37-1.28-.66-.61-13.44,2.48-15.4,2.58.05,2.14-.66,4.25-.38,6.42.07.54.28,1.14.73.54ZM184.33,38.9c-.12-.12-3.03.36-3.32.54-.66.41.39,1.55-.54,2.02-.01-2.43-2.12-2.21-2.76-.37h-.36c.45-1.3-2.35-.61-2.53-.32-.24.4.06,2.49-.41,3.25.22.2,4.34-.89,5.14-.95.58-.04.92-.12,1.1.59l-16.6,2.58-.65,1.09,20.02-3.31c1.24-.32,2.19.75,3.28.76,2.92.03,4.23-3.07,3.86,3.29h1.1c-.22-.69.12-4.9-.05-5.1-.08-.09-2.07-.79-2.33-.81-1.8-.12-4.38,1.32-6.43.76.06-.82,1.37-.5,1.49-.96.2-.75-.18-2.2-.03-3.08ZM190.21,38.9c-2.67.49-2.83-.09-2.56,2.93,2.16-.3,2.93-.52,2.56-2.93ZM305.46,38.9c-1.02.03-7.41.82-7.71,1.1-1.44,1.38,4.07.08,4.04.55l-2.95.73c-1.85.19-1.43,1.23.37,1.12,2.13-.12,4.47-.75,6.61-.94-.08-1.87-1.76-.62-2.93-.73-.21-1.6,2.74.16,2.57-1.83ZM186.48,39.68c-.11-.12-1.06-.13-1.41-.42.18,1.76-.84,3.42,1.46,2.94-.1-.57.2-2.25-.05-2.52ZM193.51,39.64c-.09-.09-2.42-.47-2.55-.36-.15,1.15-1.06,2.86.72,2.92.03-.45-.08-1.12.16-1.49.25-.39,2.56-.25,1.68-1.07ZM314.27,39.27c-.23-.24-5.8.66-6.67.85-.43.09-1.71.08-1.4.79.33.76.87.36,1.38.32.89-.06,6.46-.63,6.69-.87.04-.04.04-1.06,0-1.1ZM110.19,44.77c-1.04-.22-2.13,1.1-3.27.7l-1.5-4c.62,4.23-1.43,8.11-2.06,11.99-.52,3.17-1.24,10.76-1.24,13.89,0,2.23,1.64,6.25.85,8.18-.23.55-.74.11-.85,1.18-.44.13-2.45.66-2.55.76-.22.22.14,3-.03,3.76-.03.13-1.41,1.86-1.63,2.1-.6.67-3.88,2.94-3.13,3.66,3.92-.83,6.51,4.3,9.75.75,1.37-1.5,1.07-4.16,3.57-5.25,1.64-.72,2.63.4,3.94,1.19.28-1.9-2.82-5.92-4.58-5.89-.14,0-.07,1.14-1.43.75-.26-.07-.21-.7-.47-.75-.86-.16-2.37.71-3.43.38.03-.48-.05-.99,0-1.47,2.76-.83,2.42.08,4.11-.07.73-.06,3.49-1.1,3.97-1.58.67-.67.15-1.85.55-2.75.36-.82,2.01-1.45,2.31-2.84.48-2.2-2.02-5.84-2.67-8.18-.38-1.35-.72-3.23-.88-4.63-.51-4.5,1.07-7.68.69-11.88,1.72.36,0,7.19.78,7.66,2.29,1.4,1.87-4.17,1.8-5.29-.07-1.16-.95-7.21-1.71-7.46-.56-.19-1.36,0-1.97-.05-.13,1.95.93,3.19,1.1,5.14ZM289.31,41.1c1.09,1.36,4.85.37,6.45.02,2.05-.45,2.16-1.13.08-1.03-2.06.1-4.44.84-6.53,1.01ZM288.95,41.1c-.21-.22-5.32.6-6.04.75-.64.13-1.04.35-.93,1.09l6.97-.73c-.05-.3.07-1.01,0-1.1ZM297.39,41.47c-.22-.23-5.48.68-6.31.84-.41.08-1.71.11-1.39.8.49.77.84.43,1.46.39.8-.05,5.77-.71,6.03-.91.34-.25.28-1.06.21-1.13ZM281.6,42.2c-3.94.47-7.95.84-11.86,1.53-.68.12-2.77,0-2.45,1.03,3.01.25,6.33-1.12,9.27-1.02.27,0,1.12.19,1,.65-1.09.13-3.27-.6-3.3,1.1,1.64.41,3.96-1.21,5.14.37-1.45.23-5.45-.37-5.14,1.84.96.03,7.07-.49,7.31-.76.15-.16-.04-1.06.03-1.44l-1.84-.55,1.84-.19c.45-2.15-1.81-.32-3.31-.74.59-1.5,3.29.16,3.3-1.83ZM305.83,42.2c-1.21.48-7.15.54-7.54,1.08-.26.36-.16.73-.16,1.12.86-.26,2.05.47,2.71.39.25-.03.2-.68.48-.75.69-.16,4.14,0,4.5-.39.14-.16-.04-1.07.02-1.44ZM289.31,42.57c-.25-.25-6.68.73-6.98.91-.36.22-.43.52-.36.92.46.41,5.16-.8,5.14.19-.76.32-5.11.33-5.13,1.1,0,.05.36.85.4.88.3.24,6.69-.46,6.93-.71.59-.61-.18-2.06-1.46-1.46.12-.65,2.42-.86,1.47-1.83ZM113.86,45.87c2.62-.1,3.12-2.34.37-2.57l-.37,2.57ZM297.39,43.3c-.18-.19-3.85.64-4.59.73-1.74.21-3.19-.83-2.75,1.47.95-.01,7.08-.48,7.34-.74.05-.05.05-1.4,0-1.46ZM266.92,44.04c-.24-.22-5.76.85-6.49,1.05-.63.17-1.02-.26-.85.78,1.85-.17,4.7-.17,6.4-.75.36-.12,1.46-.59.93-1.08ZM183.97,44.77c-2.03-.38-1.33.67-1.84,2.2l-1.09-1.46v1.83s-.75-1.83-.75-1.83c-2.53-.11-1.77,1.36-1.82,3.3,3.55-.52,6.38.84,5.51-4.04ZM189.47,44.77l-4.41.73c.03.38.3,2.11.39,2.18.14.12,3.49-.4,3.68-.52.59-.38.02-1.77.34-2.4ZM273.9,44.77l-6.61.73c.05.3-.07,1.02,0,1.1.2.21,5.1-.59,5.67-.75.62-.18,1.06-.28.94-1.08ZM360.53,44.77c-.95.01-7.08.48-7.34.74-.05.05-.06,1.4,0,1.46.23.24,6.1-.22,6.74-.42.77-.24.62-1.12.6-1.78ZM259.21,45.14c-3.88.85-8.1.88-11.95,1.82-.62.15-1.07-.36-.89.74l8.44-.73-1.84.36c.05.3-.07,1.02,0,1.1.22.23,6.04-.49,6.24-.74.08-.1-.05-.79,0-1.09l-1.11-.18,1.1-1.28ZM266.55,45.87c-1.39.19-5.35.13-6.36.73-.49.29-.19.66-.24,1.11,1.85-.57,3.98-.5,5.81-.99.65-.17.95.1.79-.84ZM351.71,47.33c.38-.6-.18-1.33-.92-1.47-.73-.14-7.28.47-7.47.79-.22.37.02,1.28-.05,1.78,1.08.12,8.21-.75,8.44-1.11ZM177.73,46.24h-1.1v2.94h1.1v-2.94ZM273.9,46.24c-.95.4-6.25.76-6.56,1.14-.11.13-.09,1.37-.04,1.42.23.24,5.62-1.07,6.61-.73v-1.84ZM299.23,46.24c-3.91-.32-3.43.66-3.3,4.04.5,0,3.17-.27,3.28-.39.2-.2-.1-3,.02-3.65ZM175.89,46.6c-3.18,0-4.17-.21-3.67,3.31,2.71.08,4.2-.2,3.67-3.31ZM295.19,46.61l-53.72,7.03c-.86.26-.19,2.72-.6,3.61,15.75-1.53,31.44-3.73,47.17-5.5,2.35-.26,4.71.12,7.14-.75v-4.39ZM341.78,46.62c-2.06.58-5.61.19-7.45.77-.84.26-.6,1.44-.6,2.15l7.84-.79c1.01-.31.24-1.34.22-2.13ZM171.49,47.34c-1.41-.29-.49,2.13-.73,2.93,1.41.29.49-2.13.73-2.93ZM246,47.34c-3.56.22-7.58.53-11.09,1.21-.66.13-2.06,0-1.76.99,2.12.4,5.2-1.16,7.14-.76.43.09-.04,1.06.4,1.15,1.54.31,3.36-.6,4.94-.39l-1.84-1.47,2.2-.73ZM266.92,47.34l-6.97.73v1.84c1.39-.54,5.85-.41,6.76-1.06.44-.31.15-1.03.21-1.5ZM170.02,47.71c-4.59-1.16-2.31,3.44-2.94,4.04-.31.29-4.02-.32-2.74,1.48l25.14-4.78c0-.63.21-.79-.52-.7-6.3.77-12.57,2.79-18.94,3.28v-3.31ZM252.24,47.71c-1.76.3-3.61.29-5.35.72-.62.15-1.07-.37-.89.74.44.16,7.6-.32,6.24-1.46ZM332.26,47.71c-1.11.25-8.1.78-8.42,1.12-.16.17.05,1.39-.02,1.82l8.44-.73v-2.2ZM166.35,48.07c-2.81-.15-2.24,1.03-2.2,3.31,2.75.41,2.23-1.21,2.2-3.31ZM204.52,51.01c-1.35-1.58-3.69-1.78-5.5-2.56v2.94s5.5-.37,5.5-.37ZM259.21,48.44c-.22-.22-6,.53-6.21.76-.06.07-.07,1.39-.02,1.44.22.22,6-.53,6.21-.76.06-.07.07-1.39.02-1.44ZM323.08,50.64c.19-.19.04-1.63-.6-1.81-.33-.09-6.67.95-6.77,1.29-.09.31.08.87.02,1.25,1.03-.48,7.08-.47,7.34-.73ZM232.42,49.18l-2.71.04-3.53.87c.49.78.84.43,1.46.39,1.2-.07,3.01-.36,4.23-.58.6-.11.64.24.55-.72ZM240.13,49.54c-1.67-.02-3.59.14-5.22.48-.63.13-1.64.02-1.38.99,2-.12,4.08-.38,6.05-.74.6-.11.63.24.55-.72ZM252.24,49.54c-.42-.45-4.9.62-5.88.36v1.84c.83-.49,5.67-.53,5.88-.74.05-.05.05-1.41,0-1.46ZM225.81,49.91c-1.45.24-2.98.26-4.42.55-.65.13-1.3,0-1.08.92,1.5-.14,3.27-.24,4.71-.63.65-.17.95.1.79-.84ZM245.64,50.28c-.17-.18-4.33.24-4.94.34-.4.07-.16.78-.21,1.12-.66.07,0-.67-.89-.77-.63-.07-5.87.55-6.08.77-.04.04-.04,1.06,0,1.1.42.44,10.51-1.48,12.12-1.1v-1.46ZM314.28,50.28c-.25-.26-6.77.44-7.13.7-.31.23-.31,1.03-.22,1.13.49.51,6.17-1.11,7.35-.73v-1.1ZM232.42,50.65l-5.87.36v1.1c1.77-.68,4.52-.07,5.87-1.46ZM181.03,51.01c-2.4.66-5.91-.23-5.14,3.3l-.36-2.2h-1.1s0,2.57,0,2.57c.13.13,3.53-.25,3.66-.39.18-.2-.11-1.32.01-1.45.28-.31,3.65.91,2.94-1.83ZM305.83,51.01l-6.98.73v1.46c.98-.31,6.72-.49,6.97-.74.1-.1-.05-1.1,0-1.46ZM205.26,51.38c-1.18.27-3.32-.03-4.04,1.1,1.06.07,2.12-.1,3.14-.35.62-.15,1.07.37.89-.74ZM225.81,51.38c-1.5.14-3.27.24-4.71.63-.65.17-.95-.1-.79.84,1.5-.09,3.22-.29,4.66-.68.63-.17,1.02.26.85-.78ZM211.86,51.75c-3.02.71-6.23.64-9.26,1.21-.61.11-1.64.05-1.38.99,3.09-.46,6.7-.5,9.71-1.11.64-.13,1.04-.35.93-1.09ZM200.12,52.11c-2.98.39-6.01.67-8.99,1.11-.64.09-.62-.19-.55.72,2.52-.18,5.31-.41,7.79-.84.64-.11,2.06-.02,1.75-.99ZM232.79,52.11l-6.24.37v1.1c.6.15,7.57-.31,6.24-1.46ZM297.39,52.11c-.27-.28-7.43.47-7.7.74-.05.05-.06,1.4,0,1.46.3.31,6.59-1.18,7.71-.73-.06-.36.09-1.37,0-1.46ZM174.06,52.48c-.6-.58-2.08.18-1.47,1.47-.15.21-.9-.91-1.09-.73-.14.12.3.88-.37.73.83-1.73-2.27-.98-2.51-.66s.27,1.15-.42,1.03c-.04-2.69-1.64.02-1.11,1.47l6.98-.73c-.08-.5.12-2.46,0-2.57ZM225.81,52.85c-.26-.27-3.77.33-4.47.49-.43.09-1.71.08-1.4.79.45,1.05,4.79-.41,5.87-.18v-1.1ZM288.95,52.85l-6.61.73c.06.36-.09,1.37,0,1.46.23.24,6.36-.51,6.58-.76.14-.16-.04-1.07.02-1.44ZM306.57,55.41l-.54-2.19c-2.17,1.26-7.98-.77-7.16,2.93l7.71-.74ZM166.71,53.58c-2.7.24-3.32-.08-2.93,2.94,2.24-.41,3.36-.17,2.93-2.94ZM179.56,53.58h-1.1v9.18c.31.15,1.1-.31,1.1-.55v-8.63ZM200.12,53.58c-2.47.04-4.98.45-7.41.84-.66.11-2.46,0-2.13.99,2.96-.56,6.01-.67,8.99-1.11.64-.09.62.19.55-.72ZM219.2,53.58c-.16-.17-5.1.53-4.03,1.46.79.27,5.34-.05,4.03-1.46ZM207.82,53.95c-1.02.02-2.05-.08-3.07.04-.39.04-1.72.14-1.69.69,1.48.11,2.39.38,3.87.02.63-.15,1.07.36.89-.74ZM240.08,54c-.44-.27-1.87.07-2.52-.05.15,1.79-.81,3.84,1.66,3.7,2.11-.12,1.25-3.41.86-3.65ZM281.24,53.95c-.24-.24-6.18.36-6.44.71-.2.27-.25,1.03-.16,1.12.24.24,6.18-.36,6.44-.71.2-.27.25-1.03.16-1.12ZM90.73,57.25c.12-.14-.94-2.8-1.46-2.93-.67.62.79,3.71,1.46,2.93ZM236.82,54.31l-20.92,2.2v3.67c2.41-.59,20.67-1.77,20.95-2.8.2-.75-.18-2.2-.02-3.08ZM297.39,54.31l-7.34.73.37,4.77,6.97-.73v-4.77ZM200.12,54.68c-2.6.81-6.49.43-8.93,1.17-.49.15-.71.53-.61,1.03l9.54-.73v-1.46ZM202.69,54.68h-1.46v.36h1.46v-.36ZM273.9,54.68c-.22-.22-6.03.51-6.24.73-1.16,1.23,2.16,1.62,3.14,1.5.68-.09.48-.69.78-.76.7-.16,1.58.08,2.32,0-.06-.36.09-1.37,0-1.46ZM177.73,55.42c-.47-.49-11.42,1.46-13.09,1.78-.59.11-1.4-.28-1.23.6.44.66.91.56,1.59.53,4.05-.17,8.61-1.59,12.72-1.81v-1.1ZM266.56,56.88c.1-.1.02-.81-.18-1.11-.45-.7-5.55.78-6.8.38v1.46c.97-.48,6.72-.49,6.97-.73ZM212.23,55.78l-23.86,2.93v3.31s23.5-2.57,23.5-2.57l.36-3.67ZM215.12,56.56c-.07-.08-2.07-.49-2.16-.41.05,2.44-.82,3.68,2.2,3.67-.13-.66.22-2.96-.04-3.26ZM259.22,56.52l-6.24.37c.06.36-.09,1.37,0,1.46.22.22,6.03-.51,6.24-.73.07-.08-.05-.8,0-1.1ZM252.24,57.25l-12.48,1.1v1.46c3.73-.77,7.8-.59,11.48-1.2,1.01-.17,1.14-.31,1-1.37ZM100.64,64.22l1.1-6.6-1.53,2.68c-.53,1.16-1.5,3.79.43,3.92ZM266.55,57.62c-1.11.39-6.13.26-6.57.77-.27.32.11,3.58-.04,4.37,1.11-.39,6.13-.26,6.57-.77.27-.32-.11-3.58.04-4.37ZM177.73,59.45l-.18-1.46c-4.02,1.19-8.4,1.09-12.48,1.83-.64.12-1.03.38-.92,1.09l13.58-1.47ZM238.66,58.72c-.73-.07-5.79-.05-5.51,1.28.16.75,1.04.41,1.46.39.57-.03,3.91-.41,4.04-.57.08-.1-.05-.79,0-1.09ZM114.59,63.12c.73-1.11-2.55-4.09-2.93-3.67.05,2.22.37,3.74,2.93,3.67ZM232.42,59.45c-.33-.34-4.26.72-5.14.37v1.1c.18.19,4.97-.18,5.14-.37.04-.04.04-1.06,0-1.1ZM247.05,63.81c.22-.36.17-3.5-.29-3.83-.25-.18-3.92.07-4.06.21-.16.15.12,3.71,0,4.4.77-.25,4.1-.37,4.35-.78ZM177.73,60.19c-3.88.2-8.08.52-11.93,1.09-.37.06-1.62-.03-1.64.56-.02.73,1.08.33,1.39.31,3.06-.27,6.67-.82,9.74-1.27.58-.09,2.21-.16,2.44-.68ZM226.18,60.19l-5.14.37c.05.3-.07,1.02,0,1.1.18.19,4.29-.76,5.14-.37v-1.1ZM297.39,60.19c-.24-.25-6.7.12-6.95.38-.19.2.09,2.67-.02,3.29l7.34-.74c-.22-.49-.27-2.82-.37-2.93ZM211.5,60.56l-4.77.37c.05.3-.07,1.01,0,1.1.14.15,3.46-.49,3.98-.63.66-.17.95.1.79-.84ZM214.77,60.96c-.13-.2-1.75-.47-2.17-.4-1.16,1.2,3.34,2.3,2.17.4ZM238.66,60.56c-.19-.2-5.32.53-5.51.73-.07.08.05.8,0,1.1.72.09,5.31-.18,5.5-.37.05-.05.05-1.4,0-1.46ZM219.94,60.92c-1.02-.03-2.01-.04-3.03.11-.59.08-1.65.07-1.38.99h4.4s0-1.1,0-1.1ZM177.73,61.29c-.46-.47-11.33,1.64-12.97,1.53l-.61,1.41,13.58-1.47c-.06-.36.09-1.37,0-1.46ZM205.62,61.29l-4.77.37c.05.3-.07,1.02,0,1.1.19.19,5.96-.43,4.77-1.46ZM232.79,61.29c-1.04.37-6.16-.09-5.87,1.28.28,1.33,4.82-.12,5.87.19v-1.46ZM199.75,61.66c-1.08.49-3.29.22-4.16.73-.38.22-.34,1.01-.25,1.1.36.36,3.6-.63,4.41-.37v-1.46ZM211.49,62.02c-.66.21-6.63.71-5.13,2.2.34.34,6.36.27,5.13-2.2ZM226.18,62.02c-.18-.19-4.96.19-5.14.37-.05.05-.05,1.41,0,1.46.18.19,4.95-.19,5.13-.38.05-.05.06-1.4,0-1.46ZM189.84,64.22c.14.13,3.34-.28,3.84-.38,1.31-.26,1.34-1.35-.17-1.29-.67.03-2.61.12-3.07.26-.64.19-.81,1.22-.6,1.41ZM220.31,62.76c-.2-.2-4.58.21-4.75.39-.06.07-.07,1.39-.02,1.44.2.21,6.18-.39,4.77-1.83ZM205.62,63.13c-.28-.27-5.94.44-4.77,1.46,1.22-.17,3.06.28,4.16-.06.65-.2.81-1.21.61-1.41ZM266.56,63.12c-.23-.23-6.37.14-6.61.37-.14.13.09,2.39,0,2.93.84-.09,6.37-.13,6.61-.37.12-.12-.09-2.4,0-2.94ZM151.67,63.49l-36.7,4.78v3.3c4.89-.42,9.69-1.48,14.54-2.16,6.93-.97,14.32-1.52,21.16-2.71,1.76-.31.79-1.76,1-3.21ZM160.47,65.34c-.23-.32-6.66-1.57-7.7-1.85.13.69-.24,2.45.05,2.89.19.3,5.89,1.64,6.78,1.85.77.18.4-.1.5-.52.09-.38.44-2.27.37-2.37ZM179.19,63.49l-17.96,1.85-.02,2.92,17.62-1.84.37-2.93ZM199.75,63.86c-.78.15-4.5.42-4.74.77-.31.45.67,2.81.34,3.64.7-.24,4.25-.21,4.41-.37.15-.14-.11-3.39,0-4.04ZM194.56,68.21c.23-.36.16-3.14-.29-3.46-.18-.13-4.27.05-4.43.21-.13.13.1,3.06,0,3.67.87-.04,4.34.2,4.72-.42ZM295.55,64.59l-54.33,4.77v3.67s54.33-4.4,54.33-4.4v-4.04ZM362.72,65.69l-.61-1.06c-1.82.55-3.64.18-5.45.33-1.17.1-2.42.17-2.02,1.46l8.08-.73ZM352.45,65.33c-1.33.61-7.9.16-8.44.73-.07.08.05.8,0,1.1l8.45-.37v-1.46ZM99.91,74.5c-.24-.01-.49.02-.73,0-.37-2,.99-5-1.1-6.06-1.39-.71-7.36-2.22-9-2.38-1.2-.12-9.76.28-10.08.74.45,1.38-.2,6.85,1.36,7.27,5.04-.59,10.06-2.41,15.15-1.41,1.32,1.29-3.85,2.31-4.04,2.58.04.77.44,1.74,1.28,1.84.36.04,6.87-1.25,7.14-1.5.12-.11-.01-.78.02-1.08.61.03,1.23-.01,1.84,0-.69-3.88-1.41-4.23-1.84,0ZM342.91,67.53c.13-2.27-1.37-1.12-2.74-1.08-1.96.05-5.92-.94-5.34,1.82l8.08-.73ZM71.28,73.03c2.21,1.45,4.64,2.86,7.34,1.83l-.74-8.07c-5.09.73-10.14,2.09-15.22.72-1.54.27-3,5.73-3.87,7.17,0,.33,1.77.14,2.31.26.83.19,1.39,1.02,2.08,1.23,1.4.42,3.16.02,4.6.9l-1.28-1.47c1.9.37,2.74,1.87,4.77,1.1.17-.07.66.09.73,0,.75-.91-.79-.63-1.1-.73-.19-.06-.4-.29-.73-.37-.26-.54-.74-.84.19-.74,1.58.16,2.78,1.59,4.58,1.11.18-.95-.18-.65-.73-.9-1.65-.76-3.53-1.14-5.14-2.04.04-.54,1.83-.06,2.2,0-.06-.04-.32-.46-.59-.69-.3-.26-1.11-.32-1.2-.45-.2-.29-.22-1.34.5-1.05,1.05,1.13,2.56,1.4,3.86,2.03.53.26.92-.08.73.9-1.11-.4-2.15-.54-3.3-.73ZM333,66.79c-1.05.2-7.43.47-7.7.75-.05.05-.06,1.4,0,1.46.31.33,6.62-.78,7.71-.36v-1.84ZM178.84,77.06c-.34-.34,1.68-8.48.38-9.38-.41-.28-1.02-.14-1.49-.16.53,3.03.02,6.23.73,9.17-4.34-.66-7.81-1.73-12.31-1.48-12.56.69-25.89,2.8-38.53,3.68-.65.05-5.33-.16-5.32.19.65,3.06,1.42,2.86,4.24,2.76,13.77-.49,28.35-3.19,42.18-3.7,1.05-.04,2.25-.05,3.28.05,1.67.17,5.72,1.64,7,1.45,1.05-.15,1.19-1.58.95-2.39-.13-.44-.98-.06-1.12-.2ZM324.19,67.53c-1.18.51-7.44.09-7.71.37-.05.05-.05,1.41,0,1.46.45.47,6.55-.63,7.71-.37v-1.46ZM363.1,67.53l-8.44.37.73,9.18,8.08-.37-.37-9.18ZM176.99,75.24v-5.51c-4.83-.19-10.95,2.05-15.61,1.5-.78-.09-.65-1.01-1.62-1.34-.69-.24-1.52-.11-2.24-.33-.79-.25-5.22-1.94-5.49-1.67-.02,2.68.72,5.02,0,7.71l17.43-1.86,7.53,1.5ZM315.01,68.26c-1.78.51-5.29-.02-6.73.42-.71.22-.66.82-.61,1.41,1.79-.66,5.71.08,7.09-.73.5-.29.19-.66.25-1.1ZM352.82,68.26l-8.44.74.36,8.81,9.18-.37c-.48-.62-1.1-2.41-1.1-3.12v-6.06ZM199.71,68.67c-.17-.15-4.2.18-4.36.33-.13.13.08,2.06,0,2.57,2.43-.21,5.66.48,4.37-2.9ZM193.78,69.07c-1.39.06-5.77.45-4.15,2.88.26.38,4.37,0,4.63-.18.62-.43.64-2.76-.48-2.71ZM306.57,69l-7.71.37v1.46s7.71-.73,7.71-.73v-1.1ZM240.49,69.36c-.57.39-2.83.26-2.94.36-.13.13.1,3.06,0,3.67,3.73.33,2.96-1.03,2.94-4.04ZM237.19,73.4c-.14-.9.55-3.64-.88-3.65l-19.81,1.87c-1.01.32-.5,2.37-.6,3.26l21.29-1.47ZM297.76,69.73l-6.98.37c.06.36-.09,1.37,0,1.46.25.25,6-.85,6.98-.73v-1.1ZM211.86,70.47c-2.69,1.27-23.2,2.01-23.51,3.16-.2.75.18,2.2.02,3.08l23.49-2.2v-4.04ZM290.05,70.47c-2.47-.13-4.92.11-7.34.55.46.43.11.85.9.95,2.08.26,4.37-.28,6.44-.4v-1.1ZM280.32,71.2c-1.69.17-3.6-.13-5.32,0l.19,1.84,6.42-.74v-1.46c-.54-.21-1.03.34-1.29.37ZM214.71,71.66c-.15-.15-1.68-.52-1.74-.46.06,2.26-.82,3.89,2.2,3.67.18-.18-.15-2.91-.46-3.21ZM315.38,71.2l-7.71.37v4.41s7.71-.37,7.71-.37v-4.41ZM274.27,71.57c-.29-.31-4.78.26-5.68.38-.51.07-1.1-.34-.92.53.57,2.73,4.91.06,6.6.56-.06-.36.09-1.37,0-1.47ZM306.91,75.95c.15-.15.17-3.87-.32-4.23-.29-.21-7,.26-7.2.56-.5.71.02,3.41-.16,4.43,1.23-.46,7.2-.26,7.69-.75ZM266.92,73.4c.2-.2-.03-1.31-.58-1.43-1,.52-5.97.25-6.4.7-.07.08.05.8,0,1.1.86-.06,6.73-.12,6.97-.37ZM297.76,72.3l-6.98.37.05,4.35c.38.6,6.66-.08,6.9-.33.21-.21-.11-3.66.02-4.39ZM121.93,83.68c.36-.41-1.47-6.52-2.03-7.33-.3-.44-4.16-3.36-4.6-3.51-1.79-.63-3.42,2.53-2.92,4.34.27.98,4.97,2.24,5.13,2.47.26.37-1.32,3.4-.73,4.39l-3.3-1.1c.08.61-.15,1.42-.02,1.96.16.7,3.42.54,2.95,1.52-.4.85-5.28,1.4-6.8,2.01-1.8.73-2.99,1.98-4.45,2.89-2.28,1.41-5.04,2.01-6,4.83,1.82-.52,2.44,2.3,3.53,2.49.44.08,1.2-.33,2.06-.22,1.61.21,2.41,1.51,3.64,1.9,2.95.93,6.47.25,9.48.97-.65-4.97,3.01-3.06,6.24-3.3-.83,2.69.49,1.05,2.2.73.45.49-2.41,5.41-2.74,6.62-.45,1.61-1.49,5.22.91,5.49-.08-1.22.42-3.97,1.14-4.92.87-1.15,4.13-1.08,4.01-2.93-.05-.77-1.4-3.34-2-3.91-2.56-2.44-3.86-1.95-5.52-5.86-.41-.97-1.47-5.09-1.76-5.4-.28-.3-2.35-.77-2.44-.87-.18-.22-.27-1.28.5-1.05.42.12,3.39,1.61,3.5,1.46.26-1.98-.04-1.89-1.83-2.21l1.46-.54-1.84-1.1,2.2.18ZM253.34,74.5c1.1-.55,6.55.19,6.24-1.28-.28-1.31-5.14.25-6.24-.19v1.46ZM288.76,73.03c-1.8.1-3.69,0-5.51,0-1.1,0-.07,4.46,0,5.14l6.79-.74-.37-4.77c-.38-.14-.76.36-.92.37ZM252.24,73.4l-5.88.37v1.1c.2.21,5.67-.15,5.88-.37.07-.08-.05-.8,0-1.1ZM245.63,74.14h-5.32c-.22,0-.71.76-.55,1.1,1.72,0,3.34.15,5.02-.32.63-.17,1.02.27.85-.78ZM238.66,74.5c-.22-.23-6.13-.08-5.87,1.46l5.87-.37v-1.1ZM266.55,74.5l-6.61.37v4.41s6.61-.37,6.61-.37v-4.41ZM232.42,74.87c-.21-.21-5.03.64-5.87.55.34,1.16,2.46,1.41,3.49,1.32.57-.05,3.26-.98,2.38-1.87ZM259.58,75.23c-.22-.22-5.98.14-6.22.39-.2.21.1,3.33-.02,4.02.85-.2,6.02-.15,6.24-.37.15-.15-.11-3.38,0-4.04ZM225.81,75.61c-1.43.33-4.88-.94-5.14,1.1,1.49-.12,3.11-.18,4.59-.37.5-.06,1.17-.26.55-.73ZM251.88,75.6c-.19-.19-5.27.16-5.49.39-.2.21.1,3.33-.02,4.02.19.19,5.16-.05,5.47-.41.27-.32-.11-3.25.04-4ZM83.86,82.83c1.43-.07,8.69,2.58,9.07.66.08-.38-2.79-6.87-3.12-7.14-.62-.52-4.04-.11-5.05.08-.73.14-3.25.94-3.84,1.27-.87.48-2.29,2.96-3.4,3.6,2.86-.09,5.52-1.25,8.07-2.39-.02,1.33-2.05,1.23-2.52,2.45-.34.86.55.87.79,1.47ZM219.94,75.97h-4.77s0,1.1,0,1.1c1.31.09,2.61-.04,3.88-.36.61-.15,1.07.37.89-.74ZM239.76,80.38h5.32c1.13,0,.06-3.66.18-4.4-.72,0-5.3.17-5.5.36-.15.14.11,3.38,0,4.04ZM213.7,76.34h-4.77s0,1.1,0,1.1c.19.2,3.62-.27,4.22-.38.6-.11.63.24.55-.72ZM238.66,76.34l-5.51.37v4.41s5.51-.37,5.51-.37v-4.41ZM98.41,76.74c-.79-.41-5.44,1.08-5.68,1.4-.51.68.79,3.58,1.31,3.91.69.44,3.6-1.89,4.73-1.73l-.36-3.58ZM208.19,76.71c-1.53.29-5.04-.99-4.77,1.46,1.44-.68,4.62.42,4.77-1.46ZM308.03,80.01c.21.21,5.2,0,6.06,0,1.9,0,1.21-1.94,1.29-3.31-.26-.26-7.05.34-7.36.54-.49.31-.08,2.67.02,2.77ZM202.32,77.07c-1.02.02-2.06-.08-3.08.04-.38.04-2.02.19-1.69.87.62,1.27,3.61-.22,4.77.19v-1.1ZM197.18,77.44l-4.78.37c.05.3-.07,1.02,0,1.1.17.17,3.98-.73,4.77-.37v-1.1ZM220.67,81.48h5.14v-4.04c-1.73.04-3.48-.2-5.14.37.57,1.28-.06,2.34,0,3.67ZM306.93,77.44h-7.16c-.81,0-.14,2.84,0,3.31,1.09-.64,6.66-.27,7.15-.74.14-.13-.09-2.06,0-2.57ZM219.94,77.8c-.74.29-4.6.2-4.77.37-.14.14.11,3.39,0,4.04.74-.29,4.6-.2,4.77-.37.14-.14-.11-3.39,0-4.04ZM290.78,81.11h6.79c.76,0,.56-2.69.55-3.31l-7.34.37v2.94ZM290.05,78.17c-.24-.25-5.96.79-6.97.36v3.31s7.34-.74,7.34-.74c-.22-.49-.27-2.83-.37-2.93ZM213.7,78.54c-1.72.04-3.48-.23-5.13.38-.09.12.31,2.08.39,2.15.17.14,4.22-.18,4.37-.33.08-.08-.1-1.73.37-2.2ZM265.64,80.01c-1.77.04-3.55-.03-5.32,0v2.94h5.32c2.03,0,1.45-3.14.69-3.27-.31-.05-.58.33-.69.34ZM253.34,83.31h5.32c1.34,0,.89-2.02.92-2.94-.22-.22-5.98.14-6.22.39-.18.19.08,2.02-.02,2.55ZM246.37,83.68h5.32c.58,0,1.03-2.53-.05-2.88-.62-.2-4.99.07-5.25.33-.18.19.08,2.02-.02,2.55ZM178.09,81.11v8.44c-1.34-.03-4.69.11-5.72-.7s-.51-5.65-.15-7.01h-4.41s0,3.3,0,3.3l3.31.19c-.11,1.21-2.17.15-2.96.71-.53.37-.32,1.45-.35,2.04.14.14,5.16-.37,3.67.73l-48.08,2.57c-.13.11.87,2.78,1.31,2.89.26.07,1.22-.33,1.79-.34,9.35-.18,18.6-1.07,27.9-1.47,2.24-.1,15.63.32,16.35-.35.34-.31-1.29-2.93.36-2.57.1.5-.14,2.43,0,2.56.24.23,5.68.51,6.6.74l-.37,10.27c-.99-.25-3.65-.75-4.42-.21-.69.49-.38,2.78.21,2.78h5.69l.37-24.38-1.11-.22ZM245.64,81.11c-.86.24-5.68.15-5.88.37-.11.12-.58,2.89.51,2.92,1.51.03,3.71-.98,5.37-.71v-2.57ZM94.04,84.78c.44.48,3.52-2.36,3.66-3.12-.87-.05-4.52,2.18-3.66,3.12ZM167.08,81.84c-.69.5-3.54.23-3.67.36s.1,2.73,0,3.31c3.68.3,3.98.02,3.67-3.67ZM177.32,82.62c-.2-.23-3.67-.59-4.36-.77-.63,4.09.9,3.92,4.4,4.04-.13-.67.21-2.97-.04-3.27ZM238.66,81.84h-5.51v2.57c2.57-.34,6.26,1.38,5.51-2.57ZM162.68,82.21c-.69-.02-3.31-.07-3.62.42-.23.38-.16,2.76.3,3.1.13.1,3.2-.09,3.32-.21.13-.12-.09-2.73,0-3.31ZM220.67,85.15h5.14v-2.94c-2.91.24-5.88-1.3-5.14,2.94ZM158.64,82.58c-3.3-.21-4.06-.29-3.67,3.3.58-.09,3.19.13,3.31,0s.07-2.78.36-3.3ZM219.94,82.58c-.65-.04-4.6.21-4.77.37-.14.14.09,2.39,0,2.93l4.77-.36v-2.94ZM149.83,82.95c-.57.39-2.83.26-2.94.36-.12.11.09,2.4,0,2.94h2.94s0-3.3,0-3.3ZM153.14,82.94h-2.57s0,3.31,0,3.31c3,.41,2.67-.84,2.57-3.31ZM145.79,83.31c-.13-.13-3.52.26-3.65.39-.19.19.08,2.34-.02,2.92,3.25.11,4.14.23,3.67-3.31ZM77.87,85.17c-1.04-.54-1.96.06-3.04-.05-1.97-.21-7.18-1.75-8.58-1.17-2.37.97-1.11,2.27-1.24,3.55-.12,1.29-1.57,4.78-.91,5.74.1.14,2.7,1.58,3.05,1.73.52.21,1.31.04,1.93.27,1.03.39,4.93,2.36,5.79,1.96.1-.05.91-1.32,1.72-1.41,1.05-3.26.63-7.16,1.27-10.61ZM92.57,85.14c-.09-.08-1.72.4-2.38.4-2.2-.01-4.25-.64-6.61-.39-.92.09-3.75.89-4.36,1.43-.22.2-.97,3.4-.97,3.89,0,3.24,2.11,2.6,3.94,3.4.98.43,2.26,2.4,3.78,1.39.73-.49.84-4.61,1.91-5.61.56-.52,4.69-1.47,5-1.97.14-.23-.23-2.44-.33-2.53ZM237.19,85.51l-21.06,1.15c-1.06.35-.47,2.67-.6,3.62l21.66-1.1v-3.67ZM354.65,85.52c-1.09.24-8.15.06-8.45.37-.09.09.06,1.11,0,1.46,1.28-.56,8.15-.06,8.44-.37.09-.09-.06-1.11,0-1.46ZM162.68,86.25l-3.67.36v2.2s3.67-.36,3.67-.36v-2.2ZM167.45,86.25c-2.13.12-4.55-.89-4.04,2.2,2.13-.12,4.55.89,4.04-2.2ZM177.34,87c-.15-.16-3.72-.42-4.38-.75.07.43-.15,1.64.02,1.82.15.16,3.72.42,4.38.75-.07-.43.15-1.64-.02-1.82ZM335.93,88.08c.1-2.31-.38-1.47-1.28-1.47h-7.16c-.07,0-.07,1.47,0,1.47h8.44ZM345.11,86.25h-7.71c-.07,0-.05,1.41,0,1.47.4.42,6.57-.44,7.71-.37v-1.1ZM158.27,86.62c-.52.3-3.18.25-3.3.36-.1.1.06,1.43,0,1.84h3.31s0-2.2,0-2.2ZM214.8,86.61l-23.86,1.47v3.31c6.87-.62,14.07-1.8,20.92-1.1.06-.98-.33-2.2.55-2.93l.18,2.94h2.57c-.67-.67-.19-3.5-.37-3.67ZM325.47,86.98c-2.12.25-4.62-.18-6.79,0v1.1h7.71v-1.47c-.41-.14-.76.35-.92.37ZM149.83,86.98c-2,.71-3.43-.53-2.94,2.2h2.94s0-2.2,0-2.2ZM153.14,86.98h-2.57v2.21h2.57v-2.21ZM317.58,86.98c-.3-.32-6.78.79-7.89.36-.74,2.47,2.43,1.16,3.67,1.11.74-.03,4.07.15,4.22,0,.05-.05.05-1.41,0-1.46ZM145.8,87.35c-.66.12-3.45-.18-3.65.02-.08.08-.19,1.77-.39,2.18h4.04s0-2.2,0-2.2ZM298.67,88.08c-1.69.17-3.6-.13-5.32,0v1.1h6.61v-1.47c-.54-.21-1.03.34-1.28.37ZM308.77,87.72h-6.97c-.07,2.06.67,1.1,1.28,1.1h5.69v-1.1ZM355.02,92.12c.34-5.36-.39-3.88-4.22-3.67-1.4.07-2.82-.04-4.22,0-.17.5.18,3.67.37,3.67h8.08ZM283.26,88.82c-1.78.21-3.87-.15-5.69,0v1.1h6.61v-1.47c-.41-.14-.76.35-.92.37ZM292.25,88.45h-6.97v1.1h6.42c.24,0,.7-.79.55-1.1ZM337.77,92.49h7.71v-3.67c-.93.04-7.43.1-7.71.37-.13.13.1,2.72,0,3.31ZM276.47,89.18h-6.24v1.1h6.24v-1.1ZM268.76,89.55h-5.69c-.22,0-.71.76-.55,1.1,1.81-.07,3.67.23,5.44-.26.65-.18.95.12.79-.84ZM317.21,89.55c-2.43.45-4.88.4-7.34.37-.6,2.53,1.96,1.07,3.86,1.07,1.2,0,2.28.5,3.48.4v-1.84ZM248.94,91.02h5.51c-.06-.66.38-1.12-.55-1.12-1.07,0-3.27.25-4.41.38-.55.07-1.12.3-.54.74ZM261.78,89.92h-5.87v.73h5.87v-.73ZM301.79,91.75c.24.24,5.84,0,6.79,0,.6,0,.78-1.72-.36-1.86-1.9-.23-4.37.83-6.44.4.06.35-.09,1.37,0,1.47ZM247.83,90.29c-1.51.37-5.19-.98-5.5,1.1,1.6-.03,3.15.17,4.71-.26.65-.18.95.12.79-.84ZM300.33,90.28l-6.98.37v4.78s6.98-.37,6.98-.37v-4.78ZM285.64,95.42h6.97l-.37-4.77c-2.22-.15-4.36.63-6.61.37v4.41ZM277.2,95.79h6.97l-.19-4.78c-1.42.81-5.56-.08-6.44.53-.71.5-.19,3.29-.34,4.24ZM270.23,96.16h6.06c1.09,0-.18-3.93.18-4.77l-6.24.37v4.41ZM261.74,96.12c.18-.21.18-3.85-.31-4.21l-5.53.21v4.41c1-.04,5.35.16,5.83-.41ZM268.76,91.75h-5.69c-.81,0-.41,4.4-.18,4.4h6.24l-.37-4.4ZM247.83,92.49l-5.51.36.17,3.69,5.34-.02v-4.04ZM248.94,96.53h5.51v-4.04c-4.14.13-6.23-1.31-5.51,4.04ZM97.65,94.75c-.09-.15-2.5-1.15-2.87-1.89-.37.83-.72,1.95-1.16,2.7-.45.76-1.45,1.11-1.41,2.07,1.34-.37,4.14.92,5.16.21.46-.32.52-2.71.28-3.09ZM235.72,96.89h5.14v-4.04c-4.15.03-5.77-1.07-5.14,4.04ZM234.62,93.22h-4.41v4.04h4.41v-4.04ZM174.06,102.03v-7.34c-2.14,2.04-4.67.14-7.34,1.1.05.47.28,2.81.39,2.92.3.29,4.6-.33,4.76.21.24.85-.79.53-1.28.55-2.61.1-4.11-.94-3.86,2.57h7.34ZM166.35,95.79c-1.71.28-4.19-.93-4.43,1.28-.15,1.38-.06,1.87,1.29,2.04,3.19.41,3.39-.29,3.14-3.32ZM63.47,96.28c-.34-.15-1.54-.26-1.72-.1-.18.16-.91,4.56-.75,4.75,1.09,1.29.99-3.74,1.65-3.66.34.01,1.12,2.94,2.39,3.47,1.58.66,8.2-.52,6.99,3.64-.12.43-1.82.2-1.49,1.32,2.18-.61,3.23,1.11,4.68,1.75,1.02.45,2.12.56,3.12.92.6.21.88.94,1.57,1.02,1.7.19,3.85-3.53,6.41-1.85v-4.04s-10.82-.76-10.82-.76l-3.12.76c.27-1.03,1.84-.41,2.16-1.33.21-.62.19-3.62-.31-4-.32-.24-4.65-1.15-5.38-1.23-2.42-.27-3.2.32-5.38-.66ZM161.21,96.16h-3.67v2.94h3.67v-2.94ZM300.33,96.16c-.25-.21-5.49,0-6.42,0-.74,0-.3,3.17-.18,3.3.15.15,3.48-.02,4.21,0,.74.02,1.79.67,2.41.21.68-.33.12-3.4-.02-3.52ZM91.1,97.26c-.36-.37-1.9,1.23-2.48,1.38-1.75.45-7.86-1.85-10.3-2.04-3.17-.25-2.13,2.77-2.25,5.04l9.98.66c.79-.33,5.88-4.2,5.04-5.05ZM284.18,96.53h-6.06c-.76,0-.55,2.69-.55,3.3h6.61v-3.3ZM292.62,96.53h-6.97v3.31c.86-.07,6.73-.12,6.98-.37.13-.13-.09-2.4,0-2.94ZM269.13,96.89l-6.61.37c-.93,4.93,3.58,1.83,6.61,2.57v-2.94ZM276.83,96.89h-6.61v2.94c1.47.3,2.91-.29,4.24-.39,2.08-.14,2.56,1.43,2.37-2.55ZM255.18,100.56c-.37-.76-.2-2.41-.54-2.95-.38-.6-4.64.4-5.71.01v2.94h6.24ZM261.78,97.26c-.2-.21-5.04.16-5.87,0v2.94h5.69c.67,0,.29-2.82.18-2.94ZM248.2,100.56c-.05-.75.31-2.68-.58-2.89-2.49.99-6-1.2-5.29,2.89h5.87ZM241.23,100.93c.8-4.37-2.59-2.63-5.51-2.94v2.94h5.51ZM117.47,102.83c-.69-1.17-3.64-.47-4.48-.54-2.43-.2-5.85-1.24-8.14-1.36-1.18-.06-2.21.43-3.19.31-1.15-.14-1.71-1.05-2.68-1.39-1.34-.48-2.63-.24-3.94-.47-.74-.13-3.06-1.1-3.19-1-.09.07-.63,1.49-1.13,2.01-.78.82-2.21,1.59-3.09,2.38.12,1.79-.95,8.1-.03,9.19.67.79,10.19.21,12.13.35,2.18.16,4.61,1.26,6.31,1.4,1.63.14,4.25-.76,6.08-.21.97.29,4.19,3.82,5.54,4.31,1.25-.2,1.42-5.96,1.34-7.15-.14-1.94-.98-3.71-1.39-5.58-.15-.68.06-1.87-.15-2.23ZM234.99,98.36h-4.78c.04,1.78-.62,2.93,1.61,2.9,2.2-.02,3.7-.37,3.17-2.9ZM166.35,102.03c1.17-3.75-5.6-3.71-4.41,0h4.41ZM161.21,99.83h-3.67c-.98,3.69,4.63,3.73,3.67,0ZM68.31,105.37c-.15-.17-3.61-1.05-4.27-1.41-.99-.54-1.58-2.63-2.8-2.27-1.78.53-2.34,7.14-2.43,8.79h1.46c.1-2.29.14-5.13,1.66-6.97.42,1.35-1.08,4.65.44,5.43.76.4,6.33,1.15,6.72.8.01-.79-.56-1.23-.72-2.03-.12-.61.14-2.11-.05-2.34ZM214.44,102.03l-21.29.37v3.31s21.29,0,21.29,0v-3.67ZM128.18,106.8l43.13-1.1c1.33-.25,1.6-2.71-.35-2.95-4.29-.53-8.96.34-13.22.4-3.43.05-25.14-.52-26.26.17-.31.19-.6,1.02-1.12,1.45-1.03.85-2.54.62-2.18,2.04ZM339.6,105.33h-3.31c.07,4.92.06,9.96.37,14.86.05.72.29,3.6.41,3.99.32,1.02,2.41.5,3.26.6l-.73-19.46ZM304,105.7h-2.94s.73,17.26.73,17.26h2.57s-.37-17.26-.37-17.26ZM272.8,106.07h-3.31s.37,16.52.37,16.52c1.63-.2,3.05,1.33,3.32-.9.59-4.95-.64-10.62-.38-15.62ZM219.94,106.44h-1.84v14.32h1.84v-14.32ZM243.06,106.44v15.42h2.2c-.13-5.14-.78-10.28,0-15.42h-2.2ZM144.33,106.8h-1.84c.35,3.9-.83,8.09-.38,11.95.12,1,.45,1.7,1.49,1.08l.73-13.03ZM176.63,108.27h-6.97v13.58h6.61l.37-13.58ZM182.13,121.49v-7.16c0-.34-3.55-5.54-3.86-5.68-.16-.07-.91-.14-.91.18-.33,4.34-.46,8.67-.37,13.03l5.14-.37ZM129.93,123.25c.1-.18.42-3.51.46-4.13.18-2.97.93-9.17-2.95-9.74l1.1,6.6c-1.15,1.11-2.67-3.74-3.67-4.22-.6-.29-3.97-.34-4.43-.02-1.01.7.22,11.83,1.57,12.61.21.12,4.37.46,4.84.43.62-.04,2.87-1.15,3.09-1.53ZM241.96,111.58c.24-1.01.86-1.95-.56-2.21l-20.55.37.19,11.39,13.59.37-.37-8.81c-2.1.02-4.19.13-6.24-.36v7.52c0,.17-.45,1.13-.73.92v-8.44h-5.87v-.73h20.56ZM85.96,112.68c-1.72-.7-4.77,1.34-5.75,1.4-1.26.07-6.95-2.23-8.78-2.47-1.71-.23-3.7.05-5.47-.03-2.47-.12-4.58-.94-7.14.02.06,2.9-1.29,6.97-.37,9.69.64,1.9,4.18,1.27,4.7,2.09.67,1.05-.6,8.43-.31,8.76.87.01,1.57-.67,2.43-.72,2.87-.19,6.01.63,8.75.74,3.48.14,7-.13,10.48-.01-.32-2.41.31-4.84.38-7.14.09-3.05-.2-4.38.31-7.4.28-1.63.64-3.26.77-4.92ZM197.55,120.38h6.24c-.43-2.8.2-5.6,0-8.44-1.16-.02-2.33.05-3.49,0-.89-.04-2.22-.98-2.39.18-.36,2.51.33,5.63-.37,8.27ZM204.52,121.12c3.29-.56,2.27-.53,2.2-2.76-.07-2.34,1.1-7.27-2.2-6.42v9.18ZM217.37,112.31h-9.91v8.44h9.91v-8.44ZM235.36,112.68v8.26c0,.06-.63.92.18.92h6.42v-9.54s-6.61.37-6.61.37ZM95.5,131.76c.12-2.1-.16-4.33,0-6.42.15-1.86,2.07-8.63,1.79-9.48-.52-1.58-8.48-3.03-10.23-2.81-.18,1.06,1.17,1.73,1.39,2.46.82,2.79-1.88,4.56-1.33,6.45.15.49.94,1.04,1.24,1.71.42.93.66,2.16,1.11,2.93.44.75,5.41,5.89,6.03,5.16ZM99.31,118.42c-.4-.32-.55-1.23-1.23-1.34-1.36,4.13-1.15,8.54-1.47,12.85,2.77-2.3,5.67.29,8.34,1.73.52.28.42.76,1.17,1.03,2.93,1.06,6.44.09,9.52.49.44-.29,1.84-6.22,2.32-7.06.28-.49,1.01-.55,1.06-.84.17-1.03-1.28-3.83-.76-5.26-2.29.94-5.15-.31-7.52-.37-3.14-.08-8.68,1.01-11.43-1.23ZM130.51,124.54c.2-.23,1.14-.34.79-.84-1,.74-2.62.92-2.39,2.56.82-.27,1.1-1.16,1.59-1.72ZM59.16,145.7c-.88-3.32.23-6.75.37-10.08.11-2.69-.08-5.4-.01-8.09.02-.94.87-2.34-.23-2.68-3.03-.94-6.93-.08-10.04-.06l-.73,20.93c3.56-.46,7.17.96,10.64-.02ZM128.54,126.99l-9.91-.73-.74,20.56c1.54-.45,9.4,1.05,10.12.02l.53-19.85ZM59.9,145.71h7.71c.12-.81,1.61-5.04,2.08-5.15l36.46.2c1.34.65.51,4.32.73,5.69,1.42-.47,10.12.88,10.3-.24l-.39-11.15c-8.63-.42-17.26-.57-25.89-.75-2.19-.05-4.36.05-6.58,0-7.92-.18-15.8-.5-23.69-.72.1,4.05-.22,8.1-.73,12.11ZM137.72,140.21c-1.85-.04-3.72.21-5.5-.37-.45,3.01-2.43,5.64-3.55,8.46-2.53.33-5.24-.34-7.63-.4-4.1-.09-10.48-.46-14.35,0-.74.09-1.37.17-1.26,1.12l29.15.67c1.13-.26,2.6-8.07,3.15-9.48ZM47.05,146.45v-2.2c-2.44.96-5,1.67-7.43,2.66-.5.2-1.65.45-1.74,1.01,5.32.09,10.66-.1,15.98-.01,3.75.06,7.56.62,11.38.4.65-.04,1.2.06,1.63-.58l-19.82-1.28ZM149.83,149.38c0-3.67-2.39-2.35-4.95-2.57-1.58-.14-4.08-.73-5.55-.72-1.13.01-1.18,2.43-1.25,3.29h11.75ZM43.38,155.99v-6.06c0-.11.51-.52.37-.92-2.26-.07-4.54.08-6.8.01-.87-.03-2.8-.9-3.06.2-.05.2.38,2.09.35,2.92-.06,1.3-.51,2.53-.39,3.84,3.21-.28,6.32.03,9.55,0ZM44.48,149.02v6.61l19.21.02c.3-.07,2.05-5.01,2.09-5.7.03-.6.07-.61-.53-.53-6.9.91-13.83-1.07-20.76-.39ZM104.68,149.75v7.34h20.19c-.04-2.11.33-4.13-.02-6.22l-20.16-1.12ZM154.97,162.6v-7.71c-.72-.17-4.6-.2-4.77-.37-.14-.13.3-3.48-.61-3.69l-11.87-.35c-.62,2.71,1.8,2.18,3.57,2.86,1.35.52,7.34,3,8.02,3.73.96,1.04,1.07,5.32,1.27,5.53.15.16,3.7-.11,4.4,0ZM135.15,150.85h-9.18v5.87l9.18-.37v-5.51ZM154.6,153.78c-.16-2.27-1-3.01-3.3-2.93-.5,2.9,1,2.6,3.3,2.93ZM136.98,157.82c-10.93,1.04-21.83.58-32.81.34l-2.06,8.46h45.88c-2.63-2.45-9.82-5.36-11.01-8.81l12.84,8.44c-.54-1.68-.6-7.55-1.62-8.47l-10.67-4.75c-.22,1.86-1.19,2.94-.55,4.78ZM63.21,157.09h-30.65c-.35,0-5.14,3.17-6.05,3.49l-11.75,5.68c6.19-.72,12.33.06,18.55.02,7.81-.06,17.24-1.26,24.97-.4,1.34.15,1.5,1.48,2.19-.34l2.75-8.45ZM60.27,167.37c-2.78.07-5.48.41-8.28.38-8.6-.1-17.43-.61-26.03-.76-3.48-.06-8.89-.41-12.15,0-2.27.28-.91,2.54-.69,4.07l46.57.73.58-4.41ZM150.2,167.74c-6.13.57-12.37.42-18.55.38-7.29-.05-14.74.07-22.01-.02-1.18-.01-7.28-1.2-7.54-.12-.28,1.15.23,3.23.01,4.53,2.15.34,4.4-.33,6.41-.38,10.21-.3,20.31.02,30.46,0,3.75,0,7.51-.12,11.21.38-.51-1.64-.51-3.13,0-4.77Z" fill="#3e3b39"/>
  <path d="M70.91,75.97c.06.04-.06.3,0,.37-.19-.12-.5-.12-.73-.37.2.07.6-.08.73,0Z" fill="#3e3b39"/>
  <path d="M158.27,62.39c-.26-.09-.68-.36-.73-.37.31.09.65.35.73.37Z" fill="#3e3b39"/>
  <path d="M70.18,75.6c.05.11-.06.3,0,.37-.44-.16-1.19-.14-1.47-.55.24-.37,1.09.1,1.47.18Z" fill="#3e3b39"/>
  <path d="M71.28,76.7c-.41.06-.34-.34-.37-.37.09.06.42-.05.37.37Z" fill="#3e3b39"/>
  <path d="M200.12,122.22c.17.99-.18.63-.8.83-5.82,1.87-13.33,1.87-19.39,3.21l3.49.73c7.34,1.48,11.92-1.2,18.45-2.83,7.8-1.94,20.52-.32,28.88-.09,37.51,1.03,74.88,2.32,112.32,3.67,7.63.27,17.17-.42,24.51.82.39.07,1.46.09,1.39.63-2.26-.06-4.54.09-6.8.02-48.57-1.57-97.15-3.67-145.72-4.77-2.65-.06-5.64-.74-8.43-.38-.54.07-1.14.28-.54.73,6.77.39,13.61.11,20.39.35,41.79,1.53,83.73,3.53,125.5,5.17,4.9.19,9.8.15,14.7.35.45.02,1.37-.28,1.28.36-3.74.32-7.45.43-11.21.39-47.75-.56-95.75-4.2-143.52-5.51-2.51-.07-5.99-.78-8.45-.7-.39.01-1.92.51-2,1.05l165.54,6.79c-.97,1.12-2.52.99-3.87.93-39.51-1.63-79.07-3.46-118.53-5.17-12.96-.56-25.97-1.63-38.91-1.84-5.95-.1-10.3,1.16-15.8,1.48-5.41.32-11.25-1.38-16.7-1.1v-1.1s24.23-4.04,24.23-4.04Z" fill="#3e3b39"/>
  <path d="M97.89,147.18c.3.08.47.48.48.83.04,1.19-2.22,9.97-2.75,11.59-.14.44-.19.94-.72,1.11-.6.19-3.15.4-3.97.44-2.12.1-4-.38-5.88-.4-4.4-.05-10.75.6-14.82-.61-.64-.19-.95.13-.8-.84h24.04c.14,0,.54.51.92.37l2.57-11.38-23.49-.37c.12.42.36.7.3,1.19-.1.79-2.55,8.85-2.84,9.24-.25.34-1.05.29-1.13.22-.42-.36,3.12-9.14,3.19-10.54.08-.34.81-.83,1.03-.83h23.86Z" fill="#3e3b39"/>
  <path d="M368.96,33.03c.18,1.11-.27.59-.89.74-1.74.43-3.59.43-5.34.72-.16-1.09.24-.62.92-.72,1.77-.25,3.57-.35,5.31-.74Z" fill="#3e3b39"/>
  <path d="M186.17,113.78c-.02,1.03.04,2.08,0,3.12-.02.44.28,1.37-.36,1.28-.36-1.2-.54-2.61-.37-3.86.07-.5.27-1.15.73-.54Z" fill="#3e3b39"/>
  <path d="M74.22,120.75c-3.16-.37-6.77-1.04-9.18-3.3,2.59.93,5.44,1.49,8,2.46.47.18,1.08.22,1.18.83Z" fill="#3e3b39"/>
  <path d="M116.43,107.54c.2.25-1.19,2.7-1.13,3.38l-1.44,1.39c-.12-1.44.92-2.82,1.66-4.04.12-.21.34-1.42.91-.72Z" fill="#3e3b39"/>
  <path d="M116.32,92.59c.29.36,1.78,3.66,1.88,4.18.14.7-.46.69-.67.48-.09-.09-.59-1.72-1.11-2.38-.85-1.08-5.76-4.61-4.77-5.69.24-.27,1.17.4,1.44.58s3.09,2.66,3.23,2.82Z" fill="#3e3b39"/>
  <path d="M91.84,55.05l1.64-2.56c1.68.96-1,3.14-1.64,2.56Z" fill="#3e3b39"/>
  <path d="M97.71,48.81c.05,1-.91,1.61-1.83,1.46v-1.83s1.83.37,1.83.37Z" fill="#3e3b39"/>
  <path d="M110.92,125.16c.4.39-3.01,3.22-3.3,2.93-.23-.98,2.97-3.25,3.3-2.93Z" fill="#3e3b39"/>
  <path d="M58.07,133.05c-.06.77-.73,2.03-.37,3.12-1.52-.72-.39-2.75-.44-3.85-.03-.66-.44-4.37-.71-4.54-.58-.36-3.55.17-4.51-.07l-1.31,6.26v-7.16s.51-.55.55-.55h6.24s.55.51.55.55c0,2.01.15,4.27,0,6.24Z" fill="#3e3b39"/>
  <path d="M106.89,63.12c1.28.03,3.63,4.81,3.69,6.06.07,1.36-2.14,5.17-3.13,5.34-2.3.39.74-2.81.99-3.42,1-2.45-.8-4.29-1.4-6.51-.15-.54-.07-1.05-.16-1.48-.8-.02-.07,2.38-.54,2.95l-.93,1.09c-1.27-5.7-.53-10.8,1.65-16.15.99,2.6-.9,5.04-.95,7.53-.03,1.35.47,3.22.76,4.58Z" fill="#3e3b39"/>
  <path d="M126.71,142.22c-.05.66-.27,1.74-.37,2.57-.06.54-.28,1.14-.73.54l.73-16.52h-5.51c-.27.84.71,3.57-.73,3.3v-4.04s6.05,0,6.05,0c.04,0,.55.51.55.55,0,4.31.35,9.39,0,13.58Z" fill="#3e3b39"/>
  <path d="M218.1,51.75c.25.13-.21.62-.73.36-.25-.13.21-.62.73-.36Z" fill="#3e3b39"/>
  <path d="M66.14,75.24c.05.05-.02.24,0,.36-.56-.1-1.57-.2-1.46-.73.12-.06,1.41.32,1.46.37Z" fill="#3e3b39"/>
  <path d="M67.24,74.87c-.07-.72.72-.37,1.09.19l-1.09-.19Z" fill="#3e3b39"/>
  <path d="M75.13,73.78c.2.23.74.48.37.72-.18-.22-.74-.46-.37-.72Z" fill="#3e3b39"/>
  <path d="M68.53,72.3c.24.12.24.24,0,.37v-.37Z" fill="#3e3b39"/>
  <path d="M96.24,115.98c.35.38-2.12,4.03-2.57,4.48-1.16,1.19-2.77,1.62-1.22-.34.85-1.08,1.66-2.37,2.54-3.38.23-.26.91-1.14,1.25-.76Z" fill="#3e3b39"/>
  <path d="M128.54,122.96h-1.1c.73-2.69-.55-3.82-1.1-6.24,1.85-.25,2.45,6,2.2,6.24Z" fill="#3e3b39"/>
  <path d="M86.69,99.83c-.01.71-1.52.35-1.97.32-.94-.08-3.09-.19-3.53-1.05l5.5.73Z" fill="#3e3b39"/>
  <polygon points="84.86 100.57 84.4 101.22 80.09 99.83 84.86 100.57" fill="#3e3b39"/>
  <rect x="78.99" y="98.73" width="1.46" height=".36" fill="#3e3b39"/>
  <path d="M175.53,116.71c-.2.23-4.45.12-4.9.02-.85-.19-.24-7.33.1-7.56,1.68-.31,3.52-.33,5.13.24.36.52-.34,1.38-.34,1.62v5.69Z" fill="#3e3b39"/>
  <path d="M119.73,42.2c-.13.25-.62-.21-.36-.73.13-.25.62.21.36.73Z" fill="#3e3b39"/>
  <path d="M100.83,33.39c.24.12.24.24,0,.37v-.37Z" fill="#3e3b39"/>
</svg>